<!-- Generator: Adobe Illustrator 24.0.0, SVG Export Plug-In  -->
<svg version="1.1" xmlns="http://www.w3.org/2000/svg" xmlns:xlink="http://www.w3.org/1999/xlink" x="0px" y="0px" width="838.7px"
	 height="109.6px" viewBox="0 0 838.7 109.6" style="enable-background:new 0 0 838.7 109.6;" xml:space="preserve">
<style type="text/css">
	.st0{fill:#FFFFFF;}
	.st1{fill:#FFFF00;}
</style>
<defs>
</defs>
<g>
	<path class="st0" d="M26.9,72.5c0.3,4.5,0,11.4-0.8,20.8c-0.2,4.1-1.6,7.2-4.4,9.5c-2.7,2.2-6,3.2-9.9,2.8c-3.7-0.3-6.7-1.8-9-4.5
		c-2.3-2.7-3.2-6-2.7-10l6.4-73.1c0.3-4.1,1.8-7.2,4.4-9.5c2.6-2.2,5.9-3.2,10-2.8l22.8,2c10.4,1,18.4,4,24,9c6,5.4,9,12.9,9,22.4
		c0,1.4,0,2.8-0.1,4.3c-0.6,6.8-3.2,12.4-7.7,16.7c-4.1,4-9.4,6.7-15.8,8l16.6,21.1c2.1,2.7,3,5.4,2.7,8.2c-0.3,3.5-1.7,6.5-4.4,8.9
		c-2.7,2.5-5.9,3.5-9.7,3.2c-4.2-0.3-7.4-2.2-9.7-5.5L26.9,72.5z M41.6,32.1l-10.2-0.9L30,47.7l10.2,0.9c5.9,0.5,9.1-2,9.5-7.6
		C50.2,35.6,47.5,32.7,41.6,32.1z"/>
	<path class="st0" d="M136.2,69.6l-33.8,11.7c2.3,2.3,5.2,3.4,8.7,3.4c2,0,4.1-0.4,6.3-1.2c3-1,6.2-3.5,9.7-7.3
		c3.5-3.8,6.1-6.1,8-6.8c1-0.3,2.1-0.5,3.1-0.5c3,0,5.7,1.1,8,3.3c2.3,2.2,3.5,4.7,3.5,7.7c0,4.8-3,9.9-8.9,15.3
		c-5.3,5-11.1,8.5-17.5,10.7c-4.5,1.6-9,2.3-13.6,2.3c-8.1,0-15.3-2.4-21.7-7.3S77,89.4,74.1,81.1c-1.6-4.4-2.3-9-2.3-13.8
		c0-8,2-15.2,6.1-21.5c4.4-6.8,10.5-11.5,18.1-14.1c3.8-1.3,7.7-2,11.6-2c8,0,15.4,2.6,22.3,7.7c6.5,4.8,11,10.7,13.3,17.6
		c0.6,1.7,0.9,3.4,0.9,5C144.2,64.6,141.5,67.8,136.2,69.6z M103.3,52.5c-5,1.7-7.6,5.4-7.7,11l20.5-7c-2.3-3-5.3-4.6-8.7-4.6
		C106.1,51.8,104.7,52.1,103.3,52.5z"/>
	<path class="st0" d="M184.6,57.2l-2-0.5l-9,39c-0.8,3.3-2.3,5.9-4.6,7.9c-2.3,2-4.9,2.9-8,2.9c-1,0-2-0.1-3-0.3
		c-3-0.7-5.3-2.2-7-4.5c-1.7-2.3-2.6-5-2.6-8c0-1.2,0.1-2.4,0.4-3.7l9.1-39.2l-0.9-0.1c-6-1.4-9-5-9-10.7c0-1,0.1-2.1,0.4-3.1
		c0.6-2.7,1.9-4.8,4-6.5c2-1.6,4.4-2.4,7-2.4c1,0,1.9,0.1,2.7,0.3l0.9,0.3l1.8-7.8c0.8-3.2,2.3-5.8,4.5-7.8c2.2-2,4.8-3,7.9-3
		c1,0,2,0.1,3,0.4c3,0.7,5.4,2.2,7.1,4.4c1.7,2.3,2.5,5,2.5,8.1c0,1.2-0.1,2.4-0.4,3.7l-1.8,7.8l2.1,0.4c6.4,1.5,9.7,5.1,9.7,10.8
		c0,1-0.1,2-0.3,3.1c-1.4,5.9-5.1,8.9-11.1,8.9C187,57.6,185.9,57.5,184.6,57.2z"/>
	<path class="st0" d="M232.1,108.5c-10.9,0.5-20-3-27.4-10.4c-7.1-7.2-11-16.2-11.6-27c-0.5-10.6,2.4-20,8.9-28.1
		c6.7-8.4,15.4-13,26-13.6c10.7-0.5,19.8,3.1,27.3,10.8c7.2,7.3,11.1,16.3,11.7,26.9c0.5,10.9-2.3,20.2-8.6,28.1
		C251.8,103.4,243,107.9,232.1,108.5z M229.3,53.2c-3.6,0.2-6.3,1.8-8.3,5c-2,3.2-2.8,7-2.5,11.5c0.3,4.4,1.5,8,3.8,10.9
		c2.3,2.9,5.1,4.3,8.6,4.1c3.6-0.2,6.3-1.8,8.3-5c2-3.1,2.8-6.9,2.5-11.4c-0.3-4.4-1.5-8.1-3.7-11.1C235.7,54.4,232.8,53,229.3,53.2
		z"/>
	<path class="st0" d="M305.1,107.6c-2.7,0.6-5.7,0.9-9.1,0.9c-5.6,0-10.5-0.9-14.9-2.7c-5.9-2.3-8.9-6-8.9-10.8c0-2.5,0.7-4.9,2-7
		c1.6-2.6,3.8-4.2,6.7-4.8c1.1-0.3,2.3-0.4,3.4-0.4c1.7,0,4.1,0.4,7.1,1.3c3,0.9,5.3,1.3,7,1.3c1,0,1.9-0.1,2.9-0.4
		c2.8-0.6,4-1.6,3.7-3c-0.2-0.7-3.2-1.4-9.1-2.2c-7.4-0.9-13.1-2.3-17.1-4.2c-6.5-3-10.5-7.8-12-14.4c-0.5-2-0.8-4-0.8-5.9
		c0-7.8,3.3-14.2,10-19.2c6.1-4.5,13.2-6.8,21.3-6.8c5.5,0,10.2,1,14.1,2.9c5.2,2.4,7.8,6.1,7.8,11c0,3-1,5.7-3,8
		c-2,2.3-4.4,3.4-7.3,3.4c-1.3,0-3.5-0.3-6.5-0.9c-3-0.6-5.3-0.9-6.8-0.9c-2,0-3.5,0.3-4.4,1c-0.6,0.4-0.8,1-0.7,1.8
		c0.2,0.8,3.3,1.5,9.3,2.2c7.4,1,13.1,2.3,17.1,4.2c6.5,3.1,10.5,7.9,12,14.3c0.4,1.8,0.7,3.6,0.7,5.5c0,6.2-2.2,11.6-6.6,16.3
		C318.4,102.6,312.5,105.8,305.1,107.6z"/>
	<path class="st1" d="M440.4,18.7l-15.5,76.5c-1.4,6.8-5,10.7-10.8,11.7c-1,0.2-1.9,0.3-2.7,0.3c-4.5,0-8.3-2.5-11.4-7.6l-40.8-66.6
		c-1.6-2.6-2.3-5.3-2.3-8c0-3.5,1.4-6.5,4-9c2.7-2.5,5.8-3.8,9.3-3.8c4.3,0,7.9,2.1,11,6.4L406,61.2l9-48.5c2-7,6.2-10.4,12.5-10.4
		c3.1,0,5.9,0.9,8.4,2.7c2.5,1.8,4,4.4,4.6,7.6C440.9,14.7,440.9,16.7,440.4,18.7z"/>
	<path class="st1" d="M454.5,29.7c-3.7,0.3-7-1-9.9-3.7c-2.9-2.7-4.4-5.9-4.7-9.7c-0.2-3.6,1.1-6.8,3.7-9.7c2.7-2.9,5.8-4.4,9.5-4.6
		c3.7-0.3,6.9,0.9,9.9,3.5c2.9,2.6,4.5,5.7,4.6,9.3c0.2,3.8-1,7.2-3.5,10.1C461.5,27.9,458.4,29.5,454.5,29.7z M458.6,107.6
		c-3.7,0.3-6.9-0.8-9.3-3.3c-2.5-2.5-3.8-5.7-4-9.6l-2.6-50.1c-0.3-3.9,0.7-7.2,2.9-9.9c2.2-2.7,5.2-4.2,8.9-4.4
		c3.7-0.2,6.9,1,9.3,3.5c2.5,2.5,3.8,5.7,4,9.6l2.7,50.1c0.2,3.9-0.8,7.2-3.1,9.9S462.3,107.4,458.6,107.6z"/>
	<path class="st1" d="M508.3,107.6c-2.7,0.6-5.7,0.9-9.1,0.9c-5.6,0-10.5-0.9-14.9-2.7c-5.9-2.3-8.9-6-8.9-10.8c0-2.5,0.7-4.9,2-7
		c1.6-2.6,3.8-4.2,6.7-4.8c1.1-0.3,2.3-0.4,3.4-0.4c1.7,0,4.1,0.4,7.1,1.3c3,0.9,5.3,1.3,7,1.3c1,0,1.9-0.1,2.9-0.4
		c2.8-0.6,4-1.6,3.7-3c-0.2-0.7-3.2-1.4-9.1-2.2c-7.4-0.9-13.1-2.3-17.1-4.2c-6.5-3-10.5-7.8-12-14.4c-0.5-2-0.8-4-0.8-5.9
		c0-7.8,3.3-14.2,10-19.2c6.1-4.5,13.2-6.8,21.3-6.8c5.5,0,10.2,1,14.1,2.9c5.2,2.4,7.8,6.1,7.8,11c0,3-1,5.7-3,8
		c-2,2.3-4.4,3.4-7.3,3.4c-1.3,0-3.5-0.3-6.5-0.9c-3-0.6-5.3-0.9-6.8-0.9c-2,0-3.5,0.3-4.4,1c-0.6,0.4-0.8,1-0.7,1.8
		c0.2,0.8,3.3,1.5,9.3,2.2c7.4,1,13.1,2.3,17.1,4.2c6.5,3.1,10.5,7.9,12,14.3c0.4,1.8,0.7,3.6,0.7,5.5c0,6.2-2.2,11.6-6.6,16.3
		C521.6,102.6,515.7,105.8,508.3,107.6z"/>
	<path class="st1" d="M567.4,108.5c-10.6,0.5-19.1-1.8-25.5-7c-6.4-5.2-9.8-12.5-10.2-21.9l-1.8-33.9c-0.2-3.9,0.8-7.2,3.1-10
		s5.2-4.2,8.9-4.4c3.7-0.2,6.7,1,9.3,3.5c2.5,2.5,3.9,5.7,4,9.6l1.7,33.4c0.2,2.8,1.2,4.9,2.9,6.4c1.8,1.5,3.9,2.2,6.5,2.1
		c2.4-0.2,4.5-1.1,6.1-2.7c1.7-1.7,2.4-3.9,2.2-6.7l-1.7-33.4c-0.3-3.9,0.7-7.2,2.9-10c2.2-2.7,5.2-4.2,8.9-4.4
		c3.7-0.2,6.9,1,9.3,3.4c2.5,2.4,3.8,5.7,4,9.7l1.8,33.8c0.5,9.5-2.1,17.1-7.9,22.9C586.2,104.7,578,107.9,567.4,108.5z"/>
	<path class="st1" d="M668.3,101.2c-1.1,0.3-2.3,0.4-3.4,0.4c-3,0-5.5-1.1-7.7-3.4c-3.7,5.1-8.7,8.4-14.9,9.8
		c-2.5,0.6-5,0.9-7.6,0.9c-8.2,0-15.5-2.9-21.9-8.7s-10.7-13.4-13-22.9c-0.8-3.5-1.2-7-1.2-10.4c0-8.8,2.3-16.5,7-23.2
		c4.7-6.7,10.9-10.9,18.7-12.7c2.2-0.5,4.3-0.8,6.4-0.8c4.1,0,7.9,0.9,11.4,2.7c1.6-3.8,4.4-6.3,8.6-7.3c1.4-0.3,2.7-0.4,3.9-0.4
		c5.7,0,9.6,4.3,11.6,12.8l10.4,45.3c0.6,2.8,0.9,5.1,0.9,6.9C677.7,96.1,674.6,99.8,668.3,101.2z M624.1,66.3
		c0,1.7,0.2,3.5,0.5,5.4c0.9,3.7,2.4,6.8,4.7,9.3c2.3,2.4,4.9,3.7,7.8,3.7c3.4,0,6-1.3,7.8-4c1.7-2.3,2.6-5.3,2.6-8.9
		c0-1.7-0.2-3.4-0.7-5.2c-0.9-3.8-2.4-7-4.7-9.5c-2.3-2.5-4.8-3.7-7.7-3.7c-3.4,0-6,1.3-7.8,3.8C624.9,59.7,624.1,62.8,624.1,66.3z"
		/>
	<path class="st1" d="M686.7,107.6c-3.7-0.3-6.7-1.8-8.8-4.5s-3.1-6.1-2.8-10.1l5.6-80.1c0.3-3.9,1.7-7.1,4.2-9.5
		c2.5-2.4,5.7-3.5,9.4-3.3c3.7,0.3,6.7,1.8,8.8,4.5c2.1,2.7,3.1,6.1,2.8,10.1l-5.6,80.1c-0.3,3.9-1.7,7.1-4.2,9.5
		C693.6,106.7,690.4,107.8,686.7,107.6z"/>
	<path class="st1" d="M768.4,69.6l-33.8,11.7c2.3,2.3,5.2,3.4,8.7,3.4c2,0,4.1-0.4,6.3-1.2c3-1,6.2-3.5,9.7-7.3
		c3.5-3.8,6.1-6.1,8-6.8c1-0.3,2.1-0.5,3.1-0.5c3,0,5.7,1.1,8,3.3c2.3,2.2,3.5,4.7,3.5,7.7c0,4.8-3,9.9-8.9,15.3
		c-5.3,5-11.1,8.5-17.5,10.7c-4.5,1.6-9,2.3-13.6,2.3c-8.1,0-15.3-2.4-21.7-7.3s-11-11.5-13.9-19.8c-1.6-4.4-2.3-9-2.3-13.8
		c0-8,2-15.2,6.1-21.5c4.4-6.8,10.5-11.5,18.1-14.1c3.8-1.3,7.7-2,11.6-2c8,0,15.4,2.6,22.3,7.7c6.5,4.8,11,10.7,13.3,17.6
		c0.6,1.7,0.9,3.4,0.9,5C776.4,64.6,773.7,67.8,768.4,69.6z M735.5,52.5c-5,1.7-7.6,5.4-7.7,11l20.5-7c-2.3-3-5.3-4.6-8.7-4.6
		C738.2,51.8,736.9,52.1,735.5,52.5z"/>
	<path class="st1" d="M814.5,107.6c-2.7,0.6-5.7,0.9-9.1,0.9c-5.6,0-10.5-0.9-14.9-2.7c-5.9-2.3-8.9-6-8.9-10.8c0-2.5,0.7-4.9,2-7
		c1.6-2.6,3.8-4.2,6.7-4.8c1.1-0.3,2.3-0.4,3.4-0.4c1.7,0,4.1,0.4,7.1,1.3c3,0.9,5.3,1.3,7,1.3c1,0,1.9-0.1,2.9-0.4
		c2.8-0.6,4-1.6,3.7-3c-0.2-0.7-3.2-1.4-9.1-2.2c-7.4-0.9-13.1-2.3-17.1-4.2c-6.5-3-10.5-7.8-12-14.4c-0.5-2-0.8-4-0.8-5.9
		c0-7.8,3.3-14.2,10-19.2c6.1-4.5,13.2-6.8,21.3-6.8c5.5,0,10.2,1,14.1,2.9c5.2,2.4,7.8,6.1,7.8,11c0,3-1,5.7-3,8
		c-2,2.3-4.4,3.4-7.3,3.4c-1.3,0-3.5-0.3-6.5-0.9c-3-0.6-5.3-0.9-6.8-0.9c-2,0-3.5,0.3-4.4,1c-0.6,0.4-0.8,1-0.7,1.8
		c0.2,0.8,3.3,1.5,9.3,2.2c7.4,1,13.1,2.3,17.1,4.2c6.5,3.1,10.5,7.9,12,14.3c0.4,1.8,0.7,3.6,0.7,5.5c0,6.2-2.2,11.6-6.6,16.3
		C827.8,102.6,821.9,105.8,814.5,107.6z"/>
</g>
</svg>
