<!-- Generator: Adobe Illustrator 24.0.0, SVG Export Plug-In  -->
<svg version="1.1" xmlns="http://www.w3.org/2000/svg" xmlns:xlink="http://www.w3.org/1999/xlink" x="0px" y="0px" width="195.4px"
	 height="185.3px" viewBox="0 0 195.4 185.3" style="enable-background:new 0 0 195.4 185.3;" xml:space="preserve">
<style type="text/css">
	.st0{fill:#350919;}
	.st1{fill:#FCC5D5;}
	.st2{fill:#EFA0BC;}
	.st3{fill:#FFFFFF;}
</style>
<defs>
</defs>
<g>
	<path class="st0" d="M168,98.9c0,0,8,31.4,7.7,44.1c-0.3,12.7-0.3,16.4-4.1,16.7c-5.2,0.5-3.2-6.1-3.2-6.1s-1.4,1.9-2.6,1.2
		c-1.1-0.7,0.5-2.8,3.3-5.8c2.8-3,4.3-3.6,1.9-16.7c-2.4-13.1-9-27.6-8.4-30.9C163.3,98.2,168,98.9,168,98.9z"/>
	<g>
		<path class="st0" d="M63.4,112.9c0,0,4.1,64,2.1,65.9c-2.1,1.9-13.4,0.2-15.4,3.7c-2.1,3.5,17.3,3.3,19.8,1.2
			c2.5-2.2,0-70.8,0-70.8H63.4z"/>
		<path class="st0" d="M122,111.4c0,0-4.1,64-2.1,65.9c2.1,1.9,13.4,0.2,15.4,3.7c2.1,3.5-17.3,3.3-19.8,1.2c-2.5-2.2,0-70.8,0-70.8
			H122z"/>
	</g>
	<g>
		<path class="st1" d="M141.4,124.3c2,0.8,8.7,3.2,14.1-0.3c6.4-4.1,6.4-9,6.4-9s9.8,3.9,18.8-4.4c9-8.2,4.9-24.6,4.9-24.6
			s8.4-4.4,7.5-13.4c-1.6-14.6-16.4-15.4-16.4-15.4s4.6-11-3.6-18.8c-8.2-7.7-19-5.9-19-5.9s2.1-5.9-3.1-9.5
			c-5.1-3.6-9.2-1.4-9.2-1.4s0.9-11.7-9.8-15.7c-10.1-3.8-18.8,2.2-18.8,2.2s-6.4-6.9-15.7-5.7C88.1,3.8,83,8.4,83,8.4
			S76.8,2,67.1,4.8c-9.8,2.8-10.8,11.8-10.8,11.8S39.8,12,30.8,23.3c-9,11.3-4.6,20.8-4.6,20.8S11.3,42,6.7,56.2
			c-4.6,14.1,3.9,23.6,3.9,23.6S-1.5,91.9,3.6,105c5.1,13.1,17.5,10.3,17.5,10.3s1,11.2,13.1,12c12.1,0.8,17.2-3.6,17.2-3.6
			s10.5,8.7,20.8,7.7c10.3-1,14.1-5.1,14.1-5.1s9.8,5.6,19.3,5.2c9.5-0.3,17.2-6.8,17.2-6.8s3.1,5.3,9.5,4.6
			C138.8,128.8,141,124.1,141.4,124.3z"/>
		<g>
			<path class="st2" d="M195.3,72.4c-1.2-11.2-9.7-15.8-15.7-17.1c1-4.2,1.7-12.3-5-18.5c-6.2-5.8-13.8-6.7-17.7-6.7
				c0,0-0.1,0-0.1,0c0-2.8-0.9-6.4-4.5-8.9c-2.5-1.7-4.8-2.6-7.1-2.7c-0.5-2.2-1.2-3.6-1.6-4.2c-1.6-3.8-4.7-8.2-10.9-10.5
				c-2.5-0.9-5.1-1.4-7.7-1.4c-2.9,0-5.5,0.6-7.6,1.3c0,0,0,0-0.1,0c0,0-0.3,0.1-0.6,0.2c-0.1,0-0.2,0.1-0.3,0.1c0,0,0,0,0,0
				c-1.2,0.4-2.2,0.9-3,1.3C111.1,3.4,106.2,0,99.7,0c-0.9,0-1.7,0.1-2.6,0.2c-6.9,1-11.7,3.6-14,5.2c-2-1.5-5.9-3.7-11.1-3.7
				c-1.8,0-3.7,0.3-5.6,0.8c-7.9,2.3-10.8,8.1-11.9,11.4c-5.1-0.7-17.3-1.3-25,8.4c-5.2,6.5-6.4,12-6.5,15.8c0,0,0,0,0,0.1
				c0,0.7,0,1.5,0.2,2.4c-5,0.6-15,3.2-18.8,14.8C0.7,67.2,5,75.9,7.5,79.5C7.2,79.8,7,80,7,80.1c-0.2,0.3-0.3,0.6-0.4,0.9
				c-3.5,4.6-9.3,14.3-5.1,24.9c3.7,9.5,11.1,10.9,15.2,10.9c1,0,2-0.1,2.8-0.2c1.2,5.3,5.2,12.5,14.6,13.1c1,0.1,2,0.1,2.9,0.1
				c7.4,0,12.1-1.9,14.3-3.2c3.1,2.2,10.9,7.3,19.2,7.3c0.7,0,1.3,0,1.9-0.1c6.2-0.6,10.3-2.3,12.7-3.8c0.6-0.2,1.1-0.5,1.6-0.9
				c3.1,1.5,10.5,4.7,18,4.7c0.3,0,0.6,0,0.9,0c7.4-0.3,13.6-3.8,16.7-5.9c0.3,0.3,0.5,0.5,0.8,0.8c0.1,0,0.1,0.1,0.2,0.1
				c1.7,1.5,4.3,2.9,7.8,2.9c0,0,0,0,0,0c0.4,0,0.9,0,1.3-0.1c5.1-0.5,8-3.2,9.4-4.7c1.7,0.6,4.1,1.2,6.8,1.2c3,0,5.6-0.7,7.9-2.2
				c4.3-2.7,6.1-5.9,6.9-8.1c1.1,0.2,2.4,0.4,3.9,0.4c3.8,0,9.3-1,14.7-5.9c8.2-7.5,6.7-20.6,5.9-25.2
				C190.9,85.2,196.2,80.4,195.3,72.4z M185,83.7c-1.2-0.4-2.7-0.8-4.6-1.3c-3.6-0.9-7,0-9.2,2.4c-2,2.2-2.5,5.2-1.5,8
				c1.2,3.4,4.1,4.4,6.7,4.4c1.3,0,2.6-0.3,3.5-0.6c1.1-0.4,1.7-1.6,1.3-2.7c-0.4-1.1-1.6-1.7-2.7-1.3c-0.2,0.1-3.9,1.3-4.9-1.3
				c-0.5-1.4-0.2-2.8,0.7-3.8c1.1-1.2,3-1.7,5.1-1.1c1.7,0.4,3,0.8,4.2,1.1c0.7,3.5,2.2,15.2-4.4,21.3c-3.4,3.1-7.3,4.7-11.5,4.7
				c-2.3,0-4.1-0.5-4.6-0.7l-4.2-8c-0.6-1.1-2-1.6-3.1-1c-1.1,0.6-1.6,2-1,3.1l4.7,9c-0.4,1.4-1.6,3.8-5.1,6c-1.5,1-3.3,1.5-5.4,1.5
				c-2.9,0-5.5-1-6.5-1.4l-0.5-0.2h-0.5c-1.2,0-1.8,0.7-2.3,1.3c-1,1.1-2.9,3.4-7,3.8c-0.3,0-0.6,0-0.9,0c0,0,0,0,0,0
				c-3.3,0-5.3-2-6-3c-0.8-1.2-1.2-2.9-1.1-4.4c0.1-1,0.4-2.4,1.7-3.2c3-1.7,4.4-0.3,4.8,0.2c0.7,1,2.1,1.3,3.2,0.6
				c1.1-0.7,1.3-2.2,0.6-3.2c-1.3-2-5.3-4.8-10.9-1.6c-2.4,1.4-3.8,3.8-4,6.8c-0.1,1.5,0.1,3.1,0.6,4.5c-2.4,1.7-8.1,5.1-14.5,5.3
				c-6.2,0.2-12.6-2.3-15.9-3.8c0,0,0,0,0,0c1.3-3.3,1-7.4-0.9-11.7c-2.9-6.6-10-6.3-13.4-5.3c-1.2,0.4-1.9,1.7-1.5,2.9
				c0.4,1.2,1.7,1.9,2.9,1.5c0.2-0.1,5.8-1.7,7.8,2.8c1.4,3.1,1.7,6,0.9,8c-0.1,0.3-0.2,0.5-0.4,0.7l-0.4,0.4c0,0-3.6,3.5-12.7,4.4
				c-0.5,0-1,0.1-1.5,0.1c-7,0-13.9-4.5-16.5-6.4l0.6-7c0.1-1.3-0.8-2.4-2.1-2.5c-1.3-0.1-2.4,0.8-2.5,2.1l-0.6,7
				c-1.4,0.8-5.3,2.8-12.4,2.8c-0.9,0-1.8,0-2.7-0.1c-9.6-0.6-10.6-10.4-10.7-11.3c0-0.4,0.3-3.4,3.4-5.1c2-1.1,3.1-0.8,3.1-0.8
				c-0.1,0-0.2-0.1-0.2-0.1l1.8-4.3c-0.4-0.2-2.9-1-6.9,1.1c-3.9,2-5.2,5.3-5.6,7.3c-0.7,0.1-1.6,0.2-2.6,0.2c-5.1,0-8.8-2.7-10.9-8
				c-4.3-11,5.4-21.6,6.3-22.6c1.5-1.2,4.1-2.7,7.6-2.6c5.1,0.1,6.6,4.2,6.7,4.4c0.3,1,1.2,1.6,2.2,1.6c0.2,0,0.5,0,0.7-0.1
				c1.2-0.4,1.9-1.7,1.5-2.9c-0.1-0.3-2.6-7.4-11-7.6c-3.6-0.1-6.5,1.1-8.7,2.3c-1.9-3.1-5.3-10.3-2.2-19.7
				c3.2-9.9,12.2-11.5,15.8-11.7c1.5,2.9,4.1,5.6,8.7,6.2c0.6,0.1,1.2,0.1,1.8,0.1c6.1,0,9.9-4.7,11.1-7.4c0.5-1.2,0-2.5-1.1-3.1
				c-1.2-0.5-2.5,0-3.1,1.1c-0.1,0.2-2.6,5.4-8.1,4.6c-2.4-0.3-3.8-1.6-4.7-3l-1-2c0,0-0.1-0.2-0.1-0.3c-0.5-1.6-0.5-3-0.5-3.1
				c0-0.1,0-0.1,0-0.2c0-2.9,1-7.4,5.5-12.9c6.9-8.6,18.5-7.2,21.7-6.6l3.3,7.3c0.4,0.9,1.2,1.4,2.1,1.4c0.3,0,0.6-0.1,0.9-0.2
				c1.2-0.5,1.7-1.9,1.2-3.1l-3.5-7.9c0-0.1-0.1-0.1-0.1-0.1c0.5-2,2.4-7.1,9-9.1c1.4-0.4,2.9-0.6,4.3-0.6c5.7,0,9.3,3.6,9.3,3.6
				l0.5,0.5c0.9,1.3,2.1,3.8,0.9,6.3c-1.6,3.4-4.5,3.3-4.9,3.3c-1.3-0.1-2.4,0.8-2.5,2.1c-0.1,1.3,0.8,2.4,2.1,2.5c0,0,0.2,0,0.5,0
				c1.6,0,6.3-0.5,8.9-5.9c1.9-3.9,0.7-7.6-0.6-9.9c2.1-1.3,5.9-3.3,11.5-4.1c0.7-0.1,1.3-0.1,2-0.1c4.6,0,8.3,2.3,10.2,3.8
				c-1.1,1.3-2,2.9-2.4,4.8c-1.5,7,3.7,10.7,6.5,11.4c0.2,0,0.4,0.1,0.6,0.1c1,0,2-0.7,2.2-1.8c0.3-1.2-0.4-2.5-1.7-2.8
				c0,0-4.1-1.3-3.1-5.9c0.9-3.9,5.6-5.8,6.5-6.1c1.8-0.6,4-1.1,6.5-1.1c2.1,0,4.2,0.4,6.1,1.1c4.6,1.7,7,5,8.2,7.9
				c0,0.1,0,0.1,0.1,0.2c1.1,2.7,1.2,5,1.3,5.2l0,3.9c-0.8,3.3-2.5,3.3-3.3,3.3c-1.4,0-2.6-0.9-2.6-0.9c-1-0.8-2.5-0.6-3.2,0.4
				c-0.8,1-0.6,2.5,0.4,3.2c0.2,0.2,2.4,1.8,5.5,1.8c2.1,0,7.1-0.8,8.1-8.7c0.1-0.5,0.1-0.9,0.1-1.3c0.9,0.1,2.3,0.5,4.1,1.8
				c3.5,2.5,2.4,6.4,2.2,6.9l-1.3,3.7l3.8-0.6c0,0,1-0.2,2.5-0.2c3.3,0,9.5,0.7,14.6,5.5c6.1,5.7,3.9,13.6,3.2,15.7
				c-0.2,0.5-3.5,7.1-8,7.3c-1.2,0-2-0.1-2.4-0.5c-0.3-0.4-0.3-1.2-0.2-1.5c0.3-1.2-0.5-2.5-1.7-2.8c-1.2-0.3-2.5,0.5-2.8,1.7
				c-0.1,0.3-0.7,3.3,1.2,5.6c1.2,1.5,3.1,2.2,5.6,2.2c0.2,0,0.4,0,0.6,0c5.5-0.3,9.2-5.2,10.9-8.1c3.3,0.6,11.8,3,12.9,13.2
				C191.4,79.1,186.5,82.7,185,83.7z"/>
			<path class="st2" d="M146.2,58.2c0.7-2.9,0.7-7.3-3.1-11.9c-7.5-9-18.8-7-25.8-3.8c-0.9-4.4-3.8-9.9-11-12.3
				c-8.5-2.9-15,2.8-18,6.3c-2.5-2.4-7.5-5.8-15.6-5.6c-5.4,0.1-10.6,4.2-12.5,9.9c-1.8,5.3-0.3,10.6,4,14
				c7.8,6.2,15.7,2.4,18.8-0.5c0.9-0.9,1-2.3,0.1-3.3c-0.9-0.9-2.3-1-3.3-0.1c-0.6,0.6-6.2,5.4-12.7,0.2c-3.9-3.1-3-7.2-2.4-8.9
				c1.3-3.9,4.8-6.7,8.2-6.8c9.6-0.2,13.4,5.6,13.6,5.9c0.4,0.7,1.1,1.1,1.9,1.1c0.8,0,1.5-0.4,2-1.1c0.1-0.1,6.3-9.6,14.5-6.8
				c8.5,2.9,8.2,11.1,8.2,11.5c-0.1,0.9,0.4,1.7,1.1,2.1c0.7,0.4,1.7,0.4,2.4,0c0.6-0.4,14.6-8.9,23,1.1c2.1,2.5,2.8,5.2,2.2,7.9
				c-0.7,2.9-2.9,5.4-4.6,6.1c-3,1.4-6.8-0.6-6.8-0.7c-1.1-0.6-2.5-0.2-3.1,0.9c-0.6,1.1-0.2,2.5,0.9,3.1c0.2,0.1,2.6,1.4,5.7,1.7
				c1.7,0.1,3.5,0,5.3-0.8C141.7,66.3,145.1,62.9,146.2,58.2z"/>
			<path class="st2" d="M47.1,85.4c0.4-2.2,0.1-4.2-0.5-5.9c0,0,0,0,0,0c1.3,0,2.6-0.2,4-0.7c3.3-1.1,5.7-3.8,6.7-7.6
				c1.2-4.5,0.2-9.6-2.5-12.9c-4.3-5-10.9-3.8-13.8-2.4c-1.2,0.5-1.6,1.9-1.1,3.1c0.5,1.2,1.9,1.6,3.1,1.1c0.1,0,5.2-2.4,8.3,1.2
				c1.8,2.1,2.4,5.6,1.6,8.6c-0.4,1.6-1.4,3.6-3.8,4.4c-2.6,0.9-5.2,0.1-7-0.8c-1.2-0.9-2.2-1.5-2.7-1.8c-0.1-0.1-0.2-0.2-0.2-0.2
				c-0.9-0.9-2.4-0.9-3.3,0c-0.9,0.9-0.9,2.4,0,3.3c0,0,0.3,0.3,0.7,0.6c0,0,0,0,0,0c0.6,0.5,1.6,1.2,2.9,1.9
				c1.8,1.5,3.7,3.9,3.1,7.1c-0.9,5.1-4.7,5.3-5.1,5.3c-1.3,0-2.3,1-2.3,2.3c0,1.3,1,2.3,2.3,2.3C40.2,94.6,45.8,92.7,47.1,85.4z"/>
			<path class="st2" d="M56.5,94.9c-8.9,0.3-12.1,8.1-12.2,8.5c-0.5,1.2,0.1,2.5,1.3,3c1.2,0.5,2.5-0.1,3-1.3c0-0.1,2.1-5.3,8-5.5
				c5.1-0.2,5.6,5.5,5.7,6.2c0.1,1.2,1.1,2.2,2.3,2.2c0,0,0.1,0,0.1,0c1.3-0.1,2.2-1.2,2.2-2.4C66.7,101.7,64.2,94.7,56.5,94.9z"/>
			<path class="st2" d="M158.6,76.3c-3.7-3.1-9.3-2.2-9.6-2.2c-1.1,0.2-1.9,1.3-1.7,2.4c0.2,1.1,1.3,1.9,2.4,1.7
				c0,0,3.9-0.6,6.1,1.2c1.1,0.9,1.6,2.3,1.6,4.2c0,2.2-0.6,3.8-1.7,4.9c-1.9,1.7-4.8,1.5-4.9,1.5c-0.7-0.1-1.3,0.2-1.8,0.7
				c-0.4,0.5-0.6,1.2-0.4,1.9c0.2,0.9,0.6,3.6-0.5,5.2c-0.5,0.7-1.3,1.1-2.5,1.2c-1.6,0.1-2.9-0.2-3.6-0.9c-1.1-1.1-1.3-3.1-1.2-3.8
				c0.1-1.2-0.8-2.2-1.9-2.3c-1.2-0.1-2.2,0.8-2.3,1.9c0,0.4-0.3,4.4,2.4,7.1c1.5,1.5,3.5,2.2,5.9,2.2c0.3,0,0.7,0,1,0
				c3.1-0.2,4.7-1.7,5.6-2.9c1.4-1.9,1.6-4.4,1.5-6.2c1.6-0.2,3.7-0.9,5.5-2.5c2.1-1.9,3.1-4.6,3.1-8
				C161.7,80.5,160.7,78,158.6,76.3z"/>
		</g>
	</g>
	<g>
		<g>
			<path class="st0" d="M74.9,76.8c0,3.7-3,6.7-6.7,6.7c-3.7,0-6.7-3-6.7-6.7c0-3.7,3-6.7,6.7-6.7C71.9,70.1,74.9,73.1,74.9,76.8z"
				/>
			<path class="st3" d="M66.9,74.7c0,1.2-1,2.1-2.1,2.1c-1.2,0-2.1-1-2.1-2.1c0-1.2,1-2.1,2.1-2.1C66,72.5,66.9,73.5,66.9,74.7z"/>
		</g>
		<g>
			<path class="st0" d="M143.3,76.8c0,3.7-3,6.7-6.7,6.7c-3.7,0-6.7-3-6.7-6.7c0-3.7,3-6.7,6.7-6.7
				C140.3,70.1,143.3,73.1,143.3,76.8z"/>
			<path class="st3" d="M135.3,74.7c0,1.2-1,2.1-2.1,2.1c-1.2,0-2.1-1-2.1-2.1c0-1.2,1-2.1,2.1-2.1
				C134.4,72.5,135.3,73.5,135.3,74.7z"/>
		</g>
		<path class="st3" d="M84.6,94.4c0,0,3.8,13.7,16.3,13.9c12.5,0.2,16.9-13.9,16.9-13.9H84.6z"/>
	</g>
	<path class="st0" d="M35.3,128.7c-7.6,2.6-16.3,5.2-17.4,4.4c-1.9-1.5-2.5-6.5-2.9-13.3c-0.8-13.8,0.6-17.3,2.1-23.6
		c1.4-6.2,4.2-12.2-3.3-11.1c-7.5,1.1-2.5,45.6,0,51.5c1.6,3.8,16.4-0.3,26.3-3.6C38.5,131.9,36.9,130.4,35.3,128.7z"/>
</g>
</svg>
