<!-- Generator: Adobe Illustrator 24.0.0, SVG Export Plug-In  -->
<svg version="1.1" xmlns="http://www.w3.org/2000/svg" xmlns:xlink="http://www.w3.org/1999/xlink" x="0px" y="0px" width="690.2px"
	 height="921.2px" viewBox="0 0 690.2 921.2" style="enable-background:new 0 0 690.2 921.2;" xml:space="preserve">
<style type="text/css">
	.st0{fill:#F6F6F6;}
	.st1{fill:#292949;}
	.st2{opacity:0.2;fill:#BABBBE;}
	.st3{fill:#353A84;}
	.st4{opacity:0.5;fill:#D0E6F4;}
	.st5{opacity:0.22;}
	.st6{fill:#FFFFFF;}
	.st7{opacity:0.31;fill:#FFFFFF;}
	.st8{fill:#DCD9E7;}
	.st9{fill:#CAEDF5;}
	.st10{fill:#49385B;}
	.st11{fill:#963427;}
	.st12{fill:#2A2135;}
	.st13{fill:#5B1711;}
</style>
<defs>
</defs>
<g>
	<g>
		<g>
			<g>
				<g>
					<g>
						<polygon class="st0" points="538.6,374.5 505.2,428 315.7,308.6 349.1,255.1 						"/>
						<path class="st1" d="M603.9,452l-0.4,0.6c-10.5,16.9-29.3,24.2-42,16.2l-145.5-89.3l38.2-64.3l145.8,91.9
							C612.7,415,614.5,435.1,603.9,452z"/>
					</g>
					<polygon class="st2" points="329,316.6 338.2,323.3 421.2,301.7 352,257.5 					"/>
				</g>
				<g>
					<path class="st3" d="M290.4,28.8C201.5-26.7,84.4,0.4,28.8,89.3c-55.5,88.9-28.4,206,60.5,261.6c88.9,55.5,206,28.4,261.6-60.5
						C406.4,201.5,379.3,84.4,290.4,28.8z M328.4,276.3c-47.8,76.5-148.5,99.8-225,52c-76.5-47.8-99.8-148.5-52-225
						c47.8-76.5,148.5-99.8,225-52C352.9,99.1,376.2,199.8,328.4,276.3z"/>
					
						<ellipse transform="matrix(0.7071 -0.7071 0.7071 0.7071 -78.6432 189.8615)" class="st4" cx="189.9" cy="189.9" rx="163.3" ry="163.3"/>
				</g>
			</g>
			<g>
				<g class="st5">
					<path class="st6" d="M72.2,183.3c-0.8-52.1,33-99.2,83.3-113.6c50.1-14.4,104.7,7.7,131.1,52.7c7.4,12.7,27.6,2.1,20.2-10.6
						c-30.3-51.8-90.5-78.6-149.2-66.1c-57.8,12.3-100.5,62-107.4,120.1c-0.7,5.6-0.8,11.3-0.8,16.9C49.6,197.3,72.4,198,72.2,183.3
						L72.2,183.3z"/>
				</g>
				<ellipse transform="matrix(0.9914 -0.131 0.131 0.9914 -17.9227 42.3205)" class="st7" cx="312.7" cy="157.4" rx="15" ry="15"/>
			</g>
		</g>
		<path class="st3" d="M418,377.4l36.4-61.2c1.2-2.1,0.7-4.8-1.3-6.3l-0.6-0.5c-2.3-1.7-5.5-1-7,1.4l-35.8,61.6
			c-1.3,2.3-0.5,5.3,1.8,6.6l0.1,0C413.8,380.4,416.7,379.7,418,377.4z"/>
		<g>
			<path class="st8" d="M349.2,191c-0.1,39.3-14.4,77.3-40.3,106.8c-25.6,29.1-61.2,47.9-99.5,53.4c-39.2,5.6-79.6-4.4-112.3-26.3
				c-31.9-21.4-55.1-54.4-65.3-91.3c-10.6-38.3-6.2-80,11.6-115.4C60.4,84.1,90,56.6,125.2,41.9c36.8-15.4,78.5-16.3,116.1-3.3
				c36.2,12.5,66.9,38.6,86.2,71.6C341.8,134.6,349.1,162.7,349.2,191c0,5.6,8.7,5.6,8.7,0c-0.1-39.3-13.7-77.2-38.4-107.7
				c-24.1-29.8-58.7-50.7-96.1-58.8c-38.8-8.4-79.9-2.5-115,15.8c-33.8,17.6-61,47.1-76.5,81.8C15.7,158.5,13,200,23.9,238.2
				c10.5,36.9,33.9,69.2,65,91.6c31.9,23,71.8,33.8,110.9,31.1c38.8-2.7,75.7-19.1,104.2-45.5c34.4-31.9,53.8-77.6,54-124.4
				C357.9,185.4,349.2,185.4,349.2,191z"/>
		</g>
	</g>
	<path class="st9" d="M581.4,487.8c6.1-16.1,15-48,20.1-63.4c-11.2-37.7-34.2-100.6-36.6-101.3c-14-4-26.4-7.7-40.3-11.8
		c-0.6-0.2-4.7,20.6-5.4,20.5c-0.5-0.1-0.7-4.3-0.9-9.1c0,0,0,0,0,0l-2.7-27.1c-0.1-2.3-1.6-4.2-3.8-4.8c-8.2-2.1-25.8-6.3-26.5-5
		c-0.3,0.5-1.8,24-3.1,30.7l-2.9-1.5l-3.8-43.9c0,0-30.5-7.7-31.1-6.3c-0.7,1.7-7.5,38.9-7.5,38.9s-11.8,88.8-13.1,95.1
		c-2,9.2-8.1,17.5-7.2,26.7c1,10.3,5.5,19.8,10,29.2c10.8,22.6,21.5,45.3,32.3,67.9c2.3,15.4,4.8,50.5,8.3,65.7
		c39.8-8,79.7-14.1,124-28.2C592.2,559.9,578.8,494.8,581.4,487.8z"/>
	<g>
		<polygon class="st10" points="456.1,646.2 446.9,565.5 605.9,506.7 633.5,605.1 456.7,657.9 		"/>
		<polygon class="st10" points="473.9,728 464.7,647.3 623.6,588.4 651.3,686.8 474.4,739.6 		"/>
		<polygon class="st10" points="491,815.6 481.8,734.8 640.8,676 668.4,774.4 491.6,827.2 		"/>
		<polygon class="st11" points="437.6,590.9 628.1,521.1 616.8,485.7 432,554.3 		"/>
		<polygon class="st11" points="501.2,820.3 513.4,921.2 690.2,852.2 656.9,761.7 		"/>
		<polygon class="st12" points="628.1,606.7 465.6,655.2 466.6,664 631.1,614.8 		"/>
		<polygon class="st12" points="644.3,689.2 481.8,737.7 482.8,746.6 647.3,697.3 		"/>
		<polygon class="st11" points="492.1,846.4 682.6,776.6 671.4,741.1 486.6,809.8 		"/>
		<polygon class="st13" points="503.8,842.1 664.8,783.2 671.5,801.4 506.2,861.8 		"/>
	</g>
	<path class="st9" d="M407.4,428.6l-21.2-33.4l-30.7-28.6c0,0-6-17.2,13.3-17.7c19.2-0.5,32.2,15.6,40.7,28.4
		c3.7,5.6,21.8,21.9,35.9,31.9c18.4,13.1-0.8,70.6-0.8,70.6S409.5,431.8,407.4,428.6z"/>
</g>
</svg>
