<!-- Generator: Adobe Illustrator 24.0.0, SVG Export Plug-In  -->
<svg version="1.1" xmlns="http://www.w3.org/2000/svg" xmlns:xlink="http://www.w3.org/1999/xlink" x="0px" y="0px" width="315.8px"
	 height="104.8px" viewBox="0 0 315.8 104.8" style="enable-background:new 0 0 315.8 104.8;" xml:space="preserve">
<style type="text/css">
	.st0{fill:#FFFF00;}
</style>
<defs>
</defs>
<g>
	<path class="st0" d="M81.5,16.2L66.4,90.7c-1.4,6.6-4.9,10.4-10.6,11.4c-0.9,0.2-1.8,0.3-2.7,0.3c-4.4,0-8.1-2.5-11.1-7.4L2.3,30.2
		C0.8,27.6,0,25,0,22.4c0-3.4,1.3-6.3,3.9-8.8c2.6-2.5,5.6-3.7,9-3.7c4.2,0,7.7,2.1,10.7,6.2l24.3,41.4l8.8-47.3
		c1.9-6.8,6-10.2,12.2-10.2c3.1,0,5.8,0.9,8.2,2.7s3.9,4.2,4.5,7.4C82,12.2,81.9,14.2,81.5,16.2z"/>
	<path class="st0" d="M95.2,26.9c-3.6,0.3-6.9-0.9-9.7-3.6c-2.8-2.6-4.3-5.8-4.6-9.4c-0.2-3.5,1-6.6,3.6-9.4
		c2.6-2.8,5.7-4.3,9.2-4.4c3.6-0.3,6.8,0.9,9.6,3.4c2.8,2.5,4.3,5.5,4.5,9.1c0.2,3.7-1,7-3.4,9.9C102,25.2,98.9,26.7,95.2,26.9z
		 M99.2,102.8c-3.6,0.3-6.7-0.8-9.1-3.2c-2.4-2.4-3.7-5.5-3.9-9.3l-2.5-48.8c-0.3-3.8,0.7-7,2.9-9.7c2.2-2.6,5.1-4.1,8.7-4.3
		c3.6-0.2,6.7,1,9.1,3.4c2.4,2.4,3.7,5.5,3.9,9.3l2.7,48.8c0.2,3.8-0.8,7-3,9.7C105.7,101.2,102.8,102.6,99.2,102.8z"/>
	<path class="st0" d="M163.4,104.8c-4.5-0.4-7.7-2.4-9.7-5.8c-4.7,3.4-10.1,4.8-16.3,4.3c-9.2-0.8-16.7-5-22.2-12.6
		c-5.3-6.9-7.9-15-7.9-24.3c0-10.3,2.9-19.3,8.6-27.1c6.4-8.6,14.5-13,24.5-13c6.3,0,11.9,1.6,16.9,4.8l1.7-18.8
		c0.3-3.8,1.8-6.9,4.3-9.2c2.5-2.3,5.6-3.3,9.2-3c3.6,0.3,6.4,1.8,8.5,4.5c2.1,2.8,2.9,6,2.6,9.9l-6.9,77.9
		c-0.3,3.8-1.8,6.9-4.3,9.2C170,104,166.9,105,163.4,104.8z M144.5,49.7c-3.3-0.3-6.1,1-8.4,3.9c-2.3,2.8-3.6,6.4-4.1,10.6
		c-0.3,4.2,0.4,7.8,2.2,10.8c1.8,3.3,4.3,5.1,7.6,5.3c3.4,0.3,6.2-0.9,8.5-3.8c2.3-2.9,3.6-6.6,3.9-11.1c0.4-4.2-0.3-7.8-2-10.8
		C150.5,51.7,147.9,50.1,144.5,49.7z"/>
	<path class="st0" d="M249.2,96.5c-1.1,0.3-2.2,0.4-3.3,0.4c-2.9,0-5.4-1.1-7.5-3.3c-3.6,5-8.5,8.2-14.5,9.5
		c-2.5,0.6-4.9,0.9-7.4,0.9c-8,0-15.1-2.8-21.3-8.5c-6.2-5.6-10.4-13.1-12.6-22.3c-0.8-3.4-1.1-6.8-1.1-10.2
		c0-8.6,2.3-16.1,6.9-22.6c4.6-6.5,10.6-10.6,18.2-12.4c2.1-0.5,4.2-0.8,6.2-0.8c4,0,7.7,0.9,11.1,2.7c1.5-3.7,4.3-6.1,8.4-7.1
		c1.4-0.3,2.6-0.4,3.8-0.4c5.6,0,9.4,4.2,11.3,12.5l10.2,44.1c0.6,2.7,0.9,5,0.9,6.7C258.3,91.6,255.3,95.2,249.2,96.5z M206.1,62.6
		c0,1.7,0.2,3.4,0.5,5.2c0.8,3.6,2.4,6.7,4.6,9c2.2,2.4,4.7,3.6,7.6,3.6c3.3,0,5.8-1.3,7.6-3.9c1.7-2.3,2.5-5.2,2.5-8.6
		c0-1.6-0.2-3.3-0.6-5.1c-0.8-3.7-2.4-6.8-4.6-9.2c-2.2-2.4-4.7-3.6-7.5-3.6c-3.3,0-5.8,1.3-7.6,3.7
		C206.9,56.1,206.1,59.1,206.1,62.6z"/>
	<path class="st0" d="M292.1,102.8c-2.6,0.6-5.6,0.9-8.9,0.9c-5.4,0-10.3-0.9-14.5-2.7c-5.8-2.3-8.6-5.8-8.6-10.6
		c0-2.5,0.6-4.7,1.9-6.9c1.5-2.5,3.7-4.1,6.5-4.7c1.1-0.3,2.2-0.4,3.3-0.4c1.7,0,4,0.4,6.9,1.3c2.9,0.8,5.2,1.3,6.8,1.3
		c0.9,0,1.9-0.1,2.8-0.4c2.7-0.6,3.9-1.6,3.6-2.9c-0.2-0.7-3.1-1.4-8.9-2.2c-7.2-0.8-12.8-2.2-16.7-4.1c-6.4-3-10.3-7.6-11.7-14
		c-0.5-1.9-0.8-3.9-0.8-5.7c0-7.6,3.3-13.9,9.8-18.7c5.9-4.4,12.8-6.6,20.7-6.6c5.3,0,9.9,0.9,13.7,2.8c5.1,2.4,7.6,5.9,7.6,10.7
		c0,3-1,5.6-2.9,7.8c-2,2.2-4.3,3.3-7.1,3.3c-1.3,0-3.4-0.3-6.4-0.9c-3-0.6-5.2-0.9-6.6-0.9c-2,0-3.4,0.3-4.3,1
		c-0.6,0.4-0.8,1-0.6,1.8c0.2,0.8,3.2,1.5,9,2.2c7.2,0.9,12.8,2.3,16.7,4.1c6.4,3,10.3,7.7,11.7,14c0.4,1.8,0.6,3.6,0.6,5.3
		c0,6-2.1,11.3-6.4,15.9C305.1,97.9,299.3,101.1,292.1,102.8z"/>
</g>
</svg>
