<!-- Generator: Adobe Illustrator 24.0.0, SVG Export Plug-In  -->
<svg version="1.1" xmlns="http://www.w3.org/2000/svg" xmlns:xlink="http://www.w3.org/1999/xlink" x="0px" y="0px" width="296.7px"
	 height="297.6px" viewBox="0 0 296.7 297.6" style="enable-background:new 0 0 296.7 297.6;" xml:space="preserve">
<style type="text/css">
	.st0{fill:#FFFFFF;}
</style>
<defs>
</defs>
<g>
	<circle class="st0" cx="14.8" cy="14.8" r="14.8"/>
	<circle class="st0" cx="58.9" cy="59.8" r="14.8"/>
	<circle class="st0" cx="58.9" cy="14.8" r="14.8"/>
	<circle class="st0" cx="103.8" cy="59.8" r="14.8"/>
	<circle class="st0" cx="103.8" cy="103.8" r="14.8"/>
	<circle class="st0" cx="103.8" cy="14.8" r="14.8"/>
	<circle class="st0" cx="147.9" cy="59.8" r="14.8"/>
	<circle class="st0" cx="147.9" cy="103.8" r="14.8"/>
	<circle class="st0" cx="147.9" cy="14.8" r="14.8"/>
	<circle class="st0" cx="191.9" cy="59.8" r="14.8"/>
	<circle class="st0" cx="191.9" cy="103.8" r="14.8"/>
	<circle class="st0" cx="147.9" cy="147.9" r="14.8"/>
	<circle class="st0" cx="191.9" cy="147.9" r="14.8"/>
	<circle class="st0" cx="103.8" cy="192.8" r="14.8"/>
	<circle class="st0" cx="147.9" cy="192.8" r="14.8"/>
	<circle class="st0" cx="191.9" cy="192.8" r="14.8"/>
	<circle class="st0" cx="58.9" cy="236.9" r="14.8"/>
	<circle class="st0" cx="103.8" cy="236.9" r="14.8"/>
	<circle class="st0" cx="147.9" cy="236.9" r="14.8"/>
	<circle class="st0" cx="191.9" cy="236.9" r="14.8"/>
	<circle class="st0" cx="237.8" cy="103.8" r="14.8"/>
	<circle class="st0" cx="237.8" cy="147.9" r="14.8"/>
	<circle class="st0" cx="237.8" cy="192.8" r="14.8"/>
	<circle class="st0" cx="14.8" cy="282.8" r="14.8"/>
	<circle class="st0" cx="58.9" cy="282.8" r="14.8"/>
	<circle class="st0" cx="103.8" cy="282.8" r="14.8"/>
	<circle class="st0" cx="147.9" cy="282.8" r="14.8"/>
	<circle class="st0" cx="281.9" cy="147.9" r="14.8"/>
</g>
</svg>
