<!-- Generator: Adobe Illustrator 24.0.0, SVG Export Plug-In  -->
<svg version="1.1" xmlns="http://www.w3.org/2000/svg" xmlns:xlink="http://www.w3.org/1999/xlink" x="0px" y="0px" width="289.5px"
	 height="59.8px" viewBox="0 0 289.5 59.8" style="enable-background:new 0 0 289.5 59.8;" xml:space="preserve">
<style type="text/css">
	.st0{fill:#FFFF00;}
</style>
<defs>
</defs>
<g>
	<path class="st0" d="M21.5,58.2c-6.6-1-11.8-4-15.8-8.9C1.9,44.5,0,38.8,0,32.2c0-1.7,0.1-3.3,0.4-5C1.5,20.3,4.4,14.6,9,10.3
		C13.7,6,19.3,3.8,25.8,3.8c1.4,0,2.8,0.1,4.3,0.3c3.4,0.6,6.6,1.7,9.5,3.5c3.7,2.2,5.6,4.8,5.6,7.6c0,1.7-0.6,3.2-1.8,4.5
		c-1.2,1.3-2.6,1.9-4.4,1.9c-1.2,0-3-0.7-5.5-2.2c-1.8-1-3.6-1.7-5.6-2c-0.6-0.1-1.2-0.1-1.9-0.1c-3,0-5.6,1.1-7.6,3.3
		c-2,2.2-3.3,5.2-3.9,8.9c-0.2,1.1-0.3,2.1-0.3,3.1c0,3.2,0.8,5.9,2.4,8c1.7,2.3,4,3.6,7,4.1c0.7,0.1,1.4,0.1,2,0.1
		c1.3,0,2.8-0.2,4.6-0.7c1.8-0.5,3.1-0.7,3.8-0.7c2,0,3.6,0.8,4.8,2.3c1.3,1.6,1.8,3.3,1.4,5.1c-0.4,2.6-2.2,4.6-5.2,5.9
		c-2.5,1-5.5,1.5-9,1.5C24.4,58.6,22.9,58.4,21.5,58.2z"/>
	<path class="st0" d="M57.3,57.9c-5.8,0.3-10.7-1.6-14.6-5.6c-3.8-3.9-5.9-8.7-6.2-14.4c-0.3-5.7,1.3-10.7,4.7-15
		c3.6-4.5,8.2-6.9,13.9-7.2c5.7-0.3,10.6,1.6,14.6,5.8c3.9,3.9,5.9,8.7,6.3,14.4c0.3,5.8-1.3,10.8-4.6,15
		C67.8,55.2,63.1,57.6,57.3,57.9z M55.8,28.4c-1.9,0.1-3.4,1-4.4,2.7c-1,1.7-1.5,3.8-1.4,6.2c0.1,2.3,0.8,4.3,2,5.8
		c1.2,1.6,2.7,2.3,4.6,2.2c1.9-0.1,3.4-1,4.4-2.6c1-1.7,1.5-3.7,1.4-6.1c-0.1-2.4-0.8-4.3-2-5.9C59.2,29,57.7,28.3,55.8,28.4z"/>
	<path class="st0" d="M102.7,59.5c-1.6-0.4-2.8-1.2-3.8-2.4c-0.9-1.2-1.4-2.6-1.4-4.3c0-0.6,0.1-1.3,0.2-2l4-17
		c0.1-0.6,0.2-1.2,0.2-1.7c0-1.4-0.5-2.5-1.5-3.3c-1-0.8-2.2-1.2-3.6-1.2c-2.3,0-3.8,1.4-4.5,4.1l-3.9,17.1
		c-0.4,1.7-1.2,3.1-2.4,4.2c-1.2,1.1-2.6,1.6-4.2,1.6c-0.6,0-1.1-0.1-1.6-0.2c-1.6-0.4-2.9-1.2-3.8-2.4c-0.9-1.2-1.4-2.6-1.4-4.3
		c0-0.7,0.1-1.4,0.2-2l6-26.1c0.4-1.8,1.2-3.2,2.4-4.2c1.2-1,2.6-1.6,4.2-1.6c3,0,5,1.2,6.1,3.6c1.5-0.7,3.3-1.1,5.2-1.1
		c1.3,0,2.7,0.2,4.3,0.6c3.7,0.8,6.6,2.5,8.8,5.1c2.2,2.6,3.3,5.6,3.3,9.2c0,1.3-0.1,2.6-0.4,4L110.9,54c-0.4,1.8-1.2,3.2-2.4,4.2
		c-1.2,1-2.6,1.6-4.3,1.6C103.8,59.8,103.2,59.7,102.7,59.5z"/>
	<path class="st0" d="M133.3,30.5l-1-0.3l-4.8,20.8c-0.4,1.8-1.2,3.2-2.4,4.2c-1.2,1-2.6,1.6-4.3,1.6c-0.5,0-1,0-1.6-0.1
		c-1.6-0.4-2.8-1.2-3.8-2.4c-0.9-1.2-1.4-2.7-1.4-4.3c0-0.7,0.1-1.3,0.2-2l4.9-20.9l-0.5-0.1c-3.2-0.7-4.8-2.6-4.8-5.7
		c0-0.6,0.1-1.1,0.2-1.7c0.3-1.4,1-2.6,2.1-3.4c1.1-0.9,2.3-1.3,3.7-1.3c0.5,0,1,0,1.5,0.1l0.5,0.1l1-4.2c0.4-1.7,1.2-3.1,2.4-4.2
		c1.2-1.1,2.6-1.6,4.2-1.6c0.5,0,1,0.1,1.6,0.2c1.6,0.4,2.9,1.2,3.8,2.4c0.9,1.2,1.4,2.6,1.4,4.3c0,0.7-0.1,1.3-0.2,2l-1,4.2
		l1.1,0.2c3.4,0.8,5.2,2.7,5.2,5.8c0,0.5,0,1.1-0.1,1.7c-0.7,3.2-2.7,4.7-5.9,4.7C134.5,30.8,133.9,30.7,133.3,30.5z"/>
	<path class="st0" d="M153.5,18.8c1.5-1.6,3.6-2.3,6.5-2.2c1.8,0.1,3.2,0.8,4.4,2.1c1.3,1.4,1.8,3.3,1.7,5.4c-0.1,2-1.3,3.6-3.4,4.6
		c-2,0.7-4,1.4-6,2.1c-2.1,0.9-3.3,2.3-3.4,4l-1,15.3c-0.2,2.1-1,3.8-2.3,5.1c-1.3,1.3-3,1.9-5,1.7c-2-0.1-3.5-0.9-4.7-2.4
		c-1.2-1.5-1.7-3.2-1.5-5.3l1.9-27.3c0.2-2.1,1.1-3.8,2.6-4.9c1.4-1,3-1.5,4.7-1.3C150.7,16,152.6,17,153.5,18.8z"/>
	<path class="st0" d="M183,57.9c-5.8,0.3-10.7-1.6-14.6-5.6c-3.8-3.9-5.9-8.7-6.2-14.4c-0.3-5.7,1.3-10.7,4.7-15
		c3.6-4.5,8.2-6.9,13.9-7.2c5.7-0.3,10.6,1.6,14.6,5.8c3.9,3.9,5.9,8.7,6.3,14.4c0.3,5.8-1.3,10.8-4.6,15
		C193.5,55.2,188.8,57.6,183,57.9z M181.5,28.4c-1.9,0.1-3.4,1-4.4,2.7c-1,1.7-1.5,3.8-1.4,6.2c0.1,2.3,0.8,4.3,2,5.8
		c1.2,1.6,2.7,2.3,4.6,2.2c1.9-0.1,3.4-1,4.4-2.6c1-1.7,1.5-3.7,1.4-6.1c-0.1-2.4-0.8-4.3-2-5.9C184.9,29,183.4,28.3,181.5,28.4z"/>
	<path class="st0" d="M208.3,57.5c-2-0.1-3.6-0.9-4.7-2.4c-1.1-1.5-1.6-3.3-1.5-5.4l3-42.8c0.1-2.1,0.9-3.8,2.2-5.1
		c1.3-1.3,3-1.9,5-1.7c2,0.1,3.6,0.9,4.7,2.4c1.1,1.5,1.6,3.3,1.5,5.4l-3,42.8c-0.1,2.1-0.9,3.8-2.2,5.1
		C211.9,57,210.3,57.6,208.3,57.5z"/>
	<path class="st0" d="M251.9,37.2l-18.1,6.3c1.2,1.2,2.8,1.8,4.7,1.8c1.1,0,2.2-0.2,3.3-0.6c1.6-0.6,3.3-1.9,5.2-3.9
		c1.9-2,3.3-3.3,4.3-3.6c0.6-0.2,1.1-0.3,1.7-0.3c1.6,0,3.1,0.6,4.3,1.7c1.2,1.2,1.8,2.5,1.8,4.1c0,2.6-1.6,5.3-4.7,8.2
		c-2.8,2.6-5.9,4.6-9.3,5.7c-2.4,0.8-4.8,1.3-7.2,1.3c-4.3,0-8.2-1.3-11.6-3.9c-3.4-2.6-5.9-6.1-7.4-10.6c-0.8-2.4-1.3-4.8-1.3-7.4
		c0-4.3,1.1-8.1,3.3-11.5c2.4-3.6,5.6-6.1,9.7-7.5c2-0.7,4.1-1,6.2-1c4.3,0,8.2,1.4,11.9,4.1c3.5,2.6,5.9,5.7,7.1,9.4
		c0.3,0.9,0.5,1.8,0.5,2.6C256.1,34.5,254.7,36.2,251.9,37.2z M234.3,28c-2.7,0.9-4.1,2.9-4.1,5.9l10.9-3.8
		c-1.3-1.6-2.8-2.4-4.7-2.4C235.8,27.7,235.1,27.8,234.3,28z"/>
	<path class="st0" d="M276.5,57.5c-1.4,0.3-3.1,0.5-4.9,0.5c-3,0-5.6-0.5-7.9-1.5c-3.2-1.3-4.7-3.2-4.7-5.8c0-1.3,0.3-2.6,1-3.8
		c0.8-1.4,2-2.3,3.6-2.6c0.6-0.1,1.2-0.2,1.8-0.2c0.9,0,2.2,0.2,3.8,0.7c1.6,0.5,2.8,0.7,3.7,0.7c0.5,0,1-0.1,1.5-0.2
		c1.5-0.3,2.1-0.9,2-1.6c-0.1-0.4-1.7-0.8-4.9-1.2c-3.9-0.5-7-1.2-9.1-2.2c-3.5-1.6-5.6-4.2-6.4-7.7c-0.3-1.1-0.4-2.1-0.4-3.1
		c0-4.2,1.8-7.6,5.4-10.2c3.3-2.4,7-3.6,11.4-3.6c2.9,0,5.4,0.5,7.5,1.5c2.8,1.3,4.2,3.3,4.2,5.9c0,1.6-0.5,3-1.6,4.3
		c-1.1,1.2-2.4,1.8-3.9,1.8c-0.7,0-1.9-0.2-3.5-0.5c-1.6-0.3-2.8-0.5-3.6-0.5c-1.1,0-1.9,0.2-2.4,0.6c-0.3,0.2-0.4,0.6-0.3,1
		c0.1,0.4,1.7,0.8,4.9,1.2c3.9,0.5,7,1.3,9.1,2.2c3.5,1.7,5.6,4.2,6.4,7.6c0.2,1,0.3,1.9,0.3,2.9c0,3.3-1.2,6.2-3.5,8.7
		C283.6,54.8,280.4,56.5,276.5,57.5z"/>
</g>
</svg>
