<!-- Generator: Adobe Illustrator 24.0.0, SVG Export Plug-In  -->
<svg version="1.1" xmlns="http://www.w3.org/2000/svg" xmlns:xlink="http://www.w3.org/1999/xlink" x="0px" y="0px" width="61.8px"
	 height="136.3px" viewBox="0 0 61.8 136.3" style="enable-background:new 0 0 61.8 136.3;" xml:space="preserve">
<style type="text/css">
	.st0{fill:#FFFF00;stroke:#00051E;stroke-width:9;stroke-miterlimit:10;}
</style>
<defs>
</defs>
<g>
	<path class="st0" d="M10.4,115.7c0-1.1,0.1-2.2,0.2-3.3l12.2-76.6l-5.4-1C8.8,33.6,4.5,28.7,4.5,20.3c0-4.3,1.4-8,4.2-11.1
		c2.8-3.1,6.4-4.6,10.7-4.6c0.9,0,1.7,0.1,2.6,0.3l22.8,3.6c4,0.7,7.1,2.4,9.3,5.1c2.2,2.8,3.3,6,3.3,9.7c0,1-0.1,2-0.2,2.9
		l-14.5,91.4c-0.8,4.4-2.6,7.9-5.4,10.5c-2.9,2.5-6.3,3.8-10.3,3.8c-4.7,0-8.6-1.5-11.8-4.5C12,124.4,10.4,120.5,10.4,115.7z"/>
</g>
</svg>
