<!-- Generator: Adobe Illustrator 24.0.0, SVG Export Plug-In  -->
<svg version="1.1" xmlns="http://www.w3.org/2000/svg" xmlns:xlink="http://www.w3.org/1999/xlink" x="0px" y="0px" width="603.4px"
	 height="151.3px" viewBox="0 0 603.4 151.3" style="enable-background:new 0 0 603.4 151.3;" xml:space="preserve">
<style type="text/css">
	.st0{fill:#FFFF00;}
</style>
<defs>
</defs>
<g>
	<g>
		<path class="st0" d="M64.8,102.1l-15.4,2.7l4.3,24.8c0.2,1.3,0.4,2.7,0.4,4c0,5.3-1.8,9.6-5.3,12.8c-3.6,3.3-8,4.9-13.3,4.9
			c-4.3,0-8.1-1.4-11.3-4.1c-3.2-2.7-5.2-6.5-6.1-11.5L0.4,35.7C0.1,34.4,0,33,0,31.7C0,21.8,5.2,16,15.6,14.2L47,8.6
			c3.6-0.6,7.2-0.9,10.7-0.9c12.2,0,22.6,3.5,31.4,10.5c8.7,7,14.2,16.5,16.4,28.6c0.5,3.1,0.7,6.1,0.7,9c0,11.9-3.9,22.1-11.7,30.5
			C86.7,94.6,76.8,99.9,64.8,102.1z M52.3,41.1l-13.7,2.4l5.1,28.9l13.7-2.5C65,68.5,68.9,64,68.9,56.3c0-4.3-1.1-8-3.4-10.9
			c-2.7-3.1-6.1-4.7-10.3-4.7C54.2,40.7,53.2,40.9,52.3,41.1z"/>
		<path class="st0" d="M122.4,38.2c-5.2,0.4-9.8-1.3-13.7-5.1c-4-3.7-6.1-8.2-6.5-13.4c-0.2-4.9,1.5-9.4,5.2-13.4s8-6.1,13.1-6.3
			c5.1-0.4,9.6,1.2,13.7,4.8c4,3.6,6.2,7.9,6.4,12.9c0.2,5.3-1.4,10-4.9,14C132.2,35.8,127.8,38,122.4,38.2z M128.1,146.2
			c-5.2,0.4-9.5-1.2-12.9-4.6c-3.4-3.4-5.3-7.9-5.5-13.3L106,58.8c-0.4-5.4,1-10,4.1-13.7c3.1-3.7,7.2-5.8,12.4-6.1
			c5.2-0.2,9.5,1.4,12.9,4.8c3.4,3.4,5.3,7.9,5.5,13.3l3.8,69.5c0.2,5.4-1.2,10-4.2,13.7C137.4,144,133.2,145.9,128.1,146.2z"/>
		<path class="st0" d="M232.8,93.6l-46.8,16.3c3.1,3.1,7.2,4.7,12.1,4.7c2.8,0,5.7-0.5,8.7-1.6c4.1-1.4,8.6-4.8,13.4-10.1
			c4.8-5.3,8.5-8.4,11-9.4c1.4-0.5,2.9-0.7,4.3-0.7c4.2,0,7.9,1.5,11.1,4.5c3.2,3,4.8,6.6,4.8,10.7c0,6.6-4.1,13.7-12.3,21.2
			c-7.4,6.9-15.4,11.8-24.2,14.8c-6.3,2.2-12.5,3.3-18.8,3.3c-11.2,0-21.3-3.4-30.1-10.1s-15.3-15.9-19.3-27.5
			c-2.2-6.1-3.3-12.5-3.3-19.2c0-11.1,2.8-21,8.5-29.8c6.1-9.4,14.5-15.9,25.1-19.5c5.3-1.8,10.7-2.7,16.1-2.7
			c11.1,0,21.4,3.6,30.9,10.7c9,6.6,15.2,14.8,18.4,24.4c0.8,2.4,1.3,4.7,1.3,6.9C243.8,86.6,240.1,91,232.8,93.6z M187.2,69.9
			c-7,2.4-10.6,7.5-10.7,15.2l28.4-9.8c-3.3-4.2-7.3-6.3-12.1-6.3C191,69,189.1,69.3,187.2,69.9z"/>
		<path class="st0" d="M290.3,45.8c3.9-4.2,9.5-6.1,16.8-5.6c4.6,0.4,8.4,2.2,11.4,5.4c3.3,3.7,4.7,8.4,4.3,14.1
			c-0.4,5.3-3.3,9.3-8.9,11.9c-5.2,1.8-10.4,3.6-15.6,5.4c-5.5,2.4-8.5,5.9-8.9,10.5l-2.7,39.8c-0.5,5.4-2.5,9.8-6,13.2
			c-3.5,3.4-7.8,4.9-13,4.5c-5.1-0.4-9.1-2.4-12.1-6.2c-3-3.8-4.3-8.4-4-13.8l4.9-70.7c0.5-5.5,2.8-9.8,6.9-12.8
			c3.6-2.7,7.7-3.8,12.3-3.4C282.9,38.5,287.8,41.1,290.3,45.8z"/>
		<path class="st0" d="M392.5,149.1c-6.4-0.6-11-3.4-13.7-8.3c-6.6,4.8-14.4,6.9-23.2,6.1c-13.1-1.2-23.7-7.2-31.7-17.9
			c-7.5-9.9-11.2-21.4-11.2-34.5c0-14.6,4.1-27.4,12.3-38.5c9-12.3,20.7-18.4,34.9-18.4c8.9,0,16.9,2.3,24.1,6.9l2.4-26.8
			c0.5-5.4,2.5-9.8,6.1-13.1c3.6-3.3,7.9-4.7,13.1-4.3c5.1,0.4,9.1,2.5,12,6.4c3,3.9,4.2,8.6,3.7,14l-9.8,110.9
			c-0.5,5.4-2.5,9.8-6.1,13.1C401.8,148,397.5,149.4,392.5,149.1z M365.7,70.8c-4.7-0.4-8.7,1.5-11.9,5.5c-3.3,4-5.2,9.1-5.8,15.1
			c-0.5,5.9,0.5,11,3.1,15.4c2.5,4.7,6.1,7.2,10.9,7.6c4.8,0.5,8.9-1.3,12.1-5.4c3.3-4.1,5.1-9.3,5.6-15.7c0.6-6-0.4-11.2-2.9-15.4
			C374.2,73.6,370.5,71.3,365.7,70.8z"/>
		<path class="st0" d="M505.9,93.6L459,109.8c3.1,3.1,7.2,4.7,12.1,4.7c2.8,0,5.7-0.5,8.7-1.6c4.1-1.4,8.6-4.8,13.4-10.1
			c4.8-5.3,8.5-8.4,11-9.4c1.4-0.5,2.9-0.7,4.3-0.7c4.2,0,7.9,1.5,11.1,4.5c3.2,3,4.8,6.6,4.8,10.7c0,6.6-4.1,13.7-12.3,21.2
			c-7.4,6.9-15.4,11.8-24.2,14.8c-6.3,2.2-12.5,3.3-18.8,3.3c-11.2,0-21.3-3.4-30.1-10.1s-15.3-15.9-19.3-27.5
			c-2.2-6.1-3.3-12.5-3.3-19.2c0-11.1,2.8-21,8.5-29.8c6.1-9.4,14.5-15.9,25.1-19.5c5.3-1.8,10.7-2.7,16.1-2.7
			c11.1,0,21.4,3.6,30.9,10.7c9,6.6,15.2,14.8,18.4,24.4c0.8,2.4,1.3,4.7,1.3,6.9C516.9,86.6,513.2,91,505.9,93.6z M460.3,69.9
			c-7,2.4-10.6,7.5-10.7,15.2l28.4-9.8c-3.3-4.2-7.3-6.3-12.1-6.3C464.1,69,462.2,69.3,460.3,69.9z"/>
		<path class="st0" d="M569.7,146.2c-3.7,0.8-8,1.3-12.7,1.3c-7.7,0-14.6-1.3-20.6-3.8c-8.2-3.3-12.3-8.3-12.3-15
			c0-3.5,0.9-6.8,2.7-9.8c2.2-3.6,5.2-5.8,9.2-6.7c1.6-0.4,3.1-0.5,4.7-0.5c2.4,0,5.7,0.6,9.9,1.8c4.2,1.2,7.4,1.8,9.7,1.8
			c1.3,0,2.7-0.2,4-0.5c3.9-0.8,5.5-2.2,5.1-4.2c-0.2-1-4.5-2-12.7-3.1c-10.2-1.2-18.1-3.1-23.7-5.8c-9-4.2-14.6-10.9-16.6-19.9
			c-0.7-2.8-1.1-5.5-1.1-8.1c0-10.9,4.6-19.7,13.9-26.6c8.4-6.3,18.3-9.4,29.5-9.4c7.6,0,14.1,1.3,19.5,4
			c7.2,3.4,10.9,8.4,10.9,15.2c0,4.2-1.4,7.9-4.2,11c-2.8,3.1-6.1,4.7-10.1,4.7c-1.8,0-4.8-0.4-9-1.3c-4.2-0.8-7.4-1.3-9.4-1.3
			c-2.8,0-4.8,0.5-6.1,1.4c-0.8,0.6-1.1,1.4-0.9,2.5c0.2,1.1,4.5,2.1,12.8,3.1c10.2,1.3,18.1,3.2,23.7,5.8
			c9,4.3,14.6,10.9,16.6,19.9c0.6,2.5,0.9,5.1,0.9,7.6c0,8.5-3,16.1-9.1,22.6C588.1,139.3,580,143.8,569.7,146.2z"/>
	</g>
</g>
</svg>
