<!-- Generator: Adobe Illustrator 24.0.0, SVG Export Plug-In  -->
<svg version="1.1" xmlns="http://www.w3.org/2000/svg" xmlns:xlink="http://www.w3.org/1999/xlink" x="0px" y="0px" width="234.9px"
	 height="65.8px" viewBox="0 0 234.9 65.8" style="enable-background:new 0 0 234.9 65.8;" xml:space="preserve">
<style type="text/css">
	.st0{fill:#FFFF00;}
</style>
<defs>
</defs>
<g>
	<path class="st0" d="M23.5,57.2L5.9,53.8c-1.7-0.3-3.1-1.1-4.2-2.3C0.5,50.3,0,48.8,0,47.1c0-0.5,0.1-1,0.2-1.5L7.5,8
		c0.8-4.3,3.1-6.4,6.8-6.4c0.6,0,1.1,0,1.7,0.1L33,5c1.8,0.4,3.2,1.2,4.1,2.3c0.9,1.2,1.4,2.5,1.4,4.1c0,1.8-0.6,3.4-1.9,4.7
		c-1.3,1.3-2.8,2-4.6,2c-0.5,0-1,0-1.5-0.1l-10.4-2l-1.3,6.6l9.5,1.9c1.8,0.4,3.2,1.2,4.2,2.3c1,1.2,1.5,2.5,1.5,4.1
		c0,1.9-0.6,3.4-1.9,4.7c-1.3,1.3-2.8,1.9-4.7,1.9c-0.5,0-1,0-1.5-0.1l-9.5-1.9l-1.3,7L26,44.4c1.8,0.3,3.1,1.1,4,2.3
		c0.9,1.2,1.4,2.5,1.4,4.1c0,1.8-0.6,3.4-1.8,4.7c-1.2,1.3-2.8,2-4.6,2C24.5,57.4,24,57.3,23.5,57.2z"/>
	<path class="st0" d="M55.5,56.3c-1.4,0.3-3.1,0.5-4.9,0.5c-3,0-5.6-0.5-7.9-1.5c-3.2-1.3-4.7-3.2-4.7-5.8c0-1.3,0.3-2.6,1-3.8
		c0.8-1.4,2-2.3,3.6-2.6c0.6-0.1,1.2-0.2,1.8-0.2c0.9,0,2.2,0.2,3.8,0.7c1.6,0.5,2.8,0.7,3.7,0.7c0.5,0,1-0.1,1.5-0.2
		c1.5-0.3,2.1-0.9,2-1.6c-0.1-0.4-1.7-0.8-4.9-1.2c-3.9-0.5-7-1.2-9.1-2.2c-3.5-1.6-5.6-4.2-6.4-7.7c-0.3-1.1-0.4-2.1-0.4-3.1
		c0-4.2,1.8-7.6,5.4-10.2c3.3-2.4,7-3.6,11.4-3.6c2.9,0,5.4,0.5,7.5,1.5c2.8,1.3,4.2,3.3,4.2,5.9c0,1.6-0.5,3-1.6,4.3
		C60.3,27.4,59,28,57.5,28c-0.7,0-1.9-0.2-3.5-0.5c-1.6-0.3-2.8-0.5-3.6-0.5c-1.1,0-1.9,0.2-2.4,0.6c-0.3,0.2-0.4,0.6-0.3,1
		c0.1,0.4,1.7,0.8,4.9,1.2c3.9,0.5,7,1.3,9.1,2.2c3.5,1.7,5.6,4.2,6.4,7.6c0.2,1,0.3,1.9,0.3,2.9c0,3.3-1.2,6.2-3.5,8.7
		C62.6,53.7,59.5,55.4,55.5,56.3z"/>
	<path class="st0" d="M109.1,65.5c-0.7,0.2-1.5,0.3-2.2,0.3c-3.2,0-5.4-1.7-6.6-5.1l-2.9-8.4c-3.2,3.4-7.1,5.2-11.9,5.2
		c-4.1,0-7.9-1.4-11.4-4.3c-3.3-2.7-5.6-6.1-7-10.2c-1-2.9-1.5-5.9-1.5-8.9c0-3.9,0.9-7.4,2.6-10.4c2-3.3,4.9-5.6,8.8-7
		c1.6-0.6,3.3-0.8,5-0.8c1.7,0,3.2,0.3,4.6,0.9c0.6-2.1,2-3.6,4.3-4.4c0.7-0.3,1.5-0.4,2.2-0.4c3.2,0,5.3,1.7,6.6,5.1l13.5,39.3
		c0.3,0.9,0.5,1.9,0.5,2.8C113.7,62.3,112.2,64.4,109.1,65.5z M82.7,28.1C80.2,28.9,79,31,79,34.3c0,1.3,0.2,2.5,0.7,3.8
		c0.6,1.8,1.5,3.3,2.8,4.5c1.3,1.2,2.6,1.7,4,1.7c0.6,0,1.1-0.1,1.6-0.3c2.5-0.8,3.7-2.9,3.7-6.1c0-1.3-0.3-2.7-0.8-4.2
		c-1.3-4-3.6-6-6.6-6C83.9,27.8,83.3,27.9,82.7,28.1z"/>
	<path class="st0" d="M129.5,56.8c-5.7,0.3-10.2-1-13.6-3.7c-3.4-2.8-5.2-6.7-5.5-11.7l-1-18.1c-0.1-2.1,0.5-3.9,1.6-5.3
		c1.2-1.5,2.8-2.2,4.8-2.3c2-0.1,3.6,0.5,4.9,1.8c1.3,1.3,2.1,3,2.2,5.1l0.9,17.8c0.1,1.5,0.6,2.6,1.6,3.4c1,0.8,2.1,1.2,3.5,1.1
		c1.3-0.1,2.4-0.6,3.3-1.5c0.9-0.9,1.3-2.1,1.2-3.6l-0.9-17.8c-0.1-2.1,0.4-3.9,1.6-5.3c1.2-1.5,2.8-2.2,4.8-2.3
		c2-0.1,3.7,0.5,5,1.8c1.3,1.3,2,3,2.1,5.2l1,18.1c0.3,5.1-1.1,9.1-4.2,12.2C139.5,54.8,135.2,56.5,129.5,56.8z"/>
	<path class="st0" d="M152.8,14.7c-2,0.1-3.8-0.5-5.3-2c-1.5-1.4-2.4-3.2-2.5-5.2c-0.1-1.9,0.6-3.6,2-5.2c1.4-1.5,3.1-2.3,5.1-2.4
		c2-0.1,3.7,0.5,5.3,1.8c1.6,1.4,2.4,3,2.5,5c0.1,2-0.5,3.8-1.9,5.4C156.6,13.8,154.9,14.6,152.8,14.7z M155,56.3
		c-2,0.1-3.7-0.5-5-1.8c-1.3-1.3-2-3-2.1-5.1l-1.4-26.8c-0.1-2.1,0.4-3.9,1.6-5.3c1.2-1.4,2.8-2.2,4.8-2.4c2-0.1,3.7,0.5,5,1.8
		c1.3,1.3,2,3,2.1,5.1l1.5,26.8c0.1,2.1-0.5,3.9-1.6,5.3C158.6,55.5,157,56.2,155,56.3z"/>
	<path class="st0" d="M176.8,35.4c1.1-3.2,3.1-8.2,6-15.1c1.2-3.1,3.4-4.5,6.5-4.2c1.9,0.1,3.4,0.8,4.6,2c1.4,1.4,2,3.1,1.8,5.2
		c-0.1,1.1-0.4,2.3-1,3.5l-12.3,25c-1.7,3.4-4.2,4.9-7.5,4.7c-3.3-0.3-5.5-2.3-6.6-5.9l-7.8-26.7c-0.4-1.3-0.5-2.5-0.4-3.6
		c0.1-2,1-3.6,2.6-4.7c1.4-1,3.1-1.4,4.9-1.3c3.1,0.3,5,2,5.7,5.3L176.8,35.4z"/>
	<path class="st0" d="M229.9,52.9c-0.6,0.1-1.2,0.2-1.8,0.2c-1.6,0-3-0.6-4.1-1.8c-2,2.7-4.6,4.5-7.9,5.2c-1.3,0.3-2.7,0.5-4,0.5
		c-4.4,0-8.3-1.5-11.7-4.6c-3.4-3.1-5.7-7.2-6.9-12.2c-0.4-1.9-0.6-3.7-0.6-5.6c0-4.7,1.3-8.8,3.8-12.4c2.5-3.6,5.8-5.8,10-6.8
		c1.2-0.3,2.3-0.4,3.4-0.4c2.2,0,4.2,0.5,6.1,1.5c0.8-2,2.4-3.3,4.6-3.9c0.7-0.1,1.4-0.2,2.1-0.2c3.1,0,5.1,2.3,6.2,6.8l5.6,24.2
		c0.3,1.5,0.5,2.7,0.5,3.7C234.9,50.2,233.3,52.2,229.9,52.9z M206.3,34.3c0,0.9,0.1,1.9,0.3,2.9c0.5,2,1.3,3.6,2.5,4.9
		c1.2,1.3,2.6,2,4.2,2c1.8,0,3.2-0.7,4.2-2.2c0.9-1.3,1.4-2.8,1.4-4.7c0-0.9-0.1-1.8-0.3-2.8c-0.5-2-1.3-3.7-2.5-5.1
		c-1.2-1.3-2.6-2-4.1-2c-1.8,0-3.2,0.7-4.1,2.1C206.8,30.8,206.3,32.4,206.3,34.3z"/>
</g>
</svg>
