<!-- Generator: Adobe Illustrator 24.0.0, SVG Export Plug-In  -->
<svg version="1.1" xmlns="http://www.w3.org/2000/svg" xmlns:xlink="http://www.w3.org/1999/xlink" x="0px" y="0px" width="377.3px"
	 height="78.6px" viewBox="0 0 377.3 78.6" style="enable-background:new 0 0 377.3 78.6;" xml:space="preserve">
<style type="text/css">
	.st0{fill:#FFFFFF;}
	.st1{fill:#FFFF00;}
</style>
<defs>
</defs>
<g>
	<path class="st0" d="M36.6,53l-8.7,1.4l2.5,12.9c0.1,0.7,0.2,1.4,0.2,2.1c0,2.8-1,5-3,6.7c-2,1.7-4.5,2.5-7.5,2.5
		c-2.5,0-4.6-0.7-6.4-2.1c-1.8-1.4-2.9-3.4-3.4-6l-10-52C0.1,17.8,0,17.2,0,16.5c0-5.1,2.9-8.2,8.8-9.1l17.8-2.9
		c2-0.3,4.1-0.5,6-0.5c6.9,0,12.8,1.8,17.7,5.4c4.9,3.6,8,8.6,9.2,14.8c0.3,1.6,0.4,3.2,0.4,4.7c0,6.2-2.2,11.5-6.6,15.8
		C49,49.2,43.4,51.9,36.6,53z M29.5,21.4l-7.8,1.2l2.9,15l7.8-1.3c4.4-0.7,6.5-3,6.5-7c0-2.3-0.6-4.1-1.9-5.6
		c-1.5-1.6-3.4-2.4-5.8-2.4C30.6,21.2,30.1,21.2,29.5,21.4z"/>
	<path class="st0" d="M105.2,48.6l-26.5,8.5c1.8,1.6,4.1,2.4,6.8,2.4c1.6,0,3.2-0.3,4.9-0.8c2.3-0.8,4.8-2.5,7.6-5.3
		c2.7-2.8,4.8-4.4,6.2-4.9c0.8-0.2,1.6-0.4,2.5-0.4c2.4,0,4.5,0.8,6.3,2.3c1.8,1.6,2.7,3.4,2.7,5.5c0,3.4-2.3,7.1-6.9,11
		c-4.2,3.6-8.7,6.1-13.7,7.7c-3.5,1.1-7.1,1.7-10.6,1.7c-6.3,0-12-1.8-17-5.3c-5-3.5-8.6-8.3-10.9-14.3c-1.2-3.2-1.8-6.5-1.8-10
		c0-5.8,1.6-10.9,4.8-15.5c3.5-4.9,8.2-8.3,14.2-10.1c3-0.9,6-1.4,9.1-1.4c6.3,0,12.1,1.8,17.5,5.5c5.1,3.4,8.6,7.7,10.4,12.7
		c0.5,1.3,0.7,2.4,0.7,3.6C111.4,45,109.4,47.3,105.2,48.6z M79.5,36.3c-3.9,1.3-6,3.9-6,7.9l16-5.1c-1.8-2.2-4.1-3.3-6.8-3.3
		C81.6,35.8,80.6,36,79.5,36.3z"/>
	<path class="st0" d="M137.7,23.8c2.2-2.2,5.3-3.2,9.5-2.9c2.6,0.2,4.7,1.1,6.4,2.8c1.8,1.9,2.7,4.4,2.5,7.3c-0.2,2.8-1.9,4.8-5,6.2
		c-2.9,0.9-5.9,1.9-8.8,2.8c-3.1,1.3-4.8,3.1-5,5.5l-1.5,20.7c-0.3,2.8-1.4,5.1-3.4,6.9c-2,1.8-4.4,2.5-7.4,2.3
		c-2.9-0.2-5.1-1.3-6.8-3.2c-1.7-2-2.5-4.4-2.2-7.2l2.8-36.7c0.3-2.9,1.6-5.1,3.9-6.7c2-1.4,4.4-2,6.9-1.8
		C133.5,20,136.2,21.4,137.7,23.8z"/>
	<path class="st1" d="M195.4,77.5c-3.6-0.3-6.2-1.8-7.8-4.3c-3.7,2.5-8.1,3.6-13.1,3.2c-7.4-0.6-13.4-3.7-17.9-9.3
		c-4.2-5.1-6.3-11.1-6.3-17.9c0-7.6,2.3-14.3,6.9-20c5.1-6.4,11.7-9.6,19.7-9.6c5,0,9.6,1.2,13.6,3.6l1.3-13.9
		c0.3-2.8,1.4-5.1,3.4-6.8c2-1.7,4.5-2.5,7.4-2.2c2.9,0.2,5.1,1.3,6.8,3.3c1.7,2,2.4,4.5,2.1,7.3l-5.5,57.6
		c-0.3,2.8-1.4,5.1-3.4,6.8C200.7,76.9,198.2,77.6,195.4,77.5z M180.3,36.8c-2.7-0.2-4.9,0.8-6.7,2.9c-1.8,2.1-2.9,4.7-3.3,7.8
		c-0.3,3.1,0.3,5.7,1.7,8c1.4,2.4,3.5,3.8,6.1,3.9c2.7,0.3,5-0.7,6.8-2.8c1.8-2.1,2.9-4.9,3.2-8.2c0.3-3.1-0.2-5.8-1.6-8
		C185.1,38.2,183,37,180.3,36.8z"/>
	<path class="st1" d="M221,19.9c-2.9,0.2-5.5-0.7-7.8-2.6c-2.2-1.9-3.5-4.3-3.7-7c-0.1-2.6,0.8-4.9,2.9-7c2.1-2.1,4.5-3.2,7.4-3.3
		c2.9-0.2,5.4,0.6,7.7,2.5c2.3,1.8,3.5,4.1,3.6,6.7c0.1,2.8-0.8,5.2-2.8,7.3C226.5,18.6,224,19.7,221,19.9z M224.2,76
		c-2.9,0.2-5.4-0.6-7.3-2.4c-1.9-1.8-3-4.1-3.1-6.9l-2-36.1c-0.2-2.8,0.6-5.2,2.3-7.1c1.7-1.9,4.1-3,7-3.2c2.9-0.1,5.4,0.7,7.3,2.5
		s3,4.1,3.1,6.9l2.1,36.1c0.1,2.8-0.7,5.2-2.4,7.1S227.1,75.8,224.2,76z"/>
	<path class="st1" d="M263.1,76c-2.1,0.4-4.5,0.7-7.1,0.7c-4.4,0-8.2-0.7-11.6-2c-4.6-1.7-6.9-4.3-6.9-7.8c0-1.8,0.5-3.5,1.5-5.1
		c1.2-1.9,3-3,5.2-3.5c0.9-0.2,1.8-0.3,2.7-0.3c1.4,0,3.2,0.3,5.6,0.9c2.3,0.6,4.2,0.9,5.5,0.9c0.7,0,1.5-0.1,2.2-0.3
		c2.2-0.4,3.1-1.2,2.9-2.2c-0.1-0.5-2.5-1-7.1-1.6c-5.8-0.6-10.2-1.6-13.4-3c-5.1-2.2-8.2-5.6-9.4-10.3c-0.4-1.4-0.6-2.8-0.6-4.2
		c0-5.6,2.6-10.2,7.9-13.8c4.8-3.3,10.3-4.9,16.6-4.9c4.3,0,8,0.7,11,2.1c4.1,1.8,6.1,4.4,6.1,7.9c0,2.2-0.8,4.1-2.3,5.7
		c-1.6,1.6-3.5,2.4-5.7,2.4c-1,0-2.7-0.2-5.1-0.7c-2.4-0.4-4.2-0.7-5.3-0.7c-1.6,0-2.7,0.3-3.5,0.8c-0.5,0.3-0.6,0.8-0.5,1.3
		c0.1,0.6,2.6,1.1,7.3,1.6c5.8,0.7,10.2,1.7,13.4,3c5.1,2.3,8.2,5.7,9.4,10.3c0.3,1.3,0.5,2.6,0.5,3.9c0,4.4-1.7,8.3-5.2,11.7
		C273.5,72.4,268.9,74.7,263.1,76z"/>
	<path class="st1" d="M309.4,39.7l-1.5-0.4l-7,28.1c-0.6,2.4-1.8,4.3-3.6,5.7c-1.8,1.4-3.8,2.1-6.2,2.1c-0.8,0-1.5-0.1-2.3-0.2
		c-2.3-0.5-4.2-1.6-5.5-3.2c-1.4-1.7-2-3.6-2-5.8c0-0.9,0.1-1.8,0.3-2.6l7.1-28.2l-0.7-0.1c-4.7-1-7-3.6-7-7.7
		c0-0.8,0.1-1.5,0.3-2.3c0.5-1.9,1.5-3.5,3.1-4.7c1.6-1.2,3.4-1.7,5.5-1.7c0.7,0,1.5,0.1,2.1,0.2l0.7,0.2l1.4-5.6
		c0.6-2.3,1.8-4.2,3.5-5.6c1.7-1.4,3.8-2.2,6.2-2.2c0.7,0,1.5,0.1,2.3,0.3c2.4,0.5,4.2,1.6,5.6,3.2c1.3,1.6,2,3.6,2,5.8
		c0,0.9-0.1,1.8-0.3,2.6l-1.4,5.6l1.6,0.3c5,1.1,7.6,3.7,7.6,7.8c0,0.7-0.1,1.4-0.2,2.3c-1.1,4.3-4,6.4-8.7,6.4
		C311.2,40,310.3,39.9,309.4,39.7z"/>
	<path class="st1" d="M366.8,48.6l-26.5,8.5c1.8,1.6,4.1,2.4,6.8,2.4c1.6,0,3.2-0.3,4.9-0.8c2.3-0.8,4.8-2.5,7.6-5.3
		c2.7-2.8,4.8-4.4,6.2-4.9c0.8-0.2,1.6-0.4,2.5-0.4c2.4,0,4.5,0.8,6.3,2.3c1.8,1.6,2.7,3.4,2.7,5.5c0,3.4-2.3,7.1-6.9,11
		c-4.2,3.6-8.7,6.1-13.7,7.7c-3.5,1.1-7.1,1.7-10.6,1.7c-6.3,0-12-1.8-17-5.3c-5-3.5-8.6-8.3-10.9-14.3c-1.2-3.2-1.8-6.5-1.8-10
		c0-5.8,1.6-10.9,4.8-15.5c3.5-4.9,8.2-8.3,14.2-10.1c3-0.9,6-1.4,9.1-1.4c6.3,0,12.1,1.8,17.5,5.5c5.1,3.4,8.6,7.7,10.4,12.7
		c0.5,1.3,0.7,2.4,0.7,3.6C373,45,370.9,47.3,366.8,48.6z M341,36.3c-3.9,1.3-6,3.9-6,7.9l16-5.1c-1.8-2.2-4.1-3.3-6.8-3.3
		C343.2,35.8,342.1,36,341,36.3z"/>
</g>
</svg>
