<!-- Generator: Adobe Illustrator 24.0.0, SVG Export Plug-In  -->
<svg version="1.1" xmlns="http://www.w3.org/2000/svg" xmlns:xlink="http://www.w3.org/1999/xlink" x="0px" y="0px" width="99.7px"
	 height="136.7px" viewBox="0 0 99.7 136.7" style="enable-background:new 0 0 99.7 136.7;" xml:space="preserve">
<style type="text/css">
	.st0{fill:#FFFF00;stroke:#00051E;stroke-width:9;stroke-miterlimit:10;}
</style>
<defs>
</defs>
<g>
	<path class="st0" d="M80.4,128.2l-54.1,3.9c-4.7,0.3-8.6-0.5-11.7-2.6c-3.7-2.4-5.7-6.1-6-11.1c-0.2-3.5,1.1-7.2,3.9-11.2
		c6.4-8.3,12.7-16.7,19-25c7.6-10,13.5-18.6,17.9-26c2.9-5,4.3-9.3,4.1-13c-0.2-2.4-1.1-4.3-2.8-5.9c-1.6-1.5-3.5-2.2-5.5-2.1
		c-3.9,0.3-6.6,2.7-8,7.2c-1.5,4.5-2.8,8.9-4,13.3c-2.2,4.7-6,7.2-11.4,7.6c-5,0.3-9-1-12-3.9c-3-2.9-4.7-6.6-5-10.9
		C3.8,37.2,7.4,27.3,15.3,18.7c7.9-8.6,17.5-13.3,28.6-14.1c11.3-0.8,21,2.1,29.2,8.5c8.2,6.4,12.7,15.2,13.6,26.5
		C87.4,49,84,59.8,76.6,71.9c-2.4,4.1-9.1,13.6-20.2,28.3l21-1.5c4.7-0.3,8.6,0.5,11.7,2.6c3.7,2.4,5.7,6.1,6,11.1
		c0.3,4.9-1.1,8.8-4.2,11.7C88.2,126.6,84.7,128,80.4,128.2z"/>
</g>
</svg>
