<!-- Generator: Adobe Illustrator 24.0.0, SVG Export Plug-In  -->
<svg version="1.1" xmlns="http://www.w3.org/2000/svg" xmlns:xlink="http://www.w3.org/1999/xlink" x="0px" y="0px" width="301.6px"
	 height="60.4px" viewBox="0 0 301.6 60.4" style="enable-background:new 0 0 301.6 60.4;" xml:space="preserve">
<style type="text/css">
	.st0{fill:#FFFF00;}
</style>
<defs>
</defs>
<g>
	<path class="st0" d="M18.7,60.4c-4.1,0-8-0.7-11.6-2C2.4,56.6,0,54.1,0,50.8c0-1.8,0.6-3.4,1.8-4.7c1.2-1.3,2.7-2,4.6-2
		c1.3,0,3.3,0.5,5.8,1.4c2.5,0.9,4.5,1.4,5.9,1.4c3.6,0,5.4-1.4,5.4-4.3c0-1.4-2-2.7-6.1-3.8c-5.4-1.5-9.2-3-11.2-4.3
		c-4-2.6-6.1-6.4-6.1-11.4c0-5.3,1.9-9.6,5.8-12.9c3.6-3.1,8-4.7,13.2-4.7c3.1,0,6.2,0.7,9.4,2c4,1.7,6,4,6,6.8
		c0,1.8-0.6,3.4-1.7,4.8c-1.2,1.4-2.7,2.1-4.7,2.1c-1.1,0-2.6-0.3-4.6-1c-2-0.7-3.6-1-4.7-1c-2.6,0-4,0.9-4,2.8c0,1,2,2,6.1,3.2
		c5.1,1.4,8.8,3,11.2,4.7c4,3,6.1,7.2,6.1,12.6c0,5.4-2,9.8-5.9,13.2C28.6,58.8,24.1,60.4,18.7,60.4z"/>
	<path class="st0" d="M59.3,60.4c-5.8,0.3-10.7-1.6-14.6-5.6c-3.8-3.9-5.9-8.7-6.2-14.4c-0.3-5.7,1.3-10.7,4.7-15
		c3.6-4.5,8.2-6.9,13.9-7.2c5.7-0.3,10.6,1.6,14.6,5.8c3.9,3.9,5.9,8.7,6.3,14.4c0.3,5.8-1.3,10.8-4.6,15
		C69.8,57.7,65.1,60,59.3,60.4z M57.8,30.8c-1.9,0.1-3.4,1-4.4,2.7c-1,1.7-1.5,3.8-1.4,6.2c0.1,2.3,0.8,4.3,2,5.8
		c1.2,1.6,2.7,2.3,4.6,2.2c1.9-0.1,3.4-1,4.4-2.6c1-1.7,1.5-3.7,1.4-6.1c-0.1-2.4-0.8-4.3-2-5.9C61.2,31.5,59.7,30.7,57.8,30.8z"/>
	<path class="st0" d="M94.4,59.9c-3.3-0.8-5.9-2.5-7.8-5c-1.2,1.1-2.6,1.6-4.2,1.6c-0.6,0-1.1-0.1-1.7-0.2c-1.6-0.4-2.9-1.2-3.8-2.4
		c-0.9-1.2-1.4-2.6-1.4-4.3c0-0.6,0.1-1.3,0.3-2l9.6-41.8c0.4-1.8,1.2-3.2,2.4-4.3C89,0.5,90.4,0,91.9,0c0.6,0,1.1,0.1,1.6,0.2
		c1.6,0.4,2.9,1.2,3.8,2.4c0.9,1.2,1.4,2.7,1.4,4.3c0,0.7-0.1,1.3-0.3,2L96.2,19c2.6-0.7,5.3-0.7,8-0.1c4.5,1.1,7.9,3.5,10.2,7.2
		c2,3.3,3.1,7.2,3.1,11.7c0,2.1-0.2,4.2-0.7,6.2c-1.1,4.6-3.3,8.4-6.6,11.5c-3.5,3.3-7.5,4.9-12,4.9C97,60.4,95.7,60.2,94.4,59.9z
		 M99.7,30.8c-0.5-0.1-0.9-0.1-1.3-0.1c-1.5,0-2.9,0.6-4,1.8c-1.2,1.2-2,2.9-2.4,4.9c-0.2,1-0.3,2-0.3,3c0,1.9,0.4,3.5,1.3,4.7
		c1,1.5,2.4,2.2,4.2,2.2c2.1,0,3.8-1.1,5.2-3.3c1.2-2,1.8-4.1,1.8-6.3C104.1,33.8,102.6,31.5,99.7,30.8z"/>
	<path class="st0" d="M131.4,21.2c1.5-1.6,3.6-2.3,6.5-2.2c1.8,0.1,3.2,0.8,4.4,2.1c1.3,1.4,1.8,3.3,1.7,5.4c-0.1,2-1.3,3.6-3.4,4.6
		c-2,0.7-4,1.4-6,2.1c-2.1,0.9-3.3,2.3-3.4,4l-1,15.3c-0.2,2.1-1,3.8-2.3,5.1c-1.3,1.3-3,1.9-5,1.7c-2-0.1-3.5-0.9-4.7-2.4
		c-1.2-1.5-1.7-3.2-1.5-5.3l1.9-27.3c0.2-2.1,1.1-3.8,2.6-4.9c1.4-1,3-1.5,4.7-1.3C128.6,18.4,130.5,19.4,131.4,21.2z"/>
	<path class="st0" d="M174.7,39.6l-18.1,6.3c1.2,1.2,2.8,1.8,4.7,1.8c1.1,0,2.2-0.2,3.3-0.6c1.6-0.6,3.3-1.9,5.2-3.9
		c1.9-2,3.3-3.3,4.3-3.6c0.6-0.2,1.1-0.3,1.7-0.3c1.6,0,3.1,0.6,4.3,1.7c1.2,1.2,1.8,2.5,1.8,4.1c0,2.6-1.6,5.3-4.7,8.2
		c-2.8,2.6-5.9,4.6-9.3,5.7c-2.4,0.8-4.8,1.3-7.2,1.3c-4.3,0-8.2-1.3-11.6-3.9c-3.4-2.6-5.9-6.1-7.4-10.6c-0.8-2.4-1.3-4.8-1.3-7.4
		c0-4.3,1.1-8.1,3.3-11.5c2.4-3.6,5.6-6.1,9.7-7.5c2-0.7,4.1-1,6.2-1c4.3,0,8.2,1.4,11.9,4.1c3.5,2.6,5.9,5.7,7.1,9.4
		c0.3,0.9,0.5,1.8,0.5,2.6C179,36.9,177.6,38.6,174.7,39.6z M157.2,30.5c-2.7,0.9-4.1,2.9-4.1,5.9l10.9-3.8
		c-1.3-1.6-2.8-2.4-4.7-2.4C158.6,30.1,157.9,30.2,157.2,30.5z"/>
	<path class="st0" d="M193.8,38.9c1.1-3.2,3.1-8.2,6-15.1c1.2-3.1,3.4-4.5,6.5-4.2c1.9,0.1,3.4,0.8,4.6,2c1.4,1.4,2,3.1,1.8,5.2
		c-0.1,1.1-0.4,2.3-1,3.5l-12.3,25c-1.7,3.4-4.2,4.9-7.5,4.7c-3.3-0.3-5.5-2.3-6.6-5.9l-7.8-26.7c-0.4-1.3-0.5-2.5-0.4-3.6
		c0.1-2,1-3.6,2.6-4.7c1.4-1,3.1-1.4,4.9-1.3c3.1,0.3,5,2,5.7,5.3L193.8,38.9z"/>
	<path class="st0" d="M219,18.3c-2,0.1-3.8-0.5-5.3-2c-1.5-1.4-2.4-3.2-2.5-5.2c-0.1-1.9,0.6-3.6,2-5.2c1.4-1.5,3.1-2.3,5.1-2.4
		c2-0.1,3.7,0.5,5.3,1.8c1.6,1.4,2.4,3,2.5,5c0.1,2-0.5,3.8-1.9,5.4C222.7,17.3,221,18.2,219,18.3z M221.1,59.9
		c-2,0.1-3.7-0.5-5-1.8c-1.3-1.3-2-3-2.1-5.1l-1.4-26.8c-0.1-2.1,0.4-3.9,1.6-5.3c1.2-1.4,2.8-2.2,4.8-2.4c2-0.1,3.7,0.5,5,1.8
		c1.3,1.3,2,3,2.1,5.1l1.5,26.8c0.1,2.1-0.5,3.9-1.6,5.3C224.7,59,223.1,59.8,221.1,59.9z"/>
	<path class="st0" d="M243,38.9c1.1-3.2,3.1-8.2,6-15.1c1.2-3.1,3.4-4.5,6.5-4.2c1.9,0.1,3.4,0.8,4.6,2c1.4,1.4,2,3.1,1.8,5.2
		c-0.1,1.1-0.4,2.3-1,3.5l-12.3,25c-1.7,3.4-4.2,4.9-7.5,4.7c-3.3-0.3-5.5-2.3-6.6-5.9l-7.8-26.7c-0.4-1.3-0.5-2.5-0.4-3.6
		c0.1-2,1-3.6,2.6-4.7c1.4-1,3.1-1.4,4.9-1.3c3.1,0.3,5,2,5.7,5.3L243,38.9z"/>
	<path class="st0" d="M294.4,39.6l-18.1,6.3c1.2,1.2,2.8,1.8,4.7,1.8c1.1,0,2.2-0.2,3.3-0.6c1.6-0.6,3.3-1.9,5.2-3.9
		c1.9-2,3.3-3.3,4.3-3.6c0.6-0.2,1.1-0.3,1.7-0.3c1.6,0,3.1,0.6,4.3,1.7c1.2,1.2,1.8,2.5,1.8,4.1c0,2.6-1.6,5.3-4.7,8.2
		c-2.8,2.6-5.9,4.6-9.3,5.7c-2.4,0.8-4.8,1.3-7.2,1.3c-4.3,0-8.2-1.3-11.6-3.9c-3.4-2.6-5.9-6.1-7.4-10.6c-0.8-2.4-1.3-4.8-1.3-7.4
		c0-4.3,1.1-8.1,3.3-11.5c2.4-3.6,5.6-6.1,9.7-7.5c2-0.7,4.1-1,6.2-1c4.3,0,8.2,1.4,11.9,4.1c3.5,2.6,5.9,5.7,7.1,9.4
		c0.3,0.9,0.5,1.8,0.5,2.6C298.7,36.9,297.2,38.6,294.4,39.6z M276.8,30.5c-2.7,0.9-4.1,2.9-4.1,5.9l10.9-3.8
		c-1.3-1.6-2.8-2.4-4.7-2.4C278.3,30.1,277.6,30.2,276.8,30.5z"/>
</g>
</svg>
