<!-- Generator: Adobe Illustrator 24.0.0, SVG Export Plug-In  -->
<svg version="1.1" xmlns="http://www.w3.org/2000/svg" xmlns:xlink="http://www.w3.org/1999/xlink" x="0px" y="0px" width="352.4px"
	 height="165.2px" viewBox="0 0 352.4 165.2" style="enable-background:new 0 0 352.4 165.2;" xml:space="preserve">
<style type="text/css">
	.st0{fill:#F2F2F2;stroke:#00051E;stroke-width:11;stroke-linecap:round;stroke-linejoin:round;stroke-miterlimit:10;}
</style>
<defs>
</defs>
<g>
	<g>
		<path class="st0" d="M109.2,152.6c-9.5,4.3-19.3,6.4-29.2,6.4c-14.2,0-27.3-4.2-39.3-12.6c-12-8.4-21.2-19.8-27.7-34.3
			c-5-11.4-7.5-22.8-7.5-34.4c0-13.9,3.5-26.4,10.6-37.5c7.4-11.7,17.7-20.6,31.2-26.5c12-5.4,24-8.1,36-8.1
			c16,0,26.1,4.6,30.2,13.7c1.2,2.8,1.7,5.7,1.7,8.5c0,7.2-3.2,12.3-9.7,15.3c-4,1.7-10.4,1.9-19.2,0.7c-8.8-1.2-16.8-0.2-24.2,3.2
			c-11.7,5.2-17.6,14.5-17.6,27.9c0,6.8,1.6,13.9,4.8,21.1c7.7,17.5,18.6,26.3,32.5,26.3c7.5,0,14.3-2.6,20.3-7.7
			c6.6-5.3,9.9-11.6,9.9-19c0-2.1-0.3-4.3-1-6.6l-13.4,6.2c-2.6,1.2-5.2,1.8-7.7,1.8c-7.7,0-13.2-3.7-16.4-11.1
			c-1.2-2.6-1.7-5.2-1.7-7.8c0-7.5,3.7-12.9,11.2-16.3l30-13.4c3.9-1.7,7.5-2.5,10.8-2.5c8,0,14.3,5,18.8,14.9
			c4.6,10.7,7,21.4,7,31.9c0,12.9-3.4,24.6-10.1,35C132.5,138.3,122.4,146.6,109.2,152.6z"/>
		<path class="st0" d="M209.3,158.8c-18.3-2.8-33-11.1-43.9-24.8c-10.6-13.3-15.9-29.2-15.9-47.6c0-4.5,0.4-9.2,1.2-13.9
			c3-19.1,10.9-34.7,23.9-46.7c13-12.1,28.4-18.1,46.3-18.1c4,0,8,0.3,12,1c18.2,2.8,32.7,11.1,43.5,24.9
			c10.8,13.7,16.3,29.7,16.3,47.9c0,4.5-0.4,9-1.2,13.5c-3,19-10.9,34.5-23.8,46.6c-12.9,12.1-28.4,18.2-46.4,18.2
			C217.3,159.7,213.3,159.4,209.3,158.8z M227.3,44.6c-1.7-0.4-3.4-0.6-5-0.6c-8.5,0-15.6,3.2-21.3,9.7c-5.7,6.5-9.4,14.8-11,25.2
			c-0.5,3.2-0.8,6.5-0.8,9.7c0,9.2,2.2,16.8,6.6,23c4.4,6.2,10.8,9.9,19.2,11.2c1.8,0.4,3.5,0.6,5.2,0.6c8.5,0,15.7-3.3,21.5-9.9
			c5.4-6.2,9-14.5,10.6-25c0.5-3.1,0.8-6.2,0.8-9.3c0-9.2-2.1-16.8-6.4-23C242,49.8,235.5,45.9,227.3,44.6z"/>
		<path class="st0" d="M278.5,137.9c0-5.4,1.9-10.1,5.8-14c3.9-3.9,8.6-5.9,14.1-5.9c5.4,0,10.1,1.9,14,5.8
			c3.9,3.9,5.9,8.6,5.9,14.1c0,5.5-1.9,10.3-5.8,14.1c-3.9,3.9-8.6,5.8-14.1,5.8c-5.4,0-10.1-1.9-14-5.8
			C280.5,148.1,278.5,143.4,278.5,137.9z M290,99.7c0-1.7,0.2-3.4,0.6-5l19.4-72c2.3-8.8,8.1-13.2,17.2-13.2c5.3,0,9.8,1.6,13.5,4.8
			c4.1,3.6,6.2,8,6.2,13.2c0,1.7-0.3,3.3-0.8,4.8l-19.2,72c-2.5,8.9-8.3,13.4-17.4,13.4c-5.3,0-9.9-1.7-13.7-5.1
			C291.9,109.2,290,104.9,290,99.7z"/>
	</g>
</g>
</svg>
