<!-- Generator: Adobe Illustrator 24.0.0, SVG Export Plug-In  -->
<svg version="1.1" xmlns="http://www.w3.org/2000/svg" xmlns:xlink="http://www.w3.org/1999/xlink" x="0px" y="0px" width="104.9px"
	 height="135.7px" viewBox="0 0 104.9 135.7" style="enable-background:new 0 0 104.9 135.7;" xml:space="preserve">
<style type="text/css">
	.st0{fill:#FFFF00;stroke:#00051E;stroke-width:9;stroke-miterlimit:10;}
</style>
<defs>
</defs>
<g>
	<path class="st0" d="M37.8,129.4c-10.2-2.7-18.5-8-24.9-15.9C7.3,106.3,4.5,98.8,4.5,91c0-2.2,0.3-4.2,0.8-6.2
		c0.9-3.5,2.9-6.2,6.2-8.1c2.8-1.7,6-2.6,9.4-2.6c1.5,0,2.9,0.2,4.2,0.5c3.8,1.1,6.6,3.5,8.3,7.3c1.2,3.5,2.4,7,3.6,10.6
		c1.8,3.8,4.9,6.3,9.1,7.5c1.1,0.3,2.1,0.5,3.1,0.5c5.6,0,9.2-2.8,10.6-8.3c0.4-1.3,0.7-2.5,0.7-3.6c0-3.4-2.2-6.1-6.7-8.3
		c-6.4-2.9-10.1-4.9-11.2-6c-2.4-2.4-3.6-5.3-3.6-8.8c0-1.5,0.2-3.1,0.7-4.9c1.3-4.6,3.6-7.6,6.8-9.3c2.5-1.2,6.2-1.8,11.2-1.8
		c3.5,0.1,5.8-0.1,7-0.7c1.6-0.8,2.8-2.4,3.4-5c0.2-0.7,0.3-1.3,0.3-2c0-3.4-2-5.6-6-6.7c-1.1-0.2-2.1-0.3-3.1-0.3
		c-2.8,0-6.2,1.7-10.2,5c-4,3.3-7.5,5-10.6,5c-1.2,0-2.4-0.2-3.7-0.5c-7-1.8-10.6-6.7-10.6-14.6c0-7.8,4.2-14.1,12.5-19
		c7.2-4.1,14.9-6.2,23.3-6.2c3.8,0,7.4,0.5,10.9,1.5c9.8,2.6,17.3,7.5,22.6,14.6c4.7,6.2,7,13,7,20.5c0,5.9-1.6,11.4-4.7,16.5
		c-3.1,5.2-7.3,9.1-12.4,12c6.4,7.2,9.6,15.2,9.6,24.1c0,2.9-0.4,5.9-1.1,8.8c-2.4,8.7-7.4,15.6-15,20.9c-7.6,5.3-16.2,7.9-25.9,7.9
		C46.6,131.2,42.2,130.6,37.8,129.4z"/>
</g>
</svg>
