<!-- Generator: Adobe Illustrator 24.0.0, SVG Export Plug-In  -->
<svg version="1.1" xmlns="http://www.w3.org/2000/svg" xmlns:xlink="http://www.w3.org/1999/xlink" x="0px" y="0px" width="601.6px"
	 height="150.9px" viewBox="0 0 601.6 150.9" style="enable-background:new 0 0 601.6 150.9;" xml:space="preserve">
<style type="text/css">
	.st0{fill:#FFFF00;}
	.st1{fill:#FFFFFF;}
</style>
<defs>
</defs>
<g>
	<g>
		<path class="st0" d="M85,40.6l-15.2,1.8l10.7,85.7c0.1,1,0.2,1.9,0.2,2.9c0,4.8-1.5,8.8-4.4,12c-3,3.2-6.8,5.1-11.5,5.7
			c-5.2,0.6-9.7-0.5-13.5-3.4c-3.8-2.9-6.1-7.2-6.8-12.8L34,46.9l-15.2,1.8c-5.4,0.6-9.9-0.7-13.4-4c-3-2.8-4.8-6.4-5.2-10.9
			c-0.6-4.5,0.4-8.6,3.1-12.4c2.7-3.8,6.5-6,11.6-6.6l66-8.1c5.1-0.6,9.4,0.7,13,3.8c3.3,2.9,5.2,6.6,5.8,11
			c0.5,4.5-0.4,8.4-2.5,11.9C94.5,37.5,90.4,39.8,85,40.6z"/>
		<path class="st0" d="M134.2,150.4c-14.7,0.7-26.5-2.5-35.4-9.7c-8.9-7.2-13.6-17.3-14.2-30.3l-2.5-47c-0.2-5.4,1.2-10,4.3-13.8
			c3.1-3.8,7.2-5.8,12.4-6.1c5.1-0.2,9.3,1.4,12.8,4.8c3.5,3.4,5.4,7.9,5.6,13.3l2.4,46.3c0.2,3.9,1.6,6.8,4.1,8.9
			c2.5,2.1,5.5,3,9,2.9c3.4-0.2,6.2-1.5,8.5-3.8c2.3-2.3,3.3-5.4,3.1-9.2l-2.4-46.3c-0.4-5.4,1-10,4.1-13.8s7.2-5.8,12.4-6.1
			c5.2-0.2,9.5,1.3,12.9,4.7c3.4,3.4,5.3,7.8,5.5,13.4l2.5,46.8c0.7,13.1-2.9,23.7-10.9,31.7C160.3,145.1,148.9,149.5,134.2,150.4z"
			/>
		<path class="st0" d="M231.1,79.3l-2.7-0.7l-12.5,54.1c-1.1,4.6-3.2,8.2-6.3,10.9c-3.1,2.7-6.8,4.1-11,4.1c-1.3,0-2.7-0.1-4.2-0.4
			c-4.1-1-7.4-3-9.8-6.2s-3.6-6.9-3.6-11.1c0-1.7,0.2-3.4,0.5-5.1l12.7-54.3l-1.3-0.2c-8.3-1.9-12.5-6.9-12.5-14.8
			c0-1.4,0.2-2.9,0.5-4.3c0.8-3.7,2.7-6.7,5.5-9c2.8-2.2,6.1-3.3,9.7-3.3c1.3,0,2.6,0.1,3.8,0.4l1.3,0.4l2.5-10.9
			c1.1-4.5,3.2-8.1,6.2-10.9c3.1-2.8,6.7-4.2,10.9-4.2c1.3,0,2.7,0.2,4.2,0.5c4.2,1,7.5,3,9.9,6.1c2.4,3.1,3.5,6.9,3.5,11.2
			c0,1.7-0.2,3.4-0.5,5.1l-2.5,10.9l2.9,0.5c8.9,2.1,13.4,7.1,13.4,15c0,1.3-0.1,2.8-0.4,4.3c-1.9,8.2-7.1,12.3-15.4,12.3
			C234.4,79.8,232.8,79.6,231.1,79.3z"/>
		<path class="st0" d="M297,150.4c-15.1,0.7-27.7-4.1-38-14.5c-9.9-10-15.3-22.5-16.1-37.4c-0.7-14.7,3.4-27.7,12.3-38.9
			c9.3-11.7,21.3-18,36-18.8C306,40,318.6,45,329,55.8c10,10.1,15.4,22.5,16.3,37.3c0.7,15.1-3.3,28-11.9,38.9
			C324.2,143.4,312,149.5,297,150.4z M293,73.7c-4.9,0.2-8.8,2.6-11.5,7c-2.7,4.4-3.9,9.7-3.5,16c0.4,6,2.1,11.1,5.2,15.1
			c3.1,4,7.1,5.9,11.9,5.7c4.9-0.2,8.8-2.5,11.5-6.9c2.7-4.3,3.9-9.6,3.5-15.7c-0.4-6.1-2.1-11.3-5.2-15.4
			C301.9,75.4,297.9,73.4,293,73.7z"/>
		<path class="st1" d="M381.6,48.7c3.9-4.2,9.5-6.1,16.8-5.6c4.6,0.4,8.4,2.2,11.4,5.4c3.3,3.7,4.7,8.4,4.3,14.1
			c-0.4,5.3-3.3,9.3-8.9,11.9c-5.2,1.8-10.4,3.6-15.6,5.4c-5.5,2.4-8.5,5.9-8.9,10.5l-2.7,39.8c-0.5,5.4-2.5,9.8-6,13.2
			c-3.5,3.4-7.8,4.9-13,4.5c-5.1-0.4-9.1-2.4-12.1-6.2c-3-3.8-4.3-8.4-4-13.8l4.9-70.7c0.5-5.5,2.8-9.8,6.9-12.8
			c3.6-2.7,7.7-3.8,12.3-3.4C374.3,41.4,379.1,44,381.6,48.7z"/>
		<path class="st1" d="M430.4,41.1c-5.2,0.4-9.8-1.3-13.7-5.1c-4-3.7-6.1-8.2-6.5-13.4c-0.2-4.9,1.5-9.4,5.2-13.4s8-6.1,13.1-6.3
			c5.1-0.4,9.6,1.2,13.7,4.8c4,3.6,6.2,7.9,6.4,12.9c0.2,5.3-1.4,10-4.9,14C440.1,38.7,435.7,40.9,430.4,41.1z M436.1,149.1
			c-5.2,0.4-9.5-1.2-12.9-4.6c-3.4-3.4-5.3-7.9-5.5-13.3L414,61.7c-0.4-5.4,1-10,4.1-13.7c3.1-3.7,7.2-5.8,12.4-6.1
			c5.2-0.2,9.5,1.4,12.9,4.8c3.4,3.4,5.3,7.9,5.5,13.3l3.8,69.5c0.2,5.4-1.2,10-4.2,13.7C445.4,146.9,441.2,148.8,436.1,149.1z"/>
		<path class="st1" d="M549.5,140.2c-1.6,0.4-3.1,0.5-4.7,0.5c-4.1,0-7.7-1.6-10.7-4.7c-5.2,7.1-12.1,11.6-20.6,13.6
			c-3.5,0.8-7,1.3-10.5,1.3c-11.3,0-21.4-4-30.3-12s-14.9-18.6-18-31.7c-1.1-4.8-1.6-9.6-1.6-14.5c0-12.2,3.3-22.9,9.8-32.1
			c6.5-9.2,15.1-15.1,25.9-17.6c3-0.7,6-1.1,8.9-1.1c5.7,0,10.9,1.3,15.7,3.8c2.2-5.3,6.1-8.7,11.9-10.1c1.9-0.4,3.7-0.5,5.4-0.5
			c8,0,13.3,5.9,16.1,17.7l14.5,62.8c0.8,3.9,1.3,7.1,1.3,9.6C562.5,133.2,558.1,138.3,549.5,140.2z M488.1,91.9
			c0,2.4,0.2,4.9,0.7,7.4c1.2,5.2,3.4,9.5,6.5,12.8c3.1,3.4,6.8,5.1,10.9,5.1c4.7,0,8.3-1.9,10.9-5.6c2.4-3.3,3.6-7.4,3.6-12.3
			c0-2.3-0.3-4.7-0.9-7.2c-1.2-5.3-3.4-9.7-6.5-13.1c-3.1-3.4-6.7-5.2-10.7-5.2c-4.7,0-8.3,1.8-10.8,5.3
			C489.4,82.7,488.1,87,488.1,91.9z"/>
		<path class="st1" d="M575,149.1c-5.2-0.4-9.3-2.4-12.2-6.2c-3-3.8-4.2-8.5-3.9-14l7.8-111.1c0.4-5.4,2.3-9.8,5.8-13.2
			c3.5-3.4,7.8-4.9,13-4.5c5.2,0.4,9.3,2.4,12.2,6.2c3,3.8,4.3,8.5,3.9,14l-7.8,111.1c-0.4,5.4-2.3,9.8-5.8,13.2
			C584.5,147.9,580.1,149.4,575,149.1z"/>
	</g>
</g>
</svg>
