<!-- Generator: Adobe Illustrator 24.0.0, SVG Export Plug-In  -->
<svg version="1.1" xmlns="http://www.w3.org/2000/svg" xmlns:xlink="http://www.w3.org/1999/xlink" x="0px" y="0px" width="955.6px"
	 height="333.6px" viewBox="0 0 955.6 333.6" style="enable-background:new 0 0 955.6 333.6;" xml:space="preserve">
<style type="text/css">
	.st0{fill:#FFFFFF;}
	.st1{fill:#FFFF00;}
</style>
<defs>
</defs>
<g>
	<path class="st0" d="M35.5,40.4c-0.9-4.7-2.2-13.2-3.8-25.3c0-0.3-0.1-0.7-0.1-1.1c0-1.7,0.5-3.4,1.5-5.1c1-1.6,2.4-2.9,4.3-3.6
		c1.2-0.5,2.5-0.8,3.8-0.8c3.3,0,5.8,1.3,7.5,3.8c4.2,5.9,8.5,11.8,12.7,17.8c5.1,7.1,8.8,13.3,11.2,18.7c0.5,1,0.7,2.1,0.7,3.1
		c0,3-1.5,5.1-4.4,6.4c-1.3,0.6-2.6,0.9-3.6,0.9c-2.4,0-4.4-1.3-6.1-3.9L46.8,31.4c1,5.5,2.4,13.7,3.9,24.8c0,0.4,0.1,0.9,0.1,1.3
		c0,3.2-1.6,5.6-4.8,7c-1.2,0.5-2.5,0.8-3.6,0.8c-2.2,0-4.1-0.9-5.7-2.8L20.3,43.1c1.7,4.9,4,12.4,6.9,22.4c0.3,1.1,0.4,2.1,0.4,3
		c0,2.8-1.6,4.9-4.7,6.3c-1,0.4-2,0.7-3.1,0.7c-3,0-5.1-1.4-6.4-4.3c-2.4-5.4-4.5-12.3-6.4-20.9C5.3,43.2,3.7,36,2.2,28.9
		c-0.1-0.5-0.2-1.1-0.2-1.8c0-1.7,0.5-3.3,1.5-5c1-1.6,2.4-2.8,4.2-3.6c1.2-0.5,2.5-0.8,3.9-0.8c3,0,5.5,1.1,7.3,3.2L35.5,40.4z"/>
	<path class="st0" d="M110.8,62.7c-0.6,0.1-1.3,0.2-1.9,0.2c-1.7,0-3.2-0.6-4.4-1.9c-2.1,2.9-5,4.8-8.5,5.6
		c-1.4,0.3-2.9,0.5-4.3,0.5c-4.7,0-8.8-1.7-12.5-5c-3.6-3.3-6.1-7.7-7.4-13.1c-0.4-2-0.7-4-0.7-6c0-5,1.3-9.4,4-13.2
		c2.7-3.8,6.2-6.2,10.7-7.3c1.2-0.3,2.5-0.4,3.6-0.4c2.3,0,4.5,0.5,6.5,1.6c0.9-2.2,2.5-3.6,4.9-4.2c0.8-0.1,1.5-0.2,2.2-0.2
		c3.3,0,5.5,2.4,6.6,7.3l6,25.8c0.3,1.6,0.5,2.9,0.5,3.9C116.1,59.9,114.3,62,110.8,62.7z M85.5,42.9c0,1,0.1,2,0.3,3.1
		c0.5,2.1,1.4,3.9,2.7,5.3c1.3,1.4,2.8,2.1,4.5,2.1c1.9,0,3.4-0.8,4.5-2.3c1-1.3,1.5-3,1.5-5.1c0-0.9-0.1-1.9-0.4-3
		c-0.5-2.2-1.4-4-2.7-5.4c-1.3-1.4-2.8-2.1-4.4-2.1c-1.9,0-3.4,0.7-4.4,2.2C86,39.1,85.5,40.8,85.5,42.9z"/>
	<path class="st0" d="M121.3,66.4c-2.1-0.1-3.8-1-5-2.6c-1.2-1.6-1.8-3.5-1.6-5.8l3.2-45.7c0.1-2.2,0.9-4,2.4-5.4
		c1.4-1.4,3.2-2,5.4-1.9c2.1,0.1,3.8,1,5,2.6c1.2,1.6,1.8,3.5,1.6,5.8L129,59.1c-0.1,2.2-0.9,4-2.4,5.4
		C125.2,65.9,123.4,66.5,121.3,66.4z"/>
	<path class="st0" d="M167.9,44.7l-19.3,6.7c1.3,1.3,3,1.9,5,1.9c1.1,0,2.3-0.2,3.6-0.7c1.7-0.6,3.5-2,5.5-4.2
		c2-2.2,3.5-3.5,4.5-3.9c0.6-0.2,1.2-0.3,1.8-0.3c1.7,0,3.3,0.6,4.6,1.9c1.3,1.2,2,2.7,2,4.4c0,2.7-1.7,5.6-5.1,8.7
		c-3,2.8-6.4,4.9-10,6.1c-2.6,0.9-5.2,1.3-7.7,1.3c-4.6,0-8.8-1.4-12.4-4.2c-3.6-2.8-6.3-6.6-7.9-11.3c-0.9-2.5-1.3-5.2-1.3-7.9
		c0-4.6,1.2-8.7,3.5-12.3c2.5-3.9,6-6.6,10.4-8c2.2-0.7,4.4-1.1,6.6-1.1c4.6,0,8.8,1.5,12.7,4.4c3.7,2.7,6.3,6.1,7.6,10.1
		c0.3,1,0.5,1.9,0.5,2.8C172.4,41.8,170.9,43.7,167.9,44.7z M149.1,35c-2.9,1-4.3,3.1-4.4,6.3l11.7-4c-1.3-1.7-3-2.6-5-2.6
		C150.7,34.6,149.9,34.7,149.1,35z"/>
	<path class="st0" d="M195.5,37.6l-1.1-0.3l-5.1,22.3c-0.4,1.9-1.3,3.4-2.6,4.5c-1.3,1.1-2.8,1.7-4.5,1.7c-0.5,0-1.1,0-1.7-0.1
		c-1.7-0.4-3-1.3-4-2.6c-1-1.3-1.5-2.8-1.5-4.6c0-0.7,0.1-1.4,0.2-2.1l5.2-22.3l-0.5-0.1c-3.4-0.8-5.1-2.8-5.1-6.1
		c0-0.6,0.1-1.2,0.2-1.8c0.3-1.5,1.1-2.8,2.3-3.7c1.2-0.9,2.5-1.4,4-1.4c0.5,0,1.1,0,1.6,0.1l0.5,0.1l1-4.5c0.4-1.8,1.3-3.3,2.6-4.5
		c1.3-1.1,2.8-1.7,4.5-1.7c0.5,0,1.1,0.1,1.7,0.2c1.7,0.4,3.1,1.2,4.1,2.5s1.5,2.8,1.5,4.6c0,0.7-0.1,1.4-0.2,2.1l-1,4.5l1.2,0.2
		c3.7,0.8,5.5,2.9,5.5,6.2c0,0.5,0,1.1-0.1,1.8c-0.8,3.4-2.9,5.1-6.3,5.1C196.9,37.9,196.2,37.8,195.5,37.6z"/>
	<path class="st0" d="M213.4,17.9l-8.3,3.3c-1.5,0.6-2.7,0.9-3.6,0.9c-1.8,0-3.2-0.9-4.3-2.6c-1-1.4-1.5-3-1.5-4.7
		c0-2.1,1-3.6,3.1-4.7l0.7-0.3l8.9-3.6c1.4-0.6,2.6-0.9,3.5-0.9c1.7,0,3.1,0.7,4.3,2.2c1,1.3,1.6,2.8,1.6,4.2
		C217.6,14.8,216.2,16.8,213.4,17.9z M215.9,66.1c-1.8,0-3.3-0.6-4.7-1.9c-1.3-1.2-2.1-2.9-2.4-4.8l-4.5-28.2
		c-0.1-0.5-0.1-1.1-0.1-1.6c0-2.1,0.7-3.9,2-5.3c1.4-1.4,3.1-2.1,5.2-2.1c1.8,0,3.4,0.6,4.7,1.9c1.3,1.2,2.1,2.9,2.4,4.8l4.5,28.2
		c0.1,0.5,0.1,1.1,0.1,1.6c0,2.1-0.7,3.9-2,5.3C219.7,65.4,218,66.1,215.9,66.1z"/>
	<path class="st0" d="M251.1,68.6c-1.7-0.4-3-1.2-4-2.5c-1-1.3-1.5-2.8-1.5-4.5c0-0.7,0.1-1.4,0.2-2.2l4.2-18.2
		c0.1-0.6,0.2-1.3,0.2-1.9c0-1.5-0.5-2.7-1.6-3.5c-1-0.9-2.3-1.3-3.8-1.3c-2.5,0-4.1,1.5-4.8,4.4L236,57.2c-0.4,1.8-1.3,3.3-2.6,4.5
		c-1.3,1.1-2.8,1.7-4.5,1.7c-0.6,0-1.2-0.1-1.7-0.2c-1.7-0.4-3.1-1.2-4.1-2.5c-1-1.3-1.5-2.8-1.5-4.5c0-0.7,0.1-1.5,0.2-2.2
		l6.4-27.9c0.4-1.9,1.3-3.4,2.6-4.5c1.3-1.1,2.8-1.7,4.5-1.7c3.2,0,5.4,1.3,6.6,3.8c1.6-0.8,3.5-1.2,5.6-1.2c1.4,0,2.9,0.2,4.5,0.6
		c3.9,0.9,7.1,2.7,9.4,5.4c2.4,2.7,3.5,6,3.5,9.8c0,1.4-0.1,2.8-0.4,4.3l-4.7,20c-0.4,1.9-1.2,3.4-2.5,4.5c-1.3,1.1-2.8,1.7-4.5,1.7
		C252.3,68.9,251.7,68.8,251.1,68.6z"/>
</g>
<g>
	<path class="st1" d="M26.7,137.2l-6.3,1.1l1.8,10.2c0.1,0.5,0.1,1.1,0.1,1.6c0,2.2-0.7,3.9-2.2,5.3c-1.5,1.3-3.3,2-5.5,2
		c-1.8,0-3.3-0.6-4.7-1.7c-1.3-1.1-2.1-2.7-2.5-4.7l-7.3-41.2C0,109.3,0,108.8,0,108.2c0-4.1,2.1-6.5,6.4-7.2l13-2.3
		c1.5-0.2,3-0.4,4.4-0.4c5,0,9.3,1.4,12.9,4.3c3.6,2.9,5.8,6.8,6.7,11.8c0.2,1.3,0.3,2.5,0.3,3.7c0,4.9-1.6,9.1-4.8,12.6
		C35.7,134.2,31.6,136.3,26.7,137.2z M21.5,112.1l-5.7,1L18,125l5.7-1c3.2-0.5,4.8-2.4,4.8-5.6c0-1.8-0.5-3.3-1.4-4.5
		c-1.1-1.3-2.5-1.9-4.2-1.9C22.3,112,21.9,112,21.5,112.1z"/>
	<path class="st1" d="M79.6,151.7c-0.6,0.1-1.3,0.2-1.9,0.2c-1.7,0-3.2-0.6-4.4-1.9c-2.1,2.9-5,4.8-8.5,5.6
		c-1.4,0.3-2.9,0.5-4.3,0.5c-4.7,0-8.8-1.7-12.5-5c-3.6-3.3-6.1-7.7-7.4-13.1c-0.4-2-0.7-4-0.7-6c0-5,1.3-9.4,4-13.2
		c2.7-3.8,6.2-6.2,10.7-7.3c1.2-0.3,2.5-0.4,3.6-0.4c2.3,0,4.5,0.5,6.5,1.6c0.9-2.2,2.5-3.6,4.9-4.2c0.8-0.1,1.5-0.2,2.2-0.2
		c3.3,0,5.5,2.4,6.6,7.3l6,25.8c0.3,1.6,0.5,2.9,0.5,3.9C84.9,148.9,83.1,151,79.6,151.7z M54.3,131.9c0,1,0.1,2,0.3,3.1
		c0.5,2.1,1.4,3.9,2.7,5.3c1.3,1.4,2.8,2.1,4.5,2.1c1.9,0,3.4-0.8,4.5-2.3c1-1.3,1.5-3,1.5-5.1c0-0.9-0.1-1.9-0.4-3
		c-0.5-2.2-1.4-4-2.7-5.4c-1.3-1.4-2.8-2.1-4.4-2.1c-1.9,0-3.4,0.7-4.4,2.2C54.8,128.1,54.3,129.8,54.3,131.9z"/>
	<path class="st1" d="M106.2,156c-2.7-0.2-5.3-1.2-7.7-2.8l-0.8,9.5c-0.2,2.2-1,4-2.5,5.4c-1.5,1.4-3.3,1.9-5.4,1.8
		c-2.1-0.1-3.7-1-5-2.6c-1.2-1.6-1.7-3.5-1.5-5.8l3.9-44.2c0.2-2.2,1-4,2.5-5.4c1.5-1.4,3.3-2,5.4-1.8c2.6,0.2,4.4,1.4,5.6,3.4
		c2.7-2,6-2.8,9.9-2.5c5.6,0.5,10,3,13.1,7.6c2.7,4,4.1,8.8,4.1,14.4c0,6.3-1.9,11.7-5.8,16.3C117.7,154.4,112.5,156.5,106.2,156z
		 M107.6,124.4c-2-0.2-3.7,0.5-5,2c-1.3,1.5-2.1,3.6-2.3,6.1c-0.2,2.6,0.1,4.8,1.2,6.7c1,1.9,2.5,2.9,4.5,3.1
		c1.9,0.1,3.6-0.6,4.9-2.2c1.3-1.6,2.1-3.7,2.4-6.1c0.2-2.5-0.2-4.7-1.3-6.6C111,125.6,109.5,124.6,107.6,124.4z"/>
	<path class="st1" d="M163.3,133.7l-19.3,6.7c1.3,1.3,3,1.9,5,1.9c1.1,0,2.3-0.2,3.6-0.7c1.7-0.6,3.5-2,5.5-4.2
		c2-2.2,3.5-3.5,4.5-3.9c0.6-0.2,1.2-0.3,1.8-0.3c1.7,0,3.3,0.6,4.6,1.9c1.3,1.2,2,2.7,2,4.4c0,2.7-1.7,5.6-5.1,8.7
		c-3,2.8-6.4,4.9-10,6.1c-2.6,0.9-5.2,1.3-7.7,1.3c-4.6,0-8.8-1.4-12.4-4.2c-3.6-2.8-6.3-6.6-7.9-11.3c-0.9-2.5-1.3-5.2-1.3-7.9
		c0-4.6,1.2-8.7,3.5-12.3c2.5-3.9,6-6.6,10.4-8c2.2-0.7,4.4-1.1,6.6-1.1c4.6,0,8.8,1.5,12.7,4.4c3.7,2.7,6.3,6.1,7.6,10.1
		c0.3,1,0.5,1.9,0.5,2.8C167.9,130.8,166.4,132.7,163.3,133.7z M144.6,124c-2.9,1-4.3,3.1-4.4,6.3l11.7-4c-1.3-1.7-3-2.6-5-2.6
		C146.1,123.6,145.4,123.7,144.6,124z"/>
	<path class="st1" d="M177.3,155.4c-2.1-0.1-3.8-1-5-2.6c-1.2-1.6-1.8-3.5-1.6-5.8l3.2-45.7c0.1-2.2,0.9-4,2.4-5.4
		c1.4-1.4,3.2-2,5.4-1.9c2.1,0.1,3.8,1,5,2.6c1.2,1.6,1.8,3.5,1.6,5.8l-3.2,45.7c-0.1,2.2-0.9,4-2.4,5.4
		C181.2,154.9,179.4,155.5,177.3,155.4z"/>
	<path class="st1" d="M223.9,133.7l-19.3,6.7c1.3,1.3,3,1.9,5,1.9c1.1,0,2.3-0.2,3.6-0.7c1.7-0.6,3.5-2,5.5-4.2
		c2-2.2,3.5-3.5,4.5-3.9c0.6-0.2,1.2-0.3,1.8-0.3c1.7,0,3.3,0.6,4.6,1.9c1.3,1.2,2,2.7,2,4.4c0,2.7-1.7,5.6-5.1,8.7
		c-3,2.8-6.4,4.9-10,6.1c-2.6,0.9-5.2,1.3-7.7,1.3c-4.6,0-8.8-1.4-12.4-4.2c-3.6-2.8-6.3-6.6-7.9-11.3c-0.9-2.5-1.3-5.2-1.3-7.9
		c0-4.6,1.2-8.7,3.5-12.3c2.5-3.9,6-6.6,10.4-8c2.2-0.7,4.4-1.1,6.6-1.1c4.6,0,8.8,1.5,12.7,4.4c3.7,2.7,6.3,6.1,7.6,10.1
		c0.3,1,0.5,1.9,0.5,2.8C228.4,130.8,226.9,132.7,223.9,133.7z M205.1,124c-2.9,1-4.3,3.1-4.4,6.3l11.7-4c-1.3-1.7-3-2.6-5-2.6
		C206.7,123.6,205.9,123.7,205.1,124z"/>
	<path class="st1" d="M247.6,114.1c1.6-1.7,3.9-2.5,6.9-2.3c1.9,0.1,3.5,0.9,4.7,2.2c1.3,1.5,1.9,3.5,1.8,5.8
		c-0.1,2.2-1.4,3.8-3.6,4.9c-2.1,0.7-4.3,1.5-6.4,2.2c-2.3,1-3.5,2.4-3.6,4.3l-1.1,16.4c-0.2,2.2-1,4-2.5,5.4
		c-1.4,1.4-3.2,2-5.4,1.9c-2.1-0.1-3.8-1-5-2.6c-1.2-1.6-1.8-3.5-1.6-5.7l2-29.1c0.2-2.3,1.1-4,2.8-5.3c1.5-1.1,3.2-1.6,5.1-1.4
		C244.6,111.1,246.5,112.1,247.6,114.1z"/>
	<path class="st1" d="M296.9,151.7c-0.6,0.1-1.3,0.2-1.9,0.2c-1.7,0-3.2-0.6-4.4-1.9c-2.1,2.9-5,4.8-8.5,5.6
		c-1.4,0.3-2.9,0.5-4.3,0.5c-4.7,0-8.8-1.7-12.5-5c-3.6-3.3-6.1-7.7-7.4-13.1c-0.4-2-0.7-4-0.7-6c0-5,1.3-9.4,4-13.2
		c2.7-3.8,6.2-6.2,10.7-7.3c1.2-0.3,2.5-0.4,3.6-0.4c2.3,0,4.5,0.5,6.5,1.6c0.9-2.2,2.5-3.6,4.9-4.2c0.8-0.1,1.5-0.2,2.2-0.2
		c3.3,0,5.5,2.4,6.6,7.3l6,25.8c0.3,1.6,0.5,2.9,0.5,3.9C302.3,148.9,300.5,151,296.9,151.7z M271.6,131.9c0,1,0.1,2,0.3,3.1
		c0.5,2.1,1.4,3.9,2.7,5.3c1.3,1.4,2.8,2.1,4.5,2.1c1.9,0,3.4-0.8,4.5-2.3c1-1.3,1.5-3,1.5-5.1c0-0.9-0.1-1.9-0.4-3
		c-0.5-2.2-1.4-4-2.7-5.4c-1.3-1.4-2.8-2.1-4.4-2.1c-1.9,0-3.4,0.7-4.4,2.2C272.2,128.1,271.6,129.8,271.6,131.9z"/>
</g>
<g>
	<path class="st0" d="M26.7,229.2l-6.3,1.1l1.8,10.2c0.1,0.5,0.1,1.1,0.1,1.6c0,2.2-0.7,3.9-2.2,5.3c-1.5,1.3-3.3,2-5.5,2
		c-1.8,0-3.3-0.6-4.7-1.7c-1.3-1.1-2.1-2.7-2.5-4.7l-7.3-41.2C0,201.3,0,200.8,0,200.2c0-4.1,2.1-6.5,6.4-7.2l13-2.3
		c1.5-0.2,3-0.4,4.4-0.4c5,0,9.3,1.4,12.9,4.3c3.6,2.9,5.8,6.8,6.7,11.8c0.2,1.3,0.3,2.5,0.3,3.7c0,4.9-1.6,9.1-4.8,12.6
		C35.7,226.2,31.6,228.3,26.7,229.2z M21.5,204.1l-5.7,1L18,217l5.7-1c3.2-0.5,4.8-2.4,4.8-5.6c0-1.8-0.5-3.3-1.4-4.5
		c-1.1-1.3-2.5-1.9-4.2-1.9C22.3,204,21.9,204,21.5,204.1z"/>
	<path class="st0" d="M62,247.9c-6.2,0.3-11.4-1.7-15.6-6c-4.1-4.1-6.3-9.3-6.6-15.4c-0.3-6.1,1.4-11.4,5.1-16
		c3.8-4.8,8.8-7.4,14.8-7.7c6.1-0.3,11.3,1.8,15.6,6.2c4.1,4.2,6.4,9.3,6.7,15.3c0.3,6.2-1.3,11.5-4.9,16
		C73.2,245,68.3,247.6,62,247.9z M60.4,216.3c-2,0.1-3.6,1.1-4.7,2.9c-1.1,1.8-1.6,4-1.5,6.6c0.1,2.5,0.9,4.6,2.2,6.2
		c1.3,1.7,2.9,2.4,4.9,2.3c2-0.1,3.6-1,4.7-2.8c1.1-1.8,1.6-3.9,1.5-6.5c-0.1-2.5-0.9-4.6-2.1-6.3C64.1,217,62.4,216.2,60.4,216.3z"
		/>
	<path class="st0" d="M96.9,206.1c1.6-1.7,3.9-2.5,6.9-2.3c1.9,0.1,3.5,0.9,4.7,2.2c1.3,1.5,1.9,3.5,1.8,5.8
		c-0.1,2.2-1.4,3.8-3.6,4.9c-2.1,0.7-4.3,1.5-6.4,2.2c-2.3,1-3.5,2.4-3.6,4.3l-1.1,16.4c-0.2,2.2-1,4-2.5,5.4
		c-1.4,1.4-3.2,2-5.4,1.9c-2.1-0.1-3.8-1-5-2.6c-1.2-1.6-1.8-3.5-1.6-5.7l2-29.1c0.2-2.3,1.1-4,2.8-5.3c1.5-1.1,3.2-1.6,5.1-1.4
		C93.9,203.1,95.9,204.1,96.9,206.1z"/>
	<path class="st0" d="M129.3,218.6l-1.1-0.3l-5.1,22.3c-0.4,1.9-1.3,3.4-2.6,4.5c-1.3,1.1-2.8,1.7-4.5,1.7c-0.5,0-1.1,0-1.7-0.1
		c-1.7-0.4-3-1.3-4-2.6c-1-1.3-1.5-2.8-1.5-4.6c0-0.7,0.1-1.4,0.2-2.1l5.2-22.3l-0.5-0.1c-3.4-0.8-5.1-2.8-5.1-6.1
		c0-0.6,0.1-1.2,0.2-1.8c0.3-1.5,1.1-2.8,2.3-3.7c1.2-0.9,2.5-1.4,4-1.4c0.5,0,1.1,0,1.6,0.1l0.5,0.1l1-4.5c0.4-1.8,1.3-3.3,2.6-4.5
		c1.3-1.1,2.8-1.7,4.5-1.7c0.5,0,1.1,0.1,1.7,0.2c1.7,0.4,3.1,1.2,4.1,2.5s1.5,2.8,1.5,4.6c0,0.7-0.1,1.4-0.2,2.1l-1,4.5l1.2,0.2
		c3.7,0.8,5.5,2.9,5.5,6.2c0,0.5,0,1.1-0.1,1.8c-0.8,3.4-2.9,5.1-6.3,5.1C130.7,218.9,130,218.8,129.3,218.6z"/>
	<path class="st0" d="M173.9,243.7c-0.6,0.1-1.3,0.2-1.9,0.2c-1.7,0-3.2-0.6-4.4-1.9c-2.1,2.9-5,4.8-8.5,5.6
		c-1.4,0.3-2.9,0.5-4.3,0.5c-4.7,0-8.8-1.7-12.5-5c-3.6-3.3-6.1-7.7-7.4-13.1c-0.4-2-0.7-4-0.7-6c0-5,1.3-9.4,4-13.2
		c2.7-3.8,6.2-6.2,10.7-7.3c1.2-0.3,2.5-0.4,3.6-0.4c2.3,0,4.5,0.5,6.5,1.6c0.9-2.2,2.5-3.6,4.9-4.2c0.8-0.1,1.5-0.2,2.2-0.2
		c3.3,0,5.5,2.4,6.6,7.3l6,25.8c0.3,1.6,0.5,2.9,0.5,3.9C179.3,240.9,177.5,243,173.9,243.7z M148.7,223.9c0,1,0.1,2,0.3,3.1
		c0.5,2.1,1.4,3.9,2.7,5.3c1.3,1.4,2.8,2.1,4.5,2.1c1.9,0,3.4-0.8,4.5-2.3c1-1.3,1.5-3,1.5-5.1c0-0.9-0.1-1.9-0.4-3
		c-0.5-2.2-1.4-4-2.7-5.4c-1.3-1.4-2.8-2.1-4.4-2.1c-1.9,0-3.4,0.7-4.4,2.2C149.2,220.1,148.7,221.8,148.7,223.9z"/>
	<path class="st0" d="M194.2,206.1c1.6-1.7,3.9-2.5,6.9-2.3c1.9,0.1,3.5,0.9,4.7,2.2c1.3,1.5,1.9,3.5,1.8,5.8
		c-0.1,2.2-1.4,3.8-3.6,4.9c-2.1,0.7-4.3,1.5-6.4,2.2c-2.3,1-3.5,2.4-3.6,4.3l-1.1,16.4c-0.2,2.2-1,4-2.5,5.4
		c-1.4,1.4-3.2,2-5.4,1.9c-2.1-0.1-3.8-1-5-2.6c-1.2-1.6-1.8-3.5-1.6-5.7l2-29.1c0.2-2.3,1.1-4,2.8-5.3c1.5-1.1,3.2-1.6,5.1-1.4
		C191.2,203.1,193.1,204.1,194.2,206.1z"/>
	<path class="st0" d="M240.4,225.7l-19.3,6.7c1.3,1.3,3,1.9,5,1.9c1.1,0,2.3-0.2,3.6-0.7c1.7-0.6,3.5-2,5.5-4.2
		c2-2.2,3.5-3.5,4.5-3.9c0.6-0.2,1.2-0.3,1.8-0.3c1.7,0,3.3,0.6,4.6,1.9c1.3,1.2,2,2.7,2,4.4c0,2.7-1.7,5.6-5.1,8.7
		c-3,2.8-6.4,4.9-10,6.1c-2.6,0.9-5.2,1.3-7.7,1.3c-4.6,0-8.8-1.4-12.4-4.2c-3.6-2.8-6.3-6.6-7.9-11.3c-0.9-2.5-1.3-5.2-1.3-7.9
		c0-4.6,1.2-8.7,3.5-12.3c2.5-3.9,6-6.6,10.4-8c2.2-0.7,4.4-1.1,6.6-1.1c4.6,0,8.8,1.5,12.7,4.4c3.7,2.7,6.3,6.1,7.6,10.1
		c0.3,1,0.5,1.9,0.5,2.8C245,222.8,243.5,224.7,240.4,225.7z M221.7,216c-2.9,1-4.3,3.1-4.4,6.3l11.7-4c-1.3-1.7-3-2.6-5-2.6
		C223.2,215.6,222.5,215.7,221.7,216z"/>
	<path class="st0" d="M268.1,218.6l-1.1-0.3l-5.1,22.3c-0.4,1.9-1.3,3.4-2.6,4.5c-1.3,1.1-2.8,1.7-4.5,1.7c-0.5,0-1.1,0-1.7-0.1
		c-1.7-0.4-3-1.3-4-2.6c-1-1.3-1.5-2.8-1.5-4.6c0-0.7,0.1-1.4,0.2-2.1l5.2-22.3l-0.5-0.1c-3.4-0.8-5.1-2.8-5.1-6.1
		c0-0.6,0.1-1.2,0.2-1.8c0.3-1.5,1.1-2.8,2.3-3.7c1.2-0.9,2.5-1.4,4-1.4c0.5,0,1.1,0,1.6,0.1l0.5,0.1l1-4.5c0.4-1.8,1.3-3.3,2.6-4.5
		c1.3-1.1,2.8-1.7,4.5-1.7c0.5,0,1.1,0.1,1.7,0.2c1.7,0.4,3.1,1.2,4.1,2.5s1.5,2.8,1.5,4.6c0,0.7-0.1,1.4-0.2,2.1l-1,4.5l1.2,0.2
		c3.7,0.8,5.5,2.9,5.5,6.2c0,0.5,0,1.1-0.1,1.8c-0.8,3.4-2.9,5.1-6.3,5.1C269.4,218.9,268.8,218.8,268.1,218.6z"/>
	<path class="st0" d="M289.7,206.1c1.6-1.7,3.9-2.5,6.9-2.3c1.9,0.1,3.5,0.9,4.7,2.2c1.3,1.5,1.9,3.5,1.8,5.8
		c-0.1,2.2-1.4,3.8-3.6,4.9c-2.1,0.7-4.3,1.5-6.4,2.2c-2.3,1-3.5,2.4-3.6,4.3l-1.1,16.4c-0.2,2.2-1,4-2.5,5.4
		c-1.4,1.4-3.2,2-5.4,1.9c-2.1-0.1-3.8-1-5-2.6c-1.2-1.6-1.8-3.5-1.6-5.7l2-29.1c0.2-2.3,1.1-4,2.8-5.3c1.5-1.1,3.2-1.6,5.1-1.4
		C286.7,203.1,288.7,204.1,289.7,206.1z"/>
	<path class="st0" d="M339.1,243.7c-0.6,0.1-1.3,0.2-1.9,0.2c-1.7,0-3.2-0.6-4.4-1.9c-2.1,2.9-5,4.8-8.5,5.6
		c-1.4,0.3-2.9,0.5-4.3,0.5c-4.7,0-8.8-1.7-12.5-5c-3.6-3.3-6.1-7.7-7.4-13.1c-0.4-2-0.7-4-0.7-6c0-5,1.3-9.4,4-13.2
		c2.7-3.8,6.2-6.2,10.7-7.3c1.2-0.3,2.5-0.4,3.6-0.4c2.3,0,4.5,0.5,6.5,1.6c0.9-2.2,2.5-3.6,4.9-4.2c0.8-0.1,1.5-0.2,2.2-0.2
		c3.3,0,5.5,2.4,6.6,7.3l6,25.8c0.3,1.6,0.5,2.9,0.5,3.9C344.4,240.9,342.6,243,339.1,243.7z M313.8,223.9c0,1,0.1,2,0.3,3.1
		c0.5,2.1,1.4,3.9,2.7,5.3c1.3,1.4,2.8,2.1,4.5,2.1c1.9,0,3.4-0.8,4.5-2.3c1-1.3,1.5-3,1.5-5.1c0-0.9-0.1-1.9-0.4-3
		c-0.5-2.2-1.4-4-2.7-5.4c-1.3-1.4-2.8-2.1-4.4-2.1c-1.9,0-3.4,0.7-4.4,2.2C314.3,220.1,313.8,221.8,313.8,223.9z"/>
	<path class="st0" d="M363.3,218.6l-1.1-0.3l-5.1,22.3c-0.4,1.9-1.3,3.4-2.6,4.5c-1.3,1.1-2.8,1.7-4.5,1.7c-0.5,0-1.1,0-1.7-0.1
		c-1.7-0.4-3-1.3-4-2.6c-1-1.3-1.5-2.8-1.5-4.6c0-0.7,0.1-1.4,0.2-2.1l5.2-22.3l-0.5-0.1c-3.4-0.8-5.1-2.8-5.1-6.1
		c0-0.6,0.1-1.2,0.2-1.8c0.3-1.5,1.1-2.8,2.3-3.7c1.2-0.9,2.5-1.4,4-1.4c0.5,0,1.1,0,1.6,0.1l0.5,0.1l1-4.5c0.4-1.8,1.3-3.3,2.6-4.5
		c1.3-1.1,2.8-1.7,4.5-1.7c0.5,0,1.1,0.1,1.7,0.2c1.7,0.4,3.1,1.2,4.1,2.5s1.5,2.8,1.5,4.6c0,0.7-0.1,1.4-0.2,2.1l-1,4.5l1.2,0.2
		c3.7,0.8,5.5,2.9,5.5,6.2c0,0.5,0,1.1-0.1,1.8c-0.8,3.4-2.9,5.1-6.3,5.1C364.6,218.9,364,218.8,363.3,218.6z"/>
	<path class="st0" d="M390.4,247.9c-6.2,0.3-11.4-1.7-15.6-6c-4.1-4.1-6.3-9.3-6.6-15.4c-0.3-6.1,1.4-11.4,5.1-16
		c3.8-4.8,8.8-7.4,14.8-7.7c6.1-0.3,11.3,1.8,15.6,6.2c4.1,4.2,6.4,9.3,6.7,15.3c0.3,6.2-1.3,11.5-4.9,16
		C401.6,245,396.6,247.6,390.4,247.9z M388.7,216.3c-2,0.1-3.6,1.1-4.7,2.9c-1.1,1.8-1.6,4-1.5,6.6c0.1,2.5,0.9,4.6,2.2,6.2
		s2.9,2.4,4.9,2.3c2-0.1,3.6-1,4.7-2.8s1.6-3.9,1.5-6.5c-0.1-2.5-0.9-4.6-2.1-6.3C392.4,217,390.8,216.2,388.7,216.3z"/>
</g>
<g>
	<path class="st1" d="M24.2,333.2c-7-1.1-12.6-4.3-16.8-9.5c-4.1-5.1-6.2-11.2-6.2-18.2c0-1.8,0.1-3.6,0.4-5.4
		c1.1-7.4,4.2-13.4,9.2-18.1c5-4.6,11-7,17.9-7c1.5,0,3,0.1,4.6,0.4c3.7,0.6,7.1,1.8,10.2,3.7c4,2.4,6,5.1,6,8.1
		c0,1.8-0.6,3.4-1.9,4.8c-1.3,1.4-2.8,2-4.7,2c-1.3,0-3.3-0.8-5.9-2.3c-1.9-1.1-3.9-1.8-6-2.1c-0.6-0.1-1.3-0.1-2-0.1
		c-3.2,0-5.9,1.2-8.1,3.6c-2.2,2.4-3.6,5.6-4.2,9.5c-0.2,1.1-0.3,2.3-0.3,3.4c0,3.4,0.8,6.3,2.5,8.6c1.8,2.4,4.3,3.9,7.4,4.4
		c0.7,0.1,1.5,0.1,2.2,0.1c1.3,0,3-0.2,4.9-0.7c1.9-0.5,3.3-0.7,4.1-0.7c2.1,0,3.8,0.8,5.2,2.5c1.4,1.7,1.9,3.5,1.5,5.5
		c-0.4,2.8-2.3,4.9-5.6,6.3c-2.6,1.1-5.8,1.6-9.6,1.6C27.3,333.6,25.7,333.5,24.2,333.2z"/>
	<path class="st1" d="M62.4,332.9c-6.2,0.3-11.4-1.7-15.6-6c-4.1-4.1-6.3-9.3-6.6-15.4c-0.3-6.1,1.4-11.4,5.1-16
		c3.8-4.8,8.8-7.4,14.8-7.7c6.1-0.3,11.3,1.8,15.6,6.2c4.1,4.2,6.4,9.3,6.7,15.3c0.3,6.2-1.3,11.5-4.9,16
		C73.6,330,68.6,332.6,62.4,332.9z M60.8,301.3c-2,0.1-3.6,1.1-4.7,2.9c-1.1,1.8-1.6,4-1.5,6.6c0.1,2.5,0.9,4.6,2.2,6.2
		c1.3,1.7,2.9,2.4,4.9,2.3c2-0.1,3.6-1,4.7-2.8c1.1-1.8,1.6-3.9,1.5-6.5c-0.1-2.5-0.9-4.6-2.1-6.3C64.5,302,62.8,301.2,60.8,301.3z"
		/>
	<path class="st1" d="M97.3,291.1c1.6-1.7,3.9-2.5,6.9-2.3c1.9,0.1,3.5,0.9,4.7,2.2c1.3,1.5,1.9,3.5,1.8,5.8
		c-0.1,2.2-1.4,3.8-3.6,4.9c-2.1,0.7-4.3,1.5-6.4,2.2c-2.3,1-3.5,2.4-3.6,4.3l-1.1,16.4c-0.2,2.2-1,4-2.5,5.4
		c-1.4,1.4-3.2,2-5.4,1.9c-2.1-0.1-3.8-1-5-2.6c-1.2-1.6-1.8-3.5-1.6-5.7l2-29.1c0.2-2.3,1.1-4,2.8-5.3c1.5-1.1,3.2-1.6,5.1-1.4
		C94.2,288.1,96.2,289.1,97.3,291.1z"/>
	<path class="st1" d="M125,332.5c-3.6-0.8-6.4-2.6-8.3-5.4c-1.2,1.1-2.7,1.7-4.5,1.7c-0.6,0-1.2-0.1-1.9-0.2
		c-1.7-0.4-3.1-1.2-4.1-2.5c-1-1.3-1.5-2.8-1.5-4.6c0-0.7,0.1-1.4,0.3-2.1l10.3-44.7c0.4-1.9,1.3-3.4,2.6-4.5
		c1.3-1.1,2.8-1.7,4.5-1.7c0.6,0,1.2,0.1,1.7,0.2c1.7,0.4,3.1,1.3,4.1,2.6c1,1.3,1.5,2.8,1.5,4.6c0,0.7-0.1,1.4-0.3,2.1l-2.5,10.8
		c2.8-0.7,5.6-0.8,8.6-0.1c4.8,1.1,8.4,3.7,10.9,7.7c2.2,3.5,3.3,7.6,3.3,12.5c0,2.2-0.2,4.4-0.7,6.6c-1.1,4.9-3.5,9-7,12.3
		c-3.8,3.5-8,5.3-12.8,5.3C127.8,332.9,126.4,332.8,125,332.5z M130.7,301.3c-0.5-0.1-1-0.1-1.4-0.1c-1.6,0-3.1,0.7-4.3,2
		c-1.2,1.3-2.1,3.1-2.6,5.3c-0.2,1.1-0.4,2.2-0.4,3.2c0,2,0.4,3.7,1.3,5.1c1.1,1.6,2.6,2.4,4.5,2.4c2.2,0,4.1-1.2,5.6-3.6
		c1.3-2.1,1.9-4.3,1.9-6.8C135.3,304.5,133.8,302.1,130.7,301.3z"/>
	<path class="st1" d="M189.5,328.7c-0.6,0.1-1.3,0.2-1.9,0.2c-1.7,0-3.2-0.6-4.4-1.9c-2.1,2.9-5,4.8-8.5,5.6
		c-1.4,0.3-2.9,0.5-4.3,0.5c-4.7,0-8.8-1.7-12.5-5c-3.6-3.3-6.1-7.7-7.4-13.1c-0.4-2-0.7-4-0.7-6c0-5,1.3-9.4,4-13.2
		c2.7-3.8,6.2-6.2,10.7-7.3c1.2-0.3,2.5-0.4,3.6-0.4c2.3,0,4.5,0.5,6.5,1.6c0.9-2.2,2.5-3.6,4.9-4.2c0.8-0.1,1.5-0.2,2.2-0.2
		c3.3,0,5.5,2.4,6.6,7.3l6,25.8c0.3,1.6,0.5,2.9,0.5,3.9C194.9,325.9,193.1,328,189.5,328.7z M164.2,308.9c0,1,0.1,2,0.3,3.1
		c0.5,2.1,1.4,3.9,2.7,5.3c1.3,1.4,2.8,2.1,4.5,2.1c1.9,0,3.4-0.8,4.5-2.3c1-1.3,1.5-3,1.5-5.1c0-0.9-0.1-1.9-0.4-3
		c-0.5-2.2-1.4-4-2.7-5.4c-1.3-1.4-2.8-2.1-4.4-2.1c-1.9,0-3.4,0.7-4.4,2.2C164.7,305.1,164.2,306.8,164.2,308.9z"/>
	<path class="st1" d="M213.7,303.6l-1.1-0.3l-5.1,22.3c-0.4,1.9-1.3,3.4-2.6,4.5c-1.3,1.1-2.8,1.7-4.5,1.7c-0.5,0-1.1,0-1.7-0.1
		c-1.7-0.4-3-1.3-4-2.6c-1-1.3-1.5-2.8-1.5-4.6c0-0.7,0.1-1.4,0.2-2.1l5.2-22.3L198,300c-3.4-0.8-5.1-2.8-5.1-6.1
		c0-0.6,0.1-1.2,0.2-1.8c0.3-1.5,1.1-2.8,2.3-3.7c1.2-0.9,2.5-1.4,4-1.4c0.5,0,1.1,0,1.6,0.1l0.5,0.1l1-4.5c0.4-1.8,1.3-3.3,2.6-4.5
		c1.3-1.1,2.8-1.7,4.5-1.7c0.5,0,1.1,0.1,1.7,0.2c1.7,0.4,3.1,1.2,4.1,2.5s1.5,2.8,1.5,4.6c0,0.7-0.1,1.4-0.2,2.1l-1,4.5l1.2,0.2
		c3.7,0.8,5.5,2.9,5.5,6.2c0,0.5,0,1.1-0.1,1.8c-0.8,3.4-2.9,5.1-6.3,5.1C215.1,303.9,214.4,303.8,213.7,303.6z"/>
	<path class="st1" d="M258.3,328.7c-0.6,0.1-1.3,0.2-1.9,0.2c-1.7,0-3.2-0.6-4.4-1.9c-2.1,2.9-5,4.8-8.5,5.6
		c-1.4,0.3-2.9,0.5-4.3,0.5c-4.7,0-8.8-1.7-12.5-5c-3.6-3.3-6.1-7.7-7.4-13.1c-0.4-2-0.7-4-0.7-6c0-5,1.3-9.4,4-13.2
		c2.7-3.8,6.2-6.2,10.7-7.3c1.2-0.3,2.5-0.4,3.6-0.4c2.3,0,4.5,0.5,6.5,1.6c0.9-2.2,2.5-3.6,4.9-4.2c0.8-0.1,1.5-0.2,2.2-0.2
		c3.3,0,5.5,2.4,6.6,7.3l6,25.8c0.3,1.6,0.5,2.9,0.5,3.9C263.7,325.9,261.9,328,258.3,328.7z M233.1,308.9c0,1,0.1,2,0.3,3.1
		c0.5,2.1,1.4,3.9,2.7,5.3c1.3,1.4,2.8,2.1,4.5,2.1c1.9,0,3.4-0.8,4.5-2.3c1-1.3,1.5-3,1.5-5.1c0-0.9-0.1-1.9-0.4-3
		c-0.5-2.2-1.4-4-2.7-5.4c-1.3-1.4-2.8-2.1-4.4-2.1c-1.9,0-3.4,0.7-4.4,2.2C233.6,305.1,233.1,306.8,233.1,308.9z"/>
</g>
<g>
	<path class="st0" d="M641.7,43.2l-6.3,1.1l1.8,10.2c0.1,0.5,0.1,1.1,0.1,1.6c0,2.2-0.7,3.9-2.2,5.3c-1.5,1.3-3.3,2-5.5,2
		c-1.8,0-3.3-0.6-4.7-1.7c-1.3-1.1-2.1-2.7-2.5-4.7l-7.3-41.2c-0.1-0.5-0.1-1.1-0.1-1.6c0-4.1,2.1-6.5,6.4-7.2l13-2.3
		c1.5-0.2,3-0.4,4.4-0.4c5,0,9.3,1.4,12.9,4.3c3.6,2.9,5.8,6.8,6.7,11.8c0.2,1.3,0.3,2.5,0.3,3.7c0,4.9-1.6,9.1-4.8,12.6
		S646.6,42.3,641.7,43.2z M636.5,18.1l-5.7,1L633,31l5.7-1c3.2-0.5,4.8-2.4,4.8-5.6c0-1.8-0.5-3.3-1.4-4.5c-1.1-1.3-2.5-1.9-4.2-1.9
		C637.3,18,636.9,18,636.5,18.1z"/>
	<path class="st0" d="M677,61.9c-6.2,0.3-11.4-1.7-15.6-6c-4.1-4.1-6.3-9.3-6.6-15.4c-0.3-6.1,1.4-11.4,5.1-16
		c3.8-4.8,8.8-7.4,14.8-7.7c6.1-0.3,11.3,1.8,15.6,6.2c4.1,4.2,6.4,9.3,6.7,15.3c0.3,6.2-1.3,11.5-4.9,16
		C688.2,59,683.3,61.6,677,61.9z M675.4,30.3c-2,0.1-3.6,1.1-4.7,2.9c-1.1,1.8-1.6,4-1.5,6.6c0.1,2.5,0.9,4.6,2.2,6.2
		s2.9,2.4,4.9,2.3c2-0.1,3.6-1,4.7-2.8s1.6-3.9,1.5-6.5c-0.1-2.5-0.9-4.6-2.1-6.3C679.1,31,677.4,30.2,675.4,30.3z"/>
	<path class="st0" d="M718.3,61.7c-6.2,0.3-11.4-1.6-15.6-5.9c-4.1-4.1-6.3-9.3-6.6-15.4c-0.3-6.1,1.4-11.4,5.1-16
		c3.8-4.8,8.8-7.4,14.8-7.7c3.2-0.1,6.4,0.4,9.5,1.6c3.8,1.5,5.8,3.6,6,6.3c0.1,1.6-0.3,3.1-1.2,4.5c-1.1,1.7-2.6,2.7-4.4,2.8
		c-1,0-2.4-0.2-4.3-0.8c-1.9-0.6-3.3-0.9-4.3-0.8c-2.2,0.1-3.9,1-5.1,2.8c-1.2,1.8-1.7,4-1.6,6.6c0.1,2.4,0.9,4.5,2.3,6.2
		c1.4,1.7,3.2,2.5,5.3,2.3c0.9,0,2.3-0.5,4-1.3c1.7-0.8,3-1.3,3.9-1.3c1.7-0.1,3.3,0.5,4.6,1.7c1.3,1.2,2.1,2.7,2.2,4.5
		c0.1,2.9-1.7,5.3-5.4,7.3C724.3,60.7,721.3,61.5,718.3,61.7z"/>
	<path class="st0" d="M737.5,16.9c-2.1,0.1-4-0.5-5.7-2.1c-1.6-1.5-2.5-3.4-2.7-5.5c-0.1-2,0.6-3.9,2.1-5.5c1.5-1.6,3.3-2.5,5.4-2.6
		c2.1-0.1,4,0.5,5.6,2c1.7,1.5,2.5,3.2,2.6,5.3c0.1,2.2-0.6,4.1-2,5.8C741.5,16,739.7,16.8,737.5,16.9z M739.8,61.4
		c-2.1,0.1-3.9-0.5-5.3-1.9c-1.4-1.4-2.2-3.2-2.3-5.5l-1.5-28.6c-0.1-2.2,0.4-4.1,1.7-5.7c1.3-1.5,3-2.4,5.1-2.5
		c2.1-0.1,3.9,0.6,5.3,2c1.4,1.4,2.2,3.2,2.3,5.5l1.6,28.6c0.1,2.2-0.5,4.1-1.8,5.7C743.7,60.5,742,61.3,739.8,61.4z"/>
	<path class="st0" d="M753.5,61.4c-2.1-0.1-3.8-1-5-2.6c-1.2-1.6-1.8-3.5-1.6-5.8l3.2-45.7c0.1-2.2,0.9-4,2.4-5.4
		c1.4-1.4,3.2-2,5.4-1.9c2.1,0.1,3.8,1,5,2.6c1.2,1.6,1.8,3.5,1.6,5.8l-3.2,45.7c-0.1,2.2-0.9,4-2.4,5.4
		C757.5,60.9,755.7,61.5,753.5,61.4z"/>
	<path class="st0" d="M768.9,61.4c-2.1-0.1-3.8-1-5-2.6c-1.2-1.6-1.8-3.5-1.6-5.8l3.2-45.7c0.1-2.2,0.9-4,2.4-5.4
		c1.4-1.4,3.2-2,5.4-1.9c2.1,0.1,3.8,1,5,2.6c1.2,1.6,1.8,3.5,1.6,5.8l-3.2,45.7c-0.1,2.2-0.9,4-2.4,5.4
		C772.8,60.9,771,61.5,768.9,61.4z"/>
	<path class="st0" d="M800.1,61.9c-6.2,0.3-11.4-1.7-15.6-6c-4.1-4.1-6.3-9.3-6.6-15.4c-0.3-6.1,1.4-11.4,5.1-16
		c3.8-4.8,8.8-7.4,14.8-7.7c6.1-0.3,11.3,1.8,15.6,6.2c4.1,4.2,6.4,9.3,6.7,15.3c0.3,6.2-1.3,11.5-4.9,16
		C811.3,59,806.3,61.6,800.1,61.9z M798.5,30.3c-2,0.1-3.6,1.1-4.7,2.9c-1.1,1.8-1.6,4-1.5,6.6c0.1,2.5,0.9,4.6,2.2,6.2
		c1.3,1.7,2.9,2.4,4.9,2.3c2-0.1,3.6-1,4.7-2.8s1.6-3.9,1.5-6.5c-0.1-2.5-0.9-4.6-2.1-6.3C802.1,31,800.5,30.2,798.5,30.3z"/>
</g>
<g>
	<path class="st1" d="M641.7,132.2l-6.3,1.1l1.8,10.2c0.1,0.5,0.1,1.1,0.1,1.6c0,2.2-0.7,3.9-2.2,5.3c-1.5,1.3-3.3,2-5.5,2
		c-1.8,0-3.3-0.6-4.7-1.7c-1.3-1.1-2.1-2.7-2.5-4.7l-7.3-41.2c-0.1-0.5-0.1-1.1-0.1-1.6c0-4.1,2.1-6.5,6.4-7.2l13-2.3
		c1.5-0.2,3-0.4,4.4-0.4c5,0,9.3,1.4,12.9,4.3c3.6,2.9,5.8,6.8,6.7,11.8c0.2,1.3,0.3,2.5,0.3,3.7c0,4.9-1.6,9.1-4.8,12.6
		S646.6,131.3,641.7,132.2z M636.5,107.1l-5.7,1L633,120l5.7-1c3.2-0.5,4.8-2.4,4.8-5.6c0-1.8-0.5-3.3-1.4-4.5
		c-1.1-1.3-2.5-1.9-4.2-1.9C637.3,107,636.9,107,636.5,107.1z"/>
	<path class="st1" d="M677,150.9c-6.2,0.3-11.4-1.7-15.6-6c-4.1-4.1-6.3-9.3-6.6-15.4c-0.3-6.1,1.4-11.4,5.1-16
		c3.8-4.8,8.8-7.4,14.8-7.7c6.1-0.3,11.3,1.8,15.6,6.2c4.1,4.2,6.4,9.3,6.7,15.3c0.3,6.2-1.3,11.5-4.9,16
		C688.2,148,683.3,150.6,677,150.9z M675.4,119.3c-2,0.1-3.6,1.1-4.7,2.9c-1.1,1.8-1.6,4-1.5,6.6c0.1,2.5,0.9,4.6,2.2,6.2
		s2.9,2.4,4.9,2.3c2-0.1,3.6-1,4.7-2.8s1.6-3.9,1.5-6.5c-0.1-2.5-0.9-4.6-2.1-6.3C679.1,120,677.4,119.2,675.4,119.3z"/>
	<path class="st1" d="M711.9,109.1c1.6-1.7,3.9-2.5,6.9-2.3c1.9,0.1,3.5,0.9,4.7,2.2c1.3,1.5,1.9,3.5,1.8,5.8
		c-0.1,2.2-1.4,3.8-3.6,4.9c-2.1,0.7-4.3,1.5-6.4,2.2c-2.3,1-3.5,2.4-3.7,4.3l-1.1,16.4c-0.2,2.2-1,4-2.5,5.4
		c-1.4,1.4-3.2,2-5.4,1.9c-2.1-0.1-3.8-1-5-2.6c-1.2-1.6-1.8-3.5-1.6-5.7l2-29.1c0.2-2.3,1.1-4,2.8-5.3c1.5-1.1,3.2-1.6,5.1-1.4
		C708.9,106.1,710.9,107.1,711.9,109.1z"/>
	<path class="st1" d="M744.3,121.6l-1.1-0.3l-5.1,22.3c-0.4,1.9-1.3,3.4-2.6,4.5s-2.8,1.7-4.5,1.7c-0.5,0-1.1,0-1.7-0.1
		c-1.7-0.4-3-1.3-4-2.6c-1-1.3-1.5-2.8-1.5-4.6c0-0.7,0.1-1.4,0.2-2.1l5.2-22.3l-0.5-0.1c-3.4-0.8-5.1-2.8-5.1-6.1
		c0-0.6,0.1-1.2,0.2-1.8c0.3-1.5,1.1-2.8,2.3-3.7c1.2-0.9,2.5-1.4,4-1.4c0.5,0,1.1,0,1.6,0.1l0.5,0.1l1-4.5c0.4-1.8,1.3-3.3,2.6-4.5
		s2.8-1.7,4.5-1.7c0.5,0,1.1,0.1,1.7,0.2c1.7,0.4,3.1,1.2,4.1,2.5s1.5,2.8,1.5,4.6c0,0.7-0.1,1.4-0.2,2.1l-1,4.5l1.2,0.2
		c3.7,0.8,5.5,2.9,5.5,6.2c0,0.5,0,1.1-0.1,1.8c-0.8,3.4-2.9,5.1-6.3,5.1C745.7,121.9,745,121.8,744.3,121.6z"/>
	<path class="st1" d="M784.9,150c-2.6,0-4.6-1-5.8-3.1c-2.7,2.4-5.9,3.6-9.5,3.6c-5.7,0-10.3-2.1-14-6.4c-3.7-4.3-5.5-9.6-5.5-16.1
		c0-6.3,1.9-11.7,5.7-16.1c3.8-4.4,8.4-6.6,13.9-6.6c3.8,0,7,1.1,9.6,3.4c1.4-1.9,3.3-2.9,5.7-2.9c2.9,0,4.9,1,6,3.1
		c0.6,1.3,1,3.2,1,5.8v26.5c0,2.6-0.3,4.5-1,5.7C789.8,148.9,787.8,150,784.9,150z M778.9,105.7L770,107c-1.5,0.2-2.8,0.2-3.7,0
		c-2.8-0.6-4.2-2.9-4.2-6.6c0-3.1,1.4-4.9,4.3-5.6l0.7-0.2l9.5-1.5c1.5-0.2,2.8-0.3,3.6-0.1c1.4,0.3,2.5,1.2,3.4,2.5
		c0.7,1.1,1,2.4,1,3.8c0,1.7-0.5,3.1-1.6,4.2C781.9,104.8,780.6,105.5,778.9,105.7z M771,118.8c-2,0-3.6,0.9-4.8,2.6
		c-1.2,1.7-1.8,3.9-1.8,6.5c0,2.5,0.6,4.6,1.8,6.3c1.2,1.7,2.8,2.6,4.8,2.6c1.9,0,3.5-0.9,4.7-2.6c1.2-1.7,1.8-3.8,1.8-6.3
		c0-2.6-0.6-4.7-1.8-6.5C774.5,119.7,773,118.8,771,118.8z"/>
	<path class="st1" d="M814.1,121.6l-1.1-0.3l-5.1,22.3c-0.4,1.9-1.3,3.4-2.6,4.5c-1.3,1.1-2.8,1.7-4.5,1.7c-0.5,0-1.1,0-1.7-0.1
		c-1.7-0.4-3-1.3-4-2.6c-1-1.3-1.5-2.8-1.5-4.6c0-0.7,0.1-1.4,0.2-2.1l5.2-22.3l-0.5-0.1c-3.4-0.8-5.1-2.8-5.1-6.1
		c0-0.6,0.1-1.2,0.2-1.8c0.3-1.5,1.1-2.8,2.3-3.7c1.2-0.9,2.5-1.4,4-1.4c0.5,0,1.1,0,1.6,0.1l0.5,0.1l1-4.5c0.4-1.8,1.3-3.3,2.6-4.5
		c1.3-1.1,2.8-1.7,4.5-1.7c0.5,0,1.1,0.1,1.7,0.2c1.7,0.4,3.1,1.2,4.1,2.5s1.5,2.8,1.5,4.6c0,0.7-0.1,1.4-0.2,2.1l-1,4.5l1.2,0.2
		c3.7,0.8,5.5,2.9,5.5,6.2c0,0.5,0,1.1-0.1,1.8c-0.8,3.4-2.9,5.1-6.3,5.1C815.5,121.9,814.8,121.8,814.1,121.6z"/>
	<path class="st1" d="M829.5,105.9c-2.1,0.1-4-0.5-5.7-2.1c-1.6-1.5-2.5-3.4-2.7-5.5c-0.1-2,0.6-3.9,2.1-5.5
		c1.5-1.6,3.3-2.5,5.4-2.6c2.1-0.1,4,0.5,5.6,2c1.7,1.5,2.5,3.2,2.6,5.3c0.1,2.2-0.6,4.1-2,5.8C833.5,105,831.7,105.8,829.5,105.9z
		 M831.8,150.4c-2.1,0.1-3.9-0.5-5.3-1.9c-1.4-1.4-2.2-3.2-2.3-5.5l-1.5-28.6c-0.1-2.2,0.4-4.1,1.7-5.7c1.3-1.5,3-2.4,5.1-2.5
		c2.1-0.1,3.9,0.6,5.3,2s2.2,3.2,2.3,5.5l1.6,28.6c0.1,2.2-0.5,4.1-1.8,5.7C835.7,149.5,834,150.3,831.8,150.4z"/>
	<path class="st1" d="M845.5,150.4c-2.1-0.1-3.8-1-5-2.6c-1.2-1.6-1.8-3.5-1.6-5.8l3.2-45.7c0.1-2.2,0.9-4,2.4-5.4
		c1.4-1.4,3.2-2,5.4-1.9s3.8,1,5,2.6c1.2,1.6,1.8,3.5,1.6,5.8l-3.2,45.7c-0.1,2.2-0.9,4-2.4,5.4
		C849.5,149.9,847.7,150.5,845.5,150.4z"/>
</g>
<g>
	<path class="st0" d="M614.8,242.8c0-0.5,0-1,0.1-1.5l6.6-41.8c0.3-2,1.1-3.6,2.4-4.8c1.3-1.2,2.9-1.8,4.7-1.8c2.2,0,4,0.7,5.5,2
		c1.5,1.4,2.2,3.1,2.2,5.3c0,0.5,0,1-0.1,1.5l-6.6,41.8c-0.3,2-1.1,3.6-2.4,4.8c-1.3,1.2-2.9,1.8-4.7,1.8c-2.2,0-4-0.7-5.5-2
		S614.8,244.9,614.8,242.8z"/>
	<path class="st0" d="M694.5,244.5c-0.5,0.1-1.1,0.2-1.7,0.2c-1.7,0-3.2-0.6-4.5-1.7c-1.3-1.1-2.2-2.7-2.6-4.5l-4.2-18.2
		c-0.7-3-2.2-4.5-4.5-4.5c-1.3,0-2.4,0.4-3.2,1.3c-0.8,0.9-1.2,2-1.2,3.3c0,0.6,0.1,1.2,0.2,1.9l4.2,18.2c0.2,0.7,0.3,1.5,0.3,2.2
		c0,1.7-0.5,3.3-1.5,4.5s-2.4,2.1-4.1,2.5c-0.5,0.1-1.1,0.2-1.7,0.2c-1.7,0-3.2-0.6-4.5-1.7c-1.3-1.1-2.2-2.6-2.6-4.5l-4.2-18.2
		c-0.7-3-2.2-4.5-4.5-4.5c-3,0-4.5,1.4-4.5,4.3c0,0.6,0.1,1.4,0.3,2.2l4.2,18.2c0.2,0.7,0.3,1.4,0.3,2.1c0,1.7-0.5,3.3-1.5,4.6
		c-1,1.3-2.3,2.2-4,2.6c-0.6,0.1-1.2,0.1-1.8,0.1c-1.7,0-3.2-0.6-4.5-1.7c-1.3-1.1-2.2-2.6-2.6-4.5l-6.4-27.9
		c-0.1-0.7-0.2-1.4-0.2-2.1c0-1.8,0.5-3.3,1.5-4.6c1-1.3,2.3-2.1,4.1-2.5c0.6-0.1,1.3-0.2,1.9-0.2c1.7,0,3.1,0.5,4.2,1.6
		c3-3.7,7-5.6,12-5.6c2.9,0,5.7,0.8,8.2,2.4c2.7-3.7,6-6.1,10-7c1.6-0.3,3.2-0.5,4.7-0.5c3.7,0,6.9,1.1,9.6,3.3
		c2.7,2.2,4.5,5.3,5.4,9.5l4.6,20c0.2,0.7,0.3,1.4,0.3,2.1c0,1.8-0.5,3.3-1.5,4.6C697.6,243.3,696.3,244.2,694.5,244.5z"/>
	<path class="st0" d="M720.2,250.9c-2.7-0.2-5.3-1.2-7.7-2.8l-0.8,9.5c-0.2,2.2-1,4-2.5,5.4c-1.5,1.4-3.3,1.9-5.4,1.8
		c-2.1-0.1-3.7-1-5-2.6c-1.2-1.6-1.7-3.5-1.5-5.8l3.9-44.2c0.2-2.2,1-4,2.5-5.4c1.5-1.4,3.3-2,5.4-1.8c2.6,0.2,4.4,1.4,5.6,3.4
		c2.7-2,6-2.8,9.9-2.5c5.6,0.5,10,3,13.1,7.6c2.7,4,4.1,8.8,4.1,14.4c0,6.3-1.9,11.7-5.8,16.3C731.7,249.2,726.5,251.4,720.2,250.9z
		 M721.7,219.3c-2-0.2-3.7,0.5-5,2c-1.3,1.5-2.1,3.6-2.3,6.1c-0.2,2.6,0.1,4.8,1.2,6.7c1,1.9,2.5,2.9,4.5,3.1
		c1.9,0.1,3.6-0.6,4.9-2.2s2.1-3.7,2.4-6.1c0.2-2.5-0.2-4.7-1.3-6.6S723.5,219.4,721.7,219.3z"/>
	<path class="st0" d="M757.7,208.9c1.6-1.7,3.9-2.5,6.9-2.3c1.9,0.1,3.5,0.9,4.7,2.2c1.3,1.5,1.9,3.5,1.8,5.8
		c-0.1,2.2-1.4,3.8-3.6,4.9c-2.1,0.7-4.3,1.5-6.4,2.2c-2.3,1-3.5,2.4-3.6,4.3l-1.1,16.4c-0.2,2.2-1,4-2.5,5.4
		c-1.4,1.4-3.2,2-5.4,1.9c-2.1-0.1-3.8-1-5-2.6c-1.2-1.6-1.8-3.5-1.6-5.7l2-29.1c0.2-2.3,1.1-4,2.8-5.3c1.5-1.1,3.2-1.6,5.1-1.4
		C754.7,205.9,756.7,207,757.7,208.9z"/>
	<path class="st0" d="M804,228.6l-19.3,6.7c1.3,1.3,3,1.9,5,1.9c1.1,0,2.3-0.2,3.6-0.7c1.7-0.6,3.5-2,5.5-4.2c2-2.2,3.5-3.5,4.5-3.9
		c0.6-0.2,1.2-0.3,1.8-0.3c1.7,0,3.3,0.6,4.6,1.9c1.3,1.2,2,2.7,2,4.4c0,2.7-1.7,5.6-5.1,8.7c-3,2.8-6.4,4.9-10,6.1
		c-2.6,0.9-5.2,1.3-7.7,1.3c-4.6,0-8.8-1.4-12.4-4.2c-3.6-2.8-6.3-6.6-7.9-11.3c-0.9-2.5-1.3-5.2-1.3-7.9c0-4.6,1.2-8.7,3.5-12.3
		c2.5-3.9,6-6.6,10.4-8c2.2-0.7,4.4-1.1,6.6-1.1c4.6,0,8.8,1.5,12.7,4.4c3.7,2.7,6.3,6.1,7.6,10.1c0.3,1,0.5,1.9,0.5,2.8
		C808.5,225.7,807,227.6,804,228.6z M785.2,218.9c-2.9,1-4.3,3.1-4.4,6.3l11.7-4c-1.3-1.7-3-2.6-5-2.6
		C786.8,218.5,786,218.6,785.2,218.9z"/>
	<path class="st0" d="M830.2,250.3c-1.5,0.3-3.3,0.5-5.2,0.5c-3.2,0-6-0.5-8.5-1.6c-3.4-1.3-5.1-3.4-5.1-6.2c0-1.4,0.4-2.8,1.1-4
		c0.9-1.5,2.2-2.4,3.8-2.8c0.6-0.1,1.3-0.2,1.9-0.2c1,0,2.3,0.2,4.1,0.7c1.7,0.5,3,0.7,4,0.7c0.5,0,1.1-0.1,1.6-0.2
		c1.6-0.3,2.3-0.9,2.1-1.7c-0.1-0.4-1.8-0.8-5.2-1.3c-4.2-0.5-7.5-1.3-9.8-2.4c-3.7-1.7-6-4.5-6.9-8.2c-0.3-1.1-0.4-2.3-0.4-3.4
		c0-4.5,1.9-8.1,5.7-10.9c3.5-2.6,7.5-3.9,12.1-3.9c3.1,0,5.8,0.5,8,1.6c3,1.4,4.5,3.5,4.5,6.3c0,1.7-0.6,3.3-1.7,4.5
		c-1.1,1.3-2.5,1.9-4.2,1.9c-0.7,0-2-0.2-3.7-0.5c-1.7-0.3-3-0.5-3.9-0.5c-1.1,0-2,0.2-2.5,0.6c-0.3,0.2-0.5,0.6-0.4,1
		c0.1,0.4,1.9,0.9,5.3,1.3c4.2,0.5,7.5,1.3,9.8,2.4c3.7,1.8,6,4.5,6.9,8.2c0.2,1,0.4,2.1,0.4,3.1c0,3.5-1.3,6.6-3.8,9.3
		C837.8,247.5,834.5,249.3,830.2,250.3z"/>
	<path class="st0" d="M866.1,250.8c-6.2,0.3-11.4-1.7-15.6-6c-4.1-4.1-6.3-9.3-6.6-15.4c-0.3-6.1,1.4-11.4,5.1-16
		c3.8-4.8,8.8-7.4,14.8-7.7c6.1-0.3,11.3,1.8,15.6,6.2c4.1,4.2,6.4,9.3,6.7,15.3c0.3,6.2-1.3,11.5-4.9,16
		C877.3,247.9,872.3,250.5,866.1,250.8z M864.4,219.2c-2,0.1-3.6,1.1-4.7,2.9c-1.1,1.8-1.6,4-1.5,6.6c0.1,2.5,0.9,4.6,2.2,6.2
		c1.3,1.7,2.9,2.4,4.9,2.3c2-0.1,3.6-1,4.7-2.8c1.1-1.8,1.6-3.9,1.5-6.5c-0.1-2.5-0.9-4.6-2.1-6.3
		C868.1,219.9,866.5,219.1,864.4,219.2z"/>
	<path class="st0" d="M900.9,208.9c1.6-1.7,3.9-2.5,6.9-2.3c1.9,0.1,3.5,0.9,4.7,2.2c1.3,1.5,1.9,3.5,1.8,5.8
		c-0.1,2.2-1.4,3.8-3.6,4.9c-2.1,0.7-4.3,1.5-6.4,2.2c-2.3,1-3.5,2.4-3.6,4.3l-1.1,16.4c-0.2,2.2-1,4-2.5,5.4
		c-1.4,1.4-3.2,2-5.4,1.9c-2.1-0.1-3.8-1-5-2.6c-1.2-1.6-1.8-3.5-1.6-5.7l2-29.1c0.2-2.3,1.1-4,2.8-5.3c1.5-1.1,3.2-1.6,5.1-1.4
		C897.9,205.9,899.9,207,900.9,208.9z"/>
	<path class="st0" d="M950.2,246.6c-0.6,0.1-1.3,0.2-1.9,0.2c-1.7,0-3.2-0.6-4.4-1.9c-2.1,2.9-5,4.8-8.5,5.6
		c-1.4,0.3-2.9,0.5-4.3,0.5c-4.7,0-8.8-1.7-12.5-5s-6.1-7.7-7.4-13.1c-0.4-2-0.7-4-0.7-6c0-5,1.3-9.4,4-13.2s6.2-6.2,10.7-7.3
		c1.2-0.3,2.5-0.4,3.7-0.4c2.3,0,4.5,0.5,6.5,1.6c0.9-2.2,2.5-3.6,4.9-4.2c0.8-0.1,1.5-0.2,2.2-0.2c3.3,0,5.5,2.4,6.6,7.3l6,25.8
		c0.3,1.6,0.5,2.9,0.5,3.9C955.6,243.8,953.8,245.8,950.2,246.6z M925,226.7c0,1,0.1,2,0.3,3.1c0.5,2.1,1.4,3.9,2.7,5.3
		c1.3,1.4,2.8,2.1,4.5,2.1c1.9,0,3.4-0.8,4.5-2.3c1-1.3,1.5-3,1.5-5.1c0-0.9-0.1-1.9-0.4-3c-0.5-2.2-1.4-4-2.7-5.4
		c-1.3-1.4-2.8-2.1-4.4-2.1c-1.9,0-3.4,0.7-4.4,2.2C925.5,223,925,224.7,925,226.7z"/>
</g>
</svg>
