<!-- Generator: Adobe Illustrator 24.0.0, SVG Export Plug-In  -->
<svg version="1.1" xmlns="http://www.w3.org/2000/svg" xmlns:xlink="http://www.w3.org/1999/xlink" x="0px" y="0px" width="750px"
	 height="154.9px" viewBox="0 0 750 154.9" style="enable-background:new 0 0 750 154.9;" xml:space="preserve">
<style type="text/css">
	.st0{fill:#FFFFFF;}
</style>
<defs>
</defs>
<g>
	<path class="st0" d="M73.1,78.4c-1.9-10.3-4.7-28.7-8.3-55.2c-0.1-0.8-0.2-1.6-0.2-2.4c0-3.8,1.1-7.5,3.3-11c2.2-3.6,5.3-6.2,9.3-8
		C79.9,0.6,82.6,0,85.6,0c7.2,0,12.7,2.8,16.4,8.3c9.2,12.9,18.5,25.8,27.8,38.8c11.1,15.5,19.3,29.1,24.4,40.7
		c1.1,2.3,1.6,4.5,1.6,6.8c0,6.5-3.2,11.1-9.6,14c-2.9,1.3-5.6,1.9-8,1.9c-5.2,0-9.6-2.9-13.3-8.6L97.7,58.8
		c2.3,11.9,5.1,29.9,8.6,54.1c0.1,1,0.2,1.9,0.2,2.9c0,7-3.5,12.1-10.6,15.3c-2.7,1.2-5.4,1.8-8,1.8c-4.9,0-9-2.1-12.5-6.2
		L39.9,84.3c3.7,10.7,8.7,27,14.9,48.9c0.6,2.4,1,4.5,1,6.5c0,6.2-3.4,10.8-10.2,13.8c-2.2,1-4.4,1.5-6.8,1.5
		c-6.5,0-11.1-3.1-14-9.4c-5.2-11.7-9.8-26.8-14-45.5C7.4,84.4,3.9,68.8,0.5,53.2C0.2,52.1,0,50.8,0,49.4c0-3.7,1.1-7.3,3.2-10.8
		c2.2-3.5,5.2-6.1,9.1-7.9c2.7-1.2,5.5-1.8,8.4-1.8c6.6,0,11.9,2.3,15.9,7L73.1,78.4z"/>
	<path class="st0" d="M229.4,87.8l-42,14.6c2.8,2.8,6.4,4.2,10.9,4.2c2.5,0,5.1-0.5,7.8-1.5c3.7-1.3,7.7-4.3,12-9.1
		c4.3-4.8,7.6-7.6,9.9-8.4c1.3-0.4,2.6-0.6,3.9-0.6c3.8,0,7.1,1.4,10,4.1c2.9,2.7,4.3,5.9,4.3,9.6c0,6-3.7,12.3-11,19
		c-6.6,6.2-13.9,10.6-21.8,13.3c-5.6,1.9-11.3,2.9-16.9,2.9c-10.1,0-19.1-3-27-9.1c-8-6.1-13.7-14.3-17.3-24.7
		c-1.9-5.5-2.9-11.3-2.9-17.2c0-10,2.5-18.9,7.6-26.8c5.5-8.4,13-14.3,22.6-17.5c4.8-1.6,9.6-2.4,14.4-2.4c10,0,19.2,3.2,27.8,9.6
		c8.1,6,13.6,13.3,16.6,21.9c0.8,2.2,1.1,4.2,1.1,6.2C239.3,81.6,236,85.6,229.4,87.8z M188.5,66.6c-6.3,2.2-9.5,6.7-9.6,13.6
		l25.5-8.8c-2.9-3.8-6.5-5.7-10.9-5.7C191.9,65.7,190.2,66,188.5,66.6z"/>
	<path class="st0" d="M348.9,98.1l-6.5-28.3c-1.5-6.6-4.8-9.9-9.7-9.9c-2.9,0-5.3,0.9-7,2.8c-1.7,1.9-2.6,4.3-2.6,7.2
		c0,1.3,0.2,2.7,0.5,4.2l9.1,39.6c0.4,1.6,0.6,3.2,0.6,4.7c0,3.8-1.1,7.1-3.2,9.9c-2.2,2.8-5.1,4.7-8.9,5.5
		c-1.2,0.3-2.4,0.5-3.7,0.5c-3.7,0-6.9-1.2-9.7-3.7c-2.8-2.5-4.7-5.7-5.7-9.7l-9.1-39.8c-1.5-6.5-4.8-9.7-9.7-9.7
		c-6.5,0-9.7,3.1-9.7,9.4c0,1.4,0.2,3,0.6,4.7l9.1,39.8c0.4,1.5,0.6,3,0.6,4.5c0,3.8-1.1,7.1-3.2,10c-2.2,2.9-5.1,4.7-8.8,5.6
		c-1.3,0.2-2.6,0.3-3.9,0.3c-3.7,0-6.9-1.2-9.7-3.7c-2.8-2.4-4.7-5.7-5.7-9.8l-14-60.7c-0.3-1.5-0.5-3-0.5-4.5
		c0-3.9,1.1-7.2,3.2-10.1c2.1-2.8,5.1-4.7,8.8-5.5c1.4-0.3,2.8-0.5,4.1-0.5c3.7,0,6.8,1.1,9.3,3.4c6.6-8.1,15.3-12.2,26.1-12.2
		c6.4,0,12.3,1.7,17.9,5.2c5.8-8.1,13.1-13.2,21.8-15.3c3.5-0.8,6.9-1.1,10.2-1.1c8.1,0,15.1,2.4,20.9,7.1
		c5.8,4.8,9.8,11.6,11.9,20.6l10.1,43.7c0.4,1.5,0.7,3,0.7,4.5c0,3.9-1.1,7.3-3.2,10.1c-2.2,2.8-5.1,4.7-8.9,5.5
		c-1.2,0.3-2.4,0.5-3.7,0.5c-3.7,0-6.9-1.2-9.7-3.7c-2.8-2.5-4.7-5.8-5.7-9.9L348.9,98.1"/>
	<path class="st0" d="M426.8,136.2c-13.5,0.6-24.9-3.7-34.1-13c-8.9-9-13.7-20.2-14.4-33.6c-0.6-13.2,3-24.8,11-34.9
		c8.3-10.5,19.1-16.1,32.3-16.9c13.3-0.6,24.6,3.8,33.9,13.5c9,9.1,13.9,20.2,14.6,33.4c0.6,13.5-2.9,25.2-10.7,34.9
		C451.2,129.9,440.3,135.4,426.8,136.2z M423.2,67.4c-4.4,0.2-7.9,2.3-10.3,6.2c-2.4,4-3.5,8.7-3.2,14.4c0.3,5.4,1.9,9.9,4.7,13.6
		c2.8,3.6,6.4,5.3,10.7,5.1c4.4-0.2,7.9-2.3,10.3-6.2c2.4-3.9,3.5-8.6,3.2-14.1c-0.3-5.5-1.9-10.1-4.6-13.8
		C431.3,68.9,427.7,67.2,423.2,67.4z"/>
	<path class="st0" d="M502.8,45c3.5-3.8,8.5-5.5,15.1-5c4.1,0.3,7.5,1.9,10.2,4.9c2.9,3.4,4.2,7.6,3.9,12.7c-0.3,4.8-3,8.3-8,10.7
		c-4.7,1.6-9.3,3.2-14,4.9c-5,2.2-7.6,5.3-8,9.4l-2.4,35.7c-0.4,4.9-2.2,8.8-5.4,11.9c-3.1,3-7,4.4-11.7,4.1
		c-4.5-0.3-8.2-2.2-10.9-5.6c-2.7-3.4-3.9-7.5-3.6-12.4l4.4-63.5c0.4-5,2.5-8.8,6.2-11.5c3.2-2.4,6.9-3.4,11-3.1
		C496.2,38.4,500.5,40.7,502.8,45z"/>
	<path class="st0" d="M546.6,38.1c-4.7,0.3-8.8-1.2-12.3-4.5c-3.6-3.4-5.5-7.4-5.8-12c-0.2-4.4,1.3-8.4,4.6-12
		c3.3-3.6,7.2-5.5,11.8-5.7c4.5-0.3,8.6,1.1,12.3,4.3c3.6,3.2,5.5,7.1,5.8,11.6c0.2,4.8-1.2,9-4.4,12.6
		C555.3,36,551.4,37.9,546.6,38.1z M551.6,135.1c-4.7,0.3-8.5-1.1-11.6-4.1c-3.1-3.1-4.7-7.1-5-11.9l-3.2-62.3
		c-0.3-4.9,0.9-9,3.7-12.3c2.8-3.4,6.5-5.2,11.1-5.5c4.7-0.2,8.5,1.2,11.6,4.3c3.1,3.1,4.7,7.1,5,11.9l3.4,62.3
		c0.2,4.9-1.1,9-3.8,12.3C560,133.1,556.3,134.8,551.6,135.1z"/>
	<path class="st0" d="M628.3,139.1l-52.9-12.3c-7.2-1.6-10.9-5.6-10.9-11.9c0-4.1,1.7-7.7,5-10.7l41.4-36.9l-18.7-4.2
		c-3.4-0.9-6.1-2.5-8.3-5c-2.2-2.4-3.2-5.3-3.2-8.7c0-1.2,0.2-2.4,0.5-3.6c1.7-7.5,6.3-11.2,13.8-11.2c1.2,0,2.4,0.2,3.6,0.5
		l51.8,12c6.2,1.4,9.3,4.9,9.3,10.6c0,1-0.1,2-0.3,3.1c-0.8,3.1-2.5,6-5.4,8.4L612.3,106l22.4,5.2c3.4,0.8,6.1,2.4,8.2,4.8
		c2.1,2.4,3.2,5.4,3.2,8.8c0,1.2-0.1,2.4-0.3,3.6c-1.7,7.4-6.3,11-13.8,11C630.8,139.5,629.6,139.3,628.3,139.1z"/>
	<path class="st0" d="M738.3,127.1c-1.4,0.3-2.8,0.5-4.2,0.5c-3.7,0-6.9-1.4-9.6-4.2c-4.7,6.4-10.8,10.4-18.5,12.2
		c-3.1,0.8-6.3,1.1-9.4,1.1c-10.2,0-19.2-3.6-27.2-10.8c-8-7.2-13.3-16.7-16.2-28.5c-1-4.3-1.5-8.7-1.5-13c0-10.9,2.9-20.5,8.8-28.8
		c5.8-8.3,13.6-13.6,23.2-15.8c2.7-0.6,5.4-1,8-1c5.1,0,9.8,1.1,14.1,3.4c1.9-4.8,5.5-7.8,10.7-9.1c1.7-0.3,3.4-0.5,4.9-0.5
		c7.1,0,12,5.3,14.4,15.9l13,56.3c0.8,3.5,1.1,6.3,1.1,8.6C750,120.8,746.1,125.4,738.3,127.1z M683.3,83.8c0,2.2,0.2,4.4,0.6,6.7
		c1.1,4.7,3,8.5,5.8,11.5c2.8,3,6.1,4.5,9.7,4.5c4.2,0,7.5-1.7,9.7-5c2.2-2.9,3.2-6.6,3.2-11c0-2.1-0.3-4.2-0.8-6.5
		c-1.1-4.8-3-8.7-5.8-11.8c-2.8-3.1-6-4.6-9.6-4.6c-4.2,0-7.4,1.6-9.7,4.8C684.4,75.5,683.3,79.3,683.3,83.8z"/>
</g>
</svg>
