<!-- Generator: Adobe Illustrator 24.0.0, SVG Export Plug-In  -->
<svg version="1.1" xmlns="http://www.w3.org/2000/svg" xmlns:xlink="http://www.w3.org/1999/xlink" x="0px" y="0px" width="585.8px"
	 height="274.2px" viewBox="0 0 585.8 274.2" style="enable-background:new 0 0 585.8 274.2;" xml:space="preserve">
<style type="text/css">
	.st0{fill:#FFFF00;}
	.st1{fill:#FFFFFF;}
</style>
<defs>
</defs>
<g>
	<path class="st0" d="M17,18.1l0.2-0.1c0.7-0.1,1.5-0.2,2.2-0.2c3.9,0,7.3,1.6,10.1,4.7c2.6,3,4,6.4,4,10.4c0,3.9-1.2,7.3-3.7,10.3
		c-2.6,3.1-5.9,5-10.1,5.7c-1,0.2-2,0.2-2.9,0.2c-4.1,0-7.6-1.3-10.5-4c-2.8-2.5-4.6-5.7-5.2-9.6c-0.1-0.7-0.2-1.5-0.2-2.4
		c0-4.6,1.4-10,4.2-16.3c2.7-6.2,5.6-10.6,8.7-13.4c0.6-0.5,1.4-0.8,2.5-1c1.3-0.2,2.6,0.2,4,1.2c1.4,1,2.2,2.2,2.5,3.6
		c0.2,1.1-0.6,2.9-2.1,5.5C19.4,14.4,18.2,16.2,17,18.1z M12.9,32.6c0,1.5,0.4,2.7,1.3,3.7c0.9,1.1,2.1,1.5,3.6,1.3
		c2.3-0.4,3.4-1.8,3.4-4.3c0-1.3-0.4-2.5-1.1-3.5c-0.7-1-1.7-1.5-3-1.5c-1.3,0-2.3,0.4-3,1.2C13.3,30.3,12.9,31.3,12.9,32.6z"/>
	<path class="st0" d="M67.9,49.2c-2.2-0.2-4.2-0.9-6.2-2.2l-0.7,7.6c-0.2,1.8-0.8,3.2-2,4.3c-1.2,1.1-2.6,1.5-4.3,1.4
		c-1.7-0.1-3-0.8-3.9-2.1c-1-1.3-1.4-2.8-1.2-4.6l3.1-35.1c0.2-1.8,0.8-3.2,2-4.3c1.2-1.1,2.6-1.6,4.3-1.4c2,0.2,3.5,1.1,4.4,2.7
		c2.2-1.6,4.8-2.2,7.9-2c4.5,0.4,7.9,2.4,10.4,6c2.2,3.2,3.3,7,3.3,11.5c0,5-1.5,9.3-4.6,13C77,47.9,72.8,49.7,67.9,49.2z M69,24.1
		c-1.6-0.2-2.9,0.4-4,1.6c-1,1.2-1.6,2.8-1.8,4.8c-0.2,2.1,0.1,3.8,0.9,5.3c0.8,1.5,2,2.3,3.6,2.5c1.5,0.1,2.8-0.5,3.9-1.8
		c1.1-1.3,1.7-2.9,1.9-4.8c0.2-2-0.2-3.7-1-5.2C71.7,25.1,70.5,24.3,69,24.1z"/>
	<path class="st0" d="M91,13.4c-1.7,0.1-3.2-0.4-4.5-1.7c-1.3-1.2-2-2.7-2.1-4.4c-0.1-1.6,0.5-3.1,1.7-4.4c1.2-1.3,2.6-2,4.3-2.1
		c1.7-0.1,3.1,0.4,4.5,1.6c1.3,1.2,2,2.6,2.1,4.2c0.1,1.7-0.5,3.3-1.6,4.6C94.2,12.7,92.7,13.4,91,13.4z M92.8,48.8
		c-1.7,0.1-3.1-0.4-4.2-1.5s-1.7-2.6-1.8-4.3l-1.2-22.7c-0.1-1.8,0.3-3.3,1.3-4.5c1-1.2,2.4-1.9,4.1-2c1.7-0.1,3.1,0.4,4.2,1.6
		c1.1,1.1,1.7,2.6,1.8,4.3l1.2,22.7c0.1,1.8-0.4,3.3-1.4,4.5S94.5,48.7,92.8,48.8z"/>
	<path class="st0" d="M103.7,48.8c-1.7-0.1-3-0.8-4-2c-1-1.2-1.4-2.8-1.3-4.6L101,5.8c0.1-1.8,0.7-3.2,1.9-4.3
		c1.1-1.1,2.6-1.6,4.3-1.5c1.7,0.1,3,0.8,4,2c1,1.2,1.4,2.8,1.3,4.6L109.9,43c-0.1,1.8-0.7,3.2-1.9,4.3
		C106.8,48.4,105.4,48.9,103.7,48.8z"/>
	<path class="st0" d="M128.5,49.2c-4.9,0.2-9.1-1.3-12.4-4.7c-3.2-3.3-5-7.4-5.3-12.2c-0.2-4.8,1.1-9,4-12.7c3-3.8,7-5.9,11.8-6.2
		c4.8-0.2,9,1.4,12.4,4.9c3.3,3.3,5,7.4,5.3,12.2c0.2,4.9-1.1,9.2-3.9,12.7C137.4,46.9,133.4,48.9,128.5,49.2z M127.2,24.1
		c-1.6,0.1-2.9,0.8-3.8,2.3c-0.9,1.4-1.3,3.2-1.2,5.2c0.1,2,0.7,3.6,1.7,4.9c1,1.3,2.3,1.9,3.9,1.9c1.6-0.1,2.9-0.8,3.8-2.2
		c0.9-1.4,1.3-3.1,1.2-5.1c-0.1-2-0.7-3.7-1.7-5C130.1,24.6,128.8,24,127.2,24.1z"/>
	<path class="st0" d="M159.1,25.9l-0.9-0.2l-4.1,17.7c-0.4,1.5-1,2.7-2.1,3.6c-1,0.9-2.2,1.3-3.6,1.3c-0.4,0-0.9,0-1.4-0.1
		c-1.3-0.3-2.4-1-3.2-2c-0.8-1-1.2-2.3-1.2-3.6c0-0.6,0.1-1.1,0.2-1.7l4.1-17.7l-0.4-0.1c-2.7-0.6-4.1-2.2-4.1-4.8
		c0-0.5,0.1-0.9,0.2-1.4c0.3-1.2,0.9-2.2,1.8-2.9c0.9-0.7,2-1.1,3.2-1.1c0.4,0,0.8,0,1.2,0.1l0.4,0.1l0.8-3.5c0.4-1.5,1-2.6,2-3.5
		c1-0.9,2.2-1.4,3.6-1.4c0.4,0,0.9,0.1,1.4,0.2c1.4,0.3,2.5,1,3.2,2c0.8,1,1.2,2.2,1.2,3.7c0,0.6-0.1,1.1-0.2,1.7l-0.8,3.5l0.9,0.2
		c2.9,0.7,4.4,2.3,4.4,4.9c0,0.4,0,0.9-0.1,1.4c-0.6,2.7-2.3,4-5,4C160.2,26.1,159.7,26,159.1,25.9z"/>
	<path class="st0" d="M180.7,49.2c-4.9,0.2-9.1-1.3-12.4-4.7c-3.2-3.3-5-7.4-5.3-12.2c-0.2-4.8,1.1-9,4-12.7c3-3.8,7-5.9,11.8-6.2
		c4.8-0.2,9,1.4,12.4,4.9c3.3,3.3,5,7.4,5.3,12.2c0.2,4.9-1.1,9.2-3.9,12.7C189.5,46.9,185.6,48.9,180.7,49.2z M179.4,24.1
		c-1.6,0.1-2.9,0.8-3.8,2.3c-0.9,1.4-1.3,3.2-1.2,5.2c0.1,2,0.7,3.6,1.7,4.9c1,1.3,2.3,1.9,3.9,1.9c1.6-0.1,2.9-0.8,3.8-2.2
		c0.9-1.4,1.3-3.1,1.2-5.1c-0.1-2-0.7-3.7-1.7-5C182.3,24.6,181,24,179.4,24.1z"/>
	<path class="st0" d="M213.7,48.8c-1.2,0.3-2.6,0.4-4.1,0.4c-2.5,0-4.8-0.4-6.7-1.2c-2.7-1.1-4-2.7-4-4.9c0-1.1,0.3-2.2,0.9-3.2
		c0.7-1.2,1.7-1.9,3-2.2c0.5-0.1,1-0.2,1.5-0.2c0.8,0,1.9,0.2,3.2,0.6c1.4,0.4,2.4,0.6,3.2,0.6c0.4,0,0.9-0.1,1.3-0.2
		c1.3-0.3,1.8-0.7,1.7-1.4c-0.1-0.3-1.5-0.7-4.1-1c-3.4-0.4-5.9-1-7.7-1.9c-3-1.4-4.8-3.5-5.4-6.5c-0.2-0.9-0.4-1.8-0.4-2.7
		c0-3.5,1.5-6.4,4.6-8.7c2.8-2,6-3.1,9.6-3.1c2.5,0,4.6,0.4,6.4,1.3c2.4,1.1,3.5,2.8,3.5,5c0,1.4-0.5,2.6-1.4,3.6
		c-0.9,1-2,1.5-3.3,1.5c-0.6,0-1.6-0.1-3-0.4c-1.4-0.3-2.4-0.4-3.1-0.4c-0.9,0-1.6,0.2-2,0.5c-0.3,0.2-0.4,0.5-0.3,0.8
		c0.1,0.4,1.5,0.7,4.2,1c3.4,0.4,5.9,1.1,7.7,1.9c3,1.4,4.8,3.6,5.4,6.5c0.2,0.8,0.3,1.7,0.3,2.5c0,2.8-1,5.3-3,7.4
		C219.7,46.5,217.1,48,213.7,48.8z"/>
	<path class="st1" d="M3.9,114.3c0-0.4,0-0.8,0.1-1.2l4.4-27.9l-2-0.4c-3.1-0.5-4.7-2.2-4.7-5.3c0-1.6,0.5-2.9,1.5-4.1
		c1-1.1,2.3-1.7,3.9-1.7c0.3,0,0.6,0,0.9,0.1l8.3,1.3c1.5,0.2,2.6,0.9,3.4,1.9c0.8,1,1.2,2.2,1.2,3.5c0,0.4,0,0.7-0.1,1.1L15.7,115
		c-0.3,1.6-0.9,2.9-2,3.8c-1,0.9-2.3,1.4-3.8,1.4c-1.7,0-3.1-0.5-4.3-1.6C4.5,117.5,3.9,116.1,3.9,114.3z"/>
	<path class="st1" d="M60.4,116.8c-1.4,1.7-3.5,2.8-6.4,3.5c-1.2,0.2-2.3,0.4-3.4,0.4c-4.6,0-8.4-2.1-11.4-6.4
		c-2.7-3.8-4-8.1-4-12.8c0-3.9,1-7.3,2.9-10.2c2.1-3.2,5-5.2,8.7-6c0.9-0.2,1.8-0.3,2.7-0.3c1.9,0,3.6,0.4,5.1,1.2
		c0.7-1.7,2-2.8,4-3.3c0.5-0.1,0.9-0.2,1.4-0.2c1.4,0,2.6,0.5,3.6,1.4c1,0.9,1.7,2.1,2,3.5l5.6,24c0.4,1.6,0.6,3.2,0.6,4.7
		c0,4-1.3,7.4-3.8,10.1c-2.5,2.7-6,4.6-10.4,5.6c-1.3,0.3-2.9,0.5-4.8,0.5c-2.7,0-5.1-0.3-7.1-1c-3-0.9-4.5-2.5-4.5-4.7
		c0-1.1,0.3-2.2,1-3.3c0.7-1.1,1.6-1.7,2.6-2c0.5-0.1,1.1-0.2,1.7-0.2c0.6,0,1.7,0.1,3.2,0.3c1.5,0.2,2.7,0.3,3.5,0.3
		c0.9,0,1.8-0.1,2.7-0.3C58.8,121,60.3,119.4,60.4,116.8z M46.6,101.2c0,0.7,0.1,1.5,0.3,2.2c0.9,4,2.8,6,5.6,6
		c1.5,0,2.8-0.6,3.7-1.8c0.8-1,1.2-2.3,1.2-4c0-0.7-0.1-1.5-0.3-2.3c-0.4-1.8-1.1-3.3-2.1-4.4c-1-1.1-2.2-1.7-3.5-1.7
		c-1.5,0-2.7,0.6-3.5,1.9C47,98.3,46.6,99.6,46.6,101.2z"/>
	<path class="st1" d="M87.8,120.1c-4.9,0.2-9.1-1.3-12.4-4.7c-3.2-3.3-5-7.4-5.3-12.2c-0.2-4.8,1.1-9,4-12.7c3-3.8,7-5.9,11.8-6.2
		c4.8-0.2,9,1.4,12.4,4.9c3.3,3.3,5,7.4,5.3,12.2c0.2,4.9-1.1,9.2-3.9,12.7C96.7,117.8,92.7,119.9,87.8,120.1z M86.5,95.1
		c-1.6,0.1-2.9,0.8-3.8,2.3c-0.9,1.4-1.3,3.2-1.2,5.2c0.1,2,0.7,3.6,1.7,4.9c1,1.3,2.3,1.9,3.9,1.9c1.6-0.1,2.9-0.8,3.8-2.2
		c0.9-1.4,1.3-3.1,1.2-5.1c-0.1-2-0.7-3.7-1.7-5C89.4,95.6,88.1,95,86.5,95.1z"/>
	<path class="st1" d="M115.5,86.9c1.3-1.4,3.1-2,5.5-1.8c1.5,0.1,2.7,0.7,3.7,1.8c1.1,1.2,1.5,2.8,1.4,4.6c-0.1,1.7-1.1,3-2.9,3.9
		c-1.7,0.6-3.4,1.2-5.1,1.8c-1.8,0.8-2.8,1.9-2.9,3.4l-0.9,13c-0.2,1.8-0.8,3.2-2,4.3c-1.1,1.1-2.6,1.6-4.3,1.5c-1.7-0.1-3-0.8-4-2
		c-1-1.2-1.4-2.8-1.3-4.5l1.6-23.1c0.2-1.8,0.9-3.2,2.2-4.2c1.2-0.9,2.5-1.2,4-1.1C113.1,84.5,114.7,85.4,115.5,86.9z"/>
	<path class="st1" d="M136.4,86.9c1.3-1.4,3.1-2,5.5-1.8c1.5,0.1,2.7,0.7,3.7,1.8c1.1,1.2,1.5,2.8,1.4,4.6c-0.1,1.7-1.1,3-2.9,3.9
		c-1.7,0.6-3.4,1.2-5.1,1.8c-1.8,0.8-2.8,1.9-2.9,3.4l-0.9,13c-0.2,1.8-0.8,3.2-2,4.3c-1.1,1.1-2.6,1.6-4.3,1.5c-1.7-0.1-3-0.8-4-2
		c-1-1.2-1.4-2.8-1.3-4.5l1.6-23.1c0.2-1.8,0.9-3.2,2.2-4.2c1.2-0.9,2.5-1.2,4-1.1C134,84.5,135.6,85.4,136.4,86.9z"/>
	<path class="st1" d="M175.6,116.8c-0.5,0.1-1,0.2-1.5,0.2c-1.3,0-2.5-0.5-3.5-1.5c-1.7,2.3-3.9,3.8-6.7,4.4
		c-1.1,0.3-2.3,0.4-3.4,0.4c-3.7,0-7-1.3-9.9-3.9s-4.9-6.1-5.9-10.4c-0.4-1.6-0.5-3.2-0.5-4.7c0-4,1.1-7.5,3.2-10.5
		c2.1-3,4.9-4.9,8.5-5.8c1-0.2,2-0.4,2.9-0.4c1.9,0,3.6,0.4,5.1,1.2c0.7-1.7,2-2.8,3.9-3.3c0.6-0.1,1.2-0.2,1.8-0.2
		c2.6,0,4.4,1.9,5.3,5.8l4.7,20.5c0.3,1.3,0.4,2.3,0.4,3.1C179.8,114.5,178.4,116.2,175.6,116.8z M155.5,101c0,0.8,0.1,1.6,0.2,2.4
		c0.4,1.7,1.1,3.1,2.1,4.2c1,1.1,2.2,1.7,3.5,1.7c1.5,0,2.7-0.6,3.5-1.8c0.8-1.1,1.2-2.4,1.2-4c0-0.7-0.1-1.5-0.3-2.4
		c-0.4-1.7-1.1-3.2-2.1-4.3c-1-1.1-2.2-1.7-3.5-1.7c-1.5,0-2.7,0.6-3.5,1.7C155.9,98,155.5,99.4,155.5,101z"/>
	<path class="st1" d="M209.7,101.9c0.9-2.7,2.6-7,5.1-12.8c1-2.6,2.9-3.8,5.5-3.5c1.6,0.1,2.9,0.7,3.9,1.7c1.2,1.2,1.7,2.6,1.5,4.4
		c-0.1,0.9-0.4,1.9-0.9,3l-10.5,21.2c-1.4,2.9-3.5,4.2-6.4,4c-2.8-0.2-4.7-1.9-5.6-5L195.8,92c-0.3-1.1-0.4-2.1-0.4-3.1
		c0.1-1.7,0.8-3.1,2.2-4c1.2-0.8,2.6-1.2,4.1-1.1c2.6,0.2,4.2,1.7,4.8,4.5L209.7,101.9z"/>
	<path class="st1" d="M253.3,102.5l-15.3,5.3c1,1,2.3,1.5,4,1.5c0.9,0,1.9-0.2,2.8-0.5c1.3-0.5,2.8-1.6,4.4-3.3
		c1.6-1.7,2.8-2.8,3.6-3.1c0.5-0.2,0.9-0.2,1.4-0.2c1.4,0,2.6,0.5,3.6,1.5c1,1,1.6,2.1,1.6,3.5c0,2.2-1.3,4.5-4,6.9
		c-2.4,2.2-5,3.9-7.9,4.8c-2.1,0.7-4.1,1.1-6.2,1.1c-3.7,0-6.9-1.1-9.8-3.3c-2.9-2.2-5-5.2-6.3-9c-0.7-2-1.1-4.1-1.1-6.3
		c0-3.6,0.9-6.9,2.8-9.8c2-3.1,4.8-5.2,8.2-6.4c1.7-0.6,3.5-0.9,5.3-0.9c3.6,0,7,1.2,10.1,3.5c3,2.2,5,4.8,6,8
		c0.3,0.8,0.4,1.5,0.4,2.2C256.9,100.2,255.7,101.7,253.3,102.5z M238.4,94.8c-2.3,0.8-3.5,2.4-3.5,5l9.3-3.2
		c-1.1-1.4-2.4-2.1-4-2.1C239.7,94.5,239.1,94.6,238.4,94.8z"/>
	<path class="st1" d="M272.1,86.9c1.3-1.4,3.1-2,5.5-1.8c1.5,0.1,2.7,0.7,3.7,1.8c1.1,1.2,1.5,2.8,1.4,4.6c-0.1,1.7-1.1,3-2.9,3.9
		c-1.7,0.6-3.4,1.2-5.1,1.8c-1.8,0.8-2.8,1.9-2.9,3.4l-0.9,13c-0.2,1.8-0.8,3.2-2,4.3c-1.1,1.1-2.6,1.6-4.3,1.5c-1.7-0.1-3-0.8-4-2
		c-1-1.2-1.4-2.8-1.3-4.5l1.6-23.1c0.2-1.8,0.9-3.2,2.2-4.2c1.2-0.9,2.5-1.2,4-1.1C269.7,84.5,271.3,85.4,272.1,86.9z"/>
	<path class="st1" d="M305.6,120.7c-2.1-0.2-3.6-1.1-4.5-2.7c-2.2,1.6-4.7,2.2-7.6,2c-4.3-0.4-7.7-2.3-10.3-5.9
		c-2.4-3.2-3.7-7-3.7-11.3c0-4.8,1.3-9,4-12.6c3-4,6.8-6,11.4-6c2.9,0,5.5,0.7,7.9,2.2l0.8-8.8c0.2-1.8,0.8-3.2,2-4.3
		c1.2-1.1,2.6-1.5,4.3-1.4c1.7,0.1,3,0.8,3.9,2.1c1,1.3,1.4,2.8,1.2,4.6l-3.2,36.3c-0.2,1.8-0.8,3.2-2,4.3
		C308.6,120.3,307.2,120.8,305.6,120.7z M296.8,95.1c-1.5-0.1-2.8,0.5-3.9,1.8c-1.1,1.3-1.7,3-1.9,4.9c-0.2,1.9,0.2,3.6,1,5
		c0.8,1.5,2,2.4,3.5,2.5c1.6,0.2,2.9-0.4,4-1.8c1.1-1.3,1.7-3.1,1.8-5.1c0.2-2-0.1-3.6-0.9-5C299.6,96,298.4,95.2,296.8,95.1z"/>
	<path class="st1" d="M342.6,102.5l-15.3,5.3c1,1,2.3,1.5,4,1.5c0.9,0,1.9-0.2,2.8-0.5c1.3-0.5,2.8-1.6,4.4-3.3
		c1.6-1.7,2.8-2.8,3.6-3.1c0.5-0.2,0.9-0.2,1.4-0.2c1.4,0,2.6,0.5,3.6,1.5c1,1,1.6,2.1,1.6,3.5c0,2.2-1.3,4.5-4,6.9
		c-2.4,2.2-5,3.9-7.9,4.8c-2.1,0.7-4.1,1.1-6.2,1.1c-3.7,0-6.9-1.1-9.8-3.3c-2.9-2.2-5-5.2-6.3-9c-0.7-2-1.1-4.1-1.1-6.3
		c0-3.6,0.9-6.9,2.8-9.8c2-3.1,4.8-5.2,8.2-6.4c1.7-0.6,3.5-0.9,5.3-0.9c3.6,0,7,1.2,10.1,3.5c3,2.2,5,4.8,6,8
		c0.3,0.8,0.4,1.5,0.4,2.2C346.2,100.2,345,101.7,342.6,102.5z M327.7,94.8c-2.3,0.8-3.5,2.4-3.5,5l9.3-3.2c-1.1-1.4-2.4-2.1-4-2.1
		C329,94.5,328.4,94.6,327.7,94.8z"/>
	<path class="st0" d="M27.6,189.6L7.9,191c-1.7,0.1-3.1-0.2-4.3-0.9c-1.3-0.9-2.1-2.2-2.2-4c-0.1-1.3,0.4-2.6,1.4-4.1
		c2.3-3,4.6-6.1,6.9-9.1c2.8-3.6,4.9-6.8,6.5-9.5c1.1-1.8,1.6-3.4,1.5-4.7c-0.1-0.9-0.4-1.6-1-2.1c-0.6-0.6-1.3-0.8-2-0.8
		c-1.4,0.1-2.4,1-2.9,2.6c-0.5,1.6-1,3.2-1.4,4.8c-0.8,1.7-2.2,2.6-4.1,2.8c-1.8,0.1-3.3-0.4-4.4-1.4c-1.1-1.1-1.7-2.4-1.8-4
		c-0.3-4.1,1-7.7,3.9-10.9c2.9-3.1,6.3-4.8,10.4-5.1c4.1-0.3,7.6,0.7,10.6,3.1c3,2.3,4.6,5.5,4.9,9.6c0.2,3.4-1,7.4-3.7,11.8
		c-0.9,1.5-3.3,4.9-7.3,10.3l7.6-0.5c1.7-0.1,3.1,0.2,4.3,0.9c1.3,0.9,2.1,2.2,2.2,4c0.1,1.8-0.4,3.2-1.5,4.3
		C30.5,189.1,29.2,189.5,27.6,189.6z"/>
	<path class="st0" d="M67.9,192.2l-19.3-4.5c-2.6-0.6-4-2-4-4.3c0-1.5,0.6-2.8,1.8-3.9L61.5,166l-6.8-1.5c-1.2-0.3-2.2-0.9-3-1.8
		c-0.8-0.9-1.2-1.9-1.2-3.2c0-0.4,0.1-0.9,0.2-1.3c0.6-2.7,2.3-4.1,5-4.1c0.4,0,0.9,0.1,1.3,0.2l18.9,4.4c2.2,0.5,3.4,1.8,3.4,3.8
		c0,0.4,0,0.7-0.1,1.1c-0.3,1.1-0.9,2.2-2,3.1l-15.1,13.4l8.2,1.9c1.2,0.3,2.2,0.9,3,1.7s1.2,2,1.2,3.2c0,0.4,0,0.9-0.1,1.3
		c-0.6,2.7-2.3,4-5,4C68.8,192.3,68.3,192.2,67.9,192.2z"/>
	<path class="st0" d="M108,187.8c-0.5,0.1-1,0.2-1.5,0.2c-1.3,0-2.5-0.5-3.5-1.5c-1.7,2.3-3.9,3.8-6.7,4.4c-1.1,0.3-2.3,0.4-3.4,0.4
		c-3.7,0-7-1.3-9.9-3.9S78,181.3,77,177c-0.4-1.6-0.5-3.2-0.5-4.7c0-4,1.1-7.5,3.2-10.5c2.1-3,4.9-4.9,8.5-5.8c1-0.2,2-0.4,2.9-0.4
		c1.9,0,3.6,0.4,5.1,1.2c0.7-1.7,2-2.8,3.9-3.3c0.6-0.1,1.2-0.2,1.8-0.2c2.6,0,4.4,1.9,5.3,5.8l4.7,20.5c0.3,1.3,0.4,2.3,0.4,3.1
		C112.2,185.5,110.8,187.2,108,187.8z M87.9,172c0,0.8,0.1,1.6,0.2,2.4c0.4,1.7,1.1,3.1,2.1,4.2c1,1.1,2.2,1.7,3.5,1.7
		c1.5,0,2.7-0.6,3.5-1.8c0.8-1.1,1.2-2.4,1.2-4c0-0.7-0.1-1.5-0.3-2.4c-0.4-1.7-1.1-3.2-2.1-4.3c-1-1.1-2.2-1.7-3.5-1.7
		c-1.5,0-2.7,0.6-3.5,1.7C88.3,169,87.9,170.4,87.9,172z"/>
	<path class="st0" d="M129.1,191.2c-2.2-0.2-4.2-0.9-6.2-2.2l-0.7,7.6c-0.2,1.8-0.8,3.2-2,4.3c-1.2,1.1-2.6,1.5-4.3,1.4
		c-1.7-0.1-3-0.8-3.9-2.1c-1-1.3-1.4-2.8-1.2-4.6l3.1-35.1c0.2-1.8,0.8-3.2,2-4.3c1.2-1.1,2.6-1.6,4.3-1.4c2,0.2,3.5,1.1,4.4,2.7
		c2.2-1.6,4.8-2.2,7.9-2c4.5,0.4,7.9,2.4,10.4,6c2.2,3.2,3.3,7,3.3,11.5c0,5-1.5,9.3-4.6,13C138.3,189.9,134.1,191.6,129.1,191.2z
		 M130.3,166.1c-1.6-0.2-2.9,0.4-4,1.6c-1,1.2-1.6,2.8-1.8,4.8c-0.2,2.1,0.1,3.8,0.9,5.3c0.8,1.5,2,2.3,3.6,2.5
		c1.5,0.1,2.8-0.5,3.9-1.8c1.1-1.3,1.7-2.9,1.9-4.8c0.2-2-0.2-3.7-1-5.2C132.9,167,131.8,166.2,130.3,166.1z"/>
	<path class="st0" d="M177.3,187.8c-0.5,0.1-1,0.2-1.5,0.2c-1.3,0-2.5-0.5-3.5-1.5c-1.7,2.3-3.9,3.8-6.7,4.4
		c-1.1,0.3-2.3,0.4-3.4,0.4c-3.7,0-7-1.3-9.9-3.9s-4.9-6.1-5.9-10.4c-0.4-1.6-0.5-3.2-0.5-4.7c0-4,1.1-7.5,3.2-10.5
		c2.1-3,4.9-4.9,8.5-5.8c1-0.2,2-0.4,2.9-0.4c1.9,0,3.6,0.4,5.1,1.2c0.7-1.7,2-2.8,3.9-3.3c0.6-0.1,1.2-0.2,1.8-0.2
		c2.6,0,4.4,1.9,5.3,5.8l4.7,20.5c0.3,1.3,0.4,2.3,0.4,3.1C181.6,185.5,180.2,187.2,177.3,187.8z M157.3,172c0,0.8,0.1,1.6,0.2,2.4
		c0.4,1.7,1.1,3.1,2.1,4.2c1,1.1,2.2,1.7,3.5,1.7c1.5,0,2.7-0.6,3.5-1.8c0.8-1.1,1.2-2.4,1.2-4c0-0.7-0.1-1.5-0.3-2.4
		c-0.4-1.7-1.1-3.2-2.1-4.3c-1-1.1-2.2-1.7-3.5-1.7c-1.5,0-2.7,0.6-3.5,1.7C157.7,169,157.3,170.4,157.3,172z"/>
	<path class="st0" d="M196.6,167.9l-0.9-0.2l-4.1,17.7c-0.4,1.5-1,2.7-2.1,3.6c-1,0.9-2.2,1.3-3.6,1.3c-0.4,0-0.9,0-1.4-0.1
		c-1.3-0.3-2.4-1-3.2-2c-0.8-1-1.2-2.3-1.2-3.6c0-0.6,0.1-1.1,0.2-1.7l4.1-17.7l-0.4-0.1c-2.7-0.6-4.1-2.2-4.1-4.8
		c0-0.5,0.1-0.9,0.2-1.4c0.3-1.2,0.9-2.2,1.8-2.9c0.9-0.7,2-1.1,3.2-1.1c0.4,0,0.8,0,1.2,0.1l0.4,0.1l0.8-3.5c0.4-1.5,1-2.6,2-3.5
		c1-0.9,2.2-1.4,3.6-1.4c0.4,0,0.9,0.1,1.4,0.2c1.4,0.3,2.5,1,3.2,2c0.8,1,1.2,2.2,1.2,3.7c0,0.6-0.1,1.1-0.2,1.7l-0.8,3.5l0.9,0.2
		c2.9,0.7,4.4,2.3,4.4,4.9c0,0.4,0,0.9-0.1,1.4c-0.6,2.7-2.3,4-5,4C197.6,168,197.1,168,196.6,167.9z"/>
	<path class="st0" d="M218.1,191.1c-4.9,0.2-9.1-1.3-12.4-4.7c-3.2-3.3-5-7.4-5.3-12.2c-0.2-4.8,1.1-9,4-12.7c3-3.8,7-5.9,11.8-6.2
		c4.8-0.2,9,1.4,12.4,4.9c3.3,3.3,5,7.4,5.3,12.2c0.2,4.9-1.1,9.2-3.9,12.7C227,188.8,223,190.8,218.1,191.1z M216.8,166
		c-1.6,0.1-2.9,0.8-3.8,2.3c-0.9,1.4-1.3,3.2-1.2,5.2c0.1,2,0.7,3.6,1.7,4.9c1,1.3,2.3,1.9,3.9,1.9c1.6-0.1,2.9-0.8,3.8-2.2
		c0.9-1.4,1.3-3.1,1.2-5.1c-0.1-2-0.7-3.7-1.7-5C219.7,166.6,218.4,166,216.8,166z"/>
	<path class="st0" d="M251.2,190.7c-1.2,0.3-2.6,0.4-4.1,0.4c-2.5,0-4.8-0.4-6.7-1.2c-2.7-1.1-4-2.7-4-4.9c0-1.1,0.3-2.2,0.9-3.2
		c0.7-1.2,1.7-1.9,3-2.2c0.5-0.1,1-0.2,1.5-0.2c0.8,0,1.9,0.2,3.2,0.6c1.4,0.4,2.4,0.6,3.2,0.6c0.4,0,0.9-0.1,1.3-0.2
		c1.3-0.3,1.8-0.7,1.7-1.4c-0.1-0.3-1.5-0.7-4.1-1c-3.4-0.4-5.9-1-7.7-1.9c-3-1.4-4.8-3.5-5.4-6.5c-0.2-0.9-0.4-1.8-0.4-2.7
		c0-3.5,1.5-6.4,4.6-8.7c2.8-2,6-3.1,9.6-3.1c2.5,0,4.6,0.4,6.4,1.3c2.4,1.1,3.5,2.8,3.5,5c0,1.4-0.5,2.6-1.4,3.6
		c-0.9,1-2,1.5-3.3,1.5c-0.6,0-1.6-0.1-3-0.4c-1.4-0.3-2.4-0.4-3.1-0.4c-0.9,0-1.6,0.2-2,0.5c-0.3,0.2-0.4,0.5-0.3,0.8
		c0.1,0.4,1.5,0.7,4.2,1c3.4,0.4,5.9,1.1,7.7,1.9c3,1.4,4.8,3.6,5.4,6.5c0.2,0.8,0.3,1.7,0.3,2.5c0,2.8-1,5.3-3,7.4
		C257.2,188.5,254.5,189.9,251.2,190.7z"/>
	<path class="st0" d="M291.7,157.9c1.3-1.4,3.1-2,5.5-1.8c1.5,0.1,2.7,0.7,3.7,1.8c1.1,1.2,1.5,2.8,1.4,4.6c-0.1,1.7-1.1,3-2.9,3.9
		c-1.7,0.6-3.4,1.2-5.1,1.8c-1.8,0.8-2.8,1.9-2.9,3.4l-0.9,13c-0.2,1.8-0.8,3.2-2,4.3c-1.1,1.1-2.6,1.6-4.3,1.5c-1.7-0.1-3-0.8-4-2
		c-1-1.2-1.4-2.8-1.3-4.5l1.6-23.1c0.2-1.8,0.9-3.2,2.2-4.2c1.2-0.9,2.5-1.2,4-1.1C289.3,155.5,290.8,156.3,291.7,157.9z"/>
	<path class="st0" d="M316.7,191.1c-4.9,0.2-9.1-1.3-12.4-4.7c-3.2-3.3-5-7.4-5.3-12.2c-0.2-4.8,1.1-9,4-12.7c3-3.8,7-5.9,11.8-6.2
		c4.8-0.2,9,1.4,12.4,4.9c3.3,3.3,5,7.4,5.3,12.2c0.2,4.9-1.1,9.2-3.9,12.7C325.6,188.8,321.6,190.8,316.7,191.1z M315.4,166
		c-1.6,0.1-2.9,0.8-3.8,2.3c-0.9,1.4-1.3,3.2-1.2,5.2c0.1,2,0.7,3.6,1.7,4.9c1,1.3,2.3,1.9,3.9,1.9c1.6-0.1,2.9-0.8,3.8-2.2
		c0.9-1.4,1.3-3.1,1.2-5.1c-0.1-2-0.7-3.7-1.7-5C318.3,166.6,317,166,315.4,166z"/>
	<path class="st0" d="M349.7,190.7c-1.2,0.3-2.6,0.4-4.1,0.4c-2.5,0-4.8-0.4-6.7-1.2c-2.7-1.1-4-2.7-4-4.9c0-1.1,0.3-2.2,0.9-3.2
		c0.7-1.2,1.7-1.9,3-2.2c0.5-0.1,1-0.2,1.5-0.2c0.8,0,1.9,0.2,3.2,0.6c1.4,0.4,2.4,0.6,3.2,0.6c0.4,0,0.9-0.1,1.3-0.2
		c1.3-0.3,1.8-0.7,1.7-1.4c-0.1-0.3-1.5-0.7-4.1-1c-3.4-0.4-5.9-1-7.7-1.9c-3-1.4-4.8-3.5-5.4-6.5c-0.2-0.9-0.4-1.8-0.4-2.7
		c0-3.5,1.5-6.4,4.6-8.7c2.8-2,6-3.1,9.6-3.1c2.5,0,4.6,0.4,6.4,1.3c2.4,1.1,3.5,2.8,3.5,5c0,1.4-0.5,2.6-1.4,3.6
		c-0.9,1-2,1.5-3.3,1.5c-0.6,0-1.6-0.1-3-0.4c-1.4-0.3-2.4-0.4-3.1-0.4c-0.9,0-1.6,0.2-2,0.5c-0.3,0.2-0.4,0.5-0.3,0.8
		c0.1,0.4,1.5,0.7,4.2,1c3.4,0.4,5.9,1.1,7.7,1.9c3,1.4,4.8,3.6,5.4,6.5c0.2,0.8,0.3,1.7,0.3,2.5c0,2.8-1,5.3-3,7.4
		C355.8,188.5,353.1,189.9,349.7,190.7z"/>
	<path class="st0" d="M391.8,187.8c-0.5,0.1-1,0.2-1.5,0.2c-1.3,0-2.5-0.5-3.5-1.5c-1.7,2.3-3.9,3.8-6.7,4.4
		c-1.1,0.3-2.3,0.4-3.4,0.4c-3.7,0-7-1.3-9.9-3.9s-4.9-6.1-5.9-10.4c-0.4-1.6-0.5-3.2-0.5-4.7c0-4,1.1-7.5,3.2-10.5
		c2.1-3,4.9-4.9,8.5-5.8c1-0.2,2-0.4,2.9-0.4c1.9,0,3.6,0.4,5.1,1.2c0.7-1.7,2-2.8,3.9-3.3c0.6-0.1,1.2-0.2,1.8-0.2
		c2.6,0,4.4,1.9,5.3,5.8l4.7,20.5c0.3,1.3,0.4,2.3,0.4,3.1C396.1,185.5,394.7,187.2,391.8,187.8z M371.8,172c0,0.8,0.1,1.6,0.2,2.4
		c0.4,1.7,1.1,3.1,2.1,4.2c1,1.1,2.2,1.7,3.5,1.7c1.5,0,2.7-0.6,3.5-1.8c0.8-1.1,1.2-2.4,1.2-4c0-0.7-0.1-1.5-0.3-2.4
		c-0.4-1.7-1.1-3.2-2.1-4.3c-1-1.1-2.2-1.7-3.5-1.7c-1.5,0-2.7,0.6-3.5,1.7C372.2,169,371.8,170.4,371.8,172z"/>
	<path class="st0" d="M420.5,191.6c-2.1-0.2-3.6-1.1-4.5-2.7c-2.2,1.6-4.7,2.2-7.6,2c-4.3-0.4-7.7-2.3-10.3-5.9
		c-2.4-3.2-3.7-7-3.7-11.3c0-4.8,1.3-9,4-12.6c3-4,6.8-6,11.4-6c2.9,0,5.5,0.7,7.9,2.2l0.8-8.8c0.2-1.8,0.8-3.2,2-4.3
		c1.2-1.1,2.6-1.5,4.3-1.4c1.7,0.1,3,0.8,3.9,2.1c1,1.3,1.4,2.8,1.2,4.6l-3.2,36.3c-0.2,1.8-0.8,3.2-2,4.3
		C423.5,191.3,422.1,191.8,420.5,191.6z M411.7,166c-1.5-0.1-2.8,0.5-3.9,1.8c-1.1,1.3-1.7,3-1.9,4.9c-0.2,1.9,0.2,3.6,1,5
		c0.8,1.5,2,2.4,3.5,2.5c1.6,0.2,2.9-0.4,4-1.8c1.1-1.3,1.7-3.1,1.8-5.1c0.2-2-0.1-3.6-0.9-5C414.5,167,413.3,166.2,411.7,166z"/>
	<path class="st0" d="M446.7,191.1c-4.9,0.2-9.1-1.3-12.4-4.7c-3.2-3.3-5-7.4-5.3-12.2c-0.2-4.8,1.1-9,4-12.7c3-3.8,7-5.9,11.8-6.2
		c4.8-0.2,9,1.4,12.4,4.9c3.3,3.3,5,7.4,5.3,12.2c0.2,4.9-1.1,9.2-3.9,12.7C455.6,188.8,451.7,190.8,446.7,191.1z M445.4,166
		c-1.6,0.1-2.9,0.8-3.8,2.3c-0.9,1.4-1.3,3.2-1.2,5.2c0.1,2,0.7,3.6,1.7,4.9c1,1.3,2.3,1.9,3.9,1.9c1.6-0.1,2.9-0.8,3.8-2.2
		c0.9-1.4,1.3-3.1,1.2-5.1c-0.1-2-0.7-3.7-1.7-5C448.4,166.6,447,166,445.4,166z"/>
	<path class="st0" d="M479.8,190.7c-1.2,0.3-2.6,0.4-4.1,0.4c-2.5,0-4.8-0.4-6.7-1.2c-2.7-1.1-4-2.7-4-4.9c0-1.1,0.3-2.2,0.9-3.2
		c0.7-1.2,1.7-1.9,3-2.2c0.5-0.1,1-0.2,1.5-0.2c0.8,0,1.9,0.2,3.2,0.6c1.4,0.4,2.4,0.6,3.2,0.6c0.4,0,0.9-0.1,1.3-0.2
		c1.3-0.3,1.8-0.7,1.7-1.4c-0.1-0.3-1.5-0.7-4.1-1c-3.4-0.4-5.9-1-7.7-1.9c-3-1.4-4.8-3.5-5.4-6.5c-0.2-0.9-0.4-1.8-0.4-2.7
		c0-3.5,1.5-6.4,4.6-8.7c2.8-2,6-3.1,9.6-3.1c2.5,0,4.6,0.4,6.4,1.3c2.4,1.1,3.5,2.8,3.5,5c0,1.4-0.5,2.6-1.4,3.6
		c-0.9,1-2,1.5-3.3,1.5c-0.6,0-1.6-0.1-3-0.4c-1.4-0.3-2.4-0.4-3.1-0.4c-0.9,0-1.6,0.2-2,0.5c-0.3,0.2-0.4,0.5-0.3,0.8
		c0.1,0.4,1.5,0.7,4.2,1c3.4,0.4,5.9,1.1,7.7,1.9c3,1.4,4.8,3.6,5.4,6.5c0.2,0.8,0.3,1.7,0.3,2.5c0,2.8-1,5.3-3,7.4
		C485.8,188.5,483.1,189.9,479.8,190.7z"/>
	<path class="st1" d="M3.9,256.3c0-0.4,0-0.8,0.1-1.2l4.4-27.9l-2-0.4c-3.1-0.5-4.7-2.2-4.7-5.3c0-1.6,0.5-2.9,1.5-4.1
		c1-1.1,2.3-1.7,3.9-1.7c0.3,0,0.6,0,0.9,0.1l8.3,1.3c1.5,0.2,2.6,0.9,3.4,1.9c0.8,1,1.2,2.2,1.2,3.5c0,0.4,0,0.7-0.1,1.1l-5.3,33.2
		c-0.3,1.6-0.9,2.9-2,3.8c-1,0.9-2.3,1.4-3.8,1.4c-1.7,0-3.1-0.5-4.3-1.6C4.5,259.4,3.9,258,3.9,256.3z"/>
	<path class="st1" d="M84.1,257.1c-0.4,0.1-0.9,0.2-1.4,0.2c-1.3,0-2.5-0.5-3.5-1.4c-1-0.9-1.7-2.1-2.1-3.6l-3.3-14.4
		c-0.6-2.4-1.7-3.6-3.5-3.6c-1.1,0-1.9,0.3-2.5,1c-0.6,0.7-0.9,1.6-0.9,2.6c0,0.5,0.1,1,0.2,1.5l3.3,14.4c0.2,0.6,0.2,1.2,0.2,1.7
		c0,1.4-0.4,2.6-1.2,3.6c-0.8,1-1.9,1.7-3.3,2c-0.4,0.1-0.9,0.2-1.4,0.2c-1.3,0-2.5-0.5-3.5-1.4c-1-0.9-1.7-2.1-2.1-3.5L55.8,242
		c-0.6-2.4-1.7-3.5-3.5-3.5c-2.4,0-3.5,1.1-3.5,3.4c0,0.5,0.1,1.1,0.2,1.7l3.3,14.5c0.2,0.6,0.2,1.1,0.2,1.7c0,1.4-0.4,2.6-1.2,3.6
		c-0.8,1-1.9,1.7-3.2,2c-0.5,0.1-0.9,0.1-1.4,0.1c-1.3,0-2.5-0.4-3.5-1.3c-1-0.9-1.7-2.1-2.1-3.6L36,238.5c-0.1-0.6-0.2-1.1-0.2-1.7
		c0-1.4,0.4-2.6,1.2-3.7c0.8-1,1.8-1.7,3.2-2c0.5-0.1,1-0.2,1.5-0.2c1.3,0,2.5,0.4,3.4,1.2c2.4-3,5.6-4.4,9.5-4.4
		c2.3,0,4.5,0.6,6.5,1.9c2.1-3,4.8-4.8,7.9-5.6c1.3-0.3,2.5-0.4,3.7-0.4c3,0,5.5,0.9,7.6,2.6c2.1,1.7,3.6,4.2,4.3,7.5l3.7,15.9
		c0.2,0.6,0.2,1.1,0.2,1.7c0,1.4-0.4,2.6-1.2,3.7C86.6,256.1,85.5,256.8,84.1,257.1z"/>
	<path class="st1" d="M104.1,262.1c-4.8,0.2-8.7-0.8-11.6-3.2c-2.9-2.3-4.4-5.6-4.6-9.9L87,233.6c-0.1-1.8,0.4-3.3,1.4-4.5
		c1-1.2,2.4-1.9,4.1-2c1.7-0.1,3.1,0.4,4.2,1.6c1.1,1.1,1.8,2.6,1.8,4.3l0.8,15.1c0.1,1.3,0.5,2.2,1.3,2.9c0.8,0.7,1.8,1,2.9,0.9
		c1.1-0.1,2-0.5,2.8-1.2c0.7-0.7,1.1-1.8,1-3l-0.8-15.1c-0.1-1.8,0.3-3.3,1.3-4.5c1-1.2,2.4-1.9,4.1-2c1.7-0.1,3.1,0.4,4.2,1.5
		c1.1,1.1,1.7,2.6,1.8,4.4l0.8,15.3c0.2,4.3-1,7.8-3.6,10.4C112.6,260.4,108.9,261.8,104.1,262.1z"/>
	<path class="st1" d="M122.6,274.1c-1.7-0.2-3-0.9-3.9-2.1c-1-1.3-1.4-2.8-1.2-4.6l3.1-35.1c0.2-1.8,0.8-3.2,2-4.3
		c1.2-1.1,2.6-1.5,4.3-1.4c1.7,0.2,3,0.9,4,2.1c0.9,1.3,1.3,2.8,1.2,4.6l-3.1,35.1c-0.2,1.8-0.8,3.2-2,4.3
		C125.8,273.8,124.3,274.3,122.6,274.1z M126.8,226.4c-1.7-0.2-3.1-0.9-4.2-2.3c-1.1-1.4-1.6-2.9-1.4-4.6c0.1-1.6,0.9-3,2.2-4.1
		s2.9-1.6,4.6-1.4c1.7,0.2,3.1,0.9,4.2,2.2c1.1,1.3,1.6,2.8,1.5,4.5c-0.2,1.7-0.9,3.2-2.2,4.3C130.1,226.1,128.6,226.6,126.8,226.4z
		"/>
	<path class="st1" d="M161,244.5l-15.3,5.3c1,1,2.3,1.5,4,1.5c0.9,0,1.9-0.2,2.8-0.5c1.3-0.5,2.8-1.6,4.4-3.3
		c1.6-1.7,2.8-2.8,3.6-3.1c0.5-0.2,0.9-0.2,1.4-0.2c1.4,0,2.6,0.5,3.6,1.5c1,1,1.6,2.1,1.6,3.5c0,2.2-1.3,4.5-4,6.9
		c-2.4,2.2-5,3.9-7.9,4.8c-2.1,0.7-4.1,1.1-6.2,1.1c-3.7,0-6.9-1.1-9.8-3.3c-2.9-2.2-5-5.2-6.3-9c-0.7-2-1.1-4.1-1.1-6.3
		c0-3.6,0.9-6.9,2.8-9.8c2-3.1,4.8-5.2,8.2-6.4c1.7-0.6,3.5-0.9,5.3-0.9c3.6,0,7,1.2,10.1,3.5c3,2.2,5,4.8,6,8
		c0.3,0.8,0.4,1.5,0.4,2.2C164.6,242.2,163.4,243.6,161,244.5z M146.1,236.7c-2.3,0.8-3.5,2.4-3.5,5l9.3-3.2c-1.1-1.4-2.4-2.1-4-2.1
		C147.4,236.4,146.7,236.5,146.1,236.7z"/>
	<path class="st1" d="M179.8,228.8c1.3-1.4,3.1-2,5.5-1.8c1.5,0.1,2.7,0.7,3.7,1.8c1.1,1.2,1.5,2.8,1.4,4.6c-0.1,1.7-1.1,3-2.9,3.9
		c-1.7,0.6-3.4,1.2-5.1,1.8c-1.8,0.8-2.8,1.9-2.9,3.4l-0.9,13c-0.2,1.8-0.8,3.2-2,4.3c-1.1,1.1-2.6,1.6-4.3,1.5c-1.7-0.1-3-0.8-4-2
		c-1-1.2-1.4-2.8-1.3-4.5l1.6-23.1c0.2-1.8,0.9-3.2,2.2-4.2c1.2-0.9,2.5-1.2,4-1.1C177.4,226.5,179,227.3,179.8,228.8z"/>
	<path class="st1" d="M224.1,261.9c-4.9,0.3-9.1-1.3-12.4-4.7c-3.2-3.3-5-7.4-5.3-12.2c-0.2-4.8,1.1-9,4-12.7c3-3.8,7-5.9,11.8-6.2
		c2.6-0.1,5.1,0.3,7.5,1.2c3,1.2,4.6,2.9,4.7,5c0.1,1.3-0.2,2.5-0.9,3.6c-0.9,1.4-2,2.1-3.5,2.2c-0.8,0-1.9-0.2-3.4-0.7
		s-2.6-0.7-3.4-0.7c-1.8,0.1-3.1,0.8-4.1,2.2s-1.4,3.2-1.2,5.3c0.1,1.9,0.7,3.6,1.9,4.9c1.1,1.3,2.5,2,4.2,1.8c0.7,0,1.8-0.4,3.2-1
		s2.4-1,3.1-1c1.4-0.1,2.6,0.4,3.7,1.3c1.1,1,1.6,2.2,1.7,3.6c0.1,2.3-1.3,4.2-4.3,5.8C228.9,261.1,226.5,261.8,224.1,261.9z"/>
	<path class="st1" d="M250.5,262.1c-4.9,0.2-9.1-1.3-12.4-4.7c-3.2-3.3-5-7.4-5.3-12.2c-0.2-4.8,1.1-9,4-12.7c3-3.8,7-5.9,11.8-6.2
		c4.8-0.2,9,1.4,12.4,4.9c3.3,3.3,5,7.4,5.3,12.2c0.2,4.9-1.1,9.2-3.9,12.7C259.4,259.8,255.4,261.8,250.5,262.1z M249.2,237
		c-1.6,0.1-2.9,0.8-3.8,2.3c-0.9,1.4-1.3,3.2-1.2,5.2c0.1,2,0.7,3.6,1.7,4.9c1,1.3,2.3,1.9,3.9,1.9c1.6-0.1,2.9-0.8,3.8-2.2
		c0.9-1.4,1.3-3.1,1.2-5.1c-0.1-2-0.7-3.7-1.7-5C252.1,237.6,250.8,236.9,249.2,237z"/>
	<path class="st1" d="M289,263.4c-1.3-0.3-2.4-1-3.2-2c-0.8-1-1.2-2.2-1.2-3.6c0-0.6,0.1-1.1,0.2-1.7l3.4-14.4
		c0.1-0.5,0.2-1,0.2-1.5c0-1.2-0.4-2.1-1.2-2.8c-0.8-0.7-1.8-1-3-1c-2,0-3.2,1.2-3.8,3.5l-3.3,14.5c-0.4,1.5-1,2.6-2.1,3.5
		c-1,0.9-2.2,1.4-3.5,1.4c-0.5,0-0.9-0.1-1.4-0.2c-1.4-0.3-2.5-1-3.2-2c-0.8-1-1.2-2.2-1.2-3.6c0-0.6,0.1-1.2,0.2-1.7l5.1-22.1
		c0.4-1.5,1-2.7,2.1-3.6c1-0.9,2.2-1.3,3.5-1.3c2.5,0,4.3,1,5.2,3c1.3-0.6,2.8-0.9,4.4-0.9c1.1,0,2.3,0.2,3.6,0.5
		c3.1,0.7,5.6,2.1,7.5,4.3c1.9,2.2,2.8,4.8,2.8,7.8c0,1.1-0.1,2.2-0.4,3.4l-3.7,15.9c-0.3,1.5-1,2.7-2,3.6c-1,0.9-2.2,1.3-3.6,1.3
		C289.9,263.6,289.5,263.6,289,263.4z"/>
	<path class="st1" d="M333.2,237.8l-1.2-0.1l-1.3,18.1c-0.1,1.8-0.7,3.2-1.9,4.3c-1.1,1.1-2.6,1.6-4.3,1.5c-1.7-0.1-3-0.8-4-2
		c-1-1.2-1.4-2.8-1.3-4.5l1.2-18.2h-0.4c-1.5-0.1-2.8-0.7-3.6-1.7s-1.3-2.3-1.2-3.9c0.1-1.5,0.7-2.7,1.7-3.6
		c1.1-0.9,2.3-1.4,3.8-1.3l0.4,0.1l0.2-2.9c0.2-3.4,1.4-6.1,3.4-8c2-1.9,4.6-2.7,7.7-2.5c4.9,0.3,7.2,2.2,7,5.8
		c-0.2,3.4-2,5-5.3,4.7c-0.9,0-1.4,0.5-1.5,1.5l-0.1,2l1.2,0.1c3.9,0.3,5.7,2.1,5.4,5.6c-0.2,1.8-0.8,3-2,3.8
		C336.2,237.6,334.9,237.9,333.2,237.8z"/>
	<path class="st1" d="M368,258.8c-0.5,0.1-1,0.2-1.5,0.2c-1.3,0-2.5-0.5-3.5-1.5c-1.7,2.3-3.9,3.8-6.7,4.4c-1.1,0.3-2.3,0.4-3.4,0.4
		c-3.7,0-7-1.3-9.9-3.9s-4.9-6.1-5.9-10.4c-0.4-1.6-0.5-3.2-0.5-4.7c0-4,1.1-7.5,3.2-10.5c2.1-3,4.9-4.9,8.5-5.8
		c1-0.2,2-0.4,2.9-0.4c1.9,0,3.6,0.4,5.1,1.2c0.7-1.7,2-2.8,3.9-3.3c0.6-0.1,1.2-0.2,1.8-0.2c2.6,0,4.4,1.9,5.3,5.8l4.7,20.5
		c0.3,1.3,0.4,2.3,0.4,3.1C372.2,256.5,370.8,258.1,368,258.8z M347.9,243c0,0.8,0.1,1.6,0.2,2.4c0.4,1.7,1.1,3.1,2.1,4.2
		c1,1.1,2.2,1.7,3.5,1.7c1.5,0,2.7-0.6,3.5-1.8c0.8-1.1,1.2-2.4,1.2-4c0-0.7-0.1-1.5-0.3-2.4c-0.4-1.7-1.1-3.2-2.1-4.3
		c-1-1.1-2.2-1.7-3.5-1.7c-1.5,0-2.7,0.6-3.5,1.7C348.3,240,347.9,241.4,347.9,243z"/>
	<path class="st1" d="M376.3,261.7c-1.7-0.1-3-0.8-4-2c-1-1.2-1.4-2.8-1.3-4.6l2.5-36.3c0.1-1.8,0.7-3.2,1.9-4.3
		c1.1-1.1,2.6-1.6,4.3-1.5c1.7,0.1,3,0.8,4,2c1,1.2,1.4,2.8,1.3,4.6l-2.5,36.3c-0.1,1.8-0.7,3.2-1.9,4.3
		C379.4,261.3,378,261.8,376.3,261.7z"/>
	<path class="st1" d="M408.5,262.6c-2.1-0.2-3.6-1.1-4.5-2.7c-2.2,1.6-4.7,2.2-7.6,2c-4.3-0.4-7.7-2.3-10.3-5.9
		c-2.4-3.2-3.7-7-3.7-11.3c0-4.8,1.3-9,4-12.6c3-4,6.8-6,11.4-6c2.9,0,5.5,0.7,7.9,2.2l0.8-8.8c0.2-1.8,0.8-3.2,2-4.3
		c1.2-1.1,2.6-1.5,4.3-1.4c1.7,0.1,3,0.8,3.9,2.1c1,1.3,1.4,2.8,1.2,4.6l-3.2,36.3c-0.2,1.8-0.8,3.2-2,4.3
		C411.5,262.2,410.1,262.7,408.5,262.6z M399.7,237c-1.5-0.1-2.8,0.5-3.9,1.8c-1.1,1.3-1.7,3-1.9,4.9c-0.2,1.9,0.2,3.6,1,5
		c0.8,1.5,2,2.4,3.5,2.5c1.6,0.2,2.9-0.4,4-1.8c1.1-1.3,1.7-3.1,1.8-5.1c0.2-2-0.1-3.6-0.9-5C402.5,237.9,401.3,237.2,399.7,237z"/>
	<path class="st1" d="M448.4,258.8c-0.5,0.1-1,0.2-1.5,0.2c-1.3,0-2.5-0.5-3.5-1.5c-1.7,2.3-3.9,3.8-6.7,4.4
		c-1.1,0.3-2.3,0.4-3.4,0.4c-3.7,0-7-1.3-9.9-3.9s-4.9-6.1-5.9-10.4c-0.4-1.6-0.5-3.2-0.5-4.7c0-4,1.1-7.5,3.2-10.5
		c2.1-3,4.9-4.9,8.5-5.8c1-0.2,2-0.4,2.9-0.4c1.9,0,3.6,0.4,5.1,1.2c0.7-1.7,2-2.8,3.9-3.3c0.6-0.1,1.2-0.2,1.8-0.2
		c2.6,0,4.4,1.9,5.3,5.8l4.7,20.5c0.3,1.3,0.4,2.3,0.4,3.1C452.6,256.5,451.2,258.1,448.4,258.8z M428.3,243c0,0.8,0.1,1.6,0.2,2.4
		c0.4,1.7,1.1,3.1,2.1,4.2c1,1.1,2.2,1.7,3.5,1.7c1.5,0,2.7-0.6,3.5-1.8c0.8-1.1,1.2-2.4,1.2-4c0-0.7-0.1-1.5-0.3-2.4
		c-0.4-1.7-1.1-3.2-2.1-4.3c-1-1.1-2.2-1.7-3.5-1.7c-1.5,0-2.7,0.6-3.5,1.7C428.7,240,428.3,241.4,428.3,243z"/>
	<path class="st1" d="M481.3,228.8c1.3-1.4,3.1-2,5.5-1.8c1.5,0.1,2.7,0.7,3.7,1.8c1.1,1.2,1.5,2.8,1.4,4.6c-0.1,1.7-1.1,3-2.9,3.9
		c-1.7,0.6-3.4,1.2-5.1,1.8c-1.8,0.8-2.8,1.9-2.9,3.4l-0.9,13c-0.2,1.8-0.8,3.2-2,4.3c-1.1,1.1-2.6,1.6-4.3,1.5c-1.7-0.1-3-0.8-4-2
		c-1-1.2-1.4-2.8-1.3-4.5l1.6-23.1c0.2-1.8,0.9-3.2,2.2-4.2c1.2-0.9,2.5-1.2,4-1.1C478.9,226.5,480.5,227.3,481.3,228.8z"/>
	<path class="st1" d="M506.3,262.1c-4.9,0.2-9.1-1.3-12.4-4.7c-3.2-3.3-5-7.4-5.3-12.2c-0.2-4.8,1.1-9,4-12.7c3-3.8,7-5.9,11.8-6.2
		c4.8-0.2,9,1.4,12.4,4.9c3.3,3.3,5,7.4,5.3,12.2c0.2,4.9-1.1,9.2-3.9,12.7C515.2,259.8,511.3,261.8,506.3,262.1z M505,237
		c-1.6,0.1-2.9,0.8-3.8,2.3c-0.9,1.4-1.3,3.2-1.2,5.2c0.1,2,0.7,3.6,1.7,4.9c1,1.3,2.3,1.9,3.9,1.9c1.6-0.1,2.9-0.8,3.8-2.2
		c0.9-1.4,1.3-3.1,1.2-5.1c-0.1-2-0.7-3.7-1.7-5C508,237.6,506.7,236.9,505,237z"/>
	<path class="st1" d="M539.4,261.7c-1.2,0.3-2.6,0.4-4.1,0.4c-2.5,0-4.8-0.4-6.7-1.2c-2.7-1.1-4-2.7-4-4.9c0-1.1,0.3-2.2,0.9-3.2
		c0.7-1.2,1.7-1.9,3-2.2c0.5-0.1,1-0.2,1.5-0.2c0.8,0,1.9,0.2,3.2,0.6c1.4,0.4,2.4,0.6,3.2,0.6c0.4,0,0.9-0.1,1.3-0.2
		c1.3-0.3,1.8-0.7,1.7-1.4c-0.1-0.3-1.5-0.7-4.1-1c-3.4-0.4-5.9-1-7.7-1.9c-3-1.4-4.8-3.5-5.4-6.5c-0.2-0.9-0.4-1.8-0.4-2.7
		c0-3.5,1.5-6.4,4.6-8.7c2.8-2,6-3.1,9.6-3.1c2.5,0,4.6,0.4,6.4,1.3c2.4,1.1,3.5,2.8,3.5,5c0,1.4-0.5,2.6-1.4,3.6
		c-0.9,1-2,1.5-3.3,1.5c-0.6,0-1.6-0.1-3-0.4c-1.4-0.3-2.4-0.4-3.1-0.4c-0.9,0-1.6,0.2-2,0.5c-0.3,0.2-0.4,0.5-0.3,0.8
		c0.1,0.4,1.5,0.7,4.2,1c3.4,0.4,5.9,1.1,7.7,1.9c3,1.4,4.8,3.6,5.4,6.5c0.2,0.8,0.3,1.7,0.3,2.5c0,2.8-1,5.3-3,7.4
		C545.4,259.4,542.8,260.9,539.4,261.7z"/>
	<path class="st1" d="M581.5,258.8c-0.5,0.1-1,0.2-1.5,0.2c-1.3,0-2.5-0.5-3.5-1.5c-1.7,2.3-3.9,3.8-6.7,4.4
		c-1.1,0.3-2.3,0.4-3.4,0.4c-3.7,0-7-1.3-9.9-3.9s-4.9-6.1-5.9-10.4c-0.4-1.6-0.5-3.2-0.5-4.7c0-4,1.1-7.5,3.2-10.5
		c2.1-3,4.9-4.9,8.5-5.8c1-0.2,2-0.4,2.9-0.4c1.9,0,3.6,0.4,5.1,1.2c0.7-1.7,2-2.8,3.9-3.3c0.6-0.1,1.2-0.2,1.8-0.2
		c2.6,0,4.4,1.9,5.3,5.8l4.7,20.5c0.3,1.3,0.4,2.3,0.4,3.1C585.8,256.5,584.4,258.1,581.5,258.8z M561.5,243c0,0.8,0.1,1.6,0.2,2.4
		c0.4,1.7,1.1,3.1,2.1,4.2c1,1.1,2.2,1.7,3.5,1.7c1.5,0,2.7-0.6,3.5-1.8c0.8-1.1,1.2-2.4,1.2-4c0-0.7-0.1-1.5-0.3-2.4
		c-0.4-1.7-1.1-3.2-2.1-4.3c-1-1.1-2.2-1.7-3.5-1.7c-1.5,0-2.7,0.6-3.5,1.7C561.9,240,561.5,241.4,561.5,243z"/>
</g>
</svg>
