<!-- Generator: Adobe Illustrator 24.0.0, SVG Export Plug-In  -->
<svg version="1.1" xmlns="http://www.w3.org/2000/svg" xmlns:xlink="http://www.w3.org/1999/xlink" x="0px" y="0px" width="464.1px"
	 height="110.6px" viewBox="0 0 464.1 110.6" style="enable-background:new 0 0 464.1 110.6;" xml:space="preserve">
<style type="text/css">
	.st0{fill:#FFFFFF;}
	.st1{fill:#FFFF00;}
</style>
<defs>
</defs>
<g>
	<path class="st0" d="M20.4,61.2c-4.5,0-8.7-0.7-12.6-2.2C2.6,57.1,0,54.4,0,50.8c0-2,0.6-3.7,1.9-5.1c1.3-1.4,3-2.2,5.1-2.2
		c1.5,0,3.6,0.5,6.3,1.5c2.8,1,4.9,1.5,6.4,1.5c3.9,0,5.9-1.5,5.9-4.6c0-1.5-2.2-2.9-6.6-4.2C13.1,36,9,34.5,6.8,33
		c-4.4-2.8-6.6-7-6.6-12.4c0-5.8,2.1-10.5,6.3-14.1c4-3.4,8.8-5.1,14.4-5.1c3.4,0,6.8,0.7,10.3,2.1c4.4,1.9,6.5,4.3,6.5,7.4
		c0,2-0.6,3.7-1.9,5.2c-1.3,1.5-3,2.3-5.1,2.3c-1.2,0-2.8-0.4-5-1.1c-2.2-0.8-3.9-1.1-5.1-1.1c-2.9,0-4.3,1-4.3,3
		c0,1.1,2.2,2.2,6.6,3.5c5.6,1.6,9.6,3.3,12.2,5.2c4.4,3.2,6.6,7.8,6.6,13.8c0,5.9-2.2,10.7-6.5,14.4C31.2,59.5,26.2,61.2,20.4,61.2
		z"/>
	<path class="st0" d="M65.4,61.7L46.2,58c-1.9-0.4-3.4-1.2-4.6-2.5c-1.2-1.3-1.8-3-1.8-4.8c0-0.5,0.1-1,0.2-1.6l8-41
		c0.9-4.7,3.4-7,7.4-7c0.6,0,1.2,0.1,1.8,0.2l18.5,3.6c2,0.4,3.5,1.3,4.5,2.5c1,1.3,1.5,2.8,1.5,4.4c0,2-0.7,3.7-2.1,5.1
		c-1.4,1.4-3,2.1-5,2.1c-0.6,0-1.1,0-1.6-0.2l-11.3-2.2l-1.4,7.1l10.3,2.1c2,0.4,3.5,1.3,4.6,2.5c1.1,1.3,1.6,2.8,1.6,4.4
		c0,2-0.7,3.7-2.1,5.1c-1.4,1.4-3.1,2.1-5.1,2.1c-0.5,0-1,0-1.6-0.2l-10.4-2.1l-1.4,7.6l11.9,2.4c1.9,0.4,3.4,1.2,4.4,2.5
		c1,1.3,1.5,2.8,1.5,4.4c0,2-0.7,3.7-2,5.1c-1.3,1.4-3,2.1-5.1,2.1C66.5,61.8,66,61.8,65.4,61.7z"/>
	<path class="st0" d="M104.9,61.1l-18.9-1.7c-2.4-0.2-4.2-1.1-5.5-2.7c-1.3-1.6-1.8-3.6-1.6-6.1l3.6-42.2c0.2-2.3,1.1-4.1,2.7-5.4
		c1.6-1.3,3.4-1.8,5.6-1.6c2.2,0.2,3.9,1,5.2,2.5c1.3,1.5,1.9,3.5,1.7,5.9l-3.2,36.1l11.5,1c2.2,0.2,3.8,1,5,2.3
		c1.2,1.3,1.7,2.9,1.7,4.7c0,2.1-0.7,3.8-2.1,5.2C109.3,60.6,107.3,61.3,104.9,61.1z"/>
	<path class="st0" d="M136.9,61.7L117.7,58c-1.9-0.4-3.4-1.2-4.6-2.5c-1.2-1.3-1.8-3-1.8-4.8c0-0.5,0.1-1,0.2-1.6l8-41
		c0.9-4.7,3.4-7,7.4-7c0.6,0,1.2,0.1,1.8,0.2l18.5,3.6c2,0.4,3.5,1.3,4.5,2.5c1,1.3,1.5,2.8,1.5,4.4c0,2-0.7,3.7-2.1,5.1
		c-1.4,1.4-3,2.1-5,2.1c-0.6,0-1.1,0-1.6-0.2l-11.3-2.2l-1.4,7.1l10.3,2.1c2,0.4,3.5,1.3,4.6,2.5c1.1,1.3,1.6,2.8,1.6,4.4
		c0,2-0.7,3.7-2.1,5.1c-1.4,1.4-3.1,2.1-5.1,2.1c-0.5,0-1,0-1.6-0.2l-10.4-2.1l-1.4,7.6l11.9,2.4c1.9,0.4,3.4,1.2,4.4,2.5
		c1,1.3,1.5,2.8,1.5,4.4c0,2-0.7,3.7-2,5.1c-1.3,1.4-3,2.1-5.1,2.1C138,61.8,137.5,61.8,136.9,61.7z"/>
	<path class="st0" d="M173.3,61.5c-7.1-1.1-12.9-4.4-17.2-9.7c-4.2-5.2-6.3-11.4-6.3-18.6c0-1.8,0.2-3.6,0.5-5.5
		c1.2-7.5,4.3-13.7,9.4-18.4c5.1-4.7,11.2-7.1,18.3-7.1c1.5,0,3.1,0.1,4.7,0.4c3.7,0.6,7.2,1.9,10.4,3.8c4.1,2.4,6.1,5.2,6.1,8.3
		c0,1.9-0.6,3.5-1.9,4.9c-1.3,1.4-2.9,2.1-4.7,2.1c-1.3,0-3.3-0.8-6-2.4c-1.9-1.1-4-1.8-6.2-2.1c-0.7-0.1-1.3-0.2-2.1-0.2
		c-3.3,0-6.1,1.2-8.3,3.6c-2.2,2.4-3.6,5.7-4.3,9.7c-0.2,1.2-0.3,2.3-0.3,3.4c0,3.5,0.9,6.4,2.6,8.7c1.8,2.5,4.4,4,7.6,4.5
		c0.8,0.1,1.5,0.2,2.2,0.2c1.4,0,3-0.3,5-0.8c1.9-0.5,3.3-0.8,4.1-0.8c2.1,0,3.9,0.8,5.3,2.5c1.4,1.7,1.9,3.6,1.6,5.6
		c-0.5,2.9-2.4,5-5.7,6.5c-2.7,1.1-6,1.7-9.8,1.7C176.5,61.9,174.8,61.8,173.3,61.5z"/>
	<path class="st0" d="M216.9,61.5c-7.1-1.1-12.9-4.4-17.2-9.7c-4.2-5.2-6.3-11.4-6.3-18.6c0-1.8,0.2-3.6,0.5-5.5
		c1.2-7.5,4.3-13.7,9.4-18.4c5.1-4.7,11.2-7.1,18.3-7.1c1.5,0,3.1,0.1,4.7,0.4c3.7,0.6,7.2,1.9,10.4,3.8c4.1,2.4,6.1,5.2,6.1,8.3
		c0,1.9-0.6,3.5-1.9,4.9c-1.3,1.4-2.9,2.1-4.7,2.1c-1.3,0-3.3-0.8-6-2.4c-1.9-1.1-4-1.8-6.2-2.1c-0.7-0.1-1.3-0.2-2.1-0.2
		c-3.3,0-6.1,1.2-8.3,3.6c-2.2,2.4-3.6,5.7-4.3,9.7c-0.2,1.2-0.3,2.3-0.3,3.4c0,3.5,0.9,6.4,2.6,8.7c1.8,2.5,4.4,4,7.6,4.5
		c0.8,0.1,1.5,0.2,2.2,0.2c1.4,0,3-0.3,5-0.8c1.9-0.5,3.3-0.8,4.1-0.8c2.1,0,3.9,0.8,5.3,2.5c1.4,1.7,1.9,3.6,1.6,5.6
		c-0.5,2.9-2.4,5-5.7,6.5c-2.7,1.1-6,1.7-9.8,1.7C220.1,61.9,218.4,61.8,216.9,61.5z"/>
	<path class="st0" d="M260.5,61.5c-7.1-1.1-12.9-4.4-17.2-9.7c-4.2-5.2-6.3-11.4-6.3-18.6c0-1.8,0.2-3.6,0.5-5.5
		c1.2-7.5,4.3-13.7,9.4-18.4c5.1-4.7,11.2-7.1,18.3-7.1c1.5,0,3.1,0.1,4.7,0.4c3.7,0.6,7.2,1.9,10.4,3.8c4.1,2.4,6.1,5.2,6.1,8.3
		c0,1.9-0.6,3.5-1.9,4.9c-1.3,1.4-2.9,2.1-4.7,2.1c-1.3,0-3.3-0.8-6-2.4c-1.9-1.1-4-1.8-6.2-2.1c-0.7-0.1-1.3-0.2-2.1-0.2
		c-3.3,0-6.1,1.2-8.3,3.6c-2.2,2.4-3.6,5.7-4.3,9.7c-0.2,1.2-0.3,2.3-0.3,3.4c0,3.5,0.9,6.4,2.6,8.7c1.8,2.5,4.4,4,7.6,4.5
		c0.8,0.1,1.5,0.2,2.2,0.2c1.4,0,3-0.3,5-0.8c1.9-0.5,3.3-0.8,4.1-0.8c2.1,0,3.9,0.8,5.3,2.5c1.4,1.7,1.9,3.6,1.6,5.6
		c-0.5,2.9-2.4,5-5.7,6.5c-2.7,1.1-6,1.7-9.8,1.7C263.7,61.9,262.1,61.8,260.5,61.5z"/>
	<path class="st0" d="M281.3,53c0-0.5,0.1-1,0.2-1.5l6.8-42.6c0.3-2.1,1.1-3.7,2.5-4.9c1.3-1.2,3-1.8,4.8-1.8c2.2,0,4.1,0.7,5.6,2.1
		c1.5,1.4,2.2,3.2,2.2,5.4c0,0.5-0.1,1-0.2,1.5l-6.8,42.6c-0.3,2.1-1.1,3.7-2.5,4.9c-1.3,1.2-3,1.8-4.8,1.8c-2.2,0-4.1-0.7-5.6-2.1
		S281.3,55.3,281.3,53z"/>
	<path class="st0" d="M324.7,60.9c-7.2-1.1-12.9-4.4-17.2-9.7c-4.2-5.2-6.2-11.4-6.2-18.7c0-1.8,0.2-3.6,0.5-5.5
		c1.2-7.5,4.3-13.6,9.4-18.3c5.1-4.7,11.2-7.1,18.2-7.1c1.6,0,3.1,0.1,4.7,0.4c7.1,1.1,12.8,4.4,17.1,9.8s6.4,11.7,6.4,18.8
		c0,1.8-0.2,3.5-0.5,5.3c-1.2,7.4-4.3,13.6-9.3,18.3c-5.1,4.8-11.1,7.1-18.2,7.1C327.9,61.2,326.3,61.1,324.7,60.9z M331.8,16
		c-0.7-0.2-1.3-0.2-2-0.2c-3.3,0-6.1,1.3-8.4,3.8c-2.2,2.5-3.7,5.8-4.3,9.9c-0.2,1.3-0.3,2.5-0.3,3.8c0,3.6,0.9,6.6,2.6,9
		c1.7,2.4,4.2,3.9,7.5,4.4c0.7,0.2,1.4,0.2,2.1,0.2c3.3,0,6.2-1.3,8.4-3.9c2.1-2.4,3.5-5.7,4.2-9.8c0.2-1.2,0.3-2.4,0.3-3.6
		c0-3.6-0.8-6.6-2.5-9C337.6,18,335,16.5,331.8,16z"/>
	<path class="st0" d="M394.5,32.8c-1-4.1-2.3-12.1-3.8-24.1c-0.1-0.5-0.1-0.9-0.1-1.4c0-2,0.6-3.6,1.9-4.9c1.2-1.3,2.8-2.1,4.8-2.4
		c2.2-0.3,4.1,0.2,5.7,1.4c1.6,1.2,2.5,3,2.8,5.4l5.2,42.9c0,0.4,0.1,0.8,0.1,1.2c0,2-0.6,3.7-1.8,5.1c-1.2,1.3-2.8,2.1-4.9,2.4
		c-1,0.2-2.2,0-3.5-0.5c-1.3-0.5-2.3-1.1-3.2-1.9l-25-25.8c1,4.1,2.3,12,3.8,23.8c0,0.5,0.1,0.9,0.1,1.4c0,2-0.6,3.6-1.9,4.9
		c-1.2,1.3-2.8,2.1-4.8,2.4c-2.2,0.3-4.1-0.2-5.7-1.4s-2.5-3-2.8-5.4L356.3,13c0-0.4-0.1-0.8-0.1-1.2c0-2,0.6-3.7,1.8-5.1
		c1.2-1.3,2.8-2.1,4.9-2.4c1-0.2,2.2,0,3.5,0.5c1.3,0.5,2.4,1.1,3.1,1.9L394.5,32.8z"/>
	<path class="st0" d="M451.3,62.3c-3-0.3-5.1-1.6-6.2-4.2c-0.3-0.7-1-3.2-2-7.7l-18.3-1.6c-1.7,4.2-2.8,6.5-3.3,7.1
		c-1.6,2.3-3.8,3.4-6.8,3.1c-2-0.2-3.7-1.1-5.1-2.5c-1.4-1.5-1.9-3.3-1.7-5.4c0.1-0.9,0.4-1.9,0.9-3l18.8-39.9c1-2.1,2.4-3.7,4.3-5
		c1.8-1.3,3.9-1.8,6.3-1.6c4.8,0.4,7.8,3.2,9.2,8.4l11.2,42.5c0.4,1.4,0.5,2.5,0.5,3.5c-0.2,2-1.1,3.6-2.6,4.8
		C455,61.9,453.2,62.4,451.3,62.3z M436.3,20.6c-1.1,3.2-3,8-5.7,14.4l9.2,0.8L436.3,20.6z"/>
</g>
<g>
	<path class="st1" d="M12.5,106.5l-8.8-0.8c-1.1-0.1-1.9-0.5-2.5-1.3c-0.6-0.8-0.8-1.7-0.7-2.8l1.7-19.6c0.1-1.1,0.5-1.9,1.2-2.5
		C4.1,79,5,78.7,6,78.8c1,0.1,1.8,0.5,2.4,1.2c0.6,0.7,0.9,1.6,0.8,2.7L7.7,99.4l5.3,0.5c1,0.1,1.8,0.5,2.3,1.1
		c0.5,0.6,0.8,1.3,0.8,2.2c0,1-0.3,1.8-1,2.4C14.5,106.3,13.6,106.6,12.5,106.5z"/>
	<path class="st1" d="M24.3,106.4c-3.3-0.5-6-2-8-4.5c-1.9-2.4-2.9-5.3-2.9-8.7c0-0.8,0.1-1.7,0.2-2.5c0.5-3.5,2-6.3,4.3-8.5
		c2.4-2.2,5.2-3.3,8.4-3.3c0.7,0,1.5,0.1,2.2,0.2c3.3,0.5,5.9,2,7.9,4.5c2,2.5,3,5.4,3,8.7c0,0.8-0.1,1.6-0.2,2.5
		c-0.5,3.4-2,6.3-4.3,8.5c-2.3,2.2-5.2,3.3-8.4,3.3C25.8,106.6,25.1,106.5,24.3,106.4z M27.6,85.6c-0.3-0.1-0.6-0.1-0.9-0.1
		c-1.5,0-2.8,0.6-3.9,1.8c-1,1.2-1.7,2.7-2,4.6c-0.1,0.6-0.1,1.2-0.1,1.8c0,1.7,0.4,3.1,1.2,4.2c0.8,1.1,2,1.8,3.5,2
		c0.3,0.1,0.6,0.1,1,0.1c1.5,0,2.9-0.6,3.9-1.8c1-1.1,1.6-2.6,1.9-4.5c0.1-0.6,0.1-1.1,0.1-1.7c0-1.7-0.4-3.1-1.2-4.2
		C30.3,86.6,29.1,85.9,27.6,85.6z"/>
	<path class="st1" d="M47.9,106.6c-2.1,0-4-0.3-5.8-1c-2.4-0.9-3.6-2.2-3.6-3.8c0-0.9,0.3-1.7,0.9-2.4c0.6-0.7,1.4-1,2.3-1
		c0.7,0,1.7,0.2,2.9,0.7c1.3,0.5,2.3,0.7,3,0.7c1.8,0,2.7-0.7,2.7-2.1c0-0.7-1-1.3-3.1-1.9c-2.7-0.8-4.6-1.5-5.6-2.1
		c-2-1.3-3.1-3.2-3.1-5.7c0-2.7,1-4.8,2.9-6.5c1.8-1.6,4.1-2.4,6.7-2.4c1.6,0,3.2,0.3,4.8,1c2,0.9,3,2,3,3.4c0,0.9-0.3,1.7-0.9,2.4
		c-0.6,0.7-1.4,1.1-2.4,1.1c-0.5,0-1.3-0.2-2.3-0.5c-1-0.4-1.8-0.5-2.4-0.5c-1.3,0-2,0.5-2,1.4c0,0.5,1,1,3.1,1.6
		c2.6,0.7,4.5,1.5,5.6,2.4c2,1.5,3.1,3.6,3.1,6.4c0,2.7-1,4.9-3,6.7C53,105.8,50.7,106.6,47.9,106.6z"/>
	<path class="st1" d="M78.7,106.4c-3.3-0.5-6-2-8-4.5c-1.9-2.4-2.9-5.3-2.9-8.7c0-0.8,0.1-1.7,0.2-2.5c0.5-3.5,2-6.3,4.3-8.5
		c2.4-2.2,5.2-3.3,8.4-3.3c0.7,0,1.5,0.1,2.2,0.2c3.3,0.5,5.9,2,7.9,4.5c2,2.5,3,5.4,3,8.7c0,0.8-0.1,1.6-0.2,2.5
		c-0.5,3.4-2,6.3-4.3,8.5c-2.3,2.2-5.2,3.3-8.4,3.3C80.2,106.6,79.4,106.5,78.7,106.4z M82,85.6c-0.3-0.1-0.6-0.1-0.9-0.1
		c-1.5,0-2.8,0.6-3.9,1.8c-1,1.2-1.7,2.7-2,4.6C75.1,92.5,75,93,75,93.6c0,1.7,0.4,3.1,1.2,4.2c0.8,1.1,2,1.8,3.5,2
		c0.3,0.1,0.6,0.1,1,0.1c1.5,0,2.9-0.6,3.9-1.8c1-1.1,1.6-2.6,1.9-4.5c0.1-0.6,0.1-1.1,0.1-1.7c0-1.7-0.4-3.1-1.2-4.2
		C84.6,86.6,83.5,85.9,82,85.6z"/>
	<path class="st1" d="M109.2,90.9c1.2,0,2.3,0.5,3.4,1.6s1.7,2.3,1.8,3.9c0,0.5,0.1,0.9,0.1,1.4c0,2.3-0.7,4.2-2.2,5.6
		c-1.5,1.4-3.4,2.3-5.8,2.6l-7.2,0.9c-1.1,0.1-2-0.1-2.7-0.7c-0.8-0.6-1.2-1.4-1.4-2.4l-2.4-19.6c-0.1-1.1,0.1-2,0.7-2.7
		c0.6-0.7,1.4-1.1,2.5-1.2l6.7-0.8c0.4,0,0.7,0,1.1,0c1.9,0,3.5,0.6,4.8,1.7c1.4,1.1,2.2,2.6,2.4,4.5c0,0.4,0.1,0.7,0.1,1.1
		C111,88.3,110.4,89.8,109.2,90.9z M102,85.9l-1.9,0.2l0.5,3.5l1.8-0.2c1.3-0.2,1.9-0.9,1.7-2.1C104,86.2,103.3,85.8,102,85.9z
		 M104.1,95.7l-2.8,0.4l0.5,4l3.2-0.4c1.6-0.2,2.3-1,2.1-2.5c-0.1-1.1-0.9-1.6-2.3-1.6C104.7,95.6,104.4,95.6,104.1,95.7z"/>
	<path class="st1" d="M120.9,106.4c-0.6,0.1-1.2,0.2-1.9,0.2c-1.5,0-2.9-0.3-4.1-0.9c-1.5-0.8-2.2-1.8-2.2-3.2
		c0-0.9,0.3-1.6,0.8-2.2c0.5-0.6,1.2-0.9,2.1-0.9c0.4,0,1.1,0.1,2,0.4c0.8,0.2,1.4,0.3,1.8,0.2c0.6-0.1,0.9-0.5,0.9-1.1
		c0-0.1-0.1-0.5-0.2-1.2l-2.6-14.9c0-0.3-0.1-0.6-0.1-0.8c0-1,0.3-1.8,1-2.5c0.7-0.6,1.6-1,2.6-1c0.8,0,1.6,0.3,2.2,0.8
		c0.6,0.5,1,1.3,1.2,2.2l2.7,15.2c0.1,0.8,0.2,1.5,0.2,2.1c0,2.2-0.7,4-2.1,5.3C124.2,105.4,122.7,106.1,120.9,106.4z"/>
	<path class="st1" d="M138.1,106.8l-8.9-1.7c-0.9-0.2-1.6-0.6-2.1-1.2c-0.6-0.6-0.8-1.4-0.8-2.2c0-0.2,0-0.5,0.1-0.7l3.7-19
		c0.4-2.2,1.6-3.2,3.4-3.2c0.3,0,0.6,0,0.8,0.1l8.6,1.7c0.9,0.2,1.6,0.6,2.1,1.2c0.5,0.6,0.7,1.3,0.7,2.1c0,0.9-0.3,1.7-1,2.4
		c-0.6,0.7-1.4,1-2.3,1c-0.3,0-0.5,0-0.7-0.1l-5.2-1l-0.6,3.3l4.8,1c0.9,0.2,1.6,0.6,2.1,1.2c0.5,0.6,0.7,1.3,0.7,2.1
		c0,0.9-0.3,1.7-1,2.4c-0.6,0.6-1.4,1-2.4,1c-0.2,0-0.5,0-0.7-0.1l-4.8-1l-0.7,3.5l5.5,1.1c0.9,0.2,1.6,0.5,2,1.1
		c0.5,0.6,0.7,1.3,0.7,2.1c0,0.9-0.3,1.7-0.9,2.4c-0.6,0.7-1.4,1-2.3,1C138.6,106.9,138.4,106.8,138.1,106.8z"/>
	<path class="st1" d="M161.1,85.2l-3,0.4l2.1,16.7c0,0.2,0,0.4,0,0.6c0,0.9-0.3,1.7-0.9,2.3c-0.6,0.6-1.3,1-2.2,1.1
		c-1,0.1-1.9-0.1-2.6-0.7c-0.7-0.6-1.2-1.4-1.3-2.5l-2-16.6l-3,0.4c-1.1,0.1-1.9-0.1-2.6-0.8c-0.6-0.5-0.9-1.2-1-2.1
		c-0.1-0.9,0.1-1.7,0.6-2.4c0.5-0.7,1.3-1.2,2.3-1.3l12.8-1.6c1-0.1,1.8,0.1,2.5,0.7c0.6,0.6,1,1.3,1.1,2.1c0.1,0.9-0.1,1.6-0.5,2.3
		C162.9,84.6,162.1,85.1,161.1,85.2z"/>
	<path class="st1" d="M172.4,106.4c-3.3-0.5-6-2-8-4.5c-1.9-2.4-2.9-5.3-2.9-8.7c0-0.8,0.1-1.7,0.2-2.5c0.5-3.5,2-6.3,4.3-8.5
		c2.4-2.2,5.2-3.3,8.4-3.3c0.7,0,1.5,0.1,2.2,0.2c3.3,0.5,5.9,2,7.9,4.5c2,2.5,3,5.4,3,8.7c0,0.8-0.1,1.6-0.2,2.5
		c-0.5,3.4-2,6.3-4.3,8.5c-2.3,2.2-5.2,3.3-8.4,3.3C173.9,106.6,173.2,106.5,172.4,106.4z M175.7,85.6c-0.3-0.1-0.6-0.1-0.9-0.1
		c-1.5,0-2.8,0.6-3.9,1.8c-1,1.2-1.7,2.7-2,4.6c-0.1,0.6-0.1,1.2-0.1,1.8c0,1.7,0.4,3.1,1.2,4.2c0.8,1.1,2,1.8,3.5,2
		c0.3,0.1,0.6,0.1,1,0.1c1.5,0,2.9-0.6,3.9-1.8c1-1.1,1.6-2.6,1.9-4.5c0.1-0.6,0.1-1.1,0.1-1.7c0-1.7-0.4-3.1-1.2-4.2
		C178.4,86.6,177.2,85.9,175.7,85.6z"/>
	<path class="st1" d="M196.1,106.6c-2.1,0-4-0.3-5.8-1c-2.4-0.9-3.6-2.2-3.6-3.8c0-0.9,0.3-1.7,0.9-2.4c0.6-0.7,1.4-1,2.3-1
		c0.7,0,1.7,0.2,2.9,0.7c1.3,0.5,2.3,0.7,3,0.7c1.8,0,2.7-0.7,2.7-2.1c0-0.7-1-1.3-3.1-1.9c-2.7-0.8-4.6-1.5-5.6-2.1
		c-2-1.3-3.1-3.2-3.1-5.7c0-2.7,1-4.8,2.9-6.5c1.8-1.6,4.1-2.4,6.7-2.4c1.6,0,3.2,0.3,4.8,1c2,0.9,3,2,3,3.4c0,0.9-0.3,1.7-0.9,2.4
		c-0.6,0.7-1.4,1.1-2.4,1.1c-0.5,0-1.3-0.2-2.3-0.5c-1-0.4-1.8-0.5-2.4-0.5c-1.3,0-2,0.5-2,1.4c0,0.5,1,1,3.1,1.6
		c2.6,0.7,4.5,1.5,5.6,2.4c2,1.5,3.1,3.6,3.1,6.4c0,2.7-1,4.9-3,6.7C201.1,105.8,198.8,106.6,196.1,106.6z"/>
	<path class="st1" d="M232.1,94c-0.4-2.2-1-6.2-1.8-12c0-0.2,0-0.3,0-0.5c0-0.8,0.2-1.6,0.7-2.4s1.2-1.3,2-1.7
		c0.6-0.3,1.2-0.4,1.8-0.4c1.6,0,2.8,0.6,3.6,1.8c2,2.8,4,5.6,6,8.4c2.4,3.4,4.2,6.3,5.3,8.8c0.2,0.5,0.4,1,0.4,1.5
		c0,1.4-0.7,2.4-2.1,3c-0.6,0.3-1.2,0.4-1.7,0.4c-1.1,0-2.1-0.6-2.9-1.9l-5.9-9.4c0.5,2.6,1.1,6.5,1.9,11.7c0,0.2,0,0.4,0,0.6
		c0,1.5-0.8,2.6-2.3,3.3c-0.6,0.3-1.2,0.4-1.7,0.4c-1.1,0-2-0.4-2.7-1.3l-7.7-9.2c0.8,2.3,1.9,5.9,3.2,10.6c0.1,0.5,0.2,1,0.2,1.4
		c0,1.3-0.7,2.3-2.2,3c-0.5,0.2-1,0.3-1.5,0.3c-1.4,0-2.4-0.7-3-2c-1.1-2.5-2.1-5.8-3-9.9c-0.8-3.4-1.5-6.8-2.3-10.1
		c-0.1-0.3-0.1-0.5-0.1-0.8c0-0.8,0.2-1.6,0.7-2.3c0.5-0.8,1.1-1.3,2-1.7c0.6-0.3,1.2-0.4,1.8-0.4c1.4,0,2.6,0.5,3.4,1.5L232.1,94z"
		/>
	<path class="st1" d="M259.9,106.8l-8.9-1.7c-0.9-0.2-1.6-0.6-2.1-1.2c-0.6-0.6-0.8-1.4-0.8-2.2c0-0.2,0-0.5,0.1-0.7l3.7-19
		c0.4-2.2,1.6-3.2,3.4-3.2c0.3,0,0.6,0,0.8,0.1l8.6,1.7c0.9,0.2,1.6,0.6,2.1,1.2c0.5,0.6,0.7,1.3,0.7,2.1c0,0.9-0.3,1.7-1,2.4
		c-0.6,0.7-1.4,1-2.3,1c-0.3,0-0.5,0-0.7-0.1l-5.2-1l-0.6,3.3l4.8,1c0.9,0.2,1.6,0.6,2.1,1.2c0.5,0.6,0.7,1.3,0.7,2.1
		c0,0.9-0.3,1.7-1,2.4c-0.6,0.6-1.4,1-2.4,1c-0.2,0-0.5,0-0.7-0.1l-4.8-1l-0.7,3.5l5.5,1.1c0.9,0.2,1.6,0.5,2,1.1
		c0.5,0.6,0.7,1.3,0.7,2.1c0,0.9-0.3,1.7-0.9,2.4c-0.6,0.7-1.4,1-2.3,1C260.4,106.9,260.1,106.8,259.9,106.8z"/>
	<path class="st1" d="M282,94c-0.4-2.2-1-6.2-1.8-12c0-0.2,0-0.3,0-0.5c0-0.8,0.2-1.6,0.7-2.4s1.2-1.3,2-1.7
		c0.6-0.3,1.2-0.4,1.8-0.4c1.6,0,2.8,0.6,3.6,1.8c2,2.8,4,5.6,6,8.4c2.4,3.4,4.2,6.3,5.3,8.8c0.2,0.5,0.4,1,0.4,1.5
		c0,1.4-0.7,2.4-2.1,3c-0.6,0.3-1.2,0.4-1.7,0.4c-1.1,0-2.1-0.6-2.9-1.9l-5.9-9.4c0.5,2.6,1.1,6.5,1.9,11.7c0,0.2,0,0.4,0,0.6
		c0,1.5-0.8,2.6-2.3,3.3c-0.6,0.3-1.2,0.4-1.7,0.4c-1.1,0-2-0.4-2.7-1.3l-7.7-9.2c0.8,2.3,1.9,5.9,3.2,10.6c0.1,0.5,0.2,1,0.2,1.4
		c0,1.3-0.7,2.3-2.2,3c-0.5,0.2-1,0.3-1.5,0.3c-1.4,0-2.4-0.7-3-2c-1.1-2.5-2.1-5.8-3-9.9c-0.8-3.4-1.5-6.8-2.3-10.1
		c-0.1-0.3-0.1-0.5-0.1-0.8c0-0.8,0.2-1.6,0.7-2.3c0.5-0.8,1.1-1.3,2-1.7c0.6-0.3,1.2-0.4,1.8-0.4c1.4,0,2.6,0.5,3.4,1.5L282,94z"/>
	<path class="st1" d="M309.7,106.4c-3.3-0.5-6-2-8-4.5c-1.9-2.4-2.9-5.3-2.9-8.7c0-0.8,0.1-1.7,0.2-2.5c0.5-3.5,2-6.3,4.3-8.5
		c2.4-2.2,5.2-3.3,8.4-3.3c0.7,0,1.5,0.1,2.2,0.2c3.3,0.5,5.9,2,7.9,4.5c2,2.5,3,5.4,3,8.7c0,0.8-0.1,1.6-0.2,2.5
		c-0.5,3.4-2,6.3-4.3,8.5c-2.3,2.2-5.2,3.3-8.4,3.3C311.1,106.6,310.4,106.5,309.7,106.4z M313,85.6c-0.3-0.1-0.6-0.1-0.9-0.1
		c-1.5,0-2.8,0.6-3.9,1.8c-1,1.2-1.7,2.7-2,4.6c-0.1,0.6-0.1,1.2-0.1,1.8c0,1.7,0.4,3.1,1.2,4.2c0.8,1.1,2,1.8,3.5,2
		c0.3,0.1,0.6,0.1,1,0.1c1.5,0,2.9-0.6,3.9-1.8c1-1.1,1.6-2.6,1.9-4.5c0.1-0.6,0.1-1.1,0.1-1.7c0-1.7-0.4-3.1-1.2-4.2
		C315.6,86.6,314.5,85.9,313,85.6z"/>
	<path class="st1" d="M331.1,96.9c0.1,1.2,0,3.1-0.2,5.6c0,1.1-0.4,2-1.2,2.6c-0.7,0.6-1.6,0.8-2.7,0.8c-1-0.1-1.8-0.5-2.4-1.2
		c-0.6-0.7-0.9-1.6-0.7-2.7l1.7-19.7c0.1-1.1,0.5-2,1.2-2.6c0.7-0.6,1.6-0.8,2.7-0.8l6.2,0.5c2.8,0.3,5,1.1,6.5,2.4
		c1.6,1.5,2.4,3.5,2.4,6.1c0,0.4,0,0.8,0,1.2c-0.2,1.8-0.9,3.3-2.1,4.5c-1.1,1.1-2.5,1.8-4.3,2.1l4.5,5.7c0.6,0.7,0.8,1.5,0.7,2.2
		c-0.1,0.9-0.5,1.7-1.2,2.4c-0.7,0.7-1.6,1-2.6,0.9c-1.1-0.1-2-0.6-2.6-1.5L331.1,96.9z M335.1,86l-2.7-0.2l-0.4,4.4l2.7,0.2
		c1.6,0.1,2.5-0.5,2.6-2C337.4,86.9,336.7,86.1,335.1,86z"/>
	<path class="st1" d="M343.8,102.8c0-0.2,0-0.5,0.1-0.7l3.1-19.7c0.1-1,0.5-1.7,1.1-2.3c0.6-0.6,1.4-0.8,2.2-0.8c1,0,1.9,0.3,2.6,1
		c0.7,0.6,1,1.5,1,2.5c0,0.2,0,0.5-0.1,0.7l-3.1,19.7c-0.1,1-0.5,1.7-1.1,2.3s-1.4,0.8-2.2,0.8c-1,0-1.9-0.3-2.6-1
		C344.1,104.6,343.8,103.8,343.8,102.8z"/>
	<path class="st1" d="M373.2,105.2l-13.7,1.7c-0.2,0-0.4,0.1-0.6,0.1c-1,0-1.8-0.3-2.4-0.8c-0.6-0.5-1-1.3-1.1-2.2
		c-0.1-0.9,0.1-1.7,0.5-2.6l8.5-15.6l-7.5,0.9c-0.9,0.1-1.7,0-2.4-0.5c-0.8-0.5-1.2-1.2-1.3-2.2c-0.1-0.9,0.1-1.7,0.7-2.4
		c0.6-0.7,1.3-1.1,2.2-1.2l12.8-1.6c0.2,0,0.4,0,0.6,0c1,0,1.9,0.3,2.5,0.9c0.6,0.6,1,1.3,1.1,2.1c0.1,1-0.1,1.9-0.6,2.8L364,99.9
		l8.4-1c1-0.1,1.8,0,2.5,0.5c0.8,0.5,1.2,1.3,1.3,2.3c0.1,0.9-0.1,1.7-0.8,2.4S374.1,105.1,373.2,105.2z"/>
	<path class="st1" d="M394.8,107.1c-1.4-0.1-2.3-0.8-2.9-1.9c-0.1-0.3-0.4-1.5-0.9-3.6l-8.5-0.7c-0.8,1.9-1.3,3-1.5,3.3
		c-0.7,1.1-1.8,1.6-3.1,1.4c-0.9-0.1-1.7-0.5-2.4-1.2c-0.6-0.7-0.9-1.5-0.8-2.5c0-0.4,0.2-0.9,0.4-1.4l8.7-18.5c0.5-1,1.1-1.7,2-2.3
		c0.9-0.6,1.8-0.8,2.9-0.7c2.2,0.2,3.6,1.5,4.3,3.9l5.2,19.7c0.2,0.6,0.2,1.2,0.2,1.6c-0.1,0.9-0.5,1.7-1.2,2.2
		C396.5,106.9,395.7,107.1,394.8,107.1z M387.8,87.8c-0.5,1.5-1.4,3.7-2.6,6.7l4.3,0.4L387.8,87.8z"/>
	<path class="st1" d="M409,106.2l-6.1,1.1c-0.2,0-0.4,0.1-0.7,0.1c-2,0-3.2-1-3.5-2.9L395.3,85c0-0.2,0-0.5,0-0.7
		c0-0.9,0.3-1.6,0.8-2.3s1.3-1,2.1-1.2l5.8-1c1-0.2,2-0.2,3-0.2c3.3,0,6.1,1,8.3,3.1c2.2,2,3.6,4.9,4.2,8.4c0.2,1,0.2,1.9,0.2,2.9
		c0,3.2-1,5.9-2.9,8.1S412.3,105.6,409,106.2z M405,86.4l-2.3,0.4l2.4,13.4l2.6-0.5c3.1-0.5,4.7-2.5,4.7-5.7c0-0.6-0.1-1.2-0.2-1.8
		c-0.7-3.9-2.6-5.9-5.8-5.9C406,86.3,405.5,86.3,405,86.4z"/>
	<path class="st1" d="M430.6,106.4c-3.3-0.5-6-2-8-4.5c-1.9-2.4-2.9-5.3-2.9-8.7c0-0.8,0.1-1.7,0.2-2.5c0.5-3.5,2-6.3,4.3-8.5
		c2.4-2.2,5.2-3.3,8.4-3.3c0.7,0,1.5,0.1,2.2,0.2c3.3,0.5,5.9,2,7.9,4.5c2,2.5,3,5.4,3,8.7c0,0.8-0.1,1.6-0.2,2.5
		c-0.5,3.4-2,6.3-4.3,8.5c-2.3,2.2-5.2,3.3-8.4,3.3C432.1,106.6,431.3,106.5,430.6,106.4z M433.9,85.6c-0.3-0.1-0.6-0.1-0.9-0.1
		c-1.5,0-2.8,0.6-3.9,1.8c-1,1.2-1.7,2.7-2,4.6c-0.1,0.6-0.1,1.2-0.1,1.8c0,1.7,0.4,3.1,1.2,4.2s2,1.8,3.5,2c0.3,0.1,0.6,0.1,1,0.1
		c1.5,0,2.9-0.6,3.9-1.8c1-1.1,1.6-2.6,1.9-4.5c0.1-0.6,0.1-1.1,0.1-1.7c0-1.7-0.4-3.1-1.2-4.2C436.6,86.6,435.4,85.9,433.9,85.6z"
		/>
	<path class="st1" d="M454.2,106.6c-2.1,0-4-0.3-5.8-1c-2.4-0.9-3.6-2.2-3.6-3.8c0-0.9,0.3-1.7,0.9-2.4c0.6-0.7,1.4-1,2.3-1
		c0.7,0,1.7,0.2,2.9,0.7c1.3,0.5,2.3,0.7,3,0.7c1.8,0,2.7-0.7,2.7-2.1c0-0.7-1-1.3-3.1-1.9c-2.7-0.8-4.6-1.5-5.6-2.1
		c-2-1.3-3.1-3.2-3.1-5.7c0-2.7,1-4.8,2.9-6.5c1.8-1.6,4.1-2.4,6.7-2.4c1.6,0,3.2,0.3,4.8,1c2,0.9,3,2,3,3.4c0,0.9-0.3,1.7-0.9,2.4
		c-0.6,0.7-1.4,1.1-2.4,1.1c-0.5,0-1.3-0.2-2.3-0.5c-1-0.4-1.8-0.5-2.4-0.5c-1.3,0-2,0.5-2,1.4c0,0.5,1,1,3.1,1.6
		c2.6,0.7,4.5,1.5,5.6,2.4c2,1.5,3.1,3.6,3.1,6.4c0,2.7-1,4.9-3,6.7C459.2,105.8,456.9,106.6,454.2,106.6z"/>
</g>
</svg>
