<!-- Generator: Adobe Illustrator 24.0.0, SVG Export Plug-In  -->
<svg version="1.1" xmlns="http://www.w3.org/2000/svg" xmlns:xlink="http://www.w3.org/1999/xlink" x="0px" y="0px" width="766px"
	 height="80px" viewBox="0 0 766 80" style="enable-background:new 0 0 766 80;" xml:space="preserve">
<style type="text/css">
	.st0{fill:#FFFF00;}
</style>
<defs>
</defs>
<g>
	<path class="st0" d="M6.7,64c-2.1-0.1-3.8-1-5-2.6c-1.2-1.6-1.8-3.5-1.6-5.8L3.2,9.9c0.1-2.2,0.9-4,2.4-5.4c1.4-1.4,3.2-2,5.4-1.9
		c2.1,0.1,3.8,1,5,2.6c1.2,1.6,1.8,3.5,1.6,5.8l-3.2,45.7c-0.1,2.2-0.9,4-2.4,5.4C10.6,63.5,8.8,64.1,6.7,64z"/>
	<path class="st0" d="M55.1,60.3c-0.6,0.1-1.3,0.2-1.9,0.2c-1.7,0-3.2-0.6-4.4-1.9c-2.1,2.9-5,4.8-8.5,5.6c-1.4,0.3-2.9,0.5-4.3,0.5
		c-4.7,0-8.8-1.7-12.5-5c-3.6-3.3-6.1-7.7-7.4-13.1c-0.4-2-0.7-4-0.7-6c0-5,1.3-9.4,4-13.2c2.7-3.8,6.2-6.2,10.7-7.3
		c1.2-0.3,2.5-0.4,3.6-0.4c2.3,0,4.5,0.5,6.5,1.6c0.9-2.2,2.5-3.6,4.9-4.2c0.8-0.1,1.5-0.2,2.2-0.2c3.3,0,5.5,2.4,6.6,7.3l6,25.8
		c0.3,1.6,0.5,2.9,0.5,3.9C60.4,57.5,58.6,59.5,55.1,60.3z M29.8,40.4c0,1,0.1,2,0.3,3.1c0.5,2.1,1.4,3.9,2.7,5.3
		c1.3,1.4,2.8,2.1,4.5,2.1c1.9,0,3.4-0.8,4.5-2.3c1-1.3,1.5-3,1.5-5.1c0-0.9-0.1-1.9-0.4-3c-0.5-2.2-1.4-4-2.7-5.4
		c-1.3-1.4-2.8-2.1-4.4-2.1c-1.9,0-3.4,0.7-4.4,2.2C30.3,36.7,29.8,38.4,29.8,40.4z"/>
	<path class="st0" d="M80.2,64c-1.5,0.3-3.3,0.5-5.2,0.5c-3.2,0-6-0.5-8.5-1.6c-3.4-1.3-5.1-3.4-5.1-6.2c0-1.4,0.4-2.8,1.1-4
		c0.9-1.5,2.2-2.4,3.8-2.8c0.6-0.1,1.3-0.2,1.9-0.2c1,0,2.3,0.2,4.1,0.7c1.7,0.5,3,0.7,4,0.7c0.5,0,1.1-0.1,1.6-0.2
		c1.6-0.3,2.3-0.9,2.1-1.7c-0.1-0.4-1.8-0.8-5.2-1.3c-4.2-0.5-7.5-1.3-9.8-2.4c-3.7-1.7-6-4.5-6.9-8.2c-0.3-1.1-0.4-2.3-0.4-3.4
		c0-4.5,1.9-8.1,5.7-10.9c3.5-2.6,7.5-3.9,12.1-3.9c3.1,0,5.8,0.5,8,1.6c3,1.4,4.5,3.5,4.5,6.3c0,1.7-0.6,3.3-1.7,4.5
		c-1.1,1.3-2.5,1.9-4.2,1.9c-0.7,0-2-0.2-3.7-0.5c-1.7-0.3-3-0.5-3.9-0.5c-1.1,0-2,0.2-2.5,0.6c-0.3,0.2-0.5,0.6-0.4,1
		c0.1,0.4,1.9,0.9,5.3,1.3c4.2,0.5,7.5,1.3,9.8,2.4c3.7,1.8,6,4.5,6.9,8.2c0.2,1,0.4,2.1,0.4,3.1c0,3.5-1.3,6.6-3.8,9.3
		C87.8,61.2,84.5,63,80.2,64z"/>
	<path class="st0" d="M136.2,64c-1.5,0.3-3.3,0.5-5.2,0.5c-3.2,0-6-0.5-8.5-1.6c-3.4-1.3-5.1-3.4-5.1-6.2c0-1.4,0.4-2.8,1.1-4
		c0.9-1.5,2.2-2.4,3.8-2.8c0.6-0.1,1.3-0.2,1.9-0.2c1,0,2.3,0.2,4.1,0.7c1.7,0.5,3,0.7,4,0.7c0.5,0,1.1-0.1,1.6-0.2
		c1.6-0.3,2.3-0.9,2.1-1.7c-0.1-0.4-1.8-0.8-5.2-1.3c-4.2-0.5-7.5-1.3-9.8-2.4c-3.7-1.7-6-4.5-6.9-8.2c-0.3-1.1-0.4-2.3-0.4-3.4
		c0-4.5,1.9-8.1,5.7-10.9c3.5-2.6,7.5-3.9,12.1-3.9c3.1,0,5.8,0.5,8,1.6c3,1.4,4.5,3.5,4.5,6.3c0,1.7-0.6,3.3-1.7,4.5
		c-1.1,1.3-2.5,1.9-4.2,1.9c-0.7,0-2-0.2-3.7-0.5c-1.7-0.3-3-0.5-3.9-0.5c-1.1,0-2,0.2-2.5,0.6c-0.3,0.2-0.5,0.6-0.4,1
		c0.1,0.4,1.9,0.9,5.3,1.3c4.2,0.5,7.5,1.3,9.8,2.4c3.7,1.8,6,4.5,6.9,8.2c0.2,1,0.4,2.1,0.4,3.1c0,3.5-1.3,6.6-3.8,9.3
		C143.8,61.2,140.4,63,136.2,64z"/>
	<path class="st0" d="M155.6,19.5c-2.1,0.1-4-0.5-5.7-2.1c-1.6-1.5-2.5-3.4-2.7-5.5c-0.1-2,0.6-3.9,2.1-5.5c1.5-1.6,3.3-2.5,5.4-2.6
		c2.1-0.1,4,0.5,5.6,2c1.7,1.5,2.5,3.2,2.6,5.3c0.1,2.2-0.6,4.1-2,5.8C159.6,18.5,157.8,19.4,155.6,19.5z M157.9,64
		c-2.1,0.1-3.9-0.5-5.3-1.9c-1.4-1.4-2.2-3.2-2.3-5.5L148.8,28c-0.1-2.2,0.4-4.1,1.7-5.7c1.3-1.5,3-2.4,5.1-2.5
		c2.1-0.1,3.9,0.6,5.3,2c1.4,1.4,2.2,3.2,2.3,5.5l1.6,28.6c0.1,2.2-0.5,4.1-1.8,5.7C161.8,63.1,160.1,63.9,157.9,64z"/>
	<path class="st0" d="M195,60.3c-1.7,2.1-4.4,3.5-8,4.4c-1.5,0.3-2.9,0.4-4.3,0.4c-5.8,0-10.5-2.7-14.3-8
		c-3.4-4.8-5.1-10.2-5.1-16.2c0-4.9,1.2-9.2,3.6-12.9c2.6-4,6.3-6.5,10.9-7.6c1.1-0.2,2.2-0.4,3.4-0.4c2.4,0,4.6,0.5,6.5,1.6
		c0.8-2.2,2.5-3.6,5.1-4.2c0.6-0.2,1.2-0.2,1.7-0.2c1.7,0,3.3,0.6,4.5,1.7c1.3,1.1,2.1,2.6,2.5,4.5l7,30.2c0.5,2,0.7,4,0.7,6
		c0,5.1-1.6,9.3-4.8,12.7s-7.6,5.8-13.1,7c-1.6,0.4-3.6,0.6-6,0.6c-3.4,0-6.4-0.4-8.9-1.3c-3.8-1.2-5.7-3.2-5.7-5.9
		c0-1.4,0.4-2.8,1.3-4.1c0.9-1.4,2-2.2,3.3-2.5c0.6-0.1,1.3-0.2,2.1-0.2c0.8,0,2.1,0.1,4,0.4c1.9,0.3,3.3,0.4,4.4,0.4
		c1.2,0,2.3-0.1,3.4-0.4C193.1,65.6,195,63.6,195,60.3z M177.7,40.7c0,0.9,0.1,1.9,0.4,2.8c1.1,5.1,3.5,7.6,7,7.6
		c1.9,0,3.5-0.7,4.6-2.2c1-1.3,1.5-3,1.5-5c0-0.9-0.1-1.9-0.4-2.9c-0.5-2.3-1.4-4.1-2.7-5.6c-1.3-1.4-2.8-2.2-4.5-2.2
		c-1.9,0-3.4,0.8-4.5,2.4C178.2,37,177.7,38.7,177.7,40.7z"/>
	<path class="st0" d="M229.6,64.5c-6.1,0.3-10.9-1-14.6-4c-3.6-3-5.6-7.1-5.8-12.5l-1-19.4c-0.1-2.2,0.5-4.1,1.8-5.7
		c1.3-1.6,3-2.4,5.1-2.5c2.1-0.1,3.8,0.6,5.3,2c1.4,1.4,2.2,3.2,2.3,5.5l1,19.1c0.1,1.6,0.7,2.8,1.7,3.6c1,0.8,2.2,1.2,3.7,1.2
		c1.4-0.1,2.6-0.6,3.5-1.6c0.9-0.9,1.4-2.2,1.3-3.8l-1-19.1c-0.1-2.2,0.4-4.1,1.7-5.7c1.3-1.6,3-2.4,5.1-2.5
		c2.1-0.1,3.9,0.5,5.3,1.9c1.4,1.4,2.2,3.2,2.3,5.5l1,19.3c0.3,5.4-1.2,9.8-4.5,13.1C240.3,62.3,235.6,64.2,229.6,64.5z"/>
	<path class="st0" d="M254.5,19.5c-2.1,0.1-4-0.5-5.7-2.1c-1.6-1.5-2.5-3.4-2.7-5.5c-0.1-2,0.6-3.9,2.1-5.5c1.5-1.6,3.3-2.5,5.4-2.6
		c2.1-0.1,4,0.5,5.6,2c1.7,1.5,2.5,3.2,2.6,5.3c0.1,2.2-0.6,4.1-2,5.8C258.5,18.5,256.7,19.4,254.5,19.5z M256.8,64
		c-2.1,0.1-3.9-0.5-5.3-1.9c-1.4-1.4-2.2-3.2-2.3-5.5L247.8,28c-0.1-2.2,0.4-4.1,1.7-5.7c1.3-1.5,3-2.4,5.1-2.5
		c2.1-0.1,3.9,0.6,5.3,2c1.4,1.4,2.2,3.2,2.3,5.5l1.6,28.6c0.1,2.2-0.5,4.1-1.8,5.7C260.7,63.1,259,63.9,256.8,64z"/>
	<path class="st0" d="M300,42.3L280.7,49c1.3,1.3,3,1.9,5,1.9c1.1,0,2.3-0.2,3.6-0.7c1.7-0.6,3.5-2,5.5-4.2c2-2.2,3.5-3.5,4.5-3.9
		c0.6-0.2,1.2-0.3,1.8-0.3c1.7,0,3.3,0.6,4.6,1.9c1.3,1.2,2,2.7,2,4.4c0,2.7-1.7,5.6-5.1,8.7c-3,2.8-6.4,4.9-10,6.1
		c-2.6,0.9-5.2,1.3-7.7,1.3c-4.6,0-8.8-1.4-12.4-4.2c-3.6-2.8-6.3-6.6-7.9-11.3c-0.9-2.5-1.3-5.2-1.3-7.9c0-4.6,1.2-8.7,3.5-12.3
		c2.5-3.9,6-6.6,10.4-8c2.2-0.7,4.4-1.1,6.6-1.1c4.6,0,8.8,1.5,12.7,4.4c3.7,2.7,6.3,6.1,7.6,10.1c0.3,1,0.5,1.9,0.5,2.8
		C304.5,39.4,303,41.3,300,42.3z M281.2,32.6c-2.9,1-4.3,3.1-4.4,6.3l11.7-4c-1.3-1.7-3-2.6-5-2.6C282.8,32.2,282,32.3,281.2,32.6z"
		/>
	<path class="st0" d="M335.4,66.2c-1.7-0.4-3-1.2-4-2.5c-1-1.3-1.5-2.8-1.5-4.5c0-0.7,0.1-1.4,0.2-2.2l4.2-18.2
		c0.1-0.6,0.2-1.3,0.2-1.9c0-1.5-0.5-2.7-1.6-3.5c-1-0.9-2.3-1.3-3.8-1.3c-2.5,0-4.1,1.5-4.8,4.4l-4.2,18.2
		c-0.4,1.8-1.3,3.3-2.6,4.5c-1.3,1.1-2.8,1.7-4.5,1.7c-0.6,0-1.2-0.1-1.7-0.2c-1.7-0.4-3.1-1.2-4.1-2.5c-1-1.3-1.5-2.8-1.5-4.5
		c0-0.7,0.1-1.5,0.2-2.2l6.4-27.9c0.4-1.9,1.3-3.4,2.6-4.5c1.3-1.1,2.8-1.7,4.5-1.7c3.2,0,5.4,1.3,6.6,3.8c1.6-0.8,3.5-1.2,5.6-1.2
		c1.4,0,2.9,0.2,4.5,0.6c3.9,0.9,7.1,2.7,9.4,5.4c2.4,2.7,3.5,6,3.5,9.8c0,1.4-0.1,2.8-0.4,4.3l-4.7,20c-0.4,1.9-1.2,3.4-2.5,4.5
		c-1.3,1.1-2.8,1.7-4.5,1.7C336.6,66.4,336,66.4,335.4,66.2z"/>
	<path class="st0" d="M368.1,35.2l-1.1-0.3l-5.1,22.3c-0.4,1.9-1.3,3.4-2.6,4.5c-1.3,1.1-2.8,1.7-4.5,1.7c-0.5,0-1.1,0-1.7-0.1
		c-1.7-0.4-3-1.3-4-2.6c-1-1.3-1.5-2.8-1.5-4.6c0-0.7,0.1-1.4,0.2-2.1l5.2-22.3l-0.5-0.1c-3.4-0.8-5.1-2.8-5.1-6.1
		c0-0.6,0.1-1.2,0.2-1.8c0.3-1.5,1.1-2.8,2.3-3.7c1.2-0.9,2.5-1.4,4-1.4c0.5,0,1.1,0.1,1.6,0.1l0.5,0.1l1-4.5
		c0.4-1.8,1.3-3.3,2.6-4.5c1.3-1.1,2.8-1.7,4.5-1.7c0.5,0,1.1,0.1,1.7,0.2c1.7,0.4,3.1,1.2,4.1,2.5c1,1.3,1.5,2.8,1.5,4.6
		c0,0.7-0.1,1.4-0.2,2.1l-1,4.5l1.2,0.2c3.7,0.8,5.5,2.9,5.5,6.2c0,0.5-0.1,1.1-0.1,1.8c-0.8,3.4-2.9,5.1-6.3,5.1
		C369.5,35.5,368.8,35.4,368.1,35.2z"/>
	<path class="st0" d="M410,42.3L390.7,49c1.3,1.3,3,1.9,5,1.9c1.1,0,2.3-0.2,3.6-0.7c1.7-0.6,3.5-2,5.5-4.2c2-2.2,3.5-3.5,4.5-3.9
		c0.6-0.2,1.2-0.3,1.8-0.3c1.7,0,3.3,0.6,4.6,1.9c1.3,1.2,2,2.7,2,4.4c0,2.7-1.7,5.6-5.1,8.7c-3,2.8-6.4,4.9-10,6.1
		c-2.6,0.9-5.2,1.3-7.7,1.3c-4.6,0-8.8-1.4-12.4-4.2c-3.6-2.8-6.3-6.6-7.9-11.3c-0.9-2.5-1.3-5.2-1.3-7.9c0-4.6,1.2-8.7,3.5-12.3
		c2.5-3.9,6-6.6,10.4-8c2.2-0.7,4.4-1.1,6.6-1.1c4.6,0,8.8,1.5,12.7,4.4c3.7,2.7,6.3,6.1,7.6,10.1c0.3,1,0.5,1.9,0.5,2.8
		C414.5,39.4,413,41.3,410,42.3z M391.2,32.6c-2.9,1-4.3,3.1-4.4,6.3l11.7-4c-1.3-1.7-3-2.6-5-2.6C392.8,32.2,392,32.3,391.2,32.6z"
		/>
	<path class="st0" d="M436.3,64c-1.5,0.3-3.3,0.5-5.2,0.5c-3.2,0-6-0.5-8.5-1.6c-3.4-1.3-5.1-3.4-5.1-6.2c0-1.4,0.4-2.8,1.1-4
		c0.9-1.5,2.2-2.4,3.8-2.8c0.6-0.1,1.3-0.2,1.9-0.2c1,0,2.3,0.2,4.1,0.7c1.7,0.5,3,0.7,4,0.7c0.5,0,1.1-0.1,1.6-0.2
		c1.6-0.3,2.3-0.9,2.1-1.7c-0.1-0.4-1.8-0.8-5.2-1.3c-4.2-0.5-7.5-1.3-9.8-2.4c-3.7-1.7-6-4.5-6.9-8.2c-0.3-1.1-0.4-2.3-0.4-3.4
		c0-4.5,1.9-8.1,5.7-10.9c3.5-2.6,7.5-3.9,12.1-3.9c3.1,0,5.8,0.5,8,1.6c3,1.4,4.5,3.5,4.5,6.3c0,1.7-0.6,3.3-1.7,4.5
		c-1.1,1.3-2.5,1.9-4.2,1.9c-0.7,0-2-0.2-3.7-0.5c-1.7-0.3-3-0.5-3.9-0.5c-1.1,0-2,0.2-2.5,0.6c-0.3,0.2-0.5,0.6-0.4,1
		c0.1,0.4,1.9,0.9,5.3,1.3c4.2,0.5,7.5,1.3,9.8,2.4c3.7,1.8,6,4.5,6.9,8.2c0.2,1,0.4,2.1,0.4,3.1c0,3.5-1.3,6.6-3.8,9.3
		C443.9,61.2,440.5,63,436.3,64z"/>
	<path class="st0" d="M493.7,64.6c-2.7-0.2-5.3-1.2-7.7-2.8l-0.8,9.5c-0.2,2.2-1,4-2.5,5.4c-1.5,1.4-3.3,1.9-5.4,1.8
		c-2.1-0.1-3.7-1-5-2.6c-1.2-1.6-1.7-3.5-1.5-5.8l3.9-44.2c0.2-2.2,1-4,2.5-5.4c1.5-1.4,3.3-2,5.4-1.8c2.6,0.2,4.4,1.4,5.6,3.4
		c2.7-2,6-2.8,9.9-2.5c5.6,0.5,10,3,13.1,7.6c2.7,4,4.1,8.8,4.1,14.5c0,6.3-1.9,11.7-5.8,16.3C505.2,62.9,500,65.1,493.7,64.6z
		 M495.1,33c-2-0.2-3.7,0.5-5,2c-1.3,1.5-2.1,3.6-2.3,6.1c-0.2,2.6,0.1,4.8,1.2,6.7c1,1.9,2.5,2.9,4.5,3.1c1.9,0.1,3.6-0.6,4.9-2.2
		s2.1-3.7,2.4-6.1c0.2-2.5-0.2-4.7-1.3-6.6C498.5,34.2,497,33.1,495.1,33z"/>
	<path class="st0" d="M554.4,60.3c-0.6,0.1-1.3,0.2-1.9,0.2c-1.7,0-3.2-0.6-4.4-1.9c-2.1,2.9-5,4.8-8.5,5.6
		c-1.4,0.3-2.9,0.5-4.3,0.5c-4.7,0-8.8-1.7-12.5-5c-3.7-3.3-6.1-7.7-7.4-13.1c-0.4-2-0.7-4-0.7-6c0-5,1.3-9.4,4-13.2
		c2.7-3.8,6.2-6.2,10.7-7.3c1.2-0.3,2.5-0.4,3.6-0.4c2.3,0,4.5,0.5,6.5,1.6c0.9-2.2,2.5-3.6,4.9-4.2c0.8-0.1,1.5-0.2,2.2-0.2
		c3.3,0,5.5,2.4,6.6,7.3l6,25.8c0.3,1.6,0.5,2.9,0.5,3.9C559.8,57.5,558,59.5,554.4,60.3z M529.2,40.4c0,1,0.1,2,0.3,3.1
		c0.5,2.1,1.4,3.9,2.7,5.3c1.3,1.4,2.8,2.1,4.5,2.1c1.9,0,3.4-0.8,4.5-2.3c1-1.3,1.5-3,1.5-5.1c0-0.9-0.1-1.9-0.4-3
		c-0.5-2.2-1.4-4-2.7-5.4c-1.3-1.4-2.8-2.1-4.4-2.1c-1.9,0-3.4,0.7-4.4,2.2C529.7,36.7,529.2,38.4,529.2,40.4z"/>
	<path class="st0" d="M564.9,64c-2.1-0.1-3.8-1-5-2.6c-1.2-1.6-1.8-3.5-1.6-5.8l3.2-45.7c0.1-2.2,0.9-4,2.4-5.4
		c1.4-1.4,3.2-2,5.4-1.9c2.1,0.1,3.8,1,5,2.6c1.2,1.6,1.8,3.5,1.6,5.8l-3.2,45.7c-0.1,2.2-0.9,4-2.4,5.4S567.1,64.1,564.9,64z"/>
	<path class="st0" d="M613.3,60.3c-0.6,0.1-1.3,0.2-1.9,0.2c-1.7,0-3.2-0.6-4.4-1.9c-2.1,2.9-5,4.8-8.5,5.6
		c-1.4,0.3-2.9,0.5-4.3,0.5c-4.7,0-8.8-1.7-12.5-5c-3.7-3.3-6.1-7.7-7.4-13.1c-0.4-2-0.7-4-0.7-6c0-5,1.3-9.4,4-13.2
		c2.7-3.8,6.2-6.2,10.7-7.3c1.2-0.3,2.5-0.4,3.6-0.4c2.3,0,4.5,0.5,6.5,1.6c0.9-2.2,2.5-3.6,4.9-4.2c0.8-0.1,1.5-0.2,2.2-0.2
		c3.3,0,5.5,2.4,6.6,7.3l6,25.8c0.3,1.6,0.5,2.9,0.5,3.9C618.7,57.5,616.9,59.5,613.3,60.3z M588.1,40.4c0,1,0.1,2,0.3,3.1
		c0.5,2.1,1.4,3.9,2.7,5.3c1.3,1.4,2.8,2.1,4.5,2.1c1.9,0,3.4-0.8,4.5-2.3c1-1.3,1.5-3,1.5-5.1c0-0.9-0.1-1.9-0.4-3
		c-0.5-2.2-1.4-4-2.7-5.4c-1.3-1.4-2.8-2.1-4.4-2.1c-1.9,0-3.4,0.7-4.4,2.2C588.6,36.7,588.1,38.4,588.1,40.4z"/>
	<path class="st0" d="M638,64.1c-3.6-0.8-6.4-2.6-8.3-5.4c-1.2,1.1-2.7,1.7-4.5,1.7c-0.6,0-1.2-0.1-1.9-0.2
		c-1.7-0.4-3.1-1.2-4.1-2.5c-1-1.3-1.5-2.8-1.5-4.6c0-0.7,0.1-1.4,0.3-2.1l10.3-44.7c0.4-1.9,1.3-3.4,2.6-4.5
		c1.3-1.1,2.8-1.7,4.5-1.7c0.6,0,1.2,0.1,1.7,0.2c1.7,0.4,3.1,1.3,4.1,2.6c1,1.3,1.5,2.8,1.5,4.6c0,0.7-0.1,1.4-0.3,2.1l-2.5,10.8
		c2.8-0.7,5.6-0.8,8.6-0.1c4.8,1.1,8.4,3.7,10.9,7.7c2.2,3.5,3.3,7.6,3.3,12.5c0,2.2-0.2,4.4-0.7,6.6c-1.1,4.9-3.5,9-7,12.3
		c-3.8,3.5-8,5.3-12.8,5.3C640.8,64.5,639.4,64.4,638,64.1z M643.7,32.9c-0.5-0.1-1-0.1-1.4-0.1c-1.6,0-3.1,0.7-4.3,2
		c-1.2,1.3-2.1,3.1-2.6,5.3c-0.2,1.1-0.4,2.2-0.4,3.2c0,2,0.4,3.7,1.3,5.1c1.1,1.6,2.6,2.4,4.5,2.4c2.2,0,4.1-1.2,5.6-3.6
		c1.3-2.1,1.9-4.3,1.9-6.8C648.3,36.1,646.8,33.7,643.7,32.9z"/>
	<path class="st0" d="M677.6,22.6c1.6-1.7,3.9-2.5,6.9-2.3c1.9,0.1,3.5,0.9,4.7,2.2c1.3,1.5,1.9,3.5,1.8,5.8
		c-0.1,2.2-1.4,3.8-3.7,4.9c-2.1,0.7-4.3,1.5-6.4,2.2c-2.3,1-3.5,2.4-3.7,4.3l-1.1,16.4c-0.2,2.2-1,4-2.5,5.4s-3.2,2-5.4,1.9
		c-2.1-0.1-3.8-1-5-2.6c-1.2-1.6-1.8-3.5-1.6-5.7l2-29.1c0.2-2.3,1.1-4,2.8-5.3c1.5-1.1,3.2-1.6,5.1-1.4
		C674.6,19.6,676.6,20.7,677.6,22.6z"/>
	<path class="st0" d="M726.9,60.3c-0.6,0.1-1.3,0.2-1.9,0.2c-1.7,0-3.2-0.6-4.4-1.9c-2.1,2.9-5,4.8-8.5,5.6
		c-1.4,0.3-2.9,0.5-4.3,0.5c-4.7,0-8.8-1.7-12.5-5c-3.7-3.3-6.1-7.7-7.4-13.1c-0.4-2-0.7-4-0.7-6c0-5,1.3-9.4,4-13.2
		c2.7-3.8,6.2-6.2,10.7-7.3c1.2-0.3,2.5-0.4,3.6-0.4c2.3,0,4.5,0.5,6.5,1.6c0.9-2.2,2.5-3.6,4.9-4.2c0.8-0.1,1.5-0.2,2.2-0.2
		c3.3,0,5.5,2.4,6.6,7.3l6,25.8c0.3,1.6,0.5,2.9,0.5,3.9C732.3,57.5,730.5,59.5,726.9,60.3z M701.7,40.4c0,1,0.1,2,0.3,3.1
		c0.5,2.1,1.4,3.9,2.7,5.3c1.3,1.4,2.8,2.1,4.5,2.1c1.9,0,3.4-0.8,4.5-2.3c1-1.3,1.5-3,1.5-5.1c0-0.9-0.1-1.9-0.4-3
		c-0.5-2.2-1.4-4-2.7-5.4c-1.3-1.4-2.8-2.1-4.4-2.1c-1.9,0-3.4,0.7-4.4,2.2C702.2,36.7,701.7,38.4,701.7,40.4z"/>
	<path class="st0" d="M752.1,64c-1.5,0.3-3.3,0.5-5.2,0.5c-3.2,0-6-0.5-8.5-1.6c-3.4-1.3-5.1-3.4-5.1-6.2c0-1.4,0.4-2.8,1.1-4
		c0.9-1.5,2.2-2.4,3.8-2.8c0.6-0.1,1.3-0.2,1.9-0.2c1,0,2.3,0.2,4.1,0.7c1.7,0.5,3,0.7,4,0.7c0.5,0,1.1-0.1,1.6-0.2
		c1.6-0.3,2.3-0.9,2.1-1.7c-0.1-0.4-1.8-0.8-5.2-1.3c-4.2-0.5-7.5-1.3-9.8-2.4c-3.7-1.7-6-4.5-6.9-8.2c-0.3-1.1-0.4-2.3-0.4-3.4
		c0-4.5,1.9-8.1,5.7-10.9c3.5-2.6,7.5-3.9,12.1-3.9c3.1,0,5.8,0.5,8,1.6c3,1.4,4.5,3.5,4.5,6.3c0,1.7-0.6,3.3-1.7,4.5
		c-1.1,1.3-2.5,1.9-4.2,1.9c-0.7,0-2-0.2-3.7-0.5c-1.7-0.3-3-0.5-3.9-0.5c-1.1,0-2,0.2-2.5,0.6c-0.3,0.2-0.5,0.6-0.4,1
		c0.1,0.4,1.9,0.9,5.3,1.3c4.2,0.5,7.5,1.3,9.8,2.4c3.7,1.8,6,4.5,6.9,8.2c0.2,1,0.4,2.1,0.4,3.1c0,3.5-1.3,6.6-3.8,9.3
		C759.7,61.2,756.3,63,752.1,64z"/>
</g>
</svg>
