<!-- Generator: Adobe Illustrator 24.0.0, SVG Export Plug-In  -->
<svg version="1.1" xmlns="http://www.w3.org/2000/svg" xmlns:xlink="http://www.w3.org/1999/xlink" x="0px" y="0px" width="280.6px"
	 height="201.7px" viewBox="0 0 280.6 201.7" style="enable-background:new 0 0 280.6 201.7;" xml:space="preserve">
<style type="text/css">
	.st0{fill:#350919;}
	.st1{fill:#FCC5D5;}
	.st2{fill:#EFA0BC;}
	.st3{fill:#FFFFFF;}
	.st4{fill:#2F6B93;}
	.st5{fill:#F5FBFF;}
	.st6{fill:#C14053;}
	.st7{fill:#A2F4F2;}
</style>
<defs>
</defs>
<g>
	<path class="st0" d="M44.2,93.3C25.3,79.7,2.2,62.7,1,60.1c-2.2-4.5-0.3-6.7,2.8-5.7c3.1,1,4.6,6.4,4.6,6.4s0.4-1.5,2.4-0.5
		c2,1-0.5,4.4,2,6c1.4,0.8,18.1,11.3,33.3,21C45.1,88.9,44.5,91.1,44.2,93.3z"/>
	<g>
		<path class="st0" d="M164.4,126.2c0,0-4.3,66.8-2.1,68.7c2.1,2,14,0.2,16.1,3.9c2.1,3.7-18,3.5-20.6,1.2c-2.6-2.3,0-73.8,0-73.8
			H164.4z"/>
		<path class="st0" d="M107.3,135.4c0,0-35,57-37.9,57.4c-2.9,0.4-11.5-7.9-15.4-6.1c-3.9,1.8,12.7,13.2,16.1,12.9
			c3.4-0.4,42.6-60.3,42.6-60.3L107.3,135.4z"/>
	</g>
	<path class="st1" d="M227.6,93.8c0,0,8.7-7.7,2.1-21.7c-4.9-10.5-28.2-14.2-34-15.2c-5.6-1-11.2-1.7-16.8-2.3
		c-11.3-1.1-22.7-2-34-3.6c-11.8-1.7-23.6-3.4-35.5-3.6c-11-0.2-21.9,0.8-32.9,0.9c-2.6,0-2.8,1.8-3-0.2c-4,0.4-9.9,1.5-14.5,5.8
		c-8.6,8-4.3,16.3-4.3,16.3s-15.5,0.9-17.1,16.1c-1,9.4,7.8,14,7.8,14s-4.3,17.1,5.1,25.7c9.4,8.6,19.6,4.6,19.6,4.6s0,5.1,6.7,9.4
		c5.6,3.6,12.6,1.1,14.7,0.3c0.4-0.2,2.8,4.7,9.4,5.4c6.7,0.7,9.9-4.8,9.9-4.8s8,6.7,17.9,7.1c9.9,0.4,20.1-5.4,20.1-5.4
		s4,4.3,14.7,5.4c10.7,1.1,21.7-8,21.7-8s5.4,4.6,17.9,3.7c12.6-0.8,13.7-12.5,13.7-12.5s12.8,2.9,18.2-10.8
		C240.2,106.4,227.6,93.8,227.6,93.8z"/>
	<path class="st1" d="M116.1,32.6c11.6,0.5,20.1,0.3,31.5,2c21.6,3.3,45,11.2,66.6,14.7c0-3.9,0.4-16.7-5.9-23.8
		c-9.9-11.3-26.6-7-26.6-7s-1.1-9.4-11.2-12.3c-10.2-2.9-16.6,3.8-16.6,3.8s-5.4-4.8-15-6.2c-9.6-1.3-16.3,5.9-16.3,5.9
		s-9-6.3-19.6-2.3c-11.1,4.1-10.2,16.3-10.2,16.3s-3.9-1.6-9.6,1.5c-5.5,3-3,10.5-3.4,12.2C91.3,37.2,104.5,32.1,116.1,32.6z"/>
	<g>
		<path class="st2" d="M202,64.3c0.6,0,1.2,0,1.9-0.1c8.7-1.3,10.8-9.5,10.7-13.7c0-1.3-1.1-2.4-2.5-2.3c-1.3,0-2.4,1.2-2.3,2.5
			c0,0.1,0.2,7.8-6.6,8.8c-5.7,0.8-8.3-4.6-8.4-4.8c-0.6-1.2-2-1.7-3.2-1.2c-1.2,0.6-1.7,2-1.2,3.2C191.6,59.4,195.6,64.3,202,64.3z
			"/>
	</g>
	<g>
		<g>
			<circle class="st0" cx="167.5" cy="94.2" r="7"/>
			<path class="st3" d="M168.8,91.9c0,1.2,1,2.2,2.2,2.2c1.2,0,2.2-1,2.2-2.2c0-1.2-1-2.2-2.2-2.2C169.8,89.7,168.8,90.7,168.8,91.9
				z"/>
		</g>
		<g>
			<path class="st0" d="M89.2,94.2c0,3.9,3.1,7,7,7c3.9,0,7-3.1,7-7c0-3.9-3.1-7-7-7C92.4,87.2,89.2,90.3,89.2,94.2z"/>
			<path class="st3" d="M97.5,91.9c0,1.2,1,2.2,2.2,2.2c1.2,0,2.2-1,2.2-2.2c0-1.2-1-2.2-2.2-2.2C98.5,89.7,97.5,90.7,97.5,91.9z"/>
		</g>
		<path class="st3" d="M144.1,111.1c0,0-2.7,9.8-11.7,9.9c-8.9,0.1-12.1-9.9-12.1-9.9H144.1z"/>
	</g>
	<g>
		<path class="st2" d="M231.3,94.1c-0.1-0.1-0.7-0.9-1.8-1.8c0.7-0.8,5.3-6,2.4-16.1c-3.1-11-15.6-14.5-15.6-14.5l-2.5,2.7
			c0,0,8.4,1.9,12.7,9c4,6.6,0.6,15.6,0.1,16.9c-2.2-1.2-5-2.2-8.5-2.1c-8.8,0.2-11.3,7.6-11.4,7.9c-0.4,1.3,0.3,2.6,1.5,3.1
			c0.3,0.1,0.5,0.1,0.8,0.1c1,0,1.9-0.6,2.3-1.6c0.1-0.2,1.7-4.5,7-4.6c3.6-0.1,6.3,1.5,7.9,2.7c1,1.1,11.1,12.1,6.6,23.6
			c-2.2,5.5-6,8.3-11.4,8.3c-1.1,0-2-0.1-2.7-0.3c-0.5-2.1-1.9-5.5-5.9-7.6c-4.2-2.2-6.7-1.3-7.2-1.1c0,0-0.9,0.6-0.4,2.2
			c0.5,1.6,0.5,1.6,2.1,2.2c0,0,1.1-0.2,3.2,0.9c3.2,1.7,3.5,4.8,3.6,5.3c-0.1,1.1-1.2,11.2-11.1,11.8c-0.9,0.1-1.9,0.1-2.8,0.1
			c-7.4,0-11.5-2-12.9-2.9l-0.6-7.2c-0.1-1.3-1.3-2.3-2.6-2.2c-1.3,0.1-2.3,1.3-2.2,2.6l0.6,7.3c-2.7,2-10,6.7-17.2,6.7
			c-0.5,0-1,0-1.5-0.1c-9.5-1-13.2-4.6-13.2-4.6l-0.4-0.4c-0.1-0.2-0.3-0.5-0.4-0.8c-0.9-2.1-0.5-5.2,0.9-8.4c2.1-4.7,7.9-3,8.1-2.9
			c1.3,0.4,2.6-0.3,3-1.6c0.4-1.3-0.3-2.6-1.6-3c-3.5-1.1-10.9-1.3-14,5.5c-2,4.5-2.3,8.8-1,12.2c0,0,0,0,0,0
			c-3.4,1.6-10.1,4.2-16.5,4c-6.7-0.2-12.6-3.8-15.2-5.5c0.5-1.5,0.7-3.1,0.6-4.7c-0.2-3.2-1.7-5.7-4.2-7.1
			c-5.8-3.3-9.9-0.4-11.3,1.7c-0.8,1.1-0.5,2.6,0.6,3.4c1.1,0.7,2.6,0.5,3.3-0.6c0.4-0.5,1.9-2,5-0.3c1.4,0.8,1.7,2.2,1.8,3.3
			c0.1,1.6-0.4,3.3-1.2,4.5c-0.8,1-2.9,3.2-6.3,3.2c0,0,0,0,0,0c-0.3,0-0.6,0-0.9,0c-4.2-0.4-6.3-2.8-7.3-4
			c-0.5-0.6-1.2-1.4-2.4-1.4h-0.5l-0.5,0.2c-1,0.4-3.7,1.4-6.8,1.4c-2.2,0-4.1-0.5-5.6-1.5c-3.7-2.3-4.9-4.8-5.4-6.3l4.9-9.4
			c0.6-1.2,0.2-2.6-1-3.3c-1.2-0.6-2.6-0.2-3.3,1l-4.3,8.4c-0.6,0.2-2.4,0.7-4.8,0.7c-4.4,0-8.5-1.6-12-4.9
			c-6.9-6.3-5.3-18.5-4.6-22.2c1.2-0.4,2.6-0.8,4.3-1.2c2.2-0.5,4.1-0.1,5.3,1.2c0.9,1.1,1.2,2.5,0.7,3.9c-1,2.7-4.9,1.4-5.1,1.3
			c-1.1-0.4-2.4,0.2-2.8,1.4c-0.4,1.1,0.2,2.4,1.4,2.8c0.9,0.3,2.2,0.6,3.6,0.6c2.7,0,5.7-1,7-4.5c1.1-3,0.5-6.1-1.5-8.4
			c-2.3-2.5-5.8-3.4-9.6-2.5c-1.9,0.5-3.5,0.9-4.8,1.3c-1.6-1-6.7-4.8-6-11.3c1.2-10.6,10-13.2,13.5-13.8c1.8,3,5.7,8.1,11.4,8.4
			c0.2,0,0.4,0,0.6,0c2.6,0,4.5-0.8,5.8-2.3c2-2.4,1.3-5.4,1.2-5.8c-0.3-1.3-1.6-2.1-2.9-1.8c-1.3,0.3-2.1,1.6-1.8,2.9
			c0.1,0.3,0.1,1.2-0.3,1.6c-0.3,0.4-1.2,0.6-2.5,0.6c-4.5-0.2-7.7-6.4-8.3-7.5c-0.5-1.6-1.6-7.8,4.7-13.8c4.6-4.3,12-3.8,15.6-4
			c-1.2-1.3-2.4-2.5-1.7-4.1c-4.4,0.3-12.1,0.3-17.6,5.4c-7,6.5-7.4,11.4-6.3,15.7c-6.3,1.4-15.2,6.2-16.4,17.8
			c-0.9,8.4,4.6,13.4,7.5,15.4c-0.9,4.8-2.4,18.5,6.2,26.3c5.5,5.1,11.4,6.1,15.3,6.1c1.6,0,3-0.2,4.1-0.4c0.8,2.3,2.7,5.6,7.2,8.4
			c2.4,1.5,5.1,2.3,8.2,2.3c2.8,0,5.3-0.6,7.1-1.2c1.5,1.6,4.5,4.4,9.8,4.9c0.5,0,0.9,0.1,1.4,0.1c0,0,0,0,0,0c3.6,0,6.3-1.5,8.1-3
			c0.1-0.1,0.2-0.1,0.3-0.2c0.3-0.2,0.6-0.5,0.9-0.8c3.2,2.1,9.7,5.8,17.4,6.1c0.3,0,0.6,0,1,0c7.9,0,15.5-3.3,18.8-4.9
			c0.5,0.4,1,0.7,1.6,0.9c2.5,1.5,6.8,3.3,13.3,3.9c0.7,0.1,1.3,0.1,2,0.1c8.6,0,16.8-5.3,20-7.6c2.3,1.3,7.2,3.3,14.9,3.3
			c1,0,2,0,3.1-0.1c9.9-0.6,14-8.1,15.2-13.6c0.8,0.1,1.8,0.2,2.9,0.2c4.2,0,12-1.5,15.8-11.4C241.7,109.2,234.8,98.4,231.3,94.1z"
			/>
		<path class="st2" d="M93.7,81c1.9,0.8,3.8,1,5.5,0.9c3.2-0.3,5.8-1.6,5.9-1.7c1.2-0.6,1.6-2.1,1-3.3c-0.6-1.2-2.1-1.6-3.3-1
			c0,0-4,2.1-7.1,0.7c-1.8-0.8-4.1-3.3-4.8-6.4c-0.7-2.8,0.1-5.6,2.3-8.2c8.7-10.5,23.3-1.6,24-1.2c0.8,0.5,1.7,0.5,2.5,0
			c0.8-0.5,1.2-1.3,1.2-2.2c0-0.4-0.3-8.9,8.5-12c8.6-2.9,15.1,7,15.1,7.1c0.4,0.7,1.2,1.1,2.1,1.1c0.8,0,1.6-0.4,2-1.1
			c0.2-0.2,4.2-6.3,14.2-6.1c3.6,0.1,7.2,3,8.6,7.1c0.6,1.7,1.5,6-2.5,9.2c-6.8,5.4-12.6,0.3-13.3-0.3c-1-0.9-2.5-0.8-3.4,0.1
			c-0.9,1-0.9,2.5,0.1,3.4c3.2,3,11.4,7,19.6,0.5c4.5-3.5,6-9,4.1-14.6c-2-6-7.4-10.2-13.1-10.4c-8.4-0.2-13.6,3.3-16.2,5.9
			c-3.2-3.6-10-9.6-18.8-6.6c-7.4,2.5-10.5,8.3-11.4,12.8c-7.3-3.3-19.1-5.4-26.9,4c-4,4.8-4,9.4-3.3,12.4
			C87.3,76.1,90.8,79.7,93.7,81z"/>
		<path class="st2" d="M185.9,92.8c1.4,0.5,2.8,0.7,4.1,0.7c0,0,0,0,0,0c-0.7,1.8-1,3.8-0.6,6.2c1.4,7.5,7.2,9.5,10.1,9.5
			c1.3,0,2.4-1.1,2.4-2.4c0-1.3-1.1-2.4-2.4-2.4c-0.5,0-4.4-0.3-5.4-5.6c-0.6-3.3,1.4-5.8,3.2-7.4c2.2-1.2,3.6-2.6,3.8-2.7
			c1-0.9,1-2.5,0-3.4c-0.9-1-2.5-1-3.4,0c0,0-0.1,0.1-0.2,0.2c-0.5,0.3-1.6,0.9-2.8,1.9c-1.9,1-4.6,1.8-7.3,0.9
			c-2.4-0.8-3.5-3-3.9-4.6c-0.9-3.1-0.2-6.8,1.6-9c3.2-3.8,8.6-1.3,8.6-1.3c1.2,0.6,2.6,0.1,3.2-1.2c0.6-1.2,0.1-2.6-1.2-3.2
			c-3-1.4-9.9-2.8-14.4,2.5c-2.8,3.4-3.9,8.7-2.6,13.4C179.9,88.8,182.4,91.6,185.9,92.8z"/>
		<path class="st2" d="M179.7,109.5c-8.1-0.3-10.6,7-10.9,10.9c-0.1,1.3,0.9,2.5,2.3,2.6c0.1,0,0.1,0,0.2,0c1.3,0,2.3-1,2.4-2.3
			c0-0.7,0.6-6.6,5.9-6.4c6.2,0.2,8.4,5.7,8.4,5.7c0.5,1.2,1.9,1.9,3.1,1.4c1.2-0.5,1.9-1.9,1.4-3.1
			C192.3,118,189,109.8,179.7,109.5z"/>
		<path class="st2" d="M70,97.9c0,3.6,1.1,6.4,3.2,8.4c1.8,1.7,4,2.3,5.7,2.6c-0.1,1.9,0.1,4.4,1.6,6.4c0.9,1.2,2.6,2.8,5.8,3
			c0.4,0,0.7,0,1.1,0c2.6,0,4.6-0.8,6.2-2.3c2.8-2.8,2.5-6.9,2.5-7.4c-0.1-1.2-1.2-2.1-2.4-2c-1.2,0.1-2.1,1.2-2,2.4
			c0,0.7-0.1,2.8-1.3,4c-0.8,0.8-2.1,1.1-3.8,1c-1.2-0.1-2.1-0.5-2.6-1.2c-1.1-1.6-0.8-4.5-0.6-5.4c0.2-0.7,0-1.4-0.5-2
			c-0.5-0.5-1.1-0.8-1.9-0.8c0,0-3.1,0.2-5.1-1.6c-1.2-1.1-1.8-2.8-1.8-5.1c0-2,0.5-3.5,1.7-4.4c2.3-1.9,6.4-1.3,6.4-1.3
			c1.2,0.2,2.3-0.6,2.5-1.8c0.2-1.2-0.6-2.3-1.8-2.5c-0.2,0-6.1-1-10,2.3C71.1,91.9,70,94.5,70,97.9z"/>
	</g>
	<path class="st2" d="M210,23.3c-8.5-9.8-20.8-9.6-26.1-8.8c-1.1-3.4-4.2-9.5-12.4-11.8c-1.9-0.6-3.9-0.8-5.8-0.8
		c-5.4,0-9.5,2.3-11.6,3.8c-2.4-1.7-7.4-4.5-14.6-5.5c-0.9-0.1-1.8-0.2-2.7-0.2c-6.8,0-11.9,3.5-14.3,5.5c-2.3-1.2-6.6-3-12-3
		c-2.8,0-5.5,0.5-8.1,1.5c-9,3.4-11.8,11-12.7,15.2c0,0,0,0.1-0.1,0.1c0,0-0.1,0-0.1,0c-2.4,0-4.9,0.9-7.5,2.8
		c-2.3,1.6-3.5,3.6-4.1,5.6l0,0c0,0-1,1.7-1,4.1c0,2.4,0,3,0,3l5.6-1c0,0-0.6-1.6-0.3-3.7c0,0,0,0,0,0c0.2-1.3,1.5-3.1,2.6-4
		c1.5-1.3,2.8-1.8,3.8-1.9c-0.1,1.2-0.1,2.5,0.1,3.9c1,8.2,6.2,9,8.4,9c3.1,0,5.4-1.7,5.7-1.9c1-0.8,1.2-2.3,0.4-3.4
		c-0.8-1.1-2.3-1.2-3.4-0.4c0,0-1.2,0.9-2.7,0.9c-0.9,0-3,0-3.6-4.8c-0.1-0.5-0.1-1-0.1-1.5l0.1-3.6c0.3-2.1,0.7-3.5,0.8-3.6
		c0.2-0.5,0.4-0.9,0.5-1.2c1.3-3.1,4-7,9.3-9c2-0.8,4.2-1.2,6.4-1.2c5.1,0,9.1,2.1,10.5,2.9c0.1,0.1,0.2,0.2,0.4,0.3
		c0,0,0.1,0.1,0.4,0.2l1,0.7c1.6,1.2,4.1,3.6,4.2,6.8c0.1,5-4.4,5.4-4.4,5.4c-1.3,0.1-2.4,1.2-2.3,2.5c0,1.1,0.9,2,1.9,2.3
		c0.2,0,0.4,0.1,0.6,0c3-0.1,9.1-2.8,9-10.3c-0.1-4.4-2.7-7.7-4.9-9.6c2.1-1.5,5.7-3.5,10.1-3.5c0.7,0,1.4,0,2.1,0.1
		c6.2,0.9,10.4,3.2,12.4,4.6c-1.5,2.1-4,6.7-1.6,11.7c2.7,5.6,7.7,6.1,9.3,6.1c0.3,0,0.5,0,0.5,0c1.3-0.1,2.3-1.3,2.2-2.6
		c-0.1-1.3-1.3-2.3-2.6-2.2c-0.4,0-3.4,0.1-5.1-3.4c-1.8-3.7,1.5-7.3,1.6-7.5c0.4-0.5,0.6-1,0.6-1.6c1.1-0.9,4.5-3.4,9.4-3.4
		c1.5,0,3,0.2,4.5,0.7c7.7,2.2,9.3,8.7,9.5,10.1c-0.1,0.2-0.2,0.3-0.3,0.5l-3.7,8.2c-0.5,1.2,0,2.6,1.2,3.2c0.3,0.1,0.7,0.2,1,0.2
		c0.9,0,1.8-0.5,2.2-1.4l3.7-8.2c0.1-0.1,0.1-0.3,0.1-0.4c3.7-0.6,15.4-1.8,22.3,6.9c8.2,10.3,1.7,21.6,1.5,21.8
		c2.3,1.1,6.8,1.4,6.4,1.3C214.7,45.7,218.9,33.7,210,23.3z"/>
	<path class="st4" d="M76,33.4c0,0,20.5-6.1,62.8-1.8c60.9,6.2,75.3,17.8,75.3,17.8s2.5,4.5,1.5,6.6c-1.8,3.5-0.8,3.4,0,4.6
		c0.8,1.2-0.1,4.5-2.2,5.6c-2,1.2-52.3-10.9-83.1-13c-35.8-2.4-62.4-0.6-62.4-0.6s-1.3-4.2,1-5.5c2.3-1.2,2.7-1.2,2.7-1.2
		s-0.1,0,0-2.4C71.9,36.6,76,33.4,76,33.4z"/>
	<g>
		<path class="st4" d="M76,33.4c0,0,20.5-6.1,62.8-1.8c60.9,6.2,75.3,17.8,75.3,17.8s2.5,4.5,1.5,6.6c-1.8,3.5-0.8,3.4,0,4.6
			c0.8,1.2-0.1,4.5-2.2,5.6c-2,1.2-52.3-10.9-83.1-13c-35.8-2.4-62.4-0.6-62.4-0.6s-1.3-4.2,1-5.5c2.3-1.2,2.7-1.2,2.7-1.2
			s-0.1,0,0-2.4C71.9,36.6,76,33.4,76,33.4z"/>
		<path class="st5" d="M153,39.1c-40.9-6-69.2-2.8-80.3-1c-0.4,0.9-0.7,1.9-0.9,3.1c8-1.5,27.2-3.9,60.4-1.4
			C168,42.4,202.1,53,215,57.3c0.2-0.4,0.4-0.9,0.6-1.4c0.1-0.2,0.2-0.5,0.2-0.8C208.3,51.5,190.3,44.6,153,39.1z"/>
		<path class="st6" d="M151.4,48.9c44.9,7.3,59.6,11.6,64.4,13.5c0.1-0.7,0-1.4-0.2-1.8c-0.4-0.6-0.8-0.9-0.9-1.3
			c-12.6-4.3-43-9.7-62.8-12.9c-34.3-5.6-62.5-3.3-80.3-0.4c0,0,0,0,0,0s-0.4,0-2.7,1.2c-0.8,0.4-1.2,1.3-1.3,2.1
			C84.5,46,114.4,42.8,151.4,48.9z"/>
	</g>
	<path class="st0" d="M279.5,133.1c-1.8-2.7-37.9-18.4-55.4-26c-1.4,1.3-2.3,3-2,5.5c0,0.4,0.1,0.7,0.2,1.1
		c15.5,6,44.4,16,46.1,16.7c2.4,0.8,0.4,4.5,2.3,4.9c1.9,0.4,2.1-1,2.1-1s1.8,4.5,4.6,4.7C280.3,139.1,281.8,136.7,279.5,133.1z"/>
	<path class="st7" d="M240.8,61.6c0,0,10.5-2.8,10.5,2.7C251.3,69.8,240.8,61.6,240.8,61.6z"/>
	<path class="st7" d="M50.6,46.4c0,0-15.2-2.3-13.1,2.4C39.6,53.5,50.6,46.4,50.6,46.4z"/>
	<path class="st7" d="M208.8,77.1c4.7,4.9,9.1,11.9,2.9,12.6C205.6,90.5,208.8,77.1,208.8,77.1z"/>
	<path class="st7" d="M38.2,60c0,0-13.4,0-10.5,5.5C30.6,71.1,38.2,60,38.2,60z"/>
	<path class="st7" d="M240.8,83.4c0,0,10.2,3.9,7,8.5C244.6,96.6,240.8,83.4,240.8,83.4z"/>
</g>
</svg>
