<!-- Generator: Adobe Illustrator 24.0.0, SVG Export Plug-In  -->
<svg version="1.1" xmlns="http://www.w3.org/2000/svg" xmlns:xlink="http://www.w3.org/1999/xlink" x="0px" y="0px" width="586.4px"
	 height="274.1px" viewBox="0 0 586.4 274.1" style="enable-background:new 0 0 586.4 274.1;" xml:space="preserve">
<style type="text/css">
	.st0{fill:#FFFF00;}
	.st1{fill:#FFFFFF;}
</style>
<defs>
</defs>
<g>
	<path class="st0" d="M16.7,48.9c-0.5,0-1,0.1-1.5,0.1c-3,0-5.9-0.6-8.6-1.8c-3.3-1.5-5-3.4-5.3-5.8c-0.2-1.5,0.2-2.8,1.1-4.1
		c0.9-1.2,2.2-1.9,3.7-2.1c1-0.1,2.5,0.3,4.6,1.4c2.1,1,3.7,1.5,4.9,1.3c1.3-0.2,2.3-0.8,3-1.8c0.7-1.1,1.1-2.4,1.1-3.9
		c0-3.7-1.6-5.4-4.8-5c-0.9,0.1-1.9,0.6-3.2,1.4c-1.2,0.8-2.4,1.3-3.5,1.4C6.7,30,5.5,29.7,4.4,29c-1-0.8-1.6-1.7-1.7-2.7
		c0-0.4-0.1-1.1-0.1-2.2L2.6,11.5c0-2.5,0.3-4.4,1.1-5.5c0.8-1.1,2.1-1.8,4-2.1l14.2-1.8c1.7-0.2,3.1,0.1,4.3,0.9
		c1.2,0.8,1.9,2,2.1,3.5c0,0.4,0.1,0.7,0.1,1.1c0,1.9-0.7,3.3-2,4.3c-0.9,0.6-1.8,1-2.9,1.2l-9.8,1.2v3c1.5-0.4,3-0.7,4.4-0.7
		c3.5,0,6.6,1.2,9.1,3.5c2.5,2.4,4,5.3,4.4,8.9c0.2,1.1,0.2,2.1,0.2,3.1c0,4.6-1.3,8.3-3.8,11.2C25.4,46.5,21.6,48.3,16.7,48.9z"/>
	<path class="st0" d="M66.3,48.7c-4.9,0.3-9.1-1.3-12.4-4.7c-3.2-3.3-5-7.4-5.3-12.2c-0.2-4.8,1.1-9,4-12.7c3-3.8,7-5.9,11.8-6.2
		c2.6-0.1,5.1,0.3,7.5,1.2c3,1.2,4.6,2.9,4.7,5c0.1,1.3-0.2,2.5-0.9,3.6c-0.9,1.4-2,2.1-3.5,2.2c-0.8,0-1.9-0.2-3.4-0.7
		s-2.6-0.7-3.4-0.7c-1.8,0.1-3.1,0.8-4.1,2.2s-1.4,3.2-1.2,5.3c0.1,1.9,0.7,3.6,1.9,4.9c1.1,1.3,2.5,2,4.2,1.8c0.7,0,1.8-0.4,3.2-1
		s2.4-1,3.1-1c1.4-0.1,2.6,0.4,3.7,1.3c1.1,1,1.6,2.2,1.7,3.6c0.1,2.3-1.3,4.2-4.3,5.8C71.1,47.9,68.7,48.6,66.3,48.7z"/>
	<path class="st0" d="M103.6,48.1c-2.1,0-3.6-0.8-4.6-2.5c-2.2,1.9-4.7,2.8-7.6,2.8c-4.5,0-8.2-1.7-11.1-5.1
		c-2.9-3.4-4.4-7.7-4.4-12.7c0-5,1.5-9.3,4.5-12.7c3-3.5,6.7-5.2,11.1-5.2c3,0,5.5,0.9,7.6,2.7c1.1-1.5,2.6-2.3,4.6-2.3
		c2.3,0,3.9,0.8,4.8,2.4c0.5,1,0.8,2.6,0.8,4.6v21.1c0,2.1-0.3,3.6-0.8,4.6C107.5,47.3,105.9,48.1,103.6,48.1z M98.9,13l-7.1,1.1
		c-1.2,0.2-2.2,0.2-3,0c-2.2-0.5-3.4-2.3-3.4-5.3c0-2.4,1.1-3.9,3.4-4.4l0.5-0.2L96.9,3c1.2-0.2,2.2-0.2,2.9-0.1
		c1.1,0.3,2,0.9,2.7,2c0.6,0.9,0.8,1.9,0.8,3c0,1.3-0.4,2.5-1.2,3.4C101.2,12.2,100.2,12.8,98.9,13z M92.6,23.4
		c-1.6,0-2.9,0.7-3.8,2.1c-0.9,1.4-1.4,3.1-1.4,5.1c0,2,0.5,3.6,1.4,5c0.9,1.4,2.2,2.1,3.8,2.1c1.5,0,2.8-0.7,3.7-2.1
		c0.9-1.4,1.4-3.1,1.4-5c0-2-0.5-3.8-1.4-5.1C95.4,24.1,94.1,23.4,92.6,23.4z"/>
	<path class="st0" d="M158.2,43.9c-0.4,0.1-0.9,0.2-1.4,0.2c-1.3,0-2.5-0.5-3.5-1.4c-1-0.9-1.7-2.1-2.1-3.6l-3.3-14.4
		c-0.6-2.4-1.7-3.6-3.5-3.6c-1.1,0-1.9,0.3-2.5,1c-0.6,0.7-0.9,1.6-0.9,2.6c0,0.5,0.1,1,0.2,1.5l3.3,14.4c0.2,0.6,0.2,1.2,0.2,1.7
		c0,1.4-0.4,2.6-1.2,3.6c-0.8,1-1.9,1.7-3.3,2c-0.4,0.1-0.9,0.2-1.4,0.2c-1.3,0-2.5-0.5-3.5-1.4c-1-0.9-1.7-2.1-2.1-3.5l-3.3-14.5
		c-0.6-2.4-1.7-3.5-3.5-3.5c-2.4,0-3.5,1.1-3.5,3.4c0,0.5,0.1,1.1,0.2,1.7l3.3,14.5c0.2,0.6,0.2,1.1,0.2,1.7c0,1.4-0.4,2.6-1.2,3.6
		c-0.8,1-1.9,1.7-3.2,2c-0.5,0.1-0.9,0.1-1.4,0.1c-1.3,0-2.5-0.4-3.5-1.3c-1-0.9-1.7-2.1-2.1-3.6l-5.1-22.1
		c-0.1-0.6-0.2-1.1-0.2-1.7c0-1.4,0.4-2.6,1.2-3.7c0.8-1,1.8-1.7,3.2-2c0.5-0.1,1-0.2,1.5-0.2c1.3,0,2.5,0.4,3.4,1.2
		c2.4-3,5.6-4.4,9.5-4.4c2.3,0,4.5,0.6,6.5,1.9c2.1-3,4.8-4.8,7.9-5.6c1.3-0.3,2.5-0.4,3.7-0.4c3,0,5.5,0.9,7.6,2.6
		c2.1,1.7,3.6,4.2,4.3,7.5l3.7,15.9c0.2,0.6,0.2,1.1,0.2,1.7c0,1.4-0.4,2.6-1.2,3.7C160.7,42.9,159.6,43.6,158.2,43.9z"/>
	<path class="st0" d="M192.1,45.6c-0.5,0.1-1,0.2-1.5,0.2c-1.3,0-2.5-0.5-3.5-1.5c-1.7,2.3-3.9,3.8-6.7,4.4
		c-1.1,0.3-2.3,0.4-3.4,0.4c-3.7,0-7-1.3-9.9-3.9s-4.9-6.1-5.9-10.4c-0.4-1.6-0.5-3.2-0.5-4.7c0-4,1.1-7.5,3.2-10.5
		c2.1-3,4.9-4.9,8.5-5.8c1-0.2,2-0.4,2.9-0.4c1.9,0,3.6,0.4,5.1,1.2c0.7-1.7,2-2.8,3.9-3.3c0.6-0.1,1.2-0.2,1.8-0.2
		c2.6,0,4.4,1.9,5.3,5.8l4.7,20.5c0.3,1.3,0.4,2.3,0.4,3.1C196.4,43.3,195,44.9,192.1,45.6z M172.1,29.8c0,0.8,0.1,1.6,0.2,2.4
		c0.4,1.7,1.1,3.1,2.1,4.2c1,1.1,2.2,1.7,3.5,1.7c1.5,0,2.7-0.6,3.5-1.8c0.8-1.1,1.2-2.4,1.2-4c0-0.7-0.1-1.5-0.3-2.4
		c-0.4-1.7-1.1-3.2-2.1-4.3c-1-1.1-2.2-1.7-3.5-1.7c-1.5,0-2.7,0.6-3.5,1.7C172.5,26.8,172.1,28.2,172.1,29.8z"/>
	<path class="st0" d="M208.2,15.7c1.3-1.4,3.1-2,5.5-1.8c1.5,0.1,2.7,0.7,3.7,1.8c1.1,1.2,1.5,2.8,1.4,4.6c-0.1,1.7-1.1,3-2.9,3.9
		c-1.7,0.6-3.4,1.2-5.1,1.8c-1.8,0.8-2.8,1.9-2.9,3.4l-0.9,13c-0.2,1.8-0.8,3.2-2,4.3c-1.1,1.1-2.6,1.6-4.3,1.5c-1.7-0.1-3-0.8-4-2
		c-1-1.2-1.4-2.8-1.3-4.5l1.6-23.1c0.2-1.8,0.9-3.2,2.2-4.2c1.2-0.9,2.5-1.2,4-1.1C205.8,13.3,207.4,14.1,208.2,15.7z"/>
	<path class="st0" d="M247.4,45.6c-0.5,0.1-1,0.2-1.5,0.2c-1.3,0-2.5-0.5-3.5-1.5c-1.7,2.3-3.9,3.8-6.7,4.4
		c-1.1,0.3-2.3,0.4-3.4,0.4c-3.7,0-7-1.3-9.9-3.9s-4.9-6.1-5.9-10.4c-0.4-1.6-0.5-3.2-0.5-4.7c0-4,1.1-7.5,3.2-10.5
		c2.1-3,4.9-4.9,8.5-5.8c1-0.2,2-0.4,2.9-0.4c1.9,0,3.6,0.4,5.1,1.2c0.7-1.7,2-2.8,3.9-3.3c0.6-0.1,1.2-0.2,1.8-0.2
		c2.6,0,4.4,1.9,5.3,5.8l4.7,20.5c0.3,1.3,0.4,2.3,0.4,3.1C251.6,43.3,250.2,44.9,247.4,45.6z M227.3,29.8c0,0.8,0.1,1.6,0.2,2.4
		c0.4,1.7,1.1,3.1,2.1,4.2c1,1.1,2.2,1.7,3.5,1.7c1.5,0,2.7-0.6,3.5-1.8c0.8-1.1,1.2-2.4,1.2-4c0-0.7-0.1-1.5-0.3-2.4
		c-0.4-1.7-1.1-3.2-2.1-4.3c-1-1.1-2.2-1.7-3.5-1.7c-1.5,0-2.7,0.6-3.5,1.7C227.7,26.8,227.3,28.2,227.3,29.8z"/>
	<path class="st0" d="M283.3,24.6l-1.2-0.1l-1.3,18.1c-0.1,1.8-0.7,3.2-1.9,4.3c-1.1,1.1-2.6,1.6-4.3,1.5c-1.7-0.1-3-0.8-4-2
		c-1-1.2-1.4-2.8-1.3-4.5l1.2-18.2h-0.4c-1.5-0.1-2.8-0.7-3.6-1.7s-1.3-2.3-1.2-3.9c0.1-1.5,0.7-2.7,1.7-3.6
		c1.1-0.9,2.3-1.4,3.8-1.3l0.4,0.1l0.2-2.9c0.2-3.4,1.4-6.1,3.4-8c2-1.9,4.6-2.7,7.7-2.5c4.9,0.3,7.2,2.2,7,5.8
		c-0.2,3.4-2,5-5.3,4.7c-0.9,0-1.4,0.5-1.5,1.5l-0.1,2l1.2,0.1c3.9,0.3,5.7,2.1,5.4,5.6c-0.2,1.8-0.8,3-2,3.8
		C286.3,24.4,284.9,24.7,283.3,24.6z"/>
	<path class="st0" d="M304.1,48.9c-4.9,0.2-9.1-1.3-12.4-4.7c-3.2-3.3-5-7.4-5.3-12.2c-0.2-4.8,1.1-9,4-12.7c3-3.8,7-5.9,11.8-6.2
		c4.8-0.2,9,1.4,12.4,4.9c3.3,3.3,5,7.4,5.3,12.2c0.2,4.9-1.1,9.2-3.9,12.7C313,46.6,309,48.6,304.1,48.9z M302.8,23.8
		c-1.6,0.1-2.9,0.8-3.8,2.3c-0.9,1.4-1.3,3.2-1.2,5.2c0.1,2,0.7,3.6,1.7,4.9c1,1.3,2.3,1.9,3.9,1.9c1.6-0.1,2.9-0.8,3.8-2.2
		c0.9-1.4,1.3-3.1,1.2-5.1c-0.1-2-0.7-3.7-1.7-5C305.7,24.4,304.4,23.7,302.8,23.8z"/>
	<path class="st0" d="M334.7,25.6l-0.9-0.2l-4.1,17.7c-0.4,1.5-1,2.7-2.1,3.6c-1,0.9-2.2,1.3-3.6,1.3c-0.4,0-0.9,0-1.4-0.1
		c-1.3-0.3-2.4-1-3.2-2c-0.8-1-1.2-2.3-1.2-3.6c0-0.6,0.1-1.1,0.2-1.7l4.1-17.7l-0.4-0.1c-2.7-0.6-4.1-2.2-4.1-4.8
		c0-0.5,0.1-0.9,0.2-1.4c0.3-1.2,0.9-2.2,1.8-2.9c0.9-0.7,2-1.1,3.2-1.1c0.4,0,0.8,0,1.2,0.1l0.4,0.1l0.8-3.5c0.4-1.5,1-2.6,2-3.5
		c1-0.9,2.2-1.4,3.6-1.4c0.4,0,0.9,0.1,1.4,0.2c1.4,0.3,2.5,1,3.2,2c0.8,1,1.2,2.2,1.2,3.7c0,0.6-0.1,1.1-0.2,1.7l-0.8,3.5l0.9,0.2
		c2.9,0.7,4.4,2.3,4.4,4.9c0,0.4,0,0.9-0.1,1.4c-0.6,2.7-2.3,4-5,4C335.8,25.8,335.3,25.8,334.7,25.6z"/>
	<path class="st0" d="M356.2,48.9c-4.9,0.2-9.1-1.3-12.4-4.7c-3.2-3.3-5-7.4-5.3-12.2c-0.2-4.8,1.1-9,4-12.7c3-3.8,7-5.9,11.8-6.2
		c4.8-0.2,9,1.4,12.4,4.9c3.3,3.3,5,7.4,5.3,12.2c0.2,4.9-1.1,9.2-3.9,12.7C365.1,46.6,361.2,48.6,356.2,48.9z M354.9,23.8
		c-1.6,0.1-2.9,0.8-3.8,2.3c-0.9,1.4-1.3,3.2-1.2,5.2c0.1,2,0.7,3.6,1.7,4.9c1,1.3,2.3,1.9,3.9,1.9c1.6-0.1,2.9-0.8,3.8-2.2
		c0.9-1.4,1.3-3.1,1.2-5.1c-0.1-2-0.7-3.7-1.7-5C357.9,24.4,356.6,23.7,354.9,23.8z"/>
	<path class="st0" d="M396.2,45.6c-1.4,1.7-3.5,2.8-6.4,3.5c-1.2,0.2-2.3,0.4-3.4,0.4c-4.6,0-8.4-2.1-11.4-6.4
		c-2.7-3.8-4-8.1-4-12.8c0-3.9,1-7.3,2.9-10.2c2.1-3.2,5-5.2,8.7-6c0.9-0.2,1.8-0.3,2.7-0.3c1.9,0,3.6,0.4,5.1,1.2
		c0.7-1.7,2-2.8,4-3.3c0.5-0.1,0.9-0.2,1.4-0.2c1.4,0,2.6,0.5,3.6,1.4c1,0.9,1.7,2.1,2,3.5l5.6,24c0.4,1.6,0.6,3.2,0.6,4.7
		c0,4-1.3,7.4-3.8,10.1c-2.5,2.7-6,4.6-10.4,5.6c-1.3,0.3-2.9,0.5-4.8,0.5c-2.7,0-5.1-0.3-7.1-1c-3-0.9-4.5-2.5-4.5-4.7
		c0-1.1,0.3-2.2,1-3.3c0.7-1.1,1.6-1.7,2.6-2c0.5-0.1,1.1-0.2,1.7-0.2c0.6,0,1.7,0.1,3.2,0.3c1.5,0.2,2.7,0.3,3.5,0.3
		c0.9,0,1.8-0.1,2.7-0.3C394.7,49.8,396.2,48.1,396.2,45.6z M382.4,30c0,0.7,0.1,1.5,0.3,2.2c0.9,4,2.8,6,5.6,6
		c1.5,0,2.8-0.6,3.7-1.8c0.8-1,1.2-2.3,1.2-4c0-0.7-0.1-1.5-0.3-2.3c-0.4-1.8-1.1-3.3-2.1-4.4c-1-1.1-2.2-1.7-3.5-1.7
		c-1.5,0-2.7,0.6-3.5,1.9C382.8,27,382.4,28.4,382.4,30z"/>
	<path class="st0" d="M418.9,15.7c1.3-1.4,3.1-2,5.5-1.8c1.5,0.1,2.7,0.7,3.7,1.8c1.1,1.2,1.5,2.8,1.4,4.6c-0.1,1.7-1.1,3-2.9,3.9
		c-1.7,0.6-3.4,1.2-5.1,1.8c-1.8,0.8-2.8,1.9-2.9,3.4l-0.9,13c-0.2,1.8-0.8,3.2-2,4.3c-1.1,1.1-2.6,1.6-4.3,1.5c-1.7-0.1-3-0.8-4-2
		c-1-1.2-1.4-2.8-1.3-4.5l1.6-23.1c0.2-1.8,0.9-3.2,2.2-4.2c1.2-0.9,2.5-1.2,4-1.1C416.5,13.3,418,14.1,418.9,15.7z"/>
	<path class="st0" d="M454.8,48.1c-2.1,0-3.6-0.8-4.6-2.5c-2.2,1.9-4.7,2.8-7.6,2.8c-4.5,0-8.2-1.7-11.1-5.1
		c-2.9-3.4-4.4-7.7-4.4-12.7c0-5,1.5-9.3,4.5-12.7c3-3.5,6.7-5.2,11.1-5.2c3,0,5.5,0.9,7.6,2.7c1.1-1.5,2.6-2.3,4.6-2.3
		c2.3,0,3.9,0.8,4.8,2.4c0.5,1,0.8,2.6,0.8,4.6v21.1c0,2.1-0.3,3.6-0.8,4.6C458.8,47.3,457.2,48.1,454.8,48.1z M450.1,13l-7.1,1.1
		c-1.2,0.2-2.2,0.2-3,0c-2.2-0.5-3.4-2.3-3.4-5.3c0-2.4,1.1-3.9,3.4-4.4l0.5-0.2l7.5-1.2c1.2-0.2,2.2-0.2,2.9-0.1
		c1.1,0.3,2,0.9,2.7,2c0.6,0.9,0.8,1.9,0.8,3c0,1.3-0.4,2.5-1.2,3.4C452.5,12.2,451.4,12.8,450.1,13z M443.8,23.4
		c-1.6,0-2.9,0.7-3.8,2.1c-0.9,1.4-1.4,3.1-1.4,5.1c0,2,0.5,3.6,1.4,5c0.9,1.4,2.2,2.1,3.8,2.1c1.5,0,2.8-0.7,3.7-2.1
		c0.9-1.4,1.4-3.1,1.4-5c0-2-0.5-3.8-1.4-5.1C446.6,24.1,445.4,23.4,443.8,23.4z"/>
	<path class="st0" d="M477.8,24.6l-1.2-0.1l-1.3,18.1c-0.1,1.8-0.7,3.2-1.9,4.3c-1.1,1.1-2.6,1.6-4.3,1.5c-1.7-0.1-3-0.8-4-2
		c-1-1.2-1.4-2.8-1.3-4.5l1.2-18.2h-0.4c-1.5-0.1-2.8-0.7-3.6-1.7s-1.3-2.3-1.2-3.9c0.1-1.5,0.7-2.7,1.7-3.6
		c1.1-0.9,2.3-1.4,3.8-1.3l0.4,0.1l0.2-2.9c0.2-3.4,1.4-6.1,3.4-8c2-1.9,4.6-2.7,7.7-2.5c4.9,0.3,7.2,2.2,7,5.8
		c-0.2,3.4-2,5-5.3,4.7c-0.9,0-1.4,0.5-1.5,1.5l-0.1,2l1.2,0.1c3.9,0.3,5.7,2.1,5.4,5.6c-0.2,1.8-0.8,3-2,3.8
		C480.8,24.4,479.5,24.7,477.8,24.6z"/>
	<path class="st0" d="M490.1,13.2c-1.7,0.1-3.2-0.4-4.5-1.7c-1.3-1.2-2-2.7-2.1-4.4c-0.1-1.6,0.5-3.1,1.7-4.4c1.2-1.3,2.6-2,4.3-2.1
		c1.7-0.1,3.1,0.4,4.5,1.6c1.3,1.2,2,2.6,2.1,4.2c0.1,1.7-0.5,3.3-1.6,4.6C493.3,12.4,491.9,13.1,490.1,13.2z M492,48.5
		c-1.7,0.1-3.1-0.4-4.2-1.5s-1.7-2.6-1.8-4.3l-1.2-22.7c-0.1-1.8,0.3-3.3,1.3-4.5c1-1.2,2.4-1.9,4.1-2c1.7-0.1,3.1,0.4,4.2,1.6
		c1.1,1.1,1.7,2.6,1.8,4.3l1.2,22.7c0.1,1.8-0.4,3.3-1.4,4.5S493.7,48.4,492,48.5z"/>
	<path class="st0" d="M515.4,48.7c-4.9,0.3-9.1-1.3-12.4-4.7c-3.2-3.3-5-7.4-5.3-12.2c-0.2-4.8,1.1-9,4-12.7c3-3.8,7-5.9,11.8-6.2
		c2.6-0.1,5.1,0.3,7.5,1.2c3,1.2,4.6,2.9,4.7,5c0.1,1.3-0.2,2.5-0.9,3.6c-0.9,1.4-2,2.1-3.5,2.2c-0.8,0-1.9-0.2-3.4-0.7
		s-2.6-0.7-3.4-0.7c-1.8,0.1-3.1,0.8-4.1,2.2s-1.4,3.2-1.2,5.3c0.1,1.9,0.7,3.6,1.9,4.9c1.1,1.3,2.5,2,4.2,1.8c0.7,0,1.8-0.4,3.2-1
		s2.4-1,3.1-1c1.4-0.1,2.6,0.4,3.7,1.3c1.1,1,1.6,2.2,1.7,3.6c0.1,2.3-1.3,4.2-4.3,5.8C520.2,47.9,517.8,48.6,515.4,48.7z"/>
	<path class="st0" d="M555.4,45.6c-0.5,0.1-1,0.2-1.5,0.2c-1.3,0-2.5-0.5-3.5-1.5c-1.7,2.3-3.9,3.8-6.7,4.4
		c-1.1,0.3-2.3,0.4-3.4,0.4c-3.7,0-7-1.3-9.9-3.9s-4.9-6.1-5.9-10.4c-0.4-1.6-0.5-3.2-0.5-4.7c0-4,1.1-7.5,3.2-10.5
		c2.1-3,4.9-4.9,8.5-5.8c1-0.2,2-0.4,2.9-0.4c1.9,0,3.6,0.4,5.1,1.2c0.7-1.7,2-2.8,3.9-3.3c0.6-0.1,1.2-0.2,1.8-0.2
		c2.6,0,4.4,1.9,5.3,5.8l4.7,20.5c0.3,1.3,0.4,2.3,0.4,3.1C559.7,43.3,558.3,44.9,555.4,45.6z M535.4,29.8c0,0.8,0.1,1.6,0.2,2.4
		c0.4,1.7,1.1,3.1,2.1,4.2c1,1.1,2.2,1.7,3.5,1.7c1.5,0,2.7-0.6,3.5-1.8c0.8-1.1,1.2-2.4,1.2-4c0-0.7-0.1-1.5-0.3-2.4
		c-0.4-1.7-1.1-3.2-2.1-4.3c-1-1.1-2.2-1.7-3.5-1.7c-1.5,0-2.7,0.6-3.5,1.7C535.8,26.8,535.4,28.2,535.4,29.8z"/>
	<path class="st0" d="M575.4,48.5c-1.2,0.3-2.6,0.4-4.1,0.4c-2.5,0-4.8-0.4-6.7-1.2c-2.7-1.1-4-2.7-4-4.9c0-1.1,0.3-2.2,0.9-3.2
		c0.7-1.2,1.7-1.9,3-2.2c0.5-0.1,1-0.2,1.5-0.2c0.8,0,1.9,0.2,3.2,0.6c1.4,0.4,2.4,0.6,3.2,0.6c0.4,0,0.9-0.1,1.3-0.2
		c1.3-0.3,1.8-0.7,1.7-1.4c-0.1-0.3-1.5-0.7-4.1-1c-3.4-0.4-5.9-1-7.7-1.9c-3-1.4-4.8-3.5-5.4-6.5c-0.2-0.9-0.4-1.8-0.4-2.7
		c0-3.5,1.5-6.4,4.6-8.7c2.8-2,6-3.1,9.6-3.1c2.5,0,4.6,0.4,6.4,1.3c2.4,1.1,3.5,2.8,3.5,5c0,1.4-0.5,2.6-1.4,3.6
		c-0.9,1-2,1.5-3.3,1.5c-0.6,0-1.6-0.1-3-0.4c-1.4-0.3-2.4-0.4-3.1-0.4c-0.9,0-1.6,0.2-2,0.5c-0.3,0.2-0.4,0.5-0.3,0.8
		c0.1,0.4,1.5,0.7,4.2,1c3.4,0.4,5.9,1.1,7.7,1.9c3,1.4,4.8,3.6,5.4,6.5c0.2,0.8,0.3,1.7,0.3,2.5c0,2.8-1,5.3-3,7.4
		C581.4,46.2,578.8,47.7,575.4,48.5z"/>
	<path class="st1" d="M3.9,114.1c0-0.4,0-0.8,0.1-1.2L8.4,85l-2-0.4c-3.1-0.5-4.7-2.2-4.7-5.3c0-1.6,0.5-2.9,1.5-4.1
		c1-1.1,2.3-1.7,3.9-1.7c0.3,0,0.6,0,0.9,0.1l8.3,1.3c1.5,0.2,2.6,0.9,3.4,1.9c0.8,1,1.2,2.2,1.2,3.5c0,0.4,0,0.7-0.1,1.1l-5.3,33.2
		c-0.3,1.6-0.9,2.9-2,3.8c-1,0.9-2.3,1.4-3.8,1.4c-1.7,0-3.1-0.5-4.3-1.6C4.5,117.2,3.9,115.8,3.9,114.1z"/>
	<path class="st1" d="M54.3,119.7c-4.9,0.3-9.1-1.3-12.4-4.7c-3.2-3.3-5-7.4-5.3-12.2c-0.2-4.8,1.1-9,4-12.7c3-3.8,7-5.9,11.8-6.2
		c2.6-0.1,5.1,0.3,7.5,1.2c3,1.2,4.6,2.9,4.7,5c0.1,1.3-0.2,2.5-0.9,3.6c-0.9,1.4-2,2.1-3.5,2.2c-0.8,0-1.9-0.2-3.4-0.7
		s-2.6-0.7-3.4-0.7c-1.8,0.1-3.1,0.8-4.1,2.2s-1.4,3.2-1.2,5.3c0.1,1.9,0.7,3.6,1.9,4.9c1.1,1.3,2.5,2,4.2,1.8c0.7,0,1.8-0.4,3.2-1
		s2.4-1,3.1-1c1.4-0.1,2.6,0.4,3.7,1.3c1.1,1,1.6,2.2,1.7,3.6c0.1,2.3-1.3,4.2-4.3,5.8C59.1,118.9,56.7,119.6,54.3,119.7z"/>
	<path class="st1" d="M82.1,84.8c1.8-0.6,4-0.6,6.6,0c3.1,0.7,5.6,2.1,7.5,4.3c1.9,2.2,2.8,4.8,2.8,7.8c0,1.1-0.1,2.2-0.4,3.4
		l-3.7,15.9c-0.4,1.5-1,2.7-2.1,3.6c-1,0.9-2.2,1.3-3.5,1.3c-0.4,0-0.9,0-1.4-0.1c-1.4-0.3-2.5-1-3.2-2c-0.8-1-1.2-2.3-1.2-3.6
		c0-0.6,0.1-1.1,0.2-1.7L87,99.3c0.1-0.5,0.2-1,0.2-1.4c0-1.2-0.4-2.1-1.2-2.8c-0.8-0.7-1.8-1.1-3-1.1c-2,0-3.2,1.2-3.8,3.5
		l-3.4,14.5c-0.3,1.5-1,2.6-2,3.5c-1,0.9-2.2,1.4-3.6,1.4c-0.4,0-0.9-0.1-1.4-0.2c-1.3-0.3-2.4-1-3.2-2c-0.8-1-1.2-2.2-1.2-3.6
		c0-0.6,0.1-1.1,0.2-1.7l8.2-35.5c0.4-1.5,1-2.7,2.1-3.6c1-0.9,2.2-1.3,3.5-1.3c0.4,0,0.9,0,1.4,0.1c1.4,0.3,2.5,1,3.2,2
		c0.8,1,1.2,2.3,1.2,3.6c0,0.6-0.1,1.1-0.2,1.7L82.1,84.8z"/>
	<path class="st1" d="M127.5,102.2l-15.3,5.3c1,1,2.3,1.5,4,1.5c0.9,0,1.9-0.2,2.8-0.5c1.3-0.5,2.8-1.6,4.4-3.3
		c1.6-1.7,2.8-2.8,3.6-3.1c0.5-0.2,0.9-0.2,1.4-0.2c1.4,0,2.6,0.5,3.6,1.5c1,1,1.6,2.1,1.6,3.5c0,2.2-1.3,4.5-4,6.9
		c-2.4,2.2-5,3.9-7.9,4.8c-2.1,0.7-4.1,1.1-6.2,1.1c-3.7,0-6.9-1.1-9.8-3.3c-2.9-2.2-5-5.2-6.3-9c-0.7-2-1.1-4.1-1.1-6.3
		c0-3.6,0.9-6.9,2.8-9.8c2-3.1,4.8-5.2,8.2-6.4c1.7-0.6,3.5-0.9,5.3-0.9c3.6,0,7,1.2,10.1,3.5c3,2.2,5,4.8,6,8
		c0.3,0.8,0.4,1.5,0.4,2.2C131.1,100,129.9,101.4,127.5,102.2z M112.6,94.5c-2.3,0.8-3.5,2.4-3.5,5l9.3-3.2c-1.1-1.4-2.4-2.1-4-2.1
		C113.8,94.2,113.2,94.3,112.6,94.5z"/>
	<path class="st1" d="M147.1,95.6l-1.2-0.1l-1.3,18.1c-0.1,1.8-0.7,3.2-1.9,4.3c-1.1,1.1-2.6,1.6-4.3,1.5c-1.7-0.1-3-0.8-4-2
		c-1-1.2-1.4-2.8-1.3-4.5l1.2-18.2H134c-1.5-0.1-2.8-0.7-3.6-1.7s-1.3-2.3-1.2-3.9c0.1-1.5,0.7-2.7,1.7-3.6c1.1-0.9,2.3-1.4,3.8-1.3
		l0.4,0.1l0.2-2.9c0.2-3.4,1.4-6.1,3.4-8c2-1.9,4.6-2.7,7.7-2.5c4.9,0.3,7.2,2.2,7,5.8c-0.2,3.4-2,5-5.3,4.7c-0.9,0-1.4,0.5-1.5,1.5
		l-0.1,2l1.2,0.1c3.9,0.3,5.7,2.1,5.4,5.6c-0.2,1.8-0.8,3-2,3.8C150.1,95.3,148.7,95.7,147.1,95.6z"/>
	<path class="st1" d="M217.5,114.9c-0.4,0.1-0.9,0.2-1.4,0.2c-1.3,0-2.5-0.5-3.5-1.4c-1-0.9-1.7-2.1-2.1-3.6l-3.3-14.4
		c-0.6-2.4-1.7-3.6-3.5-3.6c-1.1,0-1.9,0.3-2.5,1c-0.6,0.7-0.9,1.6-0.9,2.6c0,0.5,0.1,1,0.2,1.5l3.3,14.4c0.2,0.6,0.2,1.2,0.2,1.7
		c0,1.4-0.4,2.6-1.2,3.6c-0.8,1-1.9,1.7-3.3,2c-0.4,0.1-0.9,0.2-1.4,0.2c-1.3,0-2.5-0.5-3.5-1.4c-1-0.9-1.7-2.1-2.1-3.5l-3.3-14.5
		c-0.6-2.4-1.7-3.5-3.5-3.5c-2.4,0-3.5,1.1-3.5,3.4c0,0.5,0.1,1.1,0.2,1.7l3.3,14.5c0.2,0.6,0.2,1.1,0.2,1.7c0,1.4-0.4,2.6-1.2,3.6
		c-0.8,1-1.9,1.7-3.2,2c-0.5,0.1-0.9,0.1-1.4,0.1c-1.3,0-2.5-0.4-3.5-1.3c-1-0.9-1.7-2.1-2.1-3.6l-5.1-22.1
		c-0.1-0.6-0.2-1.1-0.2-1.7c0-1.4,0.4-2.6,1.2-3.7c0.8-1,1.8-1.7,3.2-2c0.5-0.1,1-0.2,1.5-0.2c1.3,0,2.5,0.4,3.4,1.2
		c2.4-3,5.6-4.4,9.5-4.4c2.3,0,4.5,0.6,6.5,1.9c2.1-3,4.8-4.8,7.9-5.6c1.3-0.3,2.5-0.4,3.7-0.4c3,0,5.5,0.9,7.6,2.6
		c2.1,1.7,3.6,4.2,4.3,7.5l3.7,15.9c0.2,0.6,0.2,1.1,0.2,1.7c0,1.4-0.4,2.6-1.2,3.7C220,113.9,218.9,114.6,217.5,114.9z"/>
	<path class="st1" d="M238,119.9c-4.9,0.2-9.1-1.3-12.4-4.7c-3.2-3.3-5-7.4-5.3-12.2c-0.2-4.8,1.1-9,4-12.7c3-3.8,7-5.9,11.8-6.2
		c4.8-0.2,9,1.4,12.4,4.9c3.3,3.3,5,7.4,5.3,12.2c0.2,4.9-1.1,9.2-3.9,12.7C246.9,117.6,242.9,119.6,238,119.9z M236.7,94.8
		c-1.6,0.1-2.9,0.8-3.8,2.3c-0.9,1.4-1.3,3.2-1.2,5.2c0.1,2,0.7,3.6,1.7,4.9c1,1.3,2.3,1.9,3.9,1.9c1.6-0.1,2.9-0.8,3.8-2.2
		c0.9-1.4,1.3-3.1,1.2-5.1c-0.1-2-0.7-3.7-1.7-5C239.6,95.3,238.3,94.7,236.7,94.8z"/>
	<path class="st1" d="M265.6,86.6c1.3-1.4,3.1-2,5.5-1.8c1.5,0.1,2.7,0.7,3.7,1.8c1.1,1.2,1.5,2.8,1.4,4.6c-0.1,1.7-1.1,3-2.9,3.9
		c-1.7,0.6-3.4,1.2-5.1,1.8c-1.8,0.8-2.8,1.9-2.9,3.4l-0.9,13c-0.2,1.8-0.8,3.2-2,4.3c-1.1,1.1-2.6,1.6-4.3,1.5c-1.7-0.1-3-0.8-4-2
		c-1-1.2-1.4-2.8-1.3-4.5l1.6-23.1c0.2-1.8,0.9-3.2,2.2-4.2c1.2-0.9,2.5-1.2,4-1.1C263.2,84.2,264.8,85.1,265.6,86.6z"/>
	<path class="st1" d="M304.8,116.6c-0.5,0.1-1,0.2-1.5,0.2c-1.3,0-2.5-0.5-3.5-1.5c-1.7,2.3-3.9,3.8-6.7,4.4
		c-1.1,0.3-2.3,0.4-3.4,0.4c-3.7,0-7-1.3-9.9-3.9s-4.9-6.1-5.9-10.4c-0.4-1.6-0.5-3.2-0.5-4.7c0-4,1.1-7.5,3.2-10.5
		c2.1-3,4.9-4.9,8.5-5.8c1-0.2,2-0.4,2.9-0.4c1.9,0,3.6,0.4,5.1,1.2c0.7-1.7,2-2.8,3.9-3.3c0.6-0.1,1.2-0.2,1.8-0.2
		c2.6,0,4.4,1.9,5.3,5.8l4.7,20.5c0.3,1.3,0.4,2.3,0.4,3.1C309,114.3,307.6,115.9,304.8,116.6z M284.7,100.8c0,0.8,0.1,1.6,0.2,2.4
		c0.4,1.7,1.1,3.1,2.1,4.2c1,1.1,2.2,1.7,3.5,1.7c1.5,0,2.7-0.6,3.5-1.8c0.8-1.1,1.2-2.4,1.2-4c0-0.7-0.1-1.5-0.3-2.4
		c-0.4-1.7-1.1-3.2-2.1-4.3c-1-1.1-2.2-1.7-3.5-1.7c-1.5,0-2.7,0.6-3.5,1.7C285.1,97.8,284.7,99.1,284.7,100.8z"/>
	<path class="st1" d="M333.4,120.4c-2.1-0.2-3.6-1.1-4.5-2.7c-2.2,1.6-4.7,2.2-7.6,2c-4.3-0.4-7.7-2.3-10.3-5.9
		c-2.4-3.2-3.7-7-3.7-11.3c0-4.8,1.3-9,4-12.6c3-4,6.8-6,11.4-6c2.9,0,5.5,0.7,7.9,2.2l0.8-8.8c0.2-1.8,0.8-3.2,2-4.3
		c1.2-1.1,2.6-1.5,4.3-1.4c1.7,0.1,3,0.8,3.9,2.1c1,1.3,1.4,2.8,1.2,4.6l-3.2,36.3c-0.2,1.8-0.8,3.2-2,4.3
		C336.5,120,335.1,120.5,333.4,120.4z M324.7,94.8c-1.5-0.1-2.8,0.5-3.9,1.8c-1.1,1.3-1.7,3-1.9,4.9c-0.2,1.9,0.2,3.6,1,5
		c0.8,1.5,2,2.4,3.5,2.5c1.6,0.2,2.9-0.4,4-1.8c1.1-1.3,1.7-3.1,1.8-5.1c0.2-2-0.1-3.6-0.9-5C327.4,95.7,326.2,94.9,324.7,94.8z"/>
	<path class="st1" d="M359.7,119.9c-4.9,0.2-9.1-1.3-12.4-4.7c-3.2-3.3-5-7.4-5.3-12.2c-0.2-4.8,1.1-9,4-12.7c3-3.8,7-5.9,11.8-6.2
		c4.8-0.2,9,1.4,12.4,4.9c3.3,3.3,5,7.4,5.3,12.2c0.2,4.9-1.1,9.2-3.9,12.7C368.6,117.6,364.6,119.6,359.7,119.9z M358.4,94.8
		c-1.6,0.1-2.9,0.8-3.8,2.3c-0.9,1.4-1.3,3.2-1.2,5.2c0.1,2,0.7,3.6,1.7,4.9c1,1.3,2.3,1.9,3.9,1.9c1.6-0.1,2.9-0.8,3.8-2.2
		c0.9-1.4,1.3-3.1,1.2-5.1c-0.1-2-0.7-3.7-1.7-5C361.3,95.3,360,94.7,358.4,94.8z"/>
	<path class="st0" d="M17,159.7l0.2-0.1c0.7-0.1,1.5-0.2,2.2-0.2c3.9,0,7.3,1.6,10.1,4.7c2.6,3,4,6.4,4,10.4c0,3.9-1.2,7.3-3.7,10.3
		c-2.6,3.1-5.9,5-10.1,5.7c-1,0.2-2,0.2-2.9,0.2c-4.1,0-7.6-1.3-10.5-4c-2.8-2.5-4.6-5.7-5.2-9.6c-0.1-0.7-0.2-1.5-0.2-2.4
		c0-4.6,1.4-10,4.2-16.3c2.7-6.2,5.6-10.6,8.7-13.4c0.6-0.5,1.4-0.8,2.5-1c1.3-0.2,2.6,0.2,4,1.2c1.4,1,2.2,2.2,2.5,3.6
		c0.2,1.1-0.6,2.9-2.1,5.5C19.4,156.1,18.2,157.9,17,159.7z M12.9,174.3c0,1.5,0.4,2.7,1.3,3.7c0.9,1.1,2.1,1.5,3.6,1.3
		c2.3-0.4,3.4-1.8,3.4-4.3c0-1.3-0.4-2.5-1.1-3.5c-0.7-1-1.7-1.5-3-1.5c-1.3,0-2.3,0.4-3,1.2C13.3,172,12.9,173,12.9,174.3z"/>
	<path class="st0" d="M63.4,190.5c-2.8-0.7-5-2.1-6.6-4.3c-1,0.9-2.2,1.4-3.5,1.4c-0.5,0-1-0.1-1.5-0.2c-1.4-0.3-2.5-1-3.3-2
		c-0.8-1-1.2-2.2-1.2-3.7c0-0.6,0.1-1.1,0.2-1.7l8.2-35.5c0.4-1.5,1-2.7,2.1-3.6c1-0.9,2.2-1.4,3.5-1.4c0.5,0,0.9,0.1,1.4,0.2
		c1.4,0.3,2.5,1,3.3,2c0.8,1,1.2,2.3,1.2,3.6c0,0.6-0.1,1.1-0.2,1.7l-2,8.6c2.2-0.6,4.5-0.6,6.8-0.1c3.8,0.9,6.7,2.9,8.7,6.1
		c1.7,2.8,2.6,6.1,2.6,9.9c0,1.8-0.2,3.5-0.6,5.3c-0.9,3.9-2.8,7.1-5.6,9.8c-3,2.8-6.4,4.2-10.2,4.2
		C65.6,190.8,64.5,190.7,63.4,190.5z M67.9,165.8c-0.4-0.1-0.8-0.1-1.1-0.1c-1.3,0-2.4,0.5-3.4,1.6c-1,1-1.7,2.4-2.1,4.2
		c-0.2,0.9-0.3,1.7-0.3,2.5c0,1.6,0.4,3,1.1,4c0.9,1.3,2,1.9,3.5,1.9c1.8,0,3.3-0.9,4.4-2.8c1-1.7,1.5-3.4,1.5-5.4
		C71.6,168.3,70.4,166.3,67.9,165.8z"/>
	<path class="st0" d="M100.9,190.8c-4.9,0.2-9.1-1.3-12.4-4.7c-3.2-3.3-5-7.4-5.3-12.2c-0.2-4.8,1.1-9,4-12.7c3-3.8,7-5.9,11.8-6.2
		c4.8-0.2,9,1.4,12.4,4.9c3.3,3.3,5,7.4,5.3,12.2c0.2,4.9-1.1,9.2-3.9,12.7C109.8,188.5,105.9,190.6,100.9,190.8z M99.6,165.8
		c-1.6,0.1-2.9,0.8-3.8,2.3c-0.9,1.4-1.3,3.2-1.2,5.2c0.1,2,0.7,3.6,1.7,4.9c1,1.3,2.3,1.9,3.9,1.9c1.6-0.1,2.9-0.8,3.8-2.2
		c0.9-1.4,1.3-3.1,1.2-5.1c-0.1-2-0.7-3.7-1.7-5C102.6,166.3,101.2,165.7,99.6,165.8z"/>
	<path class="st0" d="M163.5,185.9c-0.4,0.1-0.9,0.2-1.4,0.2c-1.3,0-2.5-0.5-3.5-1.4c-1-0.9-1.7-2.1-2.1-3.6l-3.3-14.4
		c-0.6-2.4-1.7-3.6-3.5-3.6c-1.1,0-1.9,0.3-2.5,1c-0.6,0.7-0.9,1.6-0.9,2.6c0,0.5,0.1,1,0.2,1.5l3.3,14.4c0.2,0.6,0.2,1.2,0.2,1.7
		c0,1.4-0.4,2.6-1.2,3.6c-0.8,1-1.9,1.7-3.3,2c-0.4,0.1-0.9,0.2-1.4,0.2c-1.3,0-2.5-0.5-3.5-1.4c-1-0.9-1.7-2.1-2.1-3.5l-3.3-14.5
		c-0.6-2.4-1.7-3.5-3.5-3.5c-2.4,0-3.5,1.1-3.5,3.4c0,0.5,0.1,1.1,0.2,1.7l3.3,14.5c0.2,0.6,0.2,1.1,0.2,1.7c0,1.4-0.4,2.6-1.2,3.6
		c-0.8,1-1.9,1.7-3.2,2c-0.5,0.1-0.9,0.1-1.4,0.1c-1.3,0-2.5-0.4-3.5-1.3c-1-0.9-1.7-2.1-2.1-3.6l-5.1-22.1
		c-0.1-0.6-0.2-1.1-0.2-1.7c0-1.4,0.4-2.6,1.2-3.7c0.8-1,1.8-1.7,3.2-2c0.5-0.1,1-0.2,1.5-0.2c1.3,0,2.5,0.4,3.4,1.2
		c2.4-3,5.6-4.4,9.5-4.4c2.3,0,4.5,0.6,6.5,1.9c2.1-3,4.8-4.8,7.9-5.6c1.3-0.3,2.5-0.4,3.7-0.4c3,0,5.5,0.9,7.6,2.6
		c2.1,1.7,3.6,4.2,4.3,7.5l3.7,15.9c0.2,0.6,0.2,1.1,0.2,1.7c0,1.4-0.4,2.6-1.2,3.7C166,184.9,164.9,185.5,163.5,185.9z"/>
	<path class="st0" d="M182.8,190.5c-2.8-0.7-5-2.1-6.6-4.3c-1,0.9-2.2,1.4-3.5,1.4c-0.5,0-1-0.1-1.5-0.2c-1.4-0.3-2.5-1-3.3-2
		c-0.8-1-1.2-2.2-1.2-3.7c0-0.6,0.1-1.1,0.2-1.7l8.2-35.5c0.4-1.5,1-2.7,2.1-3.6c1-0.9,2.2-1.4,3.5-1.4c0.5,0,0.9,0.1,1.4,0.2
		c1.4,0.3,2.5,1,3.3,2c0.8,1,1.2,2.3,1.2,3.6c0,0.6-0.1,1.1-0.2,1.7l-2,8.6c2.2-0.6,4.5-0.6,6.8-0.1c3.8,0.9,6.7,2.9,8.7,6.1
		c1.7,2.8,2.6,6.1,2.6,9.9c0,1.8-0.2,3.5-0.6,5.3c-0.9,3.9-2.8,7.1-5.6,9.8c-3,2.8-6.4,4.2-10.2,4.2
		C185,190.8,183.9,190.7,182.8,190.5z M187.4,165.8c-0.4-0.1-0.8-0.1-1.1-0.1c-1.3,0-2.4,0.5-3.4,1.6c-1,1-1.7,2.4-2.1,4.2
		c-0.2,0.9-0.3,1.7-0.3,2.5c0,1.6,0.4,3,1.1,4c0.9,1.3,2,1.9,3.5,1.9c1.8,0,3.3-0.9,4.4-2.8c1-1.7,1.5-3.4,1.5-5.4
		C191.1,168.3,189.8,166.3,187.4,165.8z"/>
	<path class="st0" d="M231.2,173.2l-15.3,5.3c1,1,2.3,1.5,4,1.5c0.9,0,1.9-0.2,2.8-0.5c1.3-0.5,2.8-1.6,4.4-3.3
		c1.6-1.7,2.8-2.8,3.6-3.1c0.5-0.2,0.9-0.2,1.4-0.2c1.4,0,2.6,0.5,3.6,1.5c1,1,1.6,2.1,1.6,3.5c0,2.2-1.3,4.5-4,6.9
		c-2.4,2.2-5,3.9-7.9,4.8c-2.1,0.7-4.1,1.1-6.2,1.1c-3.7,0-6.9-1.1-9.8-3.3c-2.9-2.2-5-5.2-6.3-9c-0.7-2-1.1-4.1-1.1-6.3
		c0-3.6,0.9-6.9,2.8-9.8c2-3.1,4.8-5.2,8.2-6.4c1.7-0.6,3.5-0.9,5.3-0.9c3.6,0,7,1.2,10.1,3.5c3,2.2,5,4.8,6,8
		c0.3,0.8,0.4,1.5,0.4,2.2C234.8,170.9,233.6,172.4,231.2,173.2z M216.3,165.5c-2.3,0.8-3.5,2.4-3.5,5l9.3-3.2
		c-1.1-1.4-2.4-2.1-4-2.1C217.6,165.2,216.9,165.3,216.3,165.5z"/>
	<path class="st0" d="M250,157.6c1.3-1.4,3.1-2,5.5-1.8c1.5,0.1,2.7,0.7,3.7,1.8c1.1,1.2,1.5,2.8,1.4,4.6c-0.1,1.7-1.1,3-2.9,3.9
		c-1.7,0.6-3.4,1.2-5.1,1.8c-1.8,0.8-2.8,1.9-2.9,3.4l-0.9,13c-0.2,1.8-0.8,3.2-2,4.3c-1.1,1.1-2.6,1.6-4.3,1.5c-1.7-0.1-3-0.8-4-2
		c-1-1.2-1.4-2.8-1.3-4.5l1.6-23.1c0.2-1.8,0.9-3.2,2.2-4.2c1.2-0.9,2.5-1.2,4-1.1C247.6,155.2,249.2,156.1,250,157.6z"/>
	<path class="st0" d="M275,190.8c-4.9,0.2-9.1-1.3-12.4-4.7c-3.2-3.3-5-7.4-5.3-12.2c-0.2-4.8,1.1-9,4-12.7c3-3.8,7-5.9,11.8-6.2
		c4.8-0.2,9,1.4,12.4,4.9c3.3,3.3,5,7.4,5.3,12.2c0.2,4.9-1.1,9.2-3.9,12.7C283.9,188.5,280,190.6,275,190.8z M273.7,165.8
		c-1.6,0.1-2.9,0.8-3.8,2.3c-0.9,1.4-1.3,3.2-1.2,5.2c0.1,2,0.7,3.6,1.7,4.9c1,1.3,2.3,1.9,3.9,1.9c1.6-0.1,2.9-0.8,3.8-2.2
		c0.9-1.4,1.3-3.1,1.2-5.1c-0.1-2-0.7-3.7-1.7-5C276.7,166.3,275.4,165.7,273.7,165.8z"/>
	<path class="st0" d="M308.1,190.4c-1.2,0.3-2.6,0.4-4.1,0.4c-2.5,0-4.8-0.4-6.7-1.2c-2.7-1.1-4-2.7-4-4.9c0-1.1,0.3-2.2,0.9-3.2
		c0.7-1.2,1.7-1.9,3-2.2c0.5-0.1,1-0.2,1.5-0.2c0.8,0,1.9,0.2,3.2,0.6c1.4,0.4,2.4,0.6,3.2,0.6c0.4,0,0.9-0.1,1.3-0.2
		c1.3-0.3,1.8-0.7,1.7-1.4c-0.1-0.3-1.5-0.7-4.1-1c-3.4-0.4-5.9-1-7.7-1.9c-3-1.4-4.8-3.5-5.4-6.5c-0.2-0.9-0.4-1.8-0.4-2.7
		c0-3.5,1.5-6.4,4.6-8.7c2.8-2,6-3.1,9.6-3.1c2.5,0,4.6,0.4,6.4,1.3c2.4,1.1,3.5,2.8,3.5,5c0,1.4-0.5,2.6-1.4,3.6
		c-0.9,1-2,1.5-3.3,1.5c-0.6,0-1.6-0.1-3-0.4c-1.4-0.3-2.4-0.4-3.1-0.4c-0.9,0-1.6,0.2-2,0.5c-0.3,0.2-0.4,0.5-0.3,0.8
		c0.1,0.4,1.5,0.7,4.2,1c3.4,0.4,5.9,1.1,7.7,1.9c3,1.4,4.8,3.6,5.4,6.5c0.2,0.8,0.3,1.7,0.3,2.5c0,2.8-1,5.3-3,7.4
		C314.1,188.2,311.5,189.6,308.1,190.4z"/>
	<path class="st1" d="M27.6,260.3l-19.7,1.4c-1.7,0.1-3.1-0.2-4.3-0.9c-1.3-0.9-2.1-2.2-2.2-4c-0.1-1.3,0.4-2.6,1.4-4.1
		c2.3-3,4.6-6.1,6.9-9.1c2.8-3.6,4.9-6.8,6.5-9.5c1.1-1.8,1.6-3.4,1.5-4.7c-0.1-0.9-0.4-1.6-1-2.1c-0.6-0.6-1.3-0.8-2-0.8
		c-1.4,0.1-2.4,1-2.9,2.6c-0.5,1.6-1,3.2-1.4,4.8c-0.8,1.7-2.2,2.6-4.1,2.8c-1.8,0.1-3.3-0.4-4.4-1.4c-1.1-1.1-1.7-2.4-1.8-4
		c-0.3-4.1,1-7.7,3.9-10.9c2.9-3.1,6.3-4.8,10.4-5.1c4.1-0.3,7.6,0.7,10.6,3.1c3,2.3,4.6,5.5,4.9,9.6c0.2,3.4-1,7.4-3.7,11.8
		c-0.9,1.5-3.3,4.9-7.3,10.3l7.6-0.5c1.7-0.1,3.1,0.2,4.3,0.9c1.3,0.9,2.1,2.2,2.2,4c0.1,1.8-0.4,3.2-1.5,4.3
		C30.5,259.8,29.2,260.2,27.6,260.3z"/>
	<path class="st1" d="M71.5,258.5c-1.4,1.7-3.5,2.8-6.4,3.5c-1.2,0.2-2.3,0.4-3.4,0.4c-4.6,0-8.4-2.1-11.4-6.4
		c-2.7-3.8-4-8.1-4-12.8c0-3.9,1-7.3,2.9-10.2c2.1-3.2,5-5.2,8.7-6c0.9-0.2,1.8-0.3,2.7-0.3c1.9,0,3.6,0.4,5.1,1.2
		c0.7-1.7,2-2.8,4-3.3c0.5-0.1,0.9-0.2,1.4-0.2c1.4,0,2.6,0.5,3.6,1.4c1,0.9,1.7,2.1,2,3.5l5.6,24c0.4,1.6,0.6,3.2,0.6,4.7
		c0,4-1.3,7.4-3.8,10.1c-2.5,2.7-6,4.6-10.4,5.6c-1.3,0.3-2.9,0.5-4.8,0.5c-2.7,0-5.1-0.3-7.1-1c-3-0.9-4.5-2.5-4.5-4.7
		c0-1.1,0.3-2.2,1-3.3c0.7-1.1,1.6-1.7,2.6-2c0.5-0.1,1.1-0.2,1.7-0.2c0.6,0,1.7,0.1,3.2,0.3c1.5,0.2,2.7,0.3,3.5,0.3
		c0.9,0,1.8-0.1,2.7-0.3C69.9,262.7,71.4,261.1,71.5,258.5z M57.7,242.9c0,0.7,0.1,1.5,0.3,2.2c0.9,4,2.8,6,5.6,6
		c1.5,0,2.8-0.6,3.7-1.8c0.8-1,1.2-2.3,1.2-4c0-0.7-0.1-1.5-0.3-2.3c-0.4-1.8-1.1-3.3-2.1-4.4c-1-1.1-2.2-1.7-3.5-1.7
		c-1.5,0-2.7,0.6-3.5,1.9C58.1,240,57.7,241.3,57.7,242.9z"/>
	<path class="st1" d="M98.9,261.8c-4.9,0.2-9.1-1.3-12.4-4.7c-3.2-3.3-5-7.4-5.3-12.2c-0.2-4.8,1.1-9,4-12.7c3-3.8,7-5.9,11.8-6.2
		c4.8-0.2,9,1.4,12.4,4.9c3.3,3.3,5,7.4,5.3,12.2c0.2,4.9-1.1,9.2-3.9,12.7C107.8,259.5,103.8,261.5,98.9,261.8z M97.6,236.7
		c-1.6,0.1-2.9,0.8-3.8,2.3c-0.9,1.4-1.3,3.2-1.2,5.2c0.1,2,0.7,3.6,1.7,4.9c1,1.3,2.3,1.9,3.9,1.9c1.6-0.1,2.9-0.8,3.8-2.2
		c0.9-1.4,1.3-3.1,1.2-5.1c-0.1-2-0.7-3.7-1.7-5C100.5,237.3,99.2,236.6,97.6,236.7z"/>
	<path class="st1" d="M126.6,228.6c1.3-1.4,3.1-2,5.5-1.8c1.5,0.1,2.7,0.7,3.7,1.8c1.1,1.2,1.5,2.8,1.4,4.6c-0.1,1.7-1.1,3-2.9,3.9
		c-1.7,0.6-3.4,1.2-5.1,1.8c-1.8,0.8-2.8,1.9-2.9,3.4l-0.9,13c-0.2,1.8-0.8,3.2-2,4.3c-1.1,1.1-2.6,1.6-4.3,1.5c-1.7-0.1-3-0.8-4-2
		c-1-1.2-1.4-2.8-1.3-4.5l1.6-23.1c0.2-1.8,0.9-3.2,2.2-4.2c1.2-0.9,2.5-1.2,4-1.1C124.2,226.2,125.8,227,126.6,228.6z"/>
	<path class="st1" d="M147.5,228.6c1.3-1.4,3.1-2,5.5-1.8c1.5,0.1,2.7,0.7,3.7,1.8c1.1,1.2,1.5,2.8,1.4,4.6c-0.1,1.7-1.1,3-2.9,3.9
		c-1.7,0.6-3.4,1.2-5.1,1.8c-1.8,0.8-2.8,1.9-2.9,3.4l-0.9,13c-0.2,1.8-0.8,3.2-2,4.3c-1.1,1.1-2.6,1.6-4.3,1.5c-1.7-0.1-3-0.8-4-2
		c-1-1.2-1.4-2.8-1.3-4.5l1.6-23.1c0.2-1.8,0.9-3.2,2.2-4.2c1.2-0.9,2.5-1.2,4-1.1C145.1,226.2,146.7,227,147.5,228.6z"/>
	<path class="st1" d="M186.7,258.5c-0.5,0.1-1,0.2-1.5,0.2c-1.3,0-2.5-0.5-3.5-1.5c-1.7,2.3-3.9,3.8-6.7,4.4
		c-1.1,0.3-2.3,0.4-3.4,0.4c-3.7,0-7-1.3-9.9-3.9c-2.9-2.6-4.9-6.1-5.9-10.4c-0.4-1.6-0.5-3.2-0.5-4.7c0-4,1.1-7.5,3.2-10.5
		c2.1-3,4.9-4.9,8.5-5.8c1-0.2,2-0.4,2.9-0.4c1.9,0,3.6,0.4,5.1,1.2c0.7-1.7,2-2.8,3.9-3.3c0.6-0.1,1.2-0.2,1.8-0.2
		c2.6,0,4.4,1.9,5.3,5.8l4.7,20.5c0.3,1.3,0.4,2.3,0.4,3.1C190.9,256.2,189.5,257.9,186.7,258.5z M166.6,242.7
		c0,0.8,0.1,1.6,0.2,2.4c0.4,1.7,1.1,3.1,2.1,4.2c1,1.1,2.2,1.7,3.5,1.7c1.5,0,2.7-0.6,3.5-1.8c0.8-1.1,1.2-2.4,1.2-4
		c0-0.7-0.1-1.5-0.3-2.4c-0.4-1.7-1.1-3.2-2.1-4.3c-1-1.1-2.2-1.7-3.5-1.7c-1.5,0-2.7,0.6-3.5,1.7
		C167,239.7,166.6,241.1,166.6,242.7z"/>
	<path class="st1" d="M238.1,258.5c-0.5,0.1-1,0.2-1.5,0.2c-1.3,0-2.5-0.5-3.5-1.5c-1.7,2.3-3.9,3.8-6.7,4.4
		c-1.1,0.3-2.3,0.4-3.4,0.4c-3.7,0-7-1.3-9.9-3.9c-2.9-2.6-4.9-6.1-5.9-10.4c-0.4-1.6-0.5-3.2-0.5-4.7c0-4,1.1-7.5,3.2-10.5
		c2.1-3,4.9-4.9,8.5-5.8c1-0.2,2-0.4,2.9-0.4c1.9,0,3.6,0.4,5.1,1.2c0.7-1.7,2-2.8,3.9-3.3c0.6-0.1,1.2-0.2,1.8-0.2
		c2.6,0,4.4,1.9,5.3,5.8l4.7,20.5c0.3,1.3,0.4,2.3,0.4,3.1C242.3,256.2,240.9,257.9,238.1,258.5z M218,242.7c0,0.8,0.1,1.6,0.2,2.4
		c0.4,1.7,1.1,3.1,2.1,4.2c1,1.1,2.2,1.7,3.5,1.7c1.5,0,2.7-0.6,3.5-1.8c0.8-1.1,1.2-2.4,1.2-4c0-0.7-0.1-1.5-0.3-2.4
		c-0.4-1.7-1.1-3.2-2.1-4.3c-1-1.1-2.2-1.7-3.5-1.7c-1.5,0-2.7,0.6-3.5,1.7C218.4,239.7,218,241.1,218,242.7z"/>
	<path class="st1" d="M264.3,262.9l-19.3-4.5c-2.6-0.6-4-2-4-4.3c0-1.5,0.6-2.8,1.8-3.9l15.1-13.4l-6.8-1.5c-1.2-0.3-2.2-0.9-3-1.8
		c-0.8-0.9-1.2-1.9-1.2-3.2c0-0.4,0.1-0.9,0.2-1.3c0.6-2.7,2.3-4.1,5-4.1c0.4,0,0.9,0.1,1.3,0.2l18.9,4.4c2.2,0.5,3.4,1.8,3.4,3.8
		c0,0.4,0,0.7-0.1,1.1c-0.3,1.1-0.9,2.2-2,3.1l-15.1,13.4l8.2,1.9c1.2,0.3,2.2,0.9,3,1.7s1.2,2,1.2,3.2c0,0.4,0,0.9-0.1,1.3
		c-0.6,2.7-2.3,4-5,4C265.2,263,264.8,262.9,264.3,262.9z"/>
	<path class="st1" d="M292.8,261.8c-4.8,0.2-8.7-0.8-11.6-3.2c-2.9-2.3-4.4-5.6-4.6-9.9l-0.8-15.4c-0.1-1.8,0.4-3.3,1.4-4.5
		c1-1.2,2.4-1.9,4.1-2c1.7-0.1,3.1,0.4,4.2,1.6c1.1,1.1,1.8,2.6,1.8,4.3l0.8,15.1c0.1,1.3,0.5,2.2,1.3,2.9c0.8,0.7,1.8,1,2.9,0.9
		c1.1-0.1,2-0.5,2.8-1.2c0.7-0.7,1.1-1.8,1-3l-0.8-15.1c-0.1-1.8,0.3-3.3,1.3-4.5c1-1.2,2.4-1.9,4.1-2c1.7-0.1,3.1,0.4,4.2,1.5
		c1.1,1.1,1.7,2.6,1.8,4.4l0.8,15.3c0.2,4.3-1,7.8-3.6,10.4C301.4,260.1,297.7,261.5,292.8,261.8z"/>
	<path class="st1" d="M313.7,261.4c-1.7-0.1-3-0.8-4-2c-1-1.2-1.4-2.8-1.3-4.6l2.5-36.3c0.1-1.8,0.7-3.2,1.9-4.3
		c1.1-1.1,2.6-1.6,4.3-1.5c1.7,0.1,3,0.8,4,2c1,1.2,1.4,2.8,1.3,4.6l-2.5,36.3c-0.1,1.8-0.7,3.2-1.9,4.3
		C316.8,261,315.4,261.5,313.7,261.4z"/>
	<path class="st1" d="M350.7,244.2l-15.3,5.3c1,1,2.3,1.5,4,1.5c0.9,0,1.9-0.2,2.8-0.5c1.3-0.5,2.8-1.6,4.4-3.3
		c1.6-1.7,2.8-2.8,3.6-3.1c0.5-0.2,0.9-0.2,1.4-0.2c1.4,0,2.6,0.5,3.6,1.5c1,1,1.6,2.1,1.6,3.5c0,2.2-1.3,4.5-4,6.9
		c-2.4,2.2-5,3.9-7.9,4.8c-2.1,0.7-4.1,1.1-6.2,1.1c-3.7,0-6.9-1.1-9.8-3.3c-2.9-2.2-5-5.2-6.3-9c-0.7-2-1.1-4.1-1.1-6.3
		c0-3.6,0.9-6.9,2.8-9.8c2-3.1,4.8-5.2,8.2-6.4c1.7-0.6,3.5-0.9,5.3-0.9c3.6,0,7,1.2,10.1,3.5c3,2.2,5,4.8,6,8
		c0.3,0.8,0.4,1.5,0.4,2.2C354.3,241.9,353.1,243.4,350.7,244.2z M335.8,236.4c-2.3,0.8-3.5,2.4-3.5,5l9.3-3.2
		c-1.1-1.4-2.4-2.1-4-2.1C337,236.1,336.4,236.2,335.8,236.4z"/>
	<path class="st1" d="M371.6,261.4c-1.2,0.3-2.6,0.4-4.1,0.4c-2.5,0-4.8-0.4-6.7-1.2c-2.7-1.1-4-2.7-4-4.9c0-1.1,0.3-2.2,0.9-3.2
		c0.7-1.2,1.7-1.9,3-2.2c0.5-0.1,1-0.2,1.5-0.2c0.8,0,1.9,0.2,3.2,0.6c1.4,0.4,2.4,0.6,3.2,0.6c0.4,0,0.9-0.1,1.3-0.2
		c1.3-0.3,1.8-0.7,1.7-1.4c-0.1-0.3-1.5-0.7-4.1-1c-3.4-0.4-5.9-1-7.7-1.9c-3-1.4-4.8-3.5-5.4-6.5c-0.2-0.9-0.4-1.8-0.4-2.7
		c0-3.5,1.5-6.4,4.6-8.7c2.8-2,6-3.1,9.6-3.1c2.5,0,4.6,0.4,6.4,1.3c2.4,1.1,3.5,2.8,3.5,5c0,1.4-0.5,2.6-1.4,3.6
		c-0.9,1-2,1.5-3.3,1.5c-0.6,0-1.6-0.1-3-0.4c-1.4-0.3-2.4-0.4-3.1-0.4c-0.9,0-1.6,0.2-2,0.5c-0.3,0.2-0.4,0.5-0.3,0.8
		c0.1,0.4,1.5,0.7,4.2,1c3.4,0.4,5.9,1.1,7.7,1.9c3,1.4,4.8,3.6,5.4,6.5c0.2,0.8,0.3,1.7,0.3,2.5c0,2.8-1,5.3-3,7.4
		C377.6,259.1,374.9,260.6,371.6,261.4z"/>
</g>
</svg>
