<!-- Generator: Adobe Illustrator 24.0.0, SVG Export Plug-In  -->
<svg version="1.1" xmlns="http://www.w3.org/2000/svg" xmlns:xlink="http://www.w3.org/1999/xlink" x="0px" y="0px" width="844.1px"
	 height="251.5px" viewBox="0 0 844.1 251.5" style="enable-background:new 0 0 844.1 251.5;" xml:space="preserve">
<style type="text/css">
	.st0{fill:#FFFFFF;}
	.st1{fill:#FFFF00;}
</style>
<defs>
</defs>
<g>
	<path class="st0" d="M23,62.2c-7-1.1-12.6-4.3-16.8-9.5C2.1,47.6,0,41.5,0,34.4c0-1.8,0.1-3.6,0.4-5.4C1.6,21.7,4.7,15.7,9.6,11
		c5-4.6,11-7,17.9-7c1.5,0,3,0.1,4.6,0.4c3.7,0.6,7.1,1.8,10.2,3.7c4,2.4,6,5.1,6,8.1c0,1.8-0.6,3.4-1.9,4.8c-1.3,1.4-2.8,2-4.7,2
		c-1.3,0-3.3-0.8-5.9-2.3c-1.9-1.1-3.9-1.8-6-2.1c-0.6-0.1-1.3-0.1-2-0.1c-3.2,0-5.9,1.2-8.1,3.6c-2.2,2.4-3.6,5.6-4.2,9.5
		c-0.2,1.1-0.3,2.3-0.3,3.4c0,3.4,0.8,6.3,2.5,8.6c1.8,2.4,4.3,3.9,7.4,4.4c0.7,0.1,1.5,0.1,2.2,0.1c1.3,0,3-0.2,4.9-0.7
		c1.9-0.5,3.3-0.7,4.1-0.7c2.1,0,3.8,0.8,5.2,2.5c1.4,1.7,1.9,3.5,1.5,5.5c-0.4,2.8-2.3,4.9-5.6,6.3c-2.6,1.1-5.8,1.6-9.6,1.6
		C26.1,62.6,24.5,62.5,23,62.2z"/>
	<path class="st0" d="M78.4,57.7c-0.6,0.1-1.3,0.2-1.9,0.2c-1.7,0-3.2-0.6-4.4-1.9c-2.1,2.9-5,4.8-8.5,5.6c-1.4,0.3-2.9,0.5-4.3,0.5
		c-4.7,0-8.8-1.7-12.5-5c-3.6-3.3-6.1-7.7-7.4-13.1c-0.4-2-0.7-4-0.7-6c0-5,1.3-9.4,4-13.2c2.7-3.8,6.2-6.2,10.7-7.3
		c1.2-0.3,2.5-0.4,3.6-0.4c2.3,0,4.5,0.5,6.5,1.6c0.9-2.2,2.5-3.6,4.9-4.2c0.8-0.1,1.5-0.2,2.2-0.2c3.3,0,5.5,2.4,6.6,7.3l6,25.8
		c0.3,1.6,0.5,2.9,0.5,3.9C83.8,54.9,82,57,78.4,57.7z M53.2,37.9c0,1,0.1,2,0.3,3.1c0.5,2.1,1.4,3.9,2.7,5.3
		c1.3,1.4,2.8,2.1,4.5,2.1c1.9,0,3.4-0.8,4.5-2.3c1-1.3,1.5-3,1.5-5.1c0-0.9-0.1-1.9-0.4-3c-0.5-2.2-1.4-4-2.7-5.4
		c-1.3-1.4-2.8-2.1-4.4-2.1c-1.9,0-3.4,0.7-4.4,2.2C53.7,34.1,53.2,35.8,53.2,37.9z"/>
	<path class="st0" d="M104.7,61.7c-6.2,0.3-11.4-1.6-15.6-5.9c-4.1-4.1-6.3-9.3-6.6-15.4c-0.3-6.1,1.4-11.4,5.1-16
		c3.8-4.8,8.8-7.4,14.8-7.7c3.2-0.1,6.4,0.4,9.5,1.6c3.8,1.5,5.8,3.6,6,6.3c0.1,1.6-0.3,3.1-1.2,4.5c-1.1,1.7-2.6,2.7-4.4,2.8
		c-1,0-2.4-0.2-4.3-0.8c-1.9-0.6-3.3-0.9-4.3-0.8c-2.2,0.1-3.9,1-5.1,2.8c-1.2,1.8-1.7,4-1.6,6.6c0.1,2.4,0.9,4.5,2.3,6.2
		c1.4,1.7,3.2,2.5,5.3,2.3c0.9,0,2.3-0.5,4-1.3c1.7-0.8,3-1.3,3.9-1.3c1.7-0.1,3.3,0.5,4.6,1.7s2.1,2.7,2.2,4.5
		c0.1,2.9-1.7,5.3-5.4,7.3C110.8,60.7,107.8,61.5,104.7,61.7z"/>
	<path class="st0" d="M138.8,32.6l-1.1-0.3l-5.1,22.3c-0.4,1.9-1.3,3.4-2.6,4.5c-1.3,1.1-2.8,1.7-4.5,1.7c-0.5,0-1.1,0-1.7-0.1
		c-1.7-0.4-3-1.3-4-2.6c-1-1.3-1.5-2.8-1.5-4.6c0-0.7,0.1-1.4,0.2-2.1l5.2-22.3L123,29c-3.4-0.8-5.1-2.8-5.1-6.1
		c0-0.6,0.1-1.2,0.2-1.8c0.3-1.5,1.1-2.8,2.3-3.7c1.2-0.9,2.5-1.4,4-1.4c0.5,0,1.1,0,1.6,0.1l0.5,0.1l1-4.5c0.4-1.8,1.3-3.3,2.6-4.5
		c1.3-1.1,2.8-1.7,4.5-1.7c0.5,0,1.1,0.1,1.7,0.2c1.7,0.4,3.1,1.2,4.1,2.5s1.5,2.8,1.5,4.6c0,0.7-0.1,1.4-0.2,2.1l-1,4.5l1.2,0.2
		c3.7,0.8,5.5,2.9,5.5,6.2c0,0.5,0,1.1-0.1,1.8c-0.8,3.4-2.9,5.1-6.3,5.1C140.1,32.9,139.5,32.8,138.8,32.6z"/>
	<path class="st0" d="M168.6,61.9c-6.1,0.3-10.9-1-14.6-4c-3.6-3-5.6-7.1-5.8-12.5l-1-19.4c-0.1-2.2,0.5-4.1,1.8-5.7
		c1.3-1.6,3-2.4,5.1-2.5c2.1-0.1,3.8,0.6,5.3,2c1.4,1.4,2.2,3.2,2.3,5.5l1,19.1c0.1,1.6,0.7,2.8,1.7,3.6c1,0.8,2.2,1.2,3.7,1.2
		c1.4-0.1,2.6-0.6,3.5-1.6c0.9-0.9,1.4-2.2,1.3-3.8l-1-19.1c-0.1-2.2,0.4-4.1,1.7-5.7c1.3-1.6,3-2.4,5.1-2.5
		c2.1-0.1,3.9,0.5,5.3,1.9c1.4,1.4,2.2,3.2,2.3,5.5l1,19.3c0.3,5.4-1.2,9.8-4.5,13.1C179.3,59.7,174.6,61.6,168.6,61.9z"/>
	<path class="st0" d="M209.5,61.4c-1.5,0.3-3.3,0.5-5.2,0.5c-3.2,0-6-0.5-8.5-1.6c-3.4-1.3-5.1-3.4-5.1-6.2c0-1.4,0.4-2.8,1.1-4
		c0.9-1.5,2.2-2.4,3.8-2.8c0.6-0.1,1.3-0.2,1.9-0.2c1,0,2.3,0.2,4.1,0.7c1.7,0.5,3,0.7,4,0.7c0.5,0,1.1-0.1,1.6-0.2
		c1.6-0.3,2.3-0.9,2.1-1.7c-0.1-0.4-1.8-0.8-5.2-1.3c-4.2-0.5-7.5-1.3-9.8-2.4c-3.7-1.7-6-4.5-6.9-8.2c-0.3-1.1-0.4-2.3-0.4-3.4
		c0-4.5,1.9-8.1,5.7-10.9c3.5-2.6,7.5-3.9,12.1-3.9c3.1,0,5.8,0.5,8,1.6c3,1.4,4.5,3.5,4.5,6.3c0,1.7-0.6,3.3-1.7,4.5
		c-1.1,1.3-2.5,1.9-4.2,1.9c-0.7,0-2-0.2-3.7-0.5c-1.7-0.3-3-0.5-3.9-0.5c-1.1,0-2,0.2-2.5,0.6c-0.3,0.2-0.5,0.6-0.4,1
		c0.1,0.4,1.9,0.9,5.3,1.3c4.2,0.5,7.5,1.3,9.8,2.4c3.7,1.8,6,4.5,6.9,8.2c0.2,1,0.4,2.1,0.4,3.1c0,3.5-1.3,6.6-3.8,9.3
		C217,58.6,213.7,60.4,209.5,61.4z"/>
</g>
<g>
	<path class="st1" d="M26,150.8l-18.5-1.6c-2.3-0.2-4.1-1.1-5.4-2.7c-1.2-1.6-1.8-3.6-1.6-6l3.6-41.4c0.2-2.3,1.1-4.1,2.6-5.3
		c1.5-1.3,3.4-1.8,5.5-1.6c2.1,0.1,3.8,1,5.1,2.5c1.3,1.5,1.8,3.4,1.6,5.8l-3.1,35.4l11.3,1c2.1,0.2,3.8,1,4.9,2.3
		c1.1,1.3,1.7,2.8,1.7,4.6c0,2-0.7,3.7-2,5.1C30.3,150.3,28.4,151,26,150.8z"/>
	<path class="st1" d="M64.4,150c-2.6,0-4.6-1-5.8-3.1c-2.7,2.4-5.9,3.6-9.5,3.6c-5.7,0-10.3-2.1-14-6.4c-3.7-4.3-5.5-9.6-5.5-16.1
		c0-6.3,1.9-11.7,5.7-16.1c3.8-4.4,8.4-6.6,13.9-6.6c3.8,0,7,1.1,9.6,3.4c1.4-1.9,3.3-2.9,5.7-2.9c2.9,0,4.9,1,6,3.1
		c0.6,1.3,1,3.2,1,5.8v26.5c0,2.6-0.3,4.5-1,5.7C69.3,148.9,67.3,150,64.4,150z M58.4,105.7l-8.9,1.3c-1.5,0.2-2.8,0.2-3.7,0
		c-2.8-0.6-4.2-2.9-4.2-6.6c0-3.1,1.4-4.9,4.3-5.6l0.7-0.2l9.5-1.5c1.5-0.2,2.8-0.3,3.6-0.1c1.4,0.3,2.5,1.2,3.4,2.5
		c0.7,1.1,1,2.4,1,3.8c0,1.7-0.5,3.1-1.6,4.2C61.4,104.8,60,105.5,58.4,105.7z M50.5,118.8c-2,0-3.6,0.9-4.8,2.6
		c-1.2,1.7-1.8,3.9-1.8,6.5c0,2.5,0.6,4.6,1.8,6.3c1.2,1.7,2.8,2.6,4.8,2.6c1.9,0,3.5-0.9,4.7-2.6c1.2-1.7,1.8-3.8,1.8-6.3
		c0-2.6-0.6-4.7-1.8-6.5C54,119.7,52.4,118.8,50.5,118.8z"/>
	<path class="st1" d="M96,151c-2.7-0.2-5.3-1.2-7.7-2.8l-0.8,9.5c-0.2,2.2-1,4-2.5,5.4c-1.5,1.4-3.3,1.9-5.4,1.8
		c-2.1-0.1-3.7-1-5-2.6c-1.2-1.6-1.7-3.5-1.5-5.8l3.9-44.2c0.2-2.2,1-4,2.5-5.4c1.5-1.4,3.3-2,5.4-1.8c2.6,0.2,4.4,1.4,5.6,3.4
		c2.7-2,6-2.8,9.9-2.5c5.6,0.5,10,3,13.1,7.6c2.7,4,4.1,8.8,4.1,14.4c0,6.3-1.9,11.7-5.8,16.3C107.5,149.4,102.3,151.5,96,151z
		 M97.4,119.4c-2-0.2-3.7,0.5-5,2c-1.3,1.5-2.1,3.6-2.3,6.1c-0.2,2.6,0.1,4.8,1.2,6.7c1,1.9,2.5,2.9,4.5,3.1
		c1.9,0.1,3.6-0.6,4.9-2.2c1.3-1.6,2.1-3.7,2.4-6.1c0.2-2.5-0.2-4.7-1.3-6.6C100.8,120.6,99.3,119.6,97.4,119.4z"/>
	<path class="st1" d="M125.1,105.9c-2.1,0.1-4-0.5-5.7-2.1c-1.6-1.5-2.5-3.4-2.7-5.5c-0.1-2,0.6-3.9,2.1-5.5
		c1.5-1.6,3.3-2.5,5.4-2.6c2.1-0.1,4,0.5,5.6,2c1.7,1.5,2.5,3.2,2.6,5.3c0.1,2.2-0.6,4.1-2,5.8C129.1,105,127.3,105.8,125.1,105.9z
		 M127.4,150.4c-2.1,0.1-3.9-0.5-5.3-1.9c-1.4-1.4-2.2-3.2-2.3-5.5l-1.5-28.6c-0.1-2.2,0.4-4.1,1.7-5.7c1.3-1.5,3-2.4,5.1-2.5
		c2.1-0.1,3.9,0.6,5.3,2s2.2,3.2,2.3,5.5l1.6,28.6c0.1,2.2-0.5,4.1-1.8,5.7C131.3,149.5,129.6,150.3,127.4,150.4z"/>
	<path class="st1" d="M162.6,152.3l-24.3-5.7c-3.3-0.7-5-2.6-5-5.4c0-1.9,0.8-3.5,2.3-4.9l19-16.9l-8.6-1.9
		c-1.5-0.4-2.8-1.2-3.8-2.3c-1-1.1-1.5-2.4-1.5-4c0-0.5,0.1-1.1,0.2-1.6c0.8-3.4,2.9-5.1,6.3-5.1c0.5,0,1.1,0.1,1.6,0.2l23.8,5.5
		c2.8,0.6,4.2,2.3,4.2,4.8c0,0.4,0,0.9-0.1,1.4c-0.3,1.4-1.2,2.7-2.5,3.9l-19.1,16.8l10.3,2.4c1.5,0.3,2.8,1.1,3.8,2.2
		s1.5,2.5,1.5,4.1c0,0.5,0,1.1-0.1,1.6c-0.8,3.4-2.9,5.1-6.3,5.1C163.8,152.4,163.2,152.4,162.6,152.3z"/>
</g>
<g>
	<path class="st0" d="M34.3,216.4c-0.9-4.7-2.2-13.2-3.8-25.3c0-0.3-0.1-0.7-0.1-1.1c0-1.7,0.5-3.4,1.5-5.1c1-1.6,2.4-2.9,4.3-3.6
		c1.2-0.5,2.5-0.8,3.8-0.8c3.3,0,5.8,1.3,7.5,3.8c4.2,5.9,8.5,11.8,12.7,17.8c5.1,7.1,8.8,13.3,11.2,18.7c0.5,1,0.7,2.1,0.7,3.1
		c0,3-1.5,5.1-4.4,6.4c-1.3,0.6-2.6,0.9-3.6,0.9c-2.4,0-4.4-1.3-6.1-3.9l-12.4-19.8c1,5.5,2.4,13.7,3.9,24.8c0,0.4,0.1,0.9,0.1,1.3
		c0,3.2-1.6,5.6-4.8,7c-1.2,0.5-2.5,0.8-3.6,0.8c-2.2,0-4.1-0.9-5.7-2.8l-16.3-19.4c1.7,4.9,4,12.4,6.9,22.4c0.3,1.1,0.4,2.1,0.4,3
		c0,2.8-1.6,4.9-4.7,6.3c-1,0.4-2,0.7-3.1,0.7c-3,0-5.1-1.4-6.4-4.3c-2.4-5.4-4.5-12.3-6.4-20.9C4.1,219.2,2.6,212,1,204.9
		c-0.1-0.5-0.2-1.1-0.2-1.8c0-1.7,0.5-3.3,1.5-5c1-1.6,2.4-2.8,4.2-3.6c1.2-0.5,2.5-0.8,3.9-0.8c3,0,5.5,1.1,7.3,3.2L34.3,216.4z"/>
	<path class="st0" d="M92.4,242.9c-6.2,0.3-11.4-1.7-15.6-6c-4.1-4.1-6.3-9.3-6.6-15.4c-0.3-6.1,1.4-11.4,5.1-16
		c3.8-4.8,8.8-7.4,14.8-7.7c6.1-0.3,11.3,1.8,15.6,6.2c4.1,4.2,6.4,9.3,6.7,15.3c0.3,6.2-1.3,11.5-4.9,16
		C103.6,240,98.6,242.6,92.4,242.9z M90.7,211.3c-2,0.1-3.6,1.1-4.7,2.9c-1.1,1.8-1.6,4-1.5,6.6c0.1,2.5,0.9,4.6,2.2,6.2
		c1.3,1.7,2.9,2.4,4.9,2.3c2-0.1,3.6-1,4.7-2.8c1.1-1.8,1.6-3.9,1.5-6.5c-0.1-2.5-0.9-4.6-2.1-6.3C94.4,212,92.8,211.2,90.7,211.3z"
		/>
	<path class="st0" d="M132.6,242.9c-6.1,0.3-10.9-1-14.6-4c-3.6-3-5.6-7.1-5.8-12.5l-1-19.4c-0.1-2.2,0.5-4.1,1.8-5.7
		c1.3-1.6,3-2.4,5.1-2.5c2.1-0.1,3.8,0.6,5.3,2c1.4,1.4,2.2,3.2,2.3,5.5l1,19.1c0.1,1.6,0.7,2.8,1.7,3.6c1,0.8,2.2,1.2,3.7,1.2
		c1.4-0.1,2.6-0.6,3.5-1.6c0.9-0.9,1.4-2.2,1.3-3.8l-1-19.1c-0.1-2.2,0.4-4.1,1.7-5.7c1.3-1.6,3-2.4,5.1-2.5
		c2.1-0.1,3.9,0.5,5.3,1.9c1.4,1.4,2.2,3.2,2.3,5.5l1,19.3c0.3,5.4-1.2,9.8-4.5,13.1C143.3,240.7,138.6,242.6,132.6,242.9z"/>
	<path class="st0" d="M173.5,242.4c-1.5,0.3-3.3,0.5-5.2,0.5c-3.2,0-6-0.5-8.5-1.6c-3.4-1.3-5.1-3.4-5.1-6.2c0-1.4,0.4-2.8,1.1-4
		c0.9-1.5,2.2-2.4,3.8-2.8c0.6-0.1,1.3-0.2,1.9-0.2c1,0,2.3,0.2,4.1,0.7c1.7,0.5,3,0.7,4,0.7c0.5,0,1.1-0.1,1.6-0.2
		c1.6-0.3,2.3-0.9,2.1-1.7c-0.1-0.4-1.8-0.8-5.2-1.3c-4.2-0.5-7.5-1.3-9.8-2.4c-3.7-1.7-6-4.5-6.9-8.2c-0.3-1.1-0.4-2.3-0.4-3.4
		c0-4.5,1.9-8.1,5.7-10.9c3.5-2.6,7.5-3.9,12.1-3.9c3.1,0,5.8,0.5,8,1.6c3,1.4,4.5,3.5,4.5,6.3c0,1.7-0.6,3.3-1.7,4.5
		c-1.1,1.3-2.5,1.9-4.2,1.9c-0.7,0-2-0.2-3.7-0.5c-1.7-0.3-3-0.5-3.9-0.5c-1.1,0-2,0.2-2.5,0.6c-0.3,0.2-0.5,0.6-0.4,1
		c0.1,0.4,1.9,0.9,5.3,1.3c4.2,0.5,7.5,1.3,9.8,2.4c3.7,1.8,6,4.5,6.9,8.2c0.2,1,0.4,2.1,0.4,3.1c0,3.5-1.3,6.6-3.8,9.3
		C181.1,239.6,177.7,241.4,173.5,242.4z"/>
	<path class="st0" d="M222.9,220.7l-19.3,6.7c1.3,1.3,3,1.9,5,1.9c1.1,0,2.3-0.2,3.6-0.7c1.7-0.6,3.5-2,5.5-4.2
		c2-2.2,3.5-3.5,4.5-3.9c0.6-0.2,1.2-0.3,1.8-0.3c1.7,0,3.3,0.6,4.6,1.9c1.3,1.2,2,2.7,2,4.4c0,2.7-1.7,5.6-5.1,8.7
		c-3,2.8-6.4,4.9-10,6.1c-2.6,0.9-5.2,1.3-7.7,1.3c-4.6,0-8.8-1.4-12.4-4.2c-3.6-2.8-6.3-6.6-7.9-11.3c-0.9-2.5-1.3-5.2-1.3-7.9
		c0-4.6,1.2-8.7,3.5-12.3c2.5-3.9,6-6.6,10.4-8c2.2-0.7,4.4-1.1,6.6-1.1c4.6,0,8.8,1.5,12.7,4.4c3.7,2.7,6.3,6.1,7.6,10.1
		c0.3,1,0.5,1.9,0.5,2.8C227.5,217.8,226,219.7,222.9,220.7z M204.2,211c-2.9,1-4.3,3.1-4.4,6.3l11.7-4c-1.3-1.7-3-2.6-5-2.6
		C205.7,210.6,205,210.7,204.2,211z"/>
</g>
<g>
	<path class="st0" d="M630.9,41.4c0.1,2.6,0,6.5-0.4,11.8c-0.1,2.3-0.9,4.1-2.5,5.4c-1.6,1.3-3.4,1.8-5.6,1.6
		c-2.1-0.2-3.8-1.1-5.1-2.6c-1.3-1.5-1.8-3.4-1.6-5.7l3.6-41.7c0.2-2.3,1-4.1,2.5-5.4c1.5-1.3,3.4-1.8,5.7-1.6l13,1.1
		c5.9,0.5,10.5,2.3,13.7,5.1c3.4,3.1,5.1,7.3,5.1,12.8c0,0.8,0,1.6-0.1,2.5c-0.3,3.9-1.8,7.1-4.4,9.5c-2.3,2.3-5.3,3.8-9,4.5
		l9.5,12.1c1.2,1.5,1.7,3.1,1.6,4.7c-0.1,2-1,3.7-2.5,5.1c-1.5,1.4-3.4,2-5.5,1.8c-2.4-0.2-4.2-1.2-5.5-3.1L630.9,41.4z M639.3,18.3
		l-5.8-0.5l-0.8,9.4l5.8,0.5c3.4,0.3,5.2-1.1,5.4-4.3C644.2,20.3,642.7,18.6,639.3,18.3z"/>
	<path class="st0" d="M693.3,39.7L674,46.4c1.3,1.3,3,1.9,5,1.9c1.1,0,2.3-0.2,3.6-0.7c1.7-0.6,3.5-2,5.5-4.2c2-2.2,3.5-3.5,4.5-3.9
		c0.6-0.2,1.2-0.3,1.8-0.3c1.7,0,3.3,0.6,4.6,1.9c1.3,1.2,2,2.7,2,4.4c0,2.7-1.7,5.6-5.1,8.7c-3,2.8-6.4,4.9-10,6.1
		c-2.6,0.9-5.2,1.3-7.7,1.3c-4.6,0-8.8-1.4-12.4-4.2c-3.6-2.8-6.3-6.6-7.9-11.3c-0.9-2.5-1.3-5.2-1.3-7.9c0-4.6,1.2-8.7,3.5-12.3
		c2.5-3.9,6-6.6,10.4-8c2.2-0.7,4.4-1.1,6.6-1.1c4.6,0,8.8,1.5,12.7,4.4c3.7,2.7,6.3,6.1,7.6,10.1c0.3,1,0.5,1.9,0.5,2.8
		C697.8,36.8,696.3,38.7,693.3,39.7z M674.5,30c-2.9,1-4.3,3.1-4.4,6.3l11.7-4c-1.3-1.7-3-2.6-5-2.6C676.1,29.6,675.3,29.7,674.5,30
		z"/>
	<path class="st0" d="M707.2,61.4c-2.1-0.1-3.8-1-5-2.6c-1.2-1.6-1.8-3.5-1.6-5.8l3.2-45.7c0.1-2.2,0.9-4,2.4-5.4
		c1.4-1.4,3.2-2,5.4-1.9c2.1,0.1,3.8,1,5,2.6c1.2,1.6,1.8,3.5,1.6,5.8L715,54.1c-0.1,2.2-0.9,4-2.4,5.4
		C711.1,60.9,709.3,61.5,707.2,61.4z"/>
	<path class="st0" d="M738.4,61.9c-6.2,0.3-11.4-1.7-15.6-6c-4.1-4.1-6.3-9.3-6.6-15.4c-0.3-6.1,1.4-11.4,5.1-16
		c3.8-4.8,8.8-7.4,14.8-7.7c6.1-0.3,11.3,1.8,15.6,6.2c4.1,4.2,6.4,9.3,6.7,15.3c0.3,6.2-1.3,11.5-4.9,16
		C749.6,59,744.6,61.6,738.4,61.9z M736.8,30.3c-2,0.1-3.6,1.1-4.7,2.9c-1.1,1.8-1.6,4-1.5,6.6c0.1,2.5,0.9,4.6,2.2,6.2
		c1.3,1.7,2.9,2.4,4.9,2.3c2-0.1,3.6-1,4.7-2.8s1.6-3.9,1.5-6.5c-0.1-2.5-0.9-4.6-2.1-6.3C740.5,31,738.8,30.2,736.8,30.3z"/>
	<path class="st0" d="M762.3,77.1c-2.1-0.2-3.7-1.1-5-2.7c-1.2-1.6-1.7-3.5-1.5-5.7l3.9-44.2c0.2-2.2,1-4,2.5-5.4
		c1.5-1.4,3.3-1.9,5.4-1.8c2.1,0.2,3.8,1.1,5,2.7c1.2,1.6,1.7,3.5,1.5,5.7L770.2,70c-0.2,2.2-1,4-2.5,5.4
		C766.3,76.7,764.5,77.3,762.3,77.1z M767.6,17c-2.1-0.2-3.9-1.2-5.3-2.9c-1.4-1.7-2-3.7-1.8-5.8c0.1-2,1.1-3.8,2.8-5.2
		c1.7-1.4,3.6-2,5.8-1.8c2.1,0.2,3.8,1.1,5.3,2.8c1.4,1.7,2.1,3.5,1.9,5.6c-0.2,2.2-1.1,4-2.8,5.4C771.7,16.6,769.8,17.2,767.6,17z"
		/>
</g>
<g>
	<path class="st1" d="M654.9,147c-2.9-0.2-5-1.6-6.1-4.1c-0.3-0.6-0.9-3.2-1.9-7.5l-18-1.6c-1.7,4.1-2.8,6.4-3.2,7
		c-1.5,2.3-3.8,3.3-6.6,3.1c-2-0.2-3.7-1-5-2.5c-1.3-1.5-1.9-3.2-1.7-5.3c0-0.9,0.3-1.9,0.9-3L631.6,94c1-2,2.4-3.7,4.2-4.9
		c1.8-1.2,3.9-1.8,6.1-1.6c4.7,0.4,7.7,3.1,9,8.2l11,41.6c0.3,1.3,0.5,2.5,0.4,3.4c-0.2,2-1,3.5-2.5,4.7
		C658.4,146.6,656.7,147.1,654.9,147z M640.1,106.1c-1,3.1-2.9,7.8-5.6,14.2l9,0.7L640.1,106.1z"/>
	<path class="st1" d="M689.6,147.3l-24.3-5.7c-3.3-0.7-5-2.6-5-5.4c0-1.9,0.8-3.5,2.3-4.9l19-16.9l-8.6-1.9
		c-1.5-0.4-2.8-1.2-3.8-2.3c-1-1.1-1.5-2.4-1.5-4c0-0.5,0.1-1.1,0.2-1.6c0.8-3.4,2.9-5.1,6.3-5.1c0.5,0,1.1,0.1,1.6,0.2l23.8,5.5
		c2.8,0.6,4.2,2.3,4.2,4.8c0,0.4,0,0.9-0.1,1.4c-0.3,1.4-1.2,2.7-2.5,3.9l-19.1,16.8l10.3,2.4c1.5,0.3,2.8,1.1,3.8,2.2
		s1.5,2.5,1.5,4.1c0,0.5-0.1,1.1-0.1,1.6c-0.8,3.4-2.9,5.1-6.3,5.1C690.8,147.4,690.2,147.4,689.6,147.3z"/>
</g>
<g>
	<path class="st0" d="M638,228.2c-7-1.1-12.6-4.3-16.8-9.5c-4.1-5.1-6.2-11.2-6.2-18.2c0-1.8,0.1-3.6,0.4-5.4
		c1.1-7.4,4.2-13.4,9.2-18.1c5-4.6,11-7,17.9-7c1.5,0,3,0.1,4.6,0.4c3.7,0.6,7.1,1.8,10.2,3.7c4,2.4,6,5.1,6,8.1
		c0,1.8-0.6,3.4-1.9,4.8c-1.3,1.4-2.8,2-4.7,2c-1.3,0-3.3-0.8-5.9-2.3c-1.9-1.1-3.9-1.8-6-2.1c-0.6-0.1-1.3-0.1-2-0.1
		c-3.2,0-5.9,1.2-8.1,3.6c-2.2,2.4-3.6,5.6-4.2,9.5c-0.2,1.1-0.3,2.3-0.3,3.4c0,3.4,0.8,6.3,2.5,8.6c1.8,2.4,4.3,3.9,7.4,4.4
		c0.7,0.1,1.5,0.1,2.2,0.1c1.3,0,3-0.2,4.9-0.7c1.9-0.5,3.3-0.7,4.1-0.7c2.1,0,3.8,0.8,5.2,2.5c1.4,1.7,1.9,3.5,1.5,5.5
		c-0.4,2.8-2.3,4.9-5.6,6.3c-2.6,1.1-5.8,1.6-9.6,1.6C641.1,228.6,639.5,228.5,638,228.2z"/>
	<path class="st0" d="M690.4,205.7l-19.3,6.7c1.3,1.3,3,1.9,5,1.9c1.1,0,2.3-0.2,3.6-0.7c1.7-0.6,3.5-2,5.5-4.2
		c2-2.2,3.5-3.5,4.5-3.9c0.6-0.2,1.2-0.3,1.8-0.3c1.7,0,3.3,0.6,4.6,1.9c1.3,1.2,2,2.7,2,4.4c0,2.7-1.7,5.6-5.1,8.7
		c-3,2.8-6.4,4.9-10,6.1c-2.6,0.9-5.2,1.3-7.7,1.3c-4.6,0-8.8-1.4-12.4-4.2c-3.6-2.8-6.3-6.6-7.9-11.3c-0.9-2.5-1.3-5.2-1.3-7.9
		c0-4.6,1.2-8.7,3.5-12.3c2.5-3.9,6-6.6,10.4-8c2.2-0.7,4.4-1.1,6.6-1.1c4.6,0,8.8,1.5,12.7,4.4c3.7,2.7,6.3,6.1,7.6,10.1
		c0.3,1,0.5,1.9,0.5,2.8C694.9,202.8,693.4,204.7,690.4,205.7z M671.6,196c-2.9,1-4.3,3.1-4.4,6.3l11.7-4c-1.3-1.7-3-2.6-5-2.6
		C673.2,195.6,672.4,195.7,671.6,196z"/>
	<path class="st0" d="M704.3,227.4c-2.1-0.1-3.8-1-5-2.6c-1.2-1.6-1.8-3.5-1.6-5.8l3.2-45.7c0.1-2.2,0.9-4,2.4-5.4
		c1.4-1.4,3.2-2,5.4-1.9c2.1,0.1,3.8,1,5,2.6s1.8,3.5,1.6,5.8l-3.2,45.7c-0.1,2.2-0.9,4-2.4,5.4
		C708.2,226.9,706.4,227.5,704.3,227.4z"/>
	<path class="st0" d="M735.7,227.9c-6.1,0.3-10.9-1-14.6-4c-3.7-3-5.6-7.1-5.8-12.5l-1-19.4c-0.1-2.2,0.5-4.1,1.8-5.7s3-2.4,5.1-2.5
		c2.1-0.1,3.8,0.6,5.3,2c1.4,1.4,2.2,3.2,2.3,5.5l1,19.1c0.1,1.6,0.7,2.8,1.7,3.6c1,0.8,2.2,1.2,3.7,1.2c1.4-0.1,2.6-0.6,3.5-1.6
		c0.9-0.9,1.4-2.2,1.3-3.8l-1-19.1c-0.1-2.2,0.4-4.1,1.7-5.7c1.3-1.6,3-2.4,5.1-2.5c2.1-0.1,3.9,0.5,5.3,1.9
		c1.4,1.4,2.2,3.2,2.3,5.5l1,19.3c0.3,5.4-1.2,9.8-4.5,13.1C746.5,225.7,741.8,227.6,735.7,227.9z"/>
	<path class="st0" d="M762,227.4c-2.1-0.1-3.8-1-5-2.6c-1.2-1.6-1.8-3.5-1.6-5.8l3.2-45.7c0.1-2.2,0.9-4,2.4-5.4
		c1.4-1.4,3.2-2,5.4-1.9c2.1,0.1,3.8,1,5,2.6c1.2,1.6,1.8,3.5,1.6,5.8l-3.2,45.7c-0.1,2.2-0.9,4-2.4,5.4
		C765.9,226.9,764.1,227.5,762,227.4z"/>
	<path class="st0" d="M810.4,223.7c-0.6,0.1-1.3,0.2-1.9,0.2c-1.7,0-3.2-0.6-4.4-1.9c-2.1,2.9-5,4.8-8.5,5.6
		c-1.4,0.3-2.9,0.5-4.3,0.5c-4.7,0-8.8-1.7-12.5-5s-6.1-7.7-7.4-13.1c-0.4-2-0.7-4-0.7-6c0-5,1.3-9.4,4-13.2s6.2-6.2,10.7-7.3
		c1.2-0.3,2.5-0.4,3.6-0.4c2.3,0,4.5,0.5,6.5,1.6c0.9-2.2,2.5-3.6,4.9-4.2c0.8-0.1,1.5-0.2,2.2-0.2c3.3,0,5.5,2.4,6.6,7.3l6,25.8
		c0.3,1.6,0.5,2.9,0.5,3.9C815.7,220.9,813.9,223,810.4,223.7z M785.1,203.9c0,1,0.1,2,0.3,3.1c0.5,2.1,1.4,3.9,2.7,5.3
		c1.3,1.4,2.8,2.1,4.5,2.1c1.9,0,3.4-0.8,4.5-2.3c1-1.3,1.5-3,1.5-5.1c0-0.9-0.1-1.9-0.4-3c-0.5-2.2-1.4-4-2.7-5.4
		c-1.3-1.4-2.8-2.1-4.4-2.1c-1.9,0-3.4,0.7-4.4,2.2C785.6,200.1,785.1,201.8,785.1,203.9z"/>
	<path class="st0" d="M830.6,186.1c1.6-1.7,3.9-2.5,6.9-2.3c1.9,0.1,3.5,0.9,4.7,2.2c1.3,1.5,1.9,3.5,1.8,5.8
		c-0.1,2.2-1.4,3.8-3.6,4.9c-2.1,0.7-4.3,1.5-6.4,2.2c-2.3,1-3.5,2.4-3.7,4.3l-1.1,16.4c-0.2,2.2-1,4-2.5,5.4
		c-1.4,1.4-3.2,2-5.4,1.9c-2.1-0.1-3.8-1-5-2.6c-1.2-1.6-1.8-3.5-1.6-5.7l2-29.1c0.2-2.3,1.1-4,2.8-5.3c1.5-1.1,3.2-1.6,5.1-1.4
		C827.6,183.1,829.6,184.1,830.6,186.1z"/>
</g>
</svg>
