<!-- Generator: Adobe Illustrator 24.0.0, SVG Export Plug-In  -->
<svg version="1.1" xmlns="http://www.w3.org/2000/svg" xmlns:xlink="http://www.w3.org/1999/xlink" x="0px" y="0px" width="295.6px"
	 height="84.1px" viewBox="0 0 295.6 84.1" style="enable-background:new 0 0 295.6 84.1;" xml:space="preserve">
<style type="text/css">
	.st0{fill:#FFFFFF;}
	.st1{fill:#FFFF00;}
</style>
<defs>
</defs>
<g>
	<path class="st0" d="M18.4,44.7L4.6,42c-1.3-0.3-2.5-0.9-3.3-1.8c-0.9-1-1.3-2.1-1.3-3.5c0-0.4,0.1-0.7,0.2-1.1L5.9,6.1
		c0.7-3.4,2.4-5,5.4-5c0.4,0,0.9,0,1.3,0.1l13.3,2.6c1.4,0.3,2.5,0.9,3.2,1.8c0.7,0.9,1.1,2,1.1,3.2c0,1.4-0.5,2.6-1.5,3.7
		c-1,1-2.2,1.5-3.6,1.5c-0.4,0-0.8,0-1.1-0.1l-8.1-1.6l-1,5.1l7.4,1.5c1.4,0.3,2.5,0.9,3.3,1.8c0.8,0.9,1.1,2,1.1,3.2
		c0,1.5-0.5,2.7-1.5,3.7c-1,1-2.2,1.5-3.7,1.5c-0.4,0-0.7,0-1.1-0.1l-7.5-1.5l-1,5.5l8.6,1.7c1.4,0.3,2.4,0.8,3.2,1.8
		c0.7,0.9,1.1,2,1.1,3.2c0,1.4-0.5,2.6-1.4,3.7c-1,1-2.2,1.5-3.6,1.5C19.2,44.8,18.8,44.8,18.4,44.7z"/>
	<path class="st0" d="M57.2,23.9c-0.7-2.9-1.6-8.7-2.7-17.3c0-0.3-0.1-0.7-0.1-1c0-1.4,0.4-2.6,1.3-3.6c0.9-0.9,2-1.5,3.5-1.7
		c1.6-0.2,2.9,0.2,4.1,1c1.1,0.9,1.8,2.2,2,3.9l3.8,30.8c0,0.3,0.1,0.6,0.1,0.9c0,1.5-0.4,2.7-1.3,3.6c-0.9,1-2,1.5-3.5,1.7
		c-0.7,0.1-1.6,0-2.5-0.4c-0.9-0.3-1.7-0.8-2.3-1.4l-18-18.5c0.7,2.9,1.6,8.6,2.7,17.1c0,0.3,0.1,0.7,0.1,1c0,1.4-0.4,2.6-1.3,3.6
		c-0.9,0.9-2,1.5-3.5,1.7c-1.6,0.2-2.9-0.2-4.1-1c-1.1-0.9-1.8-2.2-2-3.9L29.7,9.7c0-0.3-0.1-0.6-0.1-0.9c0-1.5,0.4-2.7,1.3-3.6
		c0.9-1,2-1.5,3.5-1.7c0.7-0.1,1.6,0,2.5,0.4c0.9,0.3,1.7,0.8,2.2,1.4L57.2,23.9z"/>
	<path class="st0" d="M84.2,44.6c-5.1-0.8-9.3-3.1-12.3-7c-3-3.8-4.5-8.2-4.5-13.4c0-1.3,0.1-2.6,0.3-3.9c0.8-5.4,3.1-9.8,6.7-13.3
		c3.7-3.4,8-5.1,13.1-5.1c1.1,0,2.2,0.1,3.4,0.3c2.7,0.4,5.2,1.3,7.5,2.7c2.9,1.8,4.4,3.7,4.4,6c0,1.3-0.5,2.5-1.4,3.5
		c-0.9,1-2.1,1.5-3.4,1.5c-0.9,0-2.4-0.6-4.3-1.7c-1.4-0.8-2.9-1.3-4.4-1.5c-0.5-0.1-1-0.1-1.5-0.1c-2.4,0-4.4,0.9-6,2.6
		c-1.6,1.7-2.6,4.1-3.1,7c-0.1,0.8-0.2,1.7-0.2,2.5c0,2.5,0.6,4.6,1.9,6.3c1.3,1.8,3.1,2.9,5.5,3.2c0.5,0.1,1.1,0.1,1.6,0.1
		c1,0,2.2-0.2,3.6-0.5c1.4-0.4,2.4-0.5,3-0.5c1.5,0,2.8,0.6,3.8,1.8c1,1.2,1.4,2.6,1.1,4c-0.3,2.1-1.7,3.6-4.1,4.6
		c-1.9,0.8-4.3,1.2-7,1.2C86.5,44.9,85.3,44.8,84.2,44.6z"/>
	<path class="st0" d="M114.7,44.1c-4.4-0.7-8.1-2.7-10.9-5.9c-2.9-3.2-4.3-7-4.3-11.3c0-0.9,0.1-1.9,0.2-2.8l3.1-19.3
		c0.2-1.5,0.8-2.7,1.8-3.5c1-0.8,2.1-1.3,3.5-1.3c1.6,0,2.9,0.5,4,1.5c1.1,1,1.6,2.3,1.6,3.9c0,0.4,0,0.7-0.1,1.1l-3,18.9
		c-0.1,0.5-0.1,1.1-0.1,1.6c0,2,0.6,3.7,1.9,5.1c1.3,1.4,3,2,5,2c1.8,0,3.3-0.6,4.6-1.9c1.3-1.2,2.1-2.8,2.4-4.7l3-18.8
		c0.3-1.5,0.9-2.7,1.8-3.6c1-0.8,2.1-1.3,3.5-1.3c1.6,0,2.9,0.5,4,1.5c1.1,1,1.6,2.3,1.6,3.9c0,0.4,0,0.7-0.1,1.1l-3.1,19.3
		c-0.7,4.3-2.7,7.9-6,10.6c-3.3,2.7-7.2,4.1-11.5,4.1C116.6,44.3,115.7,44.2,114.7,44.1z"/>
	<path class="st0" d="M152.2,44.7L138.4,42c-1.3-0.3-2.5-0.9-3.3-1.8c-0.9-1-1.3-2.1-1.3-3.5c0-0.4,0.1-0.7,0.2-1.1l5.7-29.5
		c0.7-3.4,2.4-5,5.4-5c0.4,0,0.9,0,1.3,0.1l13.3,2.6c1.4,0.3,2.5,0.9,3.2,1.8c0.7,0.9,1.1,2,1.1,3.2c0,1.4-0.5,2.6-1.5,3.7
		c-1,1-2.2,1.5-3.6,1.5c-0.4,0-0.8,0-1.1-0.1l-8.1-1.6l-1,5.1l7.4,1.5c1.4,0.3,2.5,0.9,3.3,1.8c0.8,0.9,1.1,2,1.1,3.2
		c0,1.5-0.5,2.7-1.5,3.7c-1,1-2.2,1.5-3.7,1.5c-0.4,0-0.7,0-1.1-0.1l-7.5-1.5l-1,5.5l8.6,1.7c1.4,0.3,2.4,0.8,3.2,1.8
		c0.7,0.9,1.1,2,1.1,3.2c0,1.4-0.5,2.6-1.4,3.7c-1,1-2.2,1.5-3.6,1.5C153,44.8,152.6,44.8,152.2,44.7z"/>
	<path class="st0" d="M191,23.9c-0.7-2.9-1.6-8.7-2.7-17.3c0-0.3-0.1-0.7-0.1-1c0-1.4,0.4-2.6,1.3-3.6c0.9-0.9,2-1.5,3.5-1.7
		c1.6-0.2,2.9,0.2,4.1,1c1.1,0.9,1.8,2.2,2,3.9l3.8,30.8c0,0.3,0.1,0.6,0.1,0.9c0,1.5-0.4,2.7-1.3,3.6c-0.9,1-2,1.5-3.5,1.7
		c-0.7,0.1-1.6,0-2.5-0.4c-0.9-0.3-1.7-0.8-2.3-1.4l-18-18.5c0.7,2.9,1.6,8.6,2.7,17.1c0,0.3,0.1,0.7,0.1,1c0,1.4-0.4,2.6-1.3,3.6
		c-0.9,0.9-2,1.5-3.5,1.7c-1.6,0.2-2.9-0.2-4.1-1c-1.1-0.9-1.8-2.2-2-3.9l-3.8-30.8c0-0.3-0.1-0.6-0.1-0.9c0-1.5,0.4-2.7,1.3-3.6
		c0.9-1,2-1.5,3.5-1.7c0.7-0.1,1.6,0,2.5,0.4c0.9,0.3,1.7,0.8,2.2,1.4L191,23.9z"/>
	<path class="st0" d="M225,11.2l-4.6,0.5l3.2,25.9c0,0.3,0.1,0.6,0.1,0.9c0,1.5-0.4,2.7-1.3,3.6c-0.9,1-2,1.5-3.5,1.7
		c-1.6,0.2-2.9-0.2-4.1-1c-1.1-0.9-1.8-2.2-2-3.9l-3.2-25.8l-4.6,0.5c-1.6,0.2-3-0.2-4-1.2c-0.9-0.8-1.4-1.9-1.6-3.3
		c-0.2-1.3,0.1-2.6,0.9-3.7c0.8-1.1,2-1.8,3.5-2L223.8,1c1.5-0.2,2.8,0.2,3.9,1.1c1,0.9,1.6,2,1.7,3.3c0.1,1.3-0.1,2.6-0.8,3.6
		C227.9,10.3,226.7,11,225,11.2z"/>
	<path class="st0" d="M238.7,29.3c0.1,1.9,0,4.8-0.3,8.7c-0.1,1.7-0.7,3-1.8,4c-1.1,0.9-2.5,1.3-4.1,1.2c-1.6-0.1-2.8-0.8-3.8-1.9
		c-0.9-1.1-1.3-2.5-1.1-4.2l2.7-30.6c0.1-1.7,0.8-3,1.8-4c1.1-0.9,2.5-1.3,4.2-1.2l9.6,0.8c4.3,0.4,7.7,1.7,10.1,3.8
		c2.5,2.3,3.8,5.4,3.8,9.4c0,0.6,0,1.2-0.1,1.8c-0.3,2.8-1.3,5.2-3.2,7c-1.7,1.7-3.9,2.8-6.6,3.3l6.9,8.9c0.9,1.1,1.3,2.3,1.1,3.4
		c-0.1,1.5-0.7,2.7-1.9,3.7c-1.1,1-2.5,1.5-4,1.3c-1.7-0.1-3.1-0.9-4-2.3L238.7,29.3z M244.9,12.4l-4.3-0.4l-0.6,6.9l4.3,0.4
		c2.5,0.2,3.8-0.8,4-3.2C248.5,13.9,247.4,12.6,244.9,12.4z"/>
	<path class="st0" d="M288.4,45.1c-2.1-0.2-3.6-1.2-4.5-3c-0.2-0.5-0.7-2.3-1.4-5.5l-13.2-1.1c-1.2,3-2,4.7-2.4,5.1
		c-1.1,1.7-2.8,2.4-4.9,2.2c-1.5-0.1-2.7-0.8-3.7-1.8c-1-1.1-1.4-2.4-1.3-3.9c0-0.7,0.3-1.4,0.7-2.2l13.5-28.7
		c0.7-1.5,1.8-2.7,3.1-3.6c1.3-0.9,2.8-1.3,4.5-1.1c3.4,0.3,5.6,2.3,6.6,6l8.1,30.5c0.3,1,0.4,1.8,0.3,2.5c-0.1,1.5-0.8,2.6-1.9,3.4
		C291,44.9,289.8,45.2,288.4,45.1z M277.6,15.1c-0.8,2.3-2.1,5.8-4.1,10.4l6.6,0.5L277.6,15.1z"/>
</g>
<g>
	<path class="st1" d="M14,83.3l-8.8-0.8c-1.1-0.1-1.9-0.5-2.5-1.3c-0.6-0.8-0.8-1.7-0.7-2.8l1.7-19.6c0.1-1.1,0.5-1.9,1.2-2.5
		c0.7-0.6,1.6-0.8,2.6-0.8c1,0.1,1.8,0.5,2.4,1.2c0.6,0.7,0.9,1.6,0.8,2.7L9.2,76.2l5.3,0.5c1,0.1,1.8,0.5,2.3,1.1
		c0.5,0.6,0.8,1.3,0.8,2.2c0,1-0.3,1.8-1,2.4C16,83,15.1,83.4,14,83.3z"/>
	<path class="st1" d="M36.7,83.8c-1.4-0.1-2.3-0.8-2.9-1.9c-0.1-0.3-0.4-1.5-0.9-3.6l-8.5-0.7c-0.8,1.9-1.3,3-1.5,3.3
		c-0.7,1.1-1.8,1.6-3.1,1.4c-0.9-0.1-1.7-0.5-2.4-1.2c-0.6-0.7-0.9-1.5-0.8-2.5c0-0.4,0.2-0.9,0.4-1.4l8.7-18.5c0.5-1,1.1-1.7,2-2.3
		c0.9-0.6,1.8-0.8,2.9-0.7c2.2,0.2,3.6,1.5,4.3,3.9l5.2,19.7c0.2,0.6,0.2,1.2,0.2,1.6c-0.1,0.9-0.5,1.7-1.2,2.2
		C38.4,83.7,37.6,83.9,36.7,83.8z M29.7,64.5c-0.5,1.5-1.4,3.7-2.6,6.7l4.3,0.4L29.7,64.5z"/>
	<path class="st1" d="M48.5,83.3c-2.1,0-4-0.3-5.8-1c-2.4-0.9-3.6-2.2-3.6-3.8c0-0.9,0.3-1.7,0.9-2.4c0.6-0.7,1.4-1,2.3-1
		c0.7,0,1.7,0.2,2.9,0.7c1.3,0.5,2.3,0.7,3,0.7c1.8,0,2.7-0.7,2.7-2.1c0-0.7-1-1.3-3.1-1.9c-2.7-0.8-4.6-1.5-5.6-2.1
		c-2-1.3-3.1-3.2-3.1-5.7c0-2.7,1-4.8,2.9-6.5c1.8-1.6,4.1-2.4,6.7-2.4c1.6,0,3.2,0.3,4.8,1c2,0.9,3,2,3,3.4c0,0.9-0.3,1.7-0.9,2.4
		c-0.6,0.7-1.4,1.1-2.4,1.1c-0.5,0-1.3-0.2-2.3-0.5c-1-0.4-1.8-0.5-2.4-0.5c-1.3,0-2,0.5-2,1.4c0,0.5,1,1,3.1,1.6
		c2.6,0.7,4.5,1.5,5.6,2.4c2,1.5,3.1,3.6,3.1,6.4c0,2.7-1,4.9-3,6.7C53.5,82.5,51.2,83.3,48.5,83.3z"/>
	<path class="st1" d="M79.7,83.3c-2.7,0.2-5-0.5-6.9-2c-2-1.5-3.1-3.6-3.2-6.2c-0.2-2.6,0.8-4.7,2.7-6.4c-1.5-1.2-2.3-2.8-2.4-4.8
		c-0.1-2.3,0.6-4.2,2.1-5.7c1.5-1.5,3.4-2.3,5.8-2.5c2.3-0.2,4.3,0.4,6,1.6c1.8,1.3,2.8,3.1,3,5.4c0.1,1.9-0.4,3.6-1.7,5.1
		c2.2,1.3,3.3,3.3,3.5,5.9c0.2,2.7-0.6,4.9-2.4,6.7C84.5,82.2,82.3,83.1,79.7,83.3z M78.2,62.1c-1.1,0.1-1.6,0.7-1.5,1.9
		c0.1,1.2,0.7,1.7,1.8,1.7c1.1-0.1,1.7-0.7,1.6-1.9C79.9,62.6,79.3,62,78.2,62.1z M78.9,71.4c-1.5,0.1-2.3,1-2.1,2.8
		c0.1,0.8,0.3,1.4,0.8,1.9c0.4,0.5,1,0.7,1.7,0.6c0.7,0,1.2-0.3,1.6-0.9s0.6-1.2,0.5-1.9C81.2,72.2,80.4,71.3,78.9,71.4z"/>
	<path class="st1" d="M111.9,83l-6.1,1.1c-0.2,0-0.4,0.1-0.7,0.1c-2,0-3.2-1-3.5-2.9l-3.4-19.4c0-0.2,0-0.5,0-0.7
		c0-0.9,0.3-1.6,0.8-2.3s1.3-1,2.1-1.2l5.8-1c1-0.2,2-0.2,3-0.2c3.3,0,6.1,1,8.3,3.1c2.2,2,3.6,4.9,4.2,8.4c0.2,1,0.2,1.9,0.2,2.9
		c0,3.2-1,5.9-2.9,8.1C117.9,81,115.3,82.4,111.9,83z M108,63.2l-2.3,0.4l2.4,13.4l2.6-0.5c3.1-0.5,4.7-2.5,4.7-5.7
		c0-0.6-0.1-1.2-0.2-1.8c-0.7-3.9-2.6-5.9-5.8-5.9C109,63,108.5,63.1,108,63.2z"/>
	<path class="st1" d="M121.4,79.5c0-0.2,0-0.5,0.1-0.7l3.1-19.7c0.1-1,0.5-1.7,1.1-2.3c0.6-0.6,1.4-0.8,2.2-0.8c1,0,1.9,0.3,2.6,1
		c0.7,0.6,1,1.5,1,2.5c0,0.2,0,0.5-0.1,0.7l-3.1,19.7c-0.1,1-0.5,1.7-1.1,2.3S125.9,83,125,83c-1,0-1.9-0.3-2.6-1
		C121.7,81.4,121.4,80.6,121.4,79.5z"/>
	<path class="st1" d="M144.9,63.1l-5.6-0.5L139,66l4.5,0.4c1.1,0.1,1.9,0.5,2.5,1.3c0.5,0.7,0.7,1.4,0.7,2.3
		c-0.1,0.9-0.4,1.6-1.1,2.2c-0.7,0.7-1.6,0.9-2.6,0.8l-4.6-0.4l-0.6,6.8c-0.1,1.1-0.5,1.9-1.2,2.5c-0.7,0.6-1.6,0.8-2.6,0.8
		c-1-0.1-1.8-0.5-2.4-1.2c-0.6-0.7-0.9-1.6-0.8-2.7l1.7-19.7c0.1-1,0.5-1.8,1.2-2.4c0.7-0.7,1.6-0.9,2.7-0.8l9,0.8
		c1,0.1,1.8,0.5,2.3,1.2c0.5,0.7,0.7,1.5,0.6,2.4c-0.1,0.8-0.4,1.6-1,2.1C146.7,63,145.9,63.2,144.9,63.1z"/>
	<path class="st1" d="M157.2,83.6l-8.9-1.7c-0.9-0.2-1.6-0.6-2.1-1.2c-0.6-0.6-0.8-1.4-0.8-2.2c0-0.2,0-0.5,0.1-0.7l3.7-19
		c0.4-2.2,1.6-3.2,3.4-3.2c0.3,0,0.6,0,0.8,0.1l8.6,1.7c0.9,0.2,1.6,0.6,2.1,1.2c0.5,0.6,0.7,1.3,0.7,2.1c0,0.9-0.3,1.7-1,2.4
		c-0.6,0.7-1.4,1-2.3,1c-0.3,0-0.5,0-0.7-0.1l-5.2-1l-0.6,3.3l4.8,1c0.9,0.2,1.6,0.6,2.1,1.2c0.5,0.6,0.7,1.3,0.7,2.1
		c0,0.9-0.3,1.7-1,2.4c-0.6,0.6-1.4,1-2.4,1c-0.2,0-0.5,0-0.7-0.1l-4.8-1l-0.7,3.5l5.5,1.1c0.9,0.2,1.6,0.5,2,1.1
		c0.5,0.6,0.7,1.3,0.7,2.1c0,0.9-0.3,1.7-0.9,2.4c-0.6,0.7-1.4,1-2.3,1C157.7,83.6,157.4,83.6,157.2,83.6z"/>
	<path class="st1" d="M170.6,73.6c0.1,1.2,0,3.1-0.2,5.6c0,1.1-0.4,2-1.2,2.6c-0.7,0.6-1.6,0.8-2.7,0.8c-1-0.1-1.8-0.5-2.4-1.2
		c-0.6-0.7-0.9-1.6-0.7-2.7l1.7-19.7c0.1-1.1,0.5-2,1.2-2.6c0.7-0.6,1.6-0.8,2.7-0.8l6.2,0.5c2.8,0.3,5,1.1,6.5,2.4
		c1.6,1.5,2.4,3.5,2.4,6.1c0,0.4,0,0.8,0,1.2c-0.2,1.8-0.9,3.3-2.1,4.5c-1.1,1.1-2.5,1.8-4.3,2.1l4.5,5.7c0.6,0.7,0.8,1.5,0.7,2.2
		c-0.1,0.9-0.5,1.7-1.2,2.4c-0.7,0.7-1.6,1-2.6,0.9c-1.1-0.1-2-0.6-2.6-1.5L170.6,73.6z M174.6,62.8l-2.7-0.2l-0.4,4.4l2.7,0.2
		c1.6,0.1,2.5-0.5,2.6-2C176.9,63.7,176.2,62.9,174.6,62.8z"/>
	<path class="st1" d="M194.9,83.6l-8.9-1.7c-0.9-0.2-1.6-0.6-2.1-1.2c-0.6-0.6-0.8-1.4-0.8-2.2c0-0.2,0-0.5,0.1-0.7l3.7-19
		c0.4-2.2,1.6-3.2,3.4-3.2c0.3,0,0.6,0,0.8,0.1l8.6,1.7c0.9,0.2,1.6,0.6,2.1,1.2c0.5,0.6,0.7,1.3,0.7,2.1c0,0.9-0.3,1.7-1,2.4
		c-0.6,0.7-1.4,1-2.3,1c-0.3,0-0.5,0-0.7-0.1l-5.2-1l-0.6,3.3l4.8,1c0.9,0.2,1.6,0.6,2.1,1.2c0.5,0.6,0.7,1.3,0.7,2.1
		c0,0.9-0.3,1.7-1,2.4c-0.6,0.6-1.4,1-2.4,1c-0.2,0-0.5,0-0.7-0.1l-4.8-1l-0.7,3.5l5.5,1.1c0.9,0.2,1.6,0.5,2,1.1
		c0.5,0.6,0.7,1.3,0.7,2.1c0,0.9-0.3,1.7-0.9,2.4c-0.6,0.7-1.4,1-2.3,1C195.4,83.6,195.2,83.6,194.9,83.6z"/>
	<path class="st1" d="M219.8,70.2c-0.5-1.9-1.1-5.6-1.8-11.2c0-0.2,0-0.4,0-0.6c0-0.9,0.3-1.7,0.9-2.3c0.6-0.6,1.3-1,2.2-1.1
		c1-0.1,1.9,0.1,2.6,0.7c0.7,0.6,1.2,1.4,1.3,2.5l2.4,19.8c0,0.2,0,0.4,0,0.6c0,0.9-0.3,1.7-0.8,2.3c-0.6,0.6-1.3,1-2.3,1.1
		c-0.5,0.1-1,0-1.6-0.2c-0.6-0.2-1.1-0.5-1.5-0.9L209.8,69c0.5,1.9,1.1,5.5,1.8,11c0,0.2,0,0.4,0,0.6c0,0.9-0.3,1.7-0.9,2.3
		c-0.6,0.6-1.3,1-2.2,1.1c-1,0.1-1.9-0.1-2.6-0.7c-0.7-0.6-1.2-1.4-1.3-2.5L202.1,61c0-0.2,0-0.4,0-0.6c0-0.9,0.3-1.7,0.8-2.3
		c0.6-0.6,1.3-1,2.3-1.1c0.5-0.1,1,0,1.6,0.2c0.6,0.2,1.1,0.5,1.4,0.9L219.8,70.2z"/>
	<path class="st1" d="M237.3,83.5c-3.3-0.5-6-2-8-4.5c-1.9-2.4-2.9-5.3-2.9-8.6c0-0.8,0.1-1.7,0.2-2.5c0.5-3.5,2-6.3,4.3-8.5
		c2.4-2.2,5.2-3.3,8.5-3.3c0.7,0,1.4,0.1,2.2,0.2c1.7,0.3,3.3,0.9,4.8,1.8c1.9,1.1,2.8,2.4,2.8,3.8c0,0.9-0.3,1.6-0.9,2.3
		c-0.6,0.6-1.3,1-2.2,1c-0.6,0-1.5-0.4-2.8-1.1c-0.9-0.5-1.8-0.8-2.9-1c-0.3,0-0.6-0.1-0.9-0.1c-1.5,0-2.8,0.6-3.8,1.7
		c-1,1.1-1.7,2.6-2,4.5c-0.1,0.5-0.1,1.1-0.1,1.6c0,1.6,0.4,3,1.2,4c0.8,1.2,2,1.8,3.5,2.1c0.4,0,0.7,0.1,1,0.1
		c0.6,0,1.4-0.1,2.3-0.4c0.9-0.2,1.5-0.4,1.9-0.4c1,0,1.8,0.4,2.4,1.2c0.6,0.8,0.9,1.6,0.7,2.6c-0.2,1.3-1.1,2.3-2.6,3
		c-1.2,0.5-2.8,0.8-4.5,0.8C238.7,83.7,238,83.6,237.3,83.5z"/>
	<path class="st1" d="M246.9,79.5c0-0.2,0-0.5,0.1-0.7l3.1-19.7c0.1-1,0.5-1.7,1.1-2.3c0.6-0.6,1.4-0.8,2.2-0.8c1,0,1.9,0.3,2.6,1
		c0.7,0.6,1,1.5,1,2.5c0,0.2,0,0.5-0.1,0.7l-3.1,19.7c-0.1,1-0.5,1.7-1.1,2.3s-1.4,0.8-2.2,0.8c-1,0-1.9-0.3-2.6-1
		C247.2,81.4,246.9,80.6,246.9,79.5z"/>
	<path class="st1" d="M274,83.8c-1.4-0.1-2.3-0.8-2.9-1.9c-0.1-0.3-0.4-1.5-0.9-3.6l-8.5-0.7c-0.8,1.9-1.3,3-1.5,3.3
		c-0.7,1.1-1.8,1.6-3.1,1.4c-0.9-0.1-1.7-0.5-2.4-1.2c-0.6-0.7-0.9-1.5-0.8-2.5c0-0.4,0.2-0.9,0.4-1.4l8.7-18.5c0.5-1,1.1-1.7,2-2.3
		c0.9-0.6,1.8-0.8,2.9-0.7c2.2,0.2,3.6,1.5,4.3,3.9l5.2,19.7c0.2,0.6,0.2,1.2,0.2,1.6c-0.1,0.9-0.5,1.7-1.2,2.2
		C275.7,83.7,274.9,83.9,274,83.8z M267,64.5c-0.5,1.5-1.4,3.7-2.6,6.7l4.3,0.4L267,64.5z"/>
	<path class="st1" d="M285.8,83.3c-2.1,0-4-0.3-5.8-1c-2.4-0.9-3.6-2.2-3.6-3.8c0-0.9,0.3-1.7,0.9-2.4c0.6-0.7,1.4-1,2.3-1
		c0.7,0,1.7,0.2,2.9,0.7c1.3,0.5,2.3,0.7,3,0.7c1.8,0,2.7-0.7,2.7-2.1c0-0.7-1-1.3-3.1-1.9c-2.7-0.8-4.6-1.5-5.6-2.1
		c-2-1.3-3.1-3.2-3.1-5.7c0-2.7,1-4.8,2.9-6.5c1.8-1.6,4.1-2.4,6.7-2.4c1.6,0,3.2,0.3,4.8,1c2,0.9,3,2,3,3.4c0,0.9-0.3,1.7-0.9,2.4
		c-0.6,0.7-1.4,1.1-2.4,1.1c-0.5,0-1.3-0.2-2.3-0.5c-1-0.4-1.8-0.5-2.4-0.5c-1.3,0-2,0.5-2,1.4c0,0.5,1,1,3.1,1.6
		c2.6,0.7,4.5,1.5,5.6,2.4c2,1.5,3.1,3.6,3.1,6.4c0,2.7-1,4.9-3,6.7C290.8,82.5,288.5,83.3,285.8,83.3z"/>
</g>
</svg>
