<!-- Generator: Adobe Illustrator 24.0.0, SVG Export Plug-In  -->
<svg version="1.1" xmlns="http://www.w3.org/2000/svg" xmlns:xlink="http://www.w3.org/1999/xlink" x="0px" y="0px" width="526.6px"
	 height="113.1px" viewBox="0 0 526.6 113.1" style="enable-background:new 0 0 526.6 113.1;" xml:space="preserve">
<style type="text/css">
	.st0{fill:#FFFFFF;}
	.st1{fill:#FFFF00;}
	.st2{fill:#E7CABB;}
	.st3{fill:#E6C9BA;}
	.st4{fill:#F6D6C5;}
</style>
<defs>
</defs>
<g>
	<path class="st0" d="M16.5,95c-3.7,0-7.1-0.6-10.2-1.8C2.1,91.6,0,89.4,0,86.5c0-1.6,0.5-3,1.6-4.2c1-1.2,2.4-1.8,4.1-1.8
		c1.2,0,2.9,0.4,5.2,1.2c2.2,0.8,4,1.2,5.2,1.2c3.2,0,4.8-1.3,4.8-3.8c0-1.2-1.8-2.4-5.4-3.4c-4.8-1.4-8.1-2.6-9.9-3.8
		C2,69.8,0.2,66.4,0.2,62c0-4.7,1.7-8.5,5.1-11.4c3.2-2.8,7.1-4.1,11.7-4.1c2.8,0,5.5,0.6,8.3,1.7c3.5,1.5,5.3,3.5,5.3,6
		c0,1.6-0.5,3-1.5,4.3c-1,1.2-2.4,1.9-4.1,1.9c-0.9,0-2.3-0.3-4.1-0.9c-1.8-0.6-3.1-0.9-4.1-0.9c-2.3,0-3.5,0.8-3.5,2.5
		c0,0.9,1.8,1.8,5.4,2.8c4.5,1.3,7.8,2.7,9.9,4.2c3.6,2.6,5.4,6.4,5.4,11.2c0,4.8-1.8,8.7-5.2,11.7C25.3,93.6,21.3,95,16.5,95z"/>
	<path class="st0" d="M63.8,76.6l-16,5.6c1.1,1.1,2.4,1.6,4.1,1.6c0.9,0,1.9-0.2,3-0.6c1.4-0.5,2.9-1.6,4.6-3.5
		c1.6-1.8,2.9-2.9,3.8-3.2c0.5-0.2,1-0.2,1.5-0.2c1.4,0,2.7,0.5,3.8,1.5c1.1,1,1.6,2.2,1.6,3.6c0,2.3-1.4,4.7-4.2,7.2
		c-2.5,2.3-5.3,4-8.3,5.1c-2.1,0.7-4.3,1.1-6.4,1.1c-3.8,0-7.3-1.2-10.3-3.5c-3-2.3-5.2-5.4-6.6-9.4c-0.7-2.1-1.1-4.3-1.1-6.5
		c0-3.8,1-7.2,2.9-10.2c2.1-3.2,5-5.4,8.6-6.7c1.8-0.6,3.6-0.9,5.5-0.9c3.8,0,7.3,1.2,10.6,3.6c3.1,2.3,5.2,5,6.3,8.3
		c0.3,0.8,0.4,1.6,0.4,2.3C67.6,74.2,66.3,75.7,63.8,76.6z M48.3,68.5c-2.4,0.8-3.6,2.6-3.6,5.2l9.7-3.3c-1.1-1.4-2.5-2.2-4.1-2.2
		C49.6,68.2,48.9,68.3,48.3,68.5z"/>
	<path class="st0" d="M75.4,94.5c-1.8-0.1-3.2-0.8-4.2-2.1c-1-1.3-1.5-2.9-1.3-4.8l2.7-37.9c0.1-1.9,0.8-3.4,2-4.5
		c1.2-1.2,2.7-1.7,4.4-1.5c1.8,0.1,3.2,0.8,4.2,2.1c1,1.3,1.5,2.9,1.3,4.8l-2.7,37.9c-0.1,1.9-0.8,3.4-2,4.5
		C78.6,94.1,77.1,94.6,75.4,94.5z"/>
	<path class="st0" d="M114,76.6l-16,5.6c1.1,1.1,2.4,1.6,4.1,1.6c0.9,0,1.9-0.2,3-0.6c1.4-0.5,2.9-1.6,4.6-3.5
		c1.6-1.8,2.9-2.9,3.8-3.2c0.5-0.2,1-0.2,1.5-0.2c1.4,0,2.7,0.5,3.8,1.5c1.1,1,1.6,2.2,1.6,3.6c0,2.3-1.4,4.7-4.2,7.2
		c-2.5,2.3-5.3,4-8.3,5.1c-2.1,0.7-4.3,1.1-6.4,1.1c-3.8,0-7.3-1.2-10.3-3.5c-3-2.3-5.2-5.4-6.6-9.4c-0.7-2.1-1.1-4.3-1.1-6.5
		c0-3.8,1-7.2,2.9-10.2c2.1-3.2,5-5.4,8.6-6.7c1.8-0.6,3.6-0.9,5.5-0.9c3.8,0,7.3,1.2,10.6,3.6c3.1,2.3,5.2,5,6.3,8.3
		c0.3,0.8,0.4,1.6,0.4,2.3C117.8,74.2,116.5,75.7,114,76.6z M98.4,68.5c-2.4,0.8-3.6,2.6-3.6,5.2l9.7-3.3c-1.1-1.4-2.5-2.2-4.1-2.2
		C99.7,68.2,99.1,68.3,98.4,68.5z"/>
	<path class="st0" d="M138.6,94.8c-5.1,0.3-9.5-1.3-13-4.9c-3.4-3.4-5.2-7.7-5.5-12.8c-0.2-5,1.2-9.4,4.2-13.3
		c3.2-4,7.3-6.1,12.3-6.4c2.7-0.1,5.3,0.3,7.8,1.3c3.2,1.2,4.8,3,4.9,5.2c0.1,1.3-0.2,2.6-1,3.8c-0.9,1.4-2.1,2.2-3.6,2.3
		c-0.8,0-2-0.2-3.5-0.7s-2.7-0.7-3.5-0.7c-1.9,0.1-3.3,0.9-4.3,2.3c-1,1.5-1.4,3.3-1.3,5.5c0.1,2,0.8,3.7,1.9,5.1
		c1.2,1.4,2.6,2,4.4,1.9c0.8,0,1.9-0.4,3.3-1.1c1.4-0.7,2.5-1,3.2-1.1c1.4-0.1,2.7,0.4,3.8,1.4c1.1,1,1.7,2.3,1.8,3.7
		c0.1,2.4-1.4,4.4-4.5,6C143.6,93.9,141.1,94.6,138.6,94.8z"/>
	<path class="st0" d="M166.2,94.8c-5.1,0.3-9.5-1.3-13-4.9c-3.4-3.4-5.2-7.7-5.5-12.8c-0.2-5,1.2-9.4,4.2-13.3
		c3.2-4,7.3-6.1,12.3-6.4c2.7-0.1,5.3,0.3,7.8,1.3c3.2,1.2,4.8,3,4.9,5.2c0.1,1.3-0.2,2.6-1,3.8c-0.9,1.4-2.1,2.2-3.6,2.3
		c-0.8,0-2-0.2-3.5-0.7s-2.7-0.7-3.5-0.7c-1.9,0.1-3.3,0.9-4.3,2.3c-1,1.5-1.4,3.3-1.3,5.5c0.1,2,0.8,3.7,1.9,5.1
		c1.2,1.4,2.6,2,4.4,1.9c0.8,0,1.9-0.4,3.3-1.1c1.4-0.7,2.5-1,3.2-1.1c1.4-0.1,2.7,0.4,3.8,1.4c1.1,1,1.7,2.3,1.8,3.7
		c0.1,2.4-1.4,4.4-4.5,6C171.2,93.9,168.7,94.6,166.2,94.8z"/>
	<path class="st0" d="M182.1,57.7c-1.8,0.1-3.3-0.5-4.7-1.7c-1.4-1.3-2.1-2.8-2.2-4.6c-0.1-1.7,0.5-3.2,1.8-4.6
		c1.3-1.4,2.7-2.1,4.5-2.2c1.7-0.1,3.3,0.4,4.7,1.6s2.1,2.7,2.2,4.4c0.1,1.8-0.5,3.4-1.7,4.8C185.4,56.9,183.9,57.6,182.1,57.7z
		 M184,94.5c-1.8,0.1-3.2-0.4-4.4-1.6c-1.2-1.2-1.8-2.7-1.9-4.5l-1.2-23.7c-0.1-1.9,0.3-3.4,1.4-4.7c1-1.3,2.5-2,4.2-2.1
		c1.8-0.1,3.2,0.5,4.4,1.6c1.2,1.2,1.8,2.7,1.9,4.5l1.3,23.7c0.1,1.9-0.4,3.4-1.5,4.7C187.2,93.8,185.8,94.4,184,94.5z"/>
	<path class="st0" d="M208.4,95c-5.1,0.2-9.5-1.4-13-4.9c-3.4-3.4-5.2-7.7-5.5-12.8c-0.2-5,1.2-9.4,4.2-13.3c3.2-4,7.3-6.1,12.3-6.4
		c5.1-0.2,9.4,1.5,12.9,5.1c3.4,3.5,5.3,7.7,5.6,12.7c0.2,5.1-1.1,9.6-4.1,13.3C217.7,92.6,213.6,94.7,208.4,95z M207.1,68.8
		c-1.7,0.1-3,0.9-3.9,2.4s-1.3,3.3-1.2,5.5c0.1,2.1,0.7,3.8,1.8,5.2c1.1,1.4,2.4,2,4.1,1.9c1.7-0.1,3-0.9,3.9-2.3s1.3-3.3,1.2-5.4
		c-0.1-2.1-0.7-3.8-1.8-5.2C210.1,69.4,208.8,68.7,207.1,68.8z"/>
	<path class="st0" d="M248.6,96.4c-1.4-0.3-2.5-1-3.3-2.1c-0.8-1.1-1.2-2.3-1.2-3.8c0-0.6,0.1-1.2,0.2-1.8l3.5-15.1
		c0.1-0.5,0.2-1,0.2-1.5c0-1.2-0.4-2.2-1.3-2.9c-0.9-0.7-1.9-1.1-3.1-1.1c-2.1,0-3.4,1.2-4,3.6l-3.5,15.1c-0.4,1.5-1.1,2.8-2.2,3.7
		c-1.1,0.9-2.3,1.4-3.7,1.4c-0.5,0-1-0.1-1.4-0.2c-1.4-0.3-2.6-1-3.4-2.1c-0.8-1.1-1.2-2.3-1.2-3.8c0-0.6,0.1-1.2,0.2-1.8l5.3-23.1
		c0.4-1.6,1.1-2.8,2.2-3.7c1.1-0.9,2.3-1.4,3.7-1.4c2.6,0,4.4,1,5.4,3.1c1.4-0.7,2.9-1,4.6-1c1.2,0,2.4,0.2,3.8,0.5
		c3.2,0.7,5.9,2.2,7.8,4.5c2,2.3,2.9,5,2.9,8.1c0,1.2-0.1,2.3-0.4,3.6l-3.9,16.6c-0.3,1.6-1,2.8-2.1,3.7c-1.1,0.9-2.3,1.4-3.8,1.4
		C249.6,96.6,249.1,96.5,248.6,96.4z"/>
	<path class="st0" d="M291.9,91.5c-0.5,0.1-1.1,0.2-1.6,0.2c-1.4,0-2.6-0.5-3.6-1.6c-1.8,2.4-4.1,4-7,4.6c-1.2,0.3-2.4,0.4-3.6,0.4
		c-3.9,0-7.3-1.4-10.3-4.1s-5.1-6.3-6.1-10.8c-0.4-1.6-0.6-3.3-0.6-4.9c0-4.2,1.1-7.8,3.3-11c2.2-3.1,5.2-5.2,8.8-6
		c1-0.2,2-0.4,3-0.4c1.9,0,3.7,0.4,5.4,1.3c0.7-1.8,2.1-3,4.1-3.5c0.7-0.1,1.3-0.2,1.9-0.2c2.7,0,4.5,2,5.5,6L296,83
		c0.3,1.3,0.4,2.4,0.4,3.3C296.4,89.1,294.9,90.8,291.9,91.5z M271,75c0,0.8,0.1,1.7,0.2,2.5c0.4,1.8,1.2,3.2,2.2,4.4
		c1.1,1.2,2.3,1.7,3.7,1.7c1.6,0,2.8-0.6,3.7-1.9c0.8-1.1,1.2-2.5,1.2-4.2c0-0.8-0.1-1.6-0.3-2.5c-0.4-1.8-1.2-3.3-2.2-4.5
		c-1.1-1.2-2.3-1.8-3.6-1.8c-1.6,0-2.8,0.6-3.7,1.8C271.4,71.9,271,73.3,271,75z"/>
	<path class="st1" d="M345.6,91.5c-0.5,0.1-1.1,0.2-1.6,0.2c-1.4,0-2.6-0.5-3.6-1.6c-1.8,2.4-4.1,4-7,4.6c-1.2,0.3-2.4,0.4-3.6,0.4
		c-3.9,0-7.3-1.4-10.3-4.1s-5.1-6.3-6.1-10.8c-0.4-1.6-0.6-3.3-0.6-4.9c0-4.2,1.1-7.8,3.3-11c2.2-3.1,5.2-5.2,8.8-6
		c1-0.2,2-0.4,3-0.4c1.9,0,3.7,0.4,5.4,1.3c0.7-1.8,2.1-3,4.1-3.5c0.7-0.1,1.3-0.2,1.9-0.2c2.7,0,4.5,2,5.5,6l4.9,21.4
		c0.3,1.3,0.4,2.4,0.4,3.3C350,89.1,348.5,90.8,345.6,91.5z M324.7,75c0,0.8,0.1,1.7,0.2,2.5c0.4,1.8,1.2,3.2,2.2,4.4
		c1.1,1.2,2.3,1.7,3.7,1.7c1.6,0,2.8-0.6,3.7-1.9c0.8-1.1,1.2-2.5,1.2-4.2c0-0.8-0.1-1.6-0.3-2.5c-0.4-1.8-1.2-3.3-2.2-4.5
		c-1.1-1.2-2.3-1.8-3.6-1.8c-1.6,0-2.8,0.6-3.7,1.8C325.1,71.9,324.7,73.3,324.7,75z"/>
	<path class="st1" d="M386.4,102.6c-0.7,0.2-1.3,0.3-2,0.3c-2.8,0-4.8-1.5-5.8-4.5l-2.6-7.5c-2.8,3-6.3,4.6-10.6,4.6
		c-3.7,0-7-1.3-10.1-3.8c-2.9-2.4-5-5.4-6.2-9c-0.9-2.6-1.4-5.2-1.4-7.9c0-3.5,0.8-6.6,2.3-9.2c1.8-2.9,4.4-5,7.8-6.2
		c1.4-0.5,2.9-0.7,4.4-0.7c1.5,0,2.8,0.3,4.1,0.8c0.5-1.9,1.8-3.2,3.8-3.9c0.7-0.3,1.3-0.4,2-0.4c2.8,0,4.7,1.5,5.8,4.5l12,34.8
		c0.3,0.8,0.4,1.6,0.4,2.5C390.4,99.8,389.1,101.7,386.4,102.6z M363,69.5c-2.1,0.7-3.2,2.6-3.2,5.5c0,1.1,0.2,2.2,0.6,3.4
		c0.5,1.6,1.4,2.9,2.5,4c1.1,1,2.3,1.5,3.6,1.5c0.5,0,1-0.1,1.4-0.2c2.2-0.7,3.3-2.5,3.3-5.4c0-1.2-0.2-2.4-0.7-3.7
		c-1.2-3.5-3.1-5.3-5.9-5.3C364.1,69.3,363.5,69.4,363,69.5z"/>
	<path class="st1" d="M404.5,95c-5,0.2-9-0.9-12.1-3.3c-3-2.4-4.6-5.9-4.8-10.3l-0.9-16c-0.1-1.9,0.4-3.4,1.5-4.7
		c1-1.3,2.5-2,4.2-2.1c1.7-0.1,3.2,0.5,4.4,1.6c1.2,1.2,1.8,2.7,1.9,4.5l0.8,15.8c0.1,1.3,0.5,2.3,1.4,3c0.8,0.7,1.9,1,3.1,1
		c1.2-0.1,2.1-0.5,2.9-1.3c0.8-0.8,1.1-1.8,1-3.1l-0.8-15.8c-0.1-1.9,0.3-3.4,1.4-4.7c1-1.3,2.5-2,4.2-2.1c1.8-0.1,3.2,0.5,4.4,1.6
		c1.2,1.2,1.8,2.7,1.9,4.6l0.9,16c0.2,4.5-1,8.1-3.7,10.8C413.4,93.2,409.5,94.7,404.5,95z"/>
	<path class="st1" d="M425.1,57.7c-1.8,0.1-3.3-0.5-4.7-1.7c-1.4-1.3-2.1-2.8-2.2-4.6c-0.1-1.7,0.5-3.2,1.8-4.6
		c1.3-1.4,2.7-2.1,4.5-2.2c1.7-0.1,3.3,0.4,4.7,1.6s2.1,2.7,2.2,4.4c0.1,1.8-0.5,3.4-1.7,4.8C428.4,56.9,426.9,57.6,425.1,57.7z
		 M427,94.5c-1.8,0.1-3.2-0.4-4.4-1.6c-1.2-1.2-1.8-2.7-1.9-4.5l-1.2-23.7c-0.1-1.9,0.3-3.4,1.4-4.7c1-1.3,2.5-2,4.2-2.1
		c1.8-0.1,3.2,0.5,4.4,1.6c1.2,1.2,1.8,2.7,1.9,4.5l1.3,23.7c0.1,1.9-0.4,3.4-1.5,4.7C430.2,93.8,428.8,94.4,427,94.5z"/>
</g>
<g>
	<path class="st2" d="M509.3,75.2c-0.1,0.1-0.2,0.2-0.2,0.2l0,0C509.1,75.3,509.2,75.2,509.3,75.2L509.3,75.2z"/>
	<path class="st2" d="M500.8,85.9C500.8,86,500.8,86,500.8,85.9C500.8,86,500.8,86,500.8,85.9C500.8,85.9,500.8,85.9,500.8,85.9z"/>
	<path class="st2" d="M500.8,83.7C500.8,83.7,500.8,83.6,500.8,83.7C500.8,83.6,500.8,83.7,500.8,83.7
		C500.8,83.7,500.8,83.7,500.8,83.7z"/>
	<path class="st3" d="M501.7,83.2C501.7,83.2,501.7,83.2,501.7,83.2C501.7,83.2,501.7,83.2,501.7,83.2
		C501.7,83.2,501.7,83.2,501.7,83.2z"/>
	<path class="st3" d="M501.7,83.2C501.7,83.2,501.7,83.2,501.7,83.2C501.7,83.2,501.7,83.2,501.7,83.2
		C501.7,83.2,501.7,83.2,501.7,83.2z"/>
	<path class="st3" d="M504.6,80.4c0,0-0.1-0.1-0.1-0.1c0,0,0,0,0,0C504.5,80.3,504.6,80.4,504.6,80.4
		C504.6,80.4,504.6,80.4,504.6,80.4z"/>
	<path class="st4" d="M508.9,76.1C508.9,76.1,509,76.1,508.9,76.1C509,76.1,508.9,76.1,508.9,76.1C508.9,76.1,508.9,76.1,508.9,76.1
		z"/>
	<path d="M526.6,50.6c0-0.9-0.2-1.8-0.4-2.7c-1.3-4.7-5.9-7.6-10.7-6.9c-1.9,0.3-3.6,1-5,2.3c-0.5-0.8-1-1.7-1.5-2.5
		c0,0-0.1-0.1-0.1-0.1c0,0-0.1,0-0.1-0.1c-0.1-0.2-0.3-0.3-0.4-0.5c-1.4-1.5-3.1-2.4-5-2.9c-0.2,0-0.5-0.1-0.7-0.1
		c-2.7-0.4-5.1,0.4-7.3,1.9c-1.4-6.8-9.4-10.4-15.4-6v-0.5c0-7.6,0-15.3,0-22.9c0-4.5-3.3-8.6-7.9-9.4C465.5-1,460.2,4,460.3,9.8
		c0.1,8.5,0,17,0,25.5c0,0.2,0,0.4,0,0.7c0,0.2,0.1,0.3,0.1,0.5c0,0.3,0,0.6,0,0.9c0,0,0,0.1-0.1,0.1c0,0.4,0,0.8,0,1.2
		c0,0.2,0,0.4,0.1,0.6c0,0.1,0,0.2-0.1,0.3l0,0l0,0c0,0.3,0,0.6,0,0.8c0,0.1,0,0.2,0.1,0.2c0,0.1,0,0.2,0,0.4c0,0.2,0,0.4-0.1,0.6
		c0,3.5,0,7.1,0,10.6c0,0.7-0.2,1.2-0.6,1.8c-3.4,3.9-6.8,7.9-10.1,11.8c-1.9,2.3-2.9,4.9-3.1,7.8c-0.1,2.6,0.8,5,2,7.3
		c1.5,2.9,3,5.8,4.5,8.7c1.8,3.6,3.6,7.3,5.6,10.9c1.5,2.7,3.9,4.3,7,4.8c0.8,0.1,1.7,0.1,2.5,0.2v0.6c0,1.7,0,3.3,0,5
		c0,1.4,0.8,2.2,2.1,2.2h4.6c7.6,0,15.3,0,22.9,0c6.3,0,12.6,0,18.9,0c1.5,0,2.2-0.7,2.2-2.2v-5.7c0.1,0,0.2-0.1,0.2-0.1
		c4.4-1,7.6-4.9,7.6-9.5C526.6,80.6,526.6,65.6,526.6,50.6z M522.5,96.7c-0.5,2.7-2.7,4.5-5.5,4.6c-1.5,0.1-2.1,0.8-2.1,2.3v5
		c0,0.1,0,0.3,0,0.5H472v-2.7c0-1,0-2.1,0-3.1c0-1.2-0.8-2-2-2c-1.2,0-2.4,0-3.6-0.1c-2.1-0.2-3.6-1.3-4.6-3.1c-3-5.9-6-11.7-9-17.6
		c-0.7-1.3-1.5-2.6-2-4c-1.1-3.2-0.4-6,1.8-8.6c2.3-2.7,4.6-5.3,6.9-8c0.2-0.2,0.4-0.5,0.7-0.9v16.4c0,0.2,0,0.4,0,0.6
		c0,0.1,0,0.2,0,0.4c0,0,0.1,0,0.1,0c0,0.1,0,0.2,0,0.3c0.4,0.3,0.9,0.6,1.3,1c0,0,0,0.1,0,0.1c1.1,0.1,1.9-0.4,2.4-1.4
		c0,0,0-0.1,0-0.1c0-0.1,0-0.2,0-0.3v-1.6c0-0.2,0-0.3,0-0.5c0-0.1,0-0.2-0.1-0.2c0-0.1,0-0.2,0-0.4c0-0.1,0-0.2,0-0.2
		c0,0,0-0.1,0-0.1c0-0.1,0-0.3,0-0.4V37.9c0-0.2,0-0.3,0-0.5c0,0,0-0.1,0-0.1c0-0.3,0-0.6,0-0.9c0-0.2,0-0.4,0-0.6v-0.8
		c0-0.1,0-0.3,0-0.4v-0.5c0-0.3,0-0.7,0-1c0-0.1,0-0.2,0-0.2c0-0.2,0-0.4,0-0.6l0,0v-1.1c0-2.1,0-4.2,0-6.3V9.9c0-2.7,1.7-5,4.2-5.7
		c2.7-0.7,5.3,0.3,6.7,2.7c0.6,0.9,0.8,2,0.8,3.1v12.4c0,7.7,0,15.4,0,23.1c0,3,0,6,0,9c0,1.5,1.2,2.4,2.6,1.9
		c0.8-0.2,1.3-1,1.3-1.8c0-1.7,0-3.3,0-5c0-2.8,0-5.7,0-8.5c0-2.2,0.9-4,2.8-5.2c2-1.2,4.2-1.2,6.2,0.1c1.8,1.2,2.7,2.9,2.7,5.1
		c0,4.4,0,8.9,0,13.3c0,1.1,0.5,1.8,1.5,2.1c1.2,0.3,2.4-0.6,2.4-1.8c0-2.5,0-5,0-7.5c-0.1-2.7,1.6-5.1,4.1-5.9
		c2.4-0.8,5.1,0.1,6.6,2.3c0.7,1,1,2.2,1,3.4c0,2.6,0,5.1,0,7.7c0,0.9,0.5,1.6,1.3,1.9c0.9,0.3,1.7,0,2.2-0.8
		c0.2-0.3,0.3-0.7,0.3-1.1c0-1.3,0-2.6,0-3.8c0-3.2,2.4-5.7,5.6-5.9c3-0.2,5.6,2,6.1,5c0,0.4,0.1,0.7,0.1,1.1c0,14,0,28,0,42
		C522.7,94.2,522.8,95.5,522.5,96.7z"/>
	<path class="st4" d="M522.7,92.9c0-14,0-28,0-42c0-0.3,0-0.7-0.1-1.1c-0.5-3-3.1-5.2-6.1-5c-3.2,0.2-5.5,2.7-5.6,5.9
		c0,1.3,0,2.6,0,3.8c0,0.4-0.1,0.8-0.3,1.1c-0.5,0.8-1.3,1-2.2,0.8c-0.8-0.2-1.3-1-1.3-1.9c0-2.6,0-5.1,0-7.7c0-1.2-0.3-2.4-1-3.4
		c-1.5-2.1-4.2-3.1-6.6-2.3c-2.6,0.8-4.2,3.2-4.1,5.9c0.1,2.5,0,5,0,7.5c0,1.3-1.2,2.1-2.4,1.8c-0.9-0.2-1.5-1-1.5-2.1
		c0-4.4,0-8.9,0-13.3c0-2.2-0.9-3.9-2.7-5.1c-2-1.3-4.1-1.3-6.2-0.1c-1.9,1.2-2.8,2.9-2.8,5.2c0,2.8,0,5.7,0,8.5c0,1.7,0,3.3,0,5
		c0,0.9-0.5,1.6-1.3,1.8c-1.3,0.4-2.6-0.5-2.6-1.9c0-3,0-6,0-9c0-7.7,0-15.4,0-23.1V9.9c0-1.1-0.2-2.2-0.8-3.1
		c-1.4-2.4-4-3.4-6.7-2.7c-2.5,0.7-4.2,3-4.2,5.7v15.1c0,2.1,0,4.2,0,6.3v1.1l0,0c0,0.2,0,0.4,0,0.6c0,0.1,0,0.2,0,0.2
		c0,0.3,0,0.7,0,1v0.5c0,0.1,0,0.3,0,0.4v0.8c0,0.2,0,0.4,0,0.6c0,0.3,0,0.6,0,0.9c0,0,0,0.1,0,0.1c0,0.1,0,0.3,0,0.5v34.7
		c0,0.1,0,0.3,0,0.4c0,0,0,0.1,0,0.1c0,0.1,0,0.2,0,0.2c0,0.1,0,0.2,0,0.4c0,0.1,0,0.2,0.1,0.2c0,0.2,0,0.3,0,0.5v1.6
		c0,0.1,0,0.2,0,0.3c0,0,0,0.1,0,0.1c-0.5,1-1.2,1.5-2.4,1.4c0,0,0-0.1,0-0.1c-0.4-0.3-0.9-0.6-1.3-1c0-0.1,0-0.2,0-0.3
		c0,0-0.1,0-0.1,0c0-0.1,0-0.2,0-0.4c0-0.2,0-0.4,0-0.6V59.2c-0.3,0.4-0.5,0.6-0.7,0.9c-2.3,2.7-4.6,5.3-6.9,8
		c-2.2,2.5-2.9,5.4-1.8,8.6c0.5,1.4,1.3,2.7,2,4c3,5.9,6,11.7,9,17.6c0.9,1.8,2.5,2.9,4.6,3.1c1.2,0.1,2.4,0,3.6,0.1
		c1.2,0,2,0.8,2,2c0,1,0,2.1,0,3.1v2.7h42.9c0-0.2,0-0.4,0-0.5v-5c0-1.5,0.6-2.2,2.1-2.3c2.8-0.2,5-2,5.5-4.6
		C522.8,95.5,522.7,94.2,522.7,92.9z M509.1,75.4L509.1,75.4c0.1-0.1,0.1-0.2,0.2-0.2l0,0C509.2,75.2,509.1,75.3,509.1,75.4z"/>
</g>
</svg>
