<!-- Generator: Adobe Illustrator 24.0.0, SVG Export Plug-In  -->
<svg version="1.1" xmlns="http://www.w3.org/2000/svg" xmlns:xlink="http://www.w3.org/1999/xlink" x="0px" y="0px" width="203.7px"
	 height="193.1px" viewBox="0 0 203.7 193.1" style="enable-background:new 0 0 203.7 193.1;" xml:space="preserve">
<style type="text/css">
	.st0{fill:#350919;}
	.st1{fill:#FCC5D5;}
	.st2{fill:#EFA0BC;}
	.st3{fill:#FFFFFF;}
	.st4{fill:#070707;}
	.st5{fill:#E0D4A0;}
	.st6{fill:#C9B977;}
</style>
<defs>
</defs>
<g>
	<g>
		<path class="st0" d="M66,117.7c0,0,4.3,66.8,2.1,68.7c-2.1,2-14,0.2-16.1,3.9c-2.1,3.7,18,3.5,20.6,1.2c2.6-2.3,0-73.8,0-73.8H66z
			"/>
		<path class="st0" d="M127.2,116.1c0,0-4.3,66.8-2.1,68.7c2.1,2,14,0.2,16.1,3.9c2.1,3.7-18,3.5-20.6,1.2c-2.6-2.3,0-73.8,0-73.8
			H127.2z"/>
	</g>
	<g>
		<path class="st1" d="M147.4,129.5c2.1,0.9,9,3.3,14.7-0.3c6.7-4.3,6.7-9.4,6.7-9.4s10.2,4,19.6-4.6c9.4-8.6,5.1-25.7,5.1-25.7
			s8.8-4.6,7.8-14C199.5,60.5,184,59.6,184,59.6s4.8-11.5-3.8-19.6c-8.6-8-19.8-6.2-19.8-6.2s2.1-6.2-3.2-9.9
			c-5.4-3.8-9.6-1.5-9.6-1.5s0.9-12.2-10.2-16.3c-10.6-3.9-19.6,2.3-19.6,2.3s-6.7-7.2-16.3-5.9c-9.6,1.3-15,6.2-15,6.2
			S80.1,2,69.9,5C59.7,7.9,58.7,17.3,58.7,17.3s-17.2-4.8-26.6,7c-9.4,11.8-4.8,21.6-4.8,21.6S11.8,43.8,7,58.6
			c-4.8,14.7,4,24.6,4,24.6s-12.6,12.6-7.2,26.2C9.1,123.1,22,120.2,22,120.2S23,132,35.6,132.8c12.6,0.8,17.9-3.8,17.9-3.8
			s11,9.1,21.7,8C86,136,90,131.7,90,131.7s10.2,5.8,20.1,5.4c9.9-0.4,17.9-7.1,17.9-7.1s3.2,5.5,9.9,4.8
			C144.6,134.2,147,129.4,147.4,129.5z"/>
		<g>
			<path class="st2" d="M203.6,75.4c-1.3-11.6-10.1-16.4-16.4-17.8c1-4.4,1.8-12.8-5.2-19.3c-6.5-6.1-14.4-7-18.5-7c0,0-0.1,0-0.1,0
				c0-3-0.9-6.7-4.7-9.3c-2.6-1.8-5.1-2.7-7.4-2.8c-0.5-2.2-1.3-3.8-1.6-4.4c-1.7-4-4.9-8.5-11.3-10.9c-2.6-1-5.3-1.5-8.1-1.5
				c-3,0-5.7,0.6-7.9,1.3c0,0,0,0-0.1,0c0,0-0.3,0.1-0.6,0.2c-0.1,0-0.1,0.1-0.2,0.1c-0.1,0-0.1,0-0.2,0.1c-1.2,0.5-2.3,0.9-3.1,1.4
				c-2.4-2-7.5-5.5-14.3-5.5c-0.9,0-1.8,0.1-2.7,0.2C94,1.2,89,4,86.6,5.7C84.5,4.1,80.5,1.8,75,1.8c-1.9,0-3.9,0.3-5.8,0.8
				C61,5.1,58,11.1,56.9,14.5c-5.3-0.8-18-1.4-26.1,8.8c-5.4,6.8-6.7,12.5-6.7,16.5c0,0,0,0,0,0.1c0,0.7,0,1.6,0.2,2.5
				C19,43,8.6,45.7,4.7,57.8C0.7,70,5.3,79.1,7.8,82.9c-0.3,0.3-0.4,0.5-0.5,0.5c-0.2,0.3-0.4,0.6-0.4,0.9c-3.7,4.8-9.7,14.9-5.3,26
				c3.9,9.9,11.6,11.4,15.8,11.4c1.1,0,2.1-0.1,2.9-0.2c1.2,5.5,5.4,13,15.2,13.6c1,0.1,2.1,0.1,3.1,0.1c7.7,0,12.6-2,14.9-3.3
				c3.2,2.3,11.4,7.6,20,7.6c0.7,0,1.4,0,2-0.1c6.5-0.6,10.8-2.4,13.3-3.9c0.6-0.2,1.1-0.5,1.6-0.9c3.2,1.6,10.9,4.9,18.8,4.9
				c0.3,0,0.6,0,1,0c7.7-0.3,14.2-4,17.4-6.1c0.3,0.3,0.6,0.6,0.9,0.8c0.1,0.1,0.2,0.2,0.3,0.2c1.8,1.5,4.5,2.9,8,2.9c0,0,0,0,0,0
				c0.5,0,0.9,0,1.4-0.1c5.3-0.5,8.3-3.3,9.8-4.9c1.8,0.6,4.3,1.2,7.1,1.2c3.1,0,5.9-0.8,8.2-2.3c4.5-2.9,6.4-6.1,7.2-8.4
				c1.1,0.2,2.5,0.4,4.1,0.4c3.9,0,9.7-1.1,15.3-6.1c8.6-7.8,7-21.5,6.2-26.3C198.9,88.8,204.5,83.8,203.6,75.4z M192.8,87.2
				c-1.3-0.4-2.9-0.8-4.8-1.3c-3.7-0.9-7.3,0-9.6,2.5c-2,2.3-2.6,5.4-1.5,8.4c1.3,3.5,4.3,4.5,7,4.5c1.4,0,2.7-0.3,3.6-0.6
				c1.1-0.4,1.7-1.6,1.4-2.8c-0.4-1.1-1.6-1.7-2.8-1.4c-0.2,0.1-4.1,1.4-5.1-1.3c-0.5-1.4-0.3-2.9,0.7-3.9c1.2-1.3,3.1-1.7,5.3-1.2
				c1.7,0.4,3.2,0.8,4.3,1.2c0.7,3.7,2.3,15.9-4.6,22.2c-3.5,3.2-7.6,4.9-12,4.9c-2.4,0-4.2-0.5-4.8-0.7l-4.3-8.4
				c-0.6-1.2-2.1-1.6-3.3-1c-1.2,0.6-1.6,2.1-1,3.3l4.9,9.4c-0.4,1.4-1.7,3.9-5.4,6.3c-1.6,1-3.5,1.5-5.6,1.5c-3,0-5.8-1-6.8-1.4
				l-0.5-0.2h-0.5c-1.2,0-1.9,0.8-2.4,1.4c-1,1.1-3.1,3.5-7.3,4c-0.3,0-0.6,0-0.9,0c0,0,0,0,0,0c-3.4,0-5.5-2.1-6.3-3.2
				c-0.8-1.2-1.3-3-1.2-4.6c0.1-1.1,0.5-2.5,1.8-3.3c3.1-1.8,4.6-0.3,5,0.3c0.8,1.1,2.2,1.3,3.3,0.6c1.1-0.8,1.4-2.3,0.6-3.4
				c-1.4-2-5.6-5-11.3-1.7c-2.5,1.4-4,4-4.2,7.1c-0.1,1.6,0.1,3.2,0.6,4.7c-2.5,1.8-8.4,5.3-15.2,5.5c-6.5,0.2-13.1-2.4-16.5-4
				c0,0,0,0,0,0c1.4-3.4,1-7.7-1-12.2c-3.1-6.8-10.5-6.6-14-5.5c-1.3,0.4-2,1.7-1.6,3c0.4,1.3,1.7,2,3,1.6c0.2-0.1,6-1.8,8.1,2.9
				c1.4,3.2,1.8,6.3,0.9,8.4c-0.1,0.3-0.2,0.5-0.4,0.7l-0.4,0.4c0,0-3.7,3.7-13.2,4.6c-0.5,0.1-1,0.1-1.5,0.1
				c-7.2,0-14.5-4.7-17.2-6.7l0.6-7.3c0.1-1.3-0.9-2.5-2.2-2.6c-1.3-0.1-2.5,0.9-2.6,2.2l-0.6,7.2c-1.4,0.9-5.5,2.9-12.9,2.9
				c-0.9,0-1.8,0-2.8-0.1c-10-0.6-11-10.8-11.1-11.8c0-0.4,0.3-3.6,3.6-5.3c2.1-1.1,3.2-0.9,3.2-0.9c-0.1,0-0.2-0.1-0.2-0.1l1.9-4.4
				c-0.5-0.2-3-1.1-7.2,1.1c-4,2.1-5.4,5.5-5.9,7.6c-0.7,0.1-1.7,0.3-2.7,0.3c-5.4,0-9.2-2.8-11.4-8.3C1.5,97.1,11.6,86.1,12.6,85
				c1.6-1.2,4.3-2.8,7.9-2.7c5.3,0.1,6.9,4.4,7,4.6c0.3,1,1.3,1.6,2.3,1.6c0.3,0,0.5,0,0.8-0.1c1.3-0.4,1.9-1.8,1.5-3.1
				c-0.1-0.3-2.7-7.7-11.4-7.9c-3.8-0.1-6.8,1.1-9,2.4c-2-3.2-5.5-10.7-2.3-20.6c3.4-10.3,12.7-12,16.4-12.2c1.5,3,4.3,5.8,9,6.5
				c0.6,0.1,1.3,0.1,1.9,0.1c6.3,0,10.3-4.9,11.6-7.7c0.5-1.2,0-2.6-1.2-3.2c-1.2-0.6-2.6,0-3.2,1.2c-0.1,0.2-2.7,5.6-8.4,4.8
				c-2.5-0.4-4-1.6-4.9-3.1l-1-2.1c0,0-0.1-0.2-0.1-0.4c-0.5-1.7-0.5-3.2-0.5-3.2c0-0.1,0-0.1,0-0.2c0-3,1.1-7.7,5.7-13.5
				c7.2-9,19.3-7.5,22.6-6.9l3.4,7.6c0.4,0.9,1.3,1.4,2.2,1.4c0.3,0,0.7-0.1,1-0.2c1.2-0.5,1.8-2,1.2-3.2l-3.7-8.2
				c0-0.1-0.1-0.1-0.1-0.2c0.5-2.1,2.5-7.5,9.4-9.4c1.5-0.4,3-0.7,4.5-0.7c6,0,9.7,3.7,9.7,3.8l0.5,0.6c0.9,1.3,2.2,3.9,0.9,6.5
				c-1.7,3.5-4.7,3.4-5.1,3.4c-1.3-0.1-2.5,0.8-2.6,2.2c-0.1,1.3,0.8,2.5,2.2,2.6c0,0,0.2,0,0.5,0c1.6,0,6.6-0.5,9.3-6.1
				c2-4.1,0.7-8-0.7-10.4c2.1-1.4,6.2-3.5,11.9-4.3c0.7-0.1,1.4-0.1,2.1-0.1c4.8,0,8.6,2.4,10.6,3.9c-1.2,1.3-2.1,3-2.5,5
				c-1.6,7.3,3.9,11.2,6.8,11.9c0.2,0,0.4,0.1,0.6,0.1c1.1,0,2.1-0.7,2.3-1.8c0.3-1.3-0.5-2.6-1.8-2.9c0,0-4.3-1.3-3.3-6.2
				c0.9-4.2,6.1-6.1,6.8-6.4c0,0,0,0,0,0c0,0,0.1,0,0.1,0c0,0,0,0,0,0c1.8-0.6,4.1-1.1,6.6-1.1c2.2,0,4.3,0.4,6.4,1.2
				c4.8,1.8,7.3,5.2,8.5,8.2c0,0.1,0,0.1,0.1,0.2c1.2,2.8,1.3,5.2,1.3,5.4l0,4.1c-0.8,3.4-2.6,3.4-3.4,3.4c-1.5,0-2.7-0.9-2.7-0.9
				c-1.1-0.8-2.6-0.6-3.4,0.4c-0.8,1.1-0.6,2.6,0.4,3.4c0.3,0.2,2.6,1.9,5.7,1.9c2.2,0,7.4-0.9,8.4-9c0.1-0.5,0.1-0.9,0.1-1.4
				c1,0.1,2.4,0.6,4.2,1.9c3.7,2.6,2.5,6.7,2.3,7.1l-1.3,3.8l4-0.6c0,0,1-0.2,2.6-0.2c3.4,0,9.9,0.7,15.2,5.7
				c6.3,5.9,4.1,14.2,3.4,16.3c-0.2,0.5-3.6,7.4-8.3,7.6c-1.2,0.1-2.1-0.1-2.5-0.6c-0.4-0.4-0.3-1.3-0.3-1.6
				c0.3-1.3-0.5-2.6-1.8-2.9c-1.3-0.3-2.6,0.5-2.9,1.8c-0.1,0.3-0.7,3.4,1.2,5.8c1.3,1.5,3.2,2.3,5.8,2.3c0.2,0,0.4,0,0.6,0
				c5.7-0.3,9.6-5.4,11.4-8.4c3.5,0.6,12.3,3.1,13.5,13.8C199.5,82.5,194.4,86.2,192.8,87.2z"/>
			<path class="st2" d="M152.4,60.7c0.7-3,0.7-7.6-3.3-12.4c-7.8-9.4-19.6-7.3-26.9-4c-1-4.5-4-10.3-11.4-12.8
				c-8.8-3-15.7,2.9-18.8,6.6c-2.6-2.5-7.8-6-16.2-5.9c-5.7,0.1-11,4.4-13.1,10.4c-1.9,5.6-0.3,11,4.1,14.6
				c8.2,6.5,16.4,2.5,19.6-0.5c1-0.9,1-2.4,0.1-3.4c-0.9-1-2.4-1-3.4-0.1c-0.6,0.6-6.5,5.6-13.3,0.3c-4-3.2-3.1-7.5-2.5-9.2
				c1.4-4,5-7,8.6-7.1c10-0.2,14,5.9,14.2,6.1c0.4,0.7,1.2,1.1,2,1.1c0.8,0,1.6-0.4,2.1-1.1c0.1-0.1,6.6-10,15.1-7.1
				c8.8,3,8.5,11.6,8.5,12c-0.1,0.9,0.4,1.8,1.2,2.2c0.8,0.5,1.7,0.4,2.5,0c0.6-0.4,15.3-9.3,24,1.2c2.2,2.6,2.9,5.4,2.3,8.2
				c-0.7,3.1-3,5.6-4.8,6.4c-3.2,1.4-7.1-0.7-7.1-0.7c-1.2-0.6-2.6-0.2-3.3,1c-0.6,1.2-0.2,2.6,1,3.3c0.2,0.1,2.7,1.5,5.9,1.7
				c1.7,0.1,3.6,0,5.5-0.9C147.7,69.1,151.3,65.5,152.4,60.7z"/>
			<path class="st2" d="M49.1,89.1c0.4-2.3,0.1-4.4-0.6-6.2c0,0,0,0,0,0c1.3,0,2.7-0.2,4.1-0.7c3.5-1.2,5.9-4,7-7.9
				c1.3-4.7,0.2-10-2.6-13.4c-4.4-5.2-11.4-3.9-14.4-2.5c-1.2,0.6-1.7,2-1.2,3.2c0.6,1.2,2,1.7,3.2,1.2c0.1,0,5.5-2.5,8.6,1.3
				c1.8,2.2,2.5,5.9,1.6,9c-0.5,1.6-1.5,3.8-3.9,4.6c-2.7,0.9-5.4,0.1-7.3-0.9c-1.2-1-2.3-1.6-2.8-1.9c-0.2-0.1-0.2-0.2-0.2-0.2
				c-1-0.9-2.5-0.9-3.4,0c-0.9,1-0.9,2.5,0,3.4c0.1,0.1,1.5,1.5,3.8,2.7c1.8,1.6,3.9,4.1,3.2,7.4c-1,5.3-4.9,5.6-5.4,5.6
				c-1.3,0-2.4,1.1-2.4,2.4c0,1.3,1.1,2.4,2.4,2.4C41.9,98.6,47.7,96.6,49.1,89.1z"/>
			<path class="st2" d="M58.9,98.9c-9.3,0.3-12.6,8.5-12.7,8.8c-0.5,1.2,0.1,2.6,1.4,3.1c1.2,0.5,2.6-0.1,3.1-1.4
				c0-0.1,2.2-5.5,8.4-5.7c5.3-0.2,5.9,5.8,5.9,6.4c0.1,1.3,1.1,2.3,2.4,2.3c0.1,0,0.1,0,0.2,0c1.3-0.1,2.3-1.2,2.3-2.6
				C69.5,106,66.9,98.7,58.9,98.9z"/>
			<path class="st2" d="M165.3,79.5c-3.9-3.3-9.7-2.3-10-2.3c-1.2,0.2-2,1.3-1.8,2.5c0.2,1.2,1.3,2,2.5,1.8c0,0,4.1-0.6,6.4,1.3
				c1.1,0.9,1.7,2.4,1.7,4.4c0,2.3-0.6,4-1.8,5.1c-2,1.8-5,1.6-5.1,1.6c-0.7-0.1-1.4,0.2-1.9,0.8c-0.5,0.5-0.6,1.3-0.5,2
				c0.2,0.9,0.6,3.8-0.6,5.4c-0.5,0.7-1.4,1.1-2.6,1.2c-1.7,0.1-3-0.2-3.8-1c-1.2-1.2-1.3-3.3-1.3-4c0.1-1.2-0.8-2.3-2-2.4
				c-1.2-0.1-2.3,0.8-2.4,2c0,0.5-0.3,4.6,2.5,7.4c1.5,1.5,3.6,2.3,6.2,2.3c0.3,0,0.7,0,1.1,0c3.2-0.3,4.9-1.8,5.8-3
				c1.5-2,1.7-4.5,1.6-6.4c1.7-0.3,3.9-0.9,5.7-2.6c2.1-2,3.2-4.8,3.2-8.4C168.6,83.9,167.5,81.3,165.3,79.5z"/>
		</g>
	</g>
	<g>
		<g>
			<path class="st0" d="M78,80.1c0,3.9-3.1,7-7,7c-3.9,0-7-3.1-7-7c0-3.9,3.1-7,7-7C74.9,73.1,78,76.2,78,80.1z"/>
			<path class="st3" d="M69.8,77.8c0,1.2-1,2.2-2.2,2.2c-1.2,0-2.2-1-2.2-2.2c0-1.2,1-2.2,2.2-2.2C68.8,75.6,69.8,76.6,69.8,77.8z"
				/>
		</g>
		<g>
			<path class="st0" d="M149.3,80.1c0,3.9-3.1,7-7,7s-7-3.1-7-7c0-3.9,3.1-7,7-7S149.3,76.2,149.3,80.1z"/>
			<path class="st3" d="M141.1,77.8c0,1.2-1,2.2-2.2,2.2c-1.2,0-2.2-1-2.2-2.2c0-1.2,1-2.2,2.2-2.2
				C140.1,75.6,141.1,76.6,141.1,77.8z"/>
		</g>
		<path class="st3" d="M94.4,97c0,0,2.7,9.8,11.7,9.9c8.9,0.1,12.1-9.9,12.1-9.9H94.4z"/>
	</g>
	<path class="st4" d="M162,61.2h-47.8c-0.4,0-0.7,0.1-1,0.3c-2-1.6-4.7-2.5-7.6-2.5c-2.9,0-5.6,0.9-7.7,2.5
		c-0.3-0.2-0.7-0.3-1.1-0.3H49.2c-1,0-1.9,0.8-1.9,1.9s0.8,1.9,1.9,1.9h2.6v20.7c0,4.3,3.2,7.8,7,7.8h32.6c3.9,0,7-3.5,7-7.8V66.9
		c0.1-0.1,0.2-0.2,0.2-0.3c1.2-2.3,3.9-3.8,7.1-3.8c3.2,0,6.1,1.6,7.2,4v18.8c0,4.3,3.1,7.8,7,7.8h32.6c3.9,0,7-3.5,7-7.8V65h2.6
		c1,0,1.9-0.8,1.9-1.9S163.1,61.2,162,61.2z M91.3,89.7H58.8c-1.8,0-3.2-1.8-3.2-4V65h39v20.7C94.6,87.9,93.1,89.7,91.3,89.7z
		 M155.6,85.7c0,2.2-1.5,4-3.2,4h-32.6c-1.8,0-3.2-1.8-3.2-4V65h39V85.7z"/>
	<g>
		<polygon class="st5" points="112.4,105.5 145.9,98.2 138.8,143.6 107.8,150 		"/>
		<polygon class="st6" points="112.4,105.5 77.2,98.2 79.1,144.1 107.8,150 		"/>
	</g>
	<path class="st0" d="M170.7,108.3c-0.3,0.3-0.6,0.6-0.9,1c1.1,2.9,4.2,11.7,6.3,20.9c1.7,7.5-27.3,2.6-36,0.8
		c-1.7-0.3-3.4-6.3-5.1-5.8c-1.7,0.5,0.3,3.1,0.3,3.1s-3.1-2.3-4.3-1.9c-1.2,0.4-6.4,3.9-2.3,6.9c4.2,3,47.7,7.3,51,2.6
		c2.5-3.6-1.9-20.4-4.1-28C174,107.6,171.9,107.2,170.7,108.3z"/>
	<path class="st0" d="M48.5,109.1c0.3,0.3,0.6,0.6,0.9,1c-1.1,2.9-4.2,11.7-6.3,20.9c-1.7,7.5,27.3,2.6,36,0.8
		c1.7-0.3,3.4-6.3,5.1-5.8c1.7,0.5-0.3,3.1-0.3,3.1s3.1-2.3,4.3-1.9c1.2,0.4,6.4,3.9,2.3,6.9c-4.2,3-47.7,7.3-51,2.6
		c-2.5-3.6,1.9-20.4,4.1-28C45.2,108.4,47.3,108,48.5,109.1z"/>
</g>
</svg>
