<!-- Generator: Adobe Illustrator 24.0.0, SVG Export Plug-In  -->
<svg version="1.1" xmlns="http://www.w3.org/2000/svg" xmlns:xlink="http://www.w3.org/1999/xlink" x="0px" y="0px" width="38.1px"
	 height="11.9px" viewBox="0 0 38.1 11.9" style="enable-background:new 0 0 38.1 11.9;" xml:space="preserve">
<style type="text/css">
	.st0{fill:#FFFFFF;}
</style>
<defs>
</defs>
<g>
	<polygon class="st0" points="9.3,8.9 6.6,2.5 4,8.9 1.2,2.3 0,2.3 3.9,11.9 6.6,5.4 9.3,11.9 13.3,2.3 12.1,2.3 	"/>
	<path class="st0" d="M14.1,0c-0.4,0-0.7,0.3-0.7,0.7c0,0.3,0.3,0.6,0.7,0.6c0.4,0,0.7-0.3,0.7-0.6C14.8,0.3,14.5,0,14.1,0z"/>
	<rect x="13.5" y="2.4" class="st0" width="1.2" height="9.1"/>
	<path class="st0" d="M24,7.2c-0.1-2.8-2-4.9-4.4-4.9c-2.4,0-4.4,2-4.4,4.6s2,4.6,4.4,4.6c1.1,0,2.2-0.4,3-1.2l0.5-0.5l-1.8,0
		l-0.1,0c-0.6,0.3-1.2,0.5-1.7,0.5c-1.4,0-2.8-0.9-3.2-2.8H24L24,7.2z M16.4,6.3c0.4-2.1,1.9-2.8,3.2-2.8c1.5,0,2.7,1.1,3.1,2.8
		H16.4z"/>
	<path class="st0" d="M31.7,4l-0.4-0.3l0,0c-0.8-0.6-1.7-1-2.7-1c-2.4,0-4.3,2-4.3,4.4c0,2.4,1.9,4.4,4.3,4.4c1,0,1.9-0.3,2.7-1
		l0.4-0.3v1.3h1.2V0.3h-1.2V4z M28.6,4c1.6,0,2.8,1.1,3,2.6v0.8c-0.2,1.6-1.5,2.7-3,2.7c-1.7,0-3-1.3-3-3.1C25.5,5.3,26.8,4,28.6,4z
		"/>
	<rect x="34.4" y="2.4" class="st0" width="1.2" height="9.1"/>
	<path class="st0" d="M35,0c-0.4,0-0.7,0.3-0.7,0.7c0,0.3,0.3,0.6,0.7,0.6c0.4,0,0.7-0.3,0.7-0.6C35.7,0.3,35.4,0,35,0z"/>
	<path class="st0" d="M37.5,1.3c0.4,0,0.7-0.3,0.7-0.6c0-0.4-0.3-0.7-0.7-0.7c-0.4,0-0.7,0.3-0.7,0.7C36.8,1,37.1,1.3,37.5,1.3z"/>
	<rect x="36.8" y="2.4" class="st0" width="1.2" height="9.1"/>
</g>
</svg>
