<!-- Generator: Adobe Illustrator 24.0.0, SVG Export Plug-In  -->
<svg version="1.1" xmlns="http://www.w3.org/2000/svg" xmlns:xlink="http://www.w3.org/1999/xlink" x="0px" y="0px" width="247.8px"
	 height="47.7px" viewBox="0 0 247.8 47.7" style="enable-background:new 0 0 247.8 47.7;" xml:space="preserve">
<style type="text/css">
	.st0{fill:#FFFFFF;}
</style>
<defs>
</defs>
<g>
	<path class="st0" d="M27.2,46.7H0c0-12.1,0-24.3,0-36.4h27.2V17H6.8v8.4h19.7v6.4H6.8V40h20.4V46.7z"/>
	<path class="st0" d="M56,19.2c-1.2-2.1-4.7-4.1-8.6-4.1c-5.1,0-7.5,2.1-7.5,4.8c0,3.2,3.7,4.1,8.1,4.6c7.6,0.9,14.6,2.9,14.6,11.6
		c0,8.1-7.2,11.6-15.3,11.6c-7.4,0-13.1-2.3-15.8-8.9l5.7-3c1.6,4,5.8,5.8,10.2,5.8c4.3,0,8.4-1.5,8.4-5.5c0-3.4-3.6-4.8-8.4-5.4
		c-7.4-0.9-14.3-2.9-14.3-11c0-7.5,7.4-10.5,14.1-10.6c5.7,0,11.5,1.6,14.3,7.2L56,19.2z"/>
	<path class="st0" d="M85.1,36.1H74.8v10.7h-6.9V10.4c5.7,0,11.4-0.1,17.1-0.1C102.8,10.3,102.9,36.1,85.1,36.1z M74.8,29.8h10.3
		c8.8,0,8.7-12.9,0-12.9H74.8V29.8z"/>
	<path class="st0" d="M128.9,39.9h-19l-3.1,6.9h-7.4l16.3-36.4h7.5l16.3,36.4h-7.5L128.9,39.9z M119.4,18l-6.8,15.5h13.5L119.4,18z"
		/>
	<path class="st0" d="M166.4,10.3h6.9v36.4H169v0.1l-19.1-24.6v24.5H143V10.4h5.6l17.8,22.5V10.3z M150,4.6c1.2-3.1,3.3-5.2,6.7-4.5
		c2.4,0.6,4.8,3.3,6.4,0.1l4.2,2c-1.5,4-4.1,5.2-6.5,4.6C158.2,6,156,3,154,6.8L150,4.6z"/>
	<path class="st0" d="M217.2,28.8c-0.1,9.4-5.9,18.8-18.6,18.8c-12.8,0-18.7-9.2-18.7-18.8S186,9.7,198.6,9.7
		C211.1,9.7,217.3,19.3,217.2,28.8z M186.6,28.9c0.2,6,3.4,12.4,11.9,12.4s11.8-6.4,11.9-12.4c0.1-6.1-3.3-13-11.9-13
		S186.5,22.8,186.6,28.9z"/>
	<path class="st0" d="M229.1,10.4v30h18.7v6.3h-25.6V10.4H229.1z"/>
</g>
</svg>
