<!-- Generator: Adobe Illustrator 24.0.0, SVG Export Plug-In  -->
<svg version="1.1" xmlns="http://www.w3.org/2000/svg" xmlns:xlink="http://www.w3.org/1999/xlink" x="0px" y="0px" width="521.1px"
	 height="152.1px" viewBox="0 0 521.1 152.1" style="enable-background:new 0 0 521.1 152.1;" xml:space="preserve">
<style type="text/css">
	.st0{fill:#FFFFFF;}
	.st1{fill:#FFF200;}
</style>
<defs>
</defs>
<g>
	<path class="st0" d="M40,21l-15.2-1.2L24,28.8l12.4,1.1c2.9,0.3,5.1,1.4,6.7,3.5c1.4,1.8,2,3.9,1.8,6.3C44.7,42,43.8,44,42,45.6
		c-1.9,1.8-4.3,2.6-7.2,2.3l-12.5-1.1l-1.5,18.5c-0.3,3-1.4,5.3-3.4,6.9c-2,1.6-4.3,2.3-7.1,2.1c-2.7-0.3-5-1.4-6.6-3.3
		c-1.7-1.9-2.4-4.4-2.1-7.4L6.4,9.9C6.6,7.3,7.7,5,9.7,3.3c1.9-1.8,4.4-2.6,7.4-2.3l24.4,2.1c2.7,0.3,4.8,1.4,6.2,3.3
		c1.4,1.9,2,4.1,1.7,6.5c-0.2,2.3-1.1,4.2-2.7,5.8C45,20.5,42.8,21.2,40,21z"/>
	<path class="st0" d="M73.6,76.6l-24.2-4.7c-2.4-0.4-4.3-1.5-5.8-3.2c-1.5-1.7-2.3-3.7-2.3-6.1c0-0.6,0.1-1.3,0.3-2L51.6,8.8
		C52.8,2.9,55.9,0,61,0c0.8,0,1.5,0.1,2.3,0.2l23.3,4.5c2.5,0.5,4.4,1.6,5.7,3.2c1.3,1.6,1.9,3.5,1.9,5.6c0,2.5-0.9,4.6-2.6,6.4
		c-1.7,1.8-3.8,2.7-6.3,2.7c-0.7,0-1.4-0.1-2-0.2L69,19.6l-1.7,9l13,2.6c2.5,0.5,4.4,1.6,5.8,3.2c1.3,1.6,2,3.5,2,5.6
		c0,2.6-0.9,4.7-2.6,6.5c-1.8,1.8-3.9,2.6-6.5,2.6c-0.6,0-1.3-0.1-2-0.2l-13.1-2.6L62,56l15,3c2.4,0.4,4.3,1.5,5.6,3.1
		c1.3,1.6,1.9,3.5,1.9,5.6c0,2.5-0.8,4.6-2.5,6.4c-1.7,1.8-3.8,2.7-6.4,2.7C74.9,76.8,74.3,76.7,73.6,76.6z"/>
	<path class="st0" d="M123.3,75.8l-23.9-2.1c-3-0.3-5.3-1.4-6.9-3.5c-1.6-2-2.3-4.6-2-7.7l4.6-53.3c0.3-2.9,1.4-5.2,3.4-6.9
		c2-1.6,4.3-2.3,7.1-2.1c2.7,0.2,5,1.3,6.6,3.2c1.7,1.9,2.4,4.4,2.1,7.4l-4,45.5l14.6,1.2c2.7,0.3,4.9,1.2,6.3,2.9
		c1.5,1.7,2.2,3.7,2.2,5.9c0,2.6-0.9,4.8-2.6,6.6C128.9,75.2,126.4,76.1,123.3,75.8z"/>
	<path class="st0" d="M132.1,65.6c0-0.6,0.1-1.3,0.2-1.9l8.5-53.8c0.4-2.6,1.4-4.7,3.1-6.2c1.7-1.5,3.7-2.3,6.1-2.3
		c2.8,0,5.2,0.9,7,2.6c1.9,1.8,2.8,4,2.8,6.9c0,0.6-0.1,1.3-0.2,1.9l-8.5,53.8c-0.4,2.6-1.4,4.7-3.1,6.2c-1.7,1.5-3.7,2.3-6.1,2.3
		c-2.8,0-5.2-0.9-7-2.6C133.1,70.7,132.1,68.5,132.1,65.6z"/>
	<path class="st0" d="M186.7,76.4c-9-1.4-16.2-5.5-21.7-12.3c-5.3-6.6-8-14.4-8-23.5c0-2.3,0.2-4.6,0.6-6.9
		c1.5-9.5,5.4-17.3,11.8-23.2c6.4-6,14.1-9,23-9c1.9,0,3.9,0.2,5.9,0.5c4.7,0.8,9.1,2.4,13.1,4.8c5.1,3.1,7.7,6.5,7.7,10.4
		c0,2.4-0.8,4.4-2.4,6.2c-1.6,1.8-3.6,2.6-6,2.6c-1.7,0-4.2-1-7.6-3c-2.4-1.4-5-2.3-7.8-2.7c-0.8-0.1-1.7-0.2-2.6-0.2
		c-4.2,0-7.6,1.5-10.4,4.6c-2.8,3.1-4.6,7.2-5.4,12.3c-0.3,1.5-0.4,2.9-0.4,4.3c0,4.4,1.1,8.1,3.3,11c2.3,3.1,5.5,5,9.6,5.7
		c1,0.1,1.9,0.2,2.8,0.2c1.7,0,3.8-0.3,6.3-1c2.5-0.6,4.2-1,5.2-1c2.7,0,4.9,1.1,6.7,3.2c1.8,2.1,2.4,4.5,2,7
		c-0.6,3.6-3,6.4-7.2,8.1c-3.4,1.4-7.5,2.1-12.4,2.1C190.7,76.9,188.7,76.7,186.7,76.4z"/>
	<path class="st0" d="M212.9,65.6c0-0.6,0.1-1.3,0.2-1.9l8.5-53.8c0.4-2.6,1.4-4.7,3.1-6.2c1.7-1.5,3.7-2.3,6.1-2.3
		c2.8,0,5.2,0.9,7,2.6c1.9,1.8,2.8,4,2.8,6.9c0,0.6-0.1,1.3-0.2,1.9L232,66.7c-0.4,2.6-1.4,4.7-3.1,6.2c-1.7,1.5-3.7,2.3-6.1,2.3
		c-2.8,0-5.2-0.9-7-2.6C213.8,70.7,212.9,68.5,212.9,65.6z"/>
	<path class="st0" d="M277.1,75l-16.5,2.9c-0.6,0.1-1.2,0.2-1.9,0.2c-5.4,0-8.6-2.6-9.5-7.9l-9.4-52.9c-0.1-0.6-0.1-1.3-0.1-1.9
		c0-2.4,0.7-4.4,2.2-6.1c1.5-1.7,3.4-2.8,5.8-3.3l15.7-2.8c2.7-0.4,5.4-0.7,8.1-0.7c9,0,16.5,2.8,22.5,8.3c6,5.6,9.8,13.2,11.5,23
		c0.4,2.6,0.7,5.2,0.7,7.8c0,8.6-2.6,15.9-7.8,21.9C293.2,69.6,286.1,73.4,277.1,75z M266.4,21.1l-6.2,1.1l6.4,36.4l7.2-1.2
		c8.5-1.5,12.7-6.7,12.7-15.6c0-1.6-0.2-3.3-0.5-5c-1.9-10.7-7.2-16-15.7-16C269.1,20.7,267.8,20.8,266.4,21.1z"/>
	<path class="st0" d="M353.8,77.3c-3.8-0.3-6.4-2.1-7.9-5.3c-0.4-0.8-1.2-4.1-2.5-9.7l-23.1-2c-2.2,5.2-3.5,8.2-4.1,9
		c-2,2.9-4.8,4.2-8.5,3.9c-2.6-0.3-4.7-1.3-6.4-3.2c-1.7-1.9-2.5-4.1-2.2-6.8c0.1-1.1,0.4-2.4,1.2-3.8l23.7-50.3
		c1.3-2.6,3.1-4.7,5.4-6.3c2.3-1.6,5-2.3,7.9-2c6,0.5,9.9,4,11.6,10.5L363,65c0.4,1.7,0.6,3.2,0.6,4.4c-0.3,2.6-1.3,4.6-3.3,6
		C358.4,76.9,356.2,77.5,353.8,77.3z M334.8,24.7c-1.3,4-3.7,10.1-7.2,18.2l11.6,1L334.8,24.7z"/>
	<path class="st0" d="M392.4,75l-16.5,2.9c-0.6,0.1-1.2,0.2-1.9,0.2c-5.4,0-8.6-2.6-9.5-7.9l-9.4-52.9c-0.1-0.6-0.1-1.3-0.1-1.9
		c0-2.4,0.7-4.4,2.2-6.1c1.5-1.7,3.4-2.8,5.8-3.3l15.7-2.8c2.7-0.4,5.4-0.7,8.1-0.7c9,0,16.5,2.8,22.5,8.3c6,5.6,9.8,13.2,11.5,23
		c0.4,2.6,0.7,5.2,0.7,7.8c0,8.6-2.6,15.9-7.8,21.9C408.5,69.6,401.4,73.4,392.4,75z M381.7,21.1l-6.2,1.1l6.4,36.4l7.2-1.2
		c8.5-1.5,12.7-6.7,12.7-15.6c0-1.6-0.2-3.3-0.5-5c-1.9-10.7-7.2-16-15.7-16C384.4,20.7,383.1,20.8,381.7,21.1z"/>
	<path class="st0" d="M451.7,76.6l-24.2-4.7c-2.4-0.4-4.3-1.5-5.8-3.2c-1.5-1.7-2.3-3.7-2.3-6.1c0-0.6,0.1-1.3,0.3-2l10.1-51.8
		c1.1-5.9,4.3-8.8,9.4-8.8c0.8,0,1.5,0.1,2.3,0.2l23.3,4.5c2.5,0.5,4.4,1.6,5.7,3.2c1.3,1.6,1.9,3.5,1.9,5.6c0,2.5-0.9,4.6-2.6,6.4
		c-1.7,1.8-3.8,2.7-6.3,2.7c-0.7,0-1.4-0.1-2-0.2l-14.3-2.8l-1.7,9l13,2.6c2.5,0.5,4.4,1.6,5.8,3.2c1.3,1.6,2,3.5,2,5.6
		c0,2.6-0.9,4.7-2.6,6.5c-1.8,1.8-3.9,2.6-6.5,2.6c-0.6,0-1.3-0.1-2-0.2l-13.1-2.6l-1.8,9.6l15,3c2.4,0.4,4.3,1.5,5.6,3.1
		c1.3,1.6,1.9,3.5,1.9,5.6c0,2.5-0.8,4.6-2.5,6.4c-1.7,1.8-3.8,2.7-6.4,2.7C453.1,76.8,452.4,76.7,451.7,76.6z"/>
	<path class="st0" d="M494.2,76c-5.7,0-11-0.9-15.9-2.8c-6.5-2.4-9.8-5.9-9.8-10.4c0-2.5,0.8-4.6,2.4-6.5c1.6-1.8,3.8-2.7,6.4-2.7
		c1.9,0,4.5,0.6,8,1.9c3.5,1.2,6.2,1.9,8.1,1.9c4.9,0,7.4-1.9,7.4-5.8c0-1.9-2.8-3.7-8.3-5.3c-7.5-2.1-12.6-4.1-15.3-5.8
		c-5.6-3.6-8.3-8.8-8.3-15.6c0-7.3,2.7-13.2,8-17.7c5-4.3,11.1-6.4,18.2-6.4c4.3,0,8.6,0.9,12.9,2.7c5.5,2.4,8.2,5.5,8.2,9.3
		c0,2.5-0.8,4.7-2.4,6.6c-1.6,1.9-3.7,2.9-6.4,2.9c-1.5,0-3.6-0.5-6.3-1.4c-2.7-1-4.9-1.4-6.4-1.4c-3.6,0-5.5,1.3-5.5,3.8
		c0,1.3,2.8,2.8,8.3,4.4c7,2,12.1,4.2,15.3,6.5c5.6,4.1,8.3,9.9,8.3,17.3c0,7.4-2.7,13.5-8.1,18.1C507.8,73.8,501.6,76,494.2,76z"/>
</g>
<g>
	<path class="st1" d="M19.2,141.7l-14.4-2.8c-1.4-0.3-2.6-0.9-3.4-1.9c-0.9-1-1.3-2.2-1.3-3.6c0-0.4,0.1-0.8,0.2-1.2l6-30.7
		c0.7-3.5,2.5-5.2,5.6-5.2c0.5,0,0.9,0,1.4,0.1L26.9,99c1.5,0.3,2.6,0.9,3.4,1.9c0.8,1,1.1,2.1,1.1,3.3c0,1.5-0.5,2.7-1.5,3.8
		c-1,1.1-2.3,1.6-3.8,1.6c-0.4,0-0.8,0-1.2-0.1l-8.5-1.6l-1,5.3l7.7,1.5c1.5,0.3,2.6,0.9,3.4,1.9c0.8,1,1.2,2.1,1.2,3.3
		c0,1.5-0.5,2.8-1.6,3.8c-1,1-2.3,1.6-3.8,1.6c-0.4,0-0.8,0-1.2-0.1l-7.8-1.5l-1.1,5.7l8.9,1.8c1.4,0.3,2.5,0.9,3.3,1.8
		c0.8,1,1.1,2.1,1.1,3.3c0,1.5-0.5,2.7-1.5,3.8c-1,1.1-2.3,1.6-3.8,1.6C20,141.8,19.6,141.8,19.2,141.7z"/>
	<path class="st1" d="M48.3,142.7c-1.3-0.3-2.3-0.9-3.1-1.9c-0.8-1-1.1-2.1-1.1-3.5c0-0.5,0.1-1.1,0.2-1.6l3.2-13.9
		c0.1-0.5,0.2-1,0.2-1.4c0-1.1-0.4-2-1.2-2.7c-0.8-0.7-1.8-1-2.9-1c-1.9,0-3.1,1.1-3.6,3.4l-3.2,13.9c-0.3,1.4-1,2.5-2,3.4
		c-1,0.9-2.1,1.3-3.4,1.3c-0.5,0-0.9-0.1-1.3-0.2c-1.3-0.3-2.4-0.9-3.1-1.9c-0.7-1-1.1-2.1-1.1-3.5c0-0.6,0.1-1.1,0.2-1.6l4.9-21.3
		c0.3-1.4,1-2.6,2-3.4c1-0.9,2.1-1.3,3.4-1.3c2.4,0,4.1,1,5,2.9c1.3-0.6,2.7-0.9,4.3-0.9c1.1,0,2.2,0.2,3.5,0.5
		c3,0.7,5.4,2.1,7.2,4.2c1.8,2.1,2.7,4.6,2.7,7.5c0,1.1-0.1,2.2-0.3,3.3L55,138.1c-0.3,1.4-0.9,2.6-1.9,3.4c-1,0.9-2.1,1.3-3.5,1.3
		C49.2,142.8,48.7,142.8,48.3,142.7z"/>
	<path class="st1" d="M76.4,141.2c-4.7,0.3-8.7-1.2-11.9-4.5c-3.1-3.1-4.8-7.1-5.1-11.8c-0.2-4.6,1.1-8.7,3.9-12.2
		c2.9-3.7,6.7-5.6,11.3-5.9c2.5-0.1,4.9,0.3,7.2,1.2c2.9,1.1,4.4,2.8,4.6,4.8c0.1,1.2-0.2,2.4-0.9,3.5c-0.8,1.3-2,2-3.4,2.1
		c-0.8,0-1.8-0.2-3.3-0.6c-1.4-0.5-2.5-0.7-3.3-0.6c-1.7,0.1-3,0.8-3.9,2.2c-0.9,1.4-1.3,3.1-1.2,5.1c0.1,1.9,0.7,3.4,1.8,4.7
		s2.4,1.9,4,1.8c0.7,0,1.7-0.4,3-1s2.3-1,3-1c1.3-0.1,2.5,0.4,3.5,1.3c1,0.9,1.6,2.1,1.6,3.4c0.1,2.2-1.3,4.1-4.2,5.6
		C81,140.4,78.7,141.1,76.4,141.2z"/>
	<path class="st1" d="M101.8,141.4c-4.7,0.2-8.7-1.3-11.9-4.6c-3.1-3.1-4.8-7.1-5.1-11.8c-0.2-4.6,1.1-8.7,3.9-12.2
		c2.9-3.7,6.7-5.6,11.3-5.9c4.7-0.2,8.6,1.3,11.9,4.7c3.1,3.2,4.9,7.1,5.1,11.7c0.2,4.7-1,8.8-3.8,12.2
		C110.4,139.2,106.5,141.1,101.8,141.4z M100.6,117.2c-1.6,0.1-2.8,0.8-3.6,2.2c-0.9,1.4-1.2,3.1-1.1,5c0.1,1.9,0.7,3.5,1.6,4.7
		c1,1.3,2.2,1.9,3.8,1.8c1.6-0.1,2.8-0.8,3.6-2.2c0.9-1.4,1.2-3,1.1-4.9c-0.1-1.9-0.7-3.5-1.6-4.8
		C103.4,117.8,102.1,117.2,100.6,117.2z"/>
	<path class="st1" d="M138.8,142.7c-1.3-0.3-2.3-0.9-3.1-1.9c-0.8-1-1.1-2.1-1.1-3.5c0-0.5,0.1-1.1,0.2-1.6l3.2-13.9
		c0.1-0.5,0.2-1,0.2-1.4c0-1.1-0.4-2-1.2-2.7c-0.8-0.7-1.8-1-2.9-1c-1.9,0-3.1,1.1-3.6,3.4l-3.2,13.9c-0.3,1.4-1,2.5-2,3.4
		c-1,0.9-2.1,1.3-3.4,1.3c-0.5,0-0.9-0.1-1.3-0.2c-1.3-0.3-2.4-0.9-3.1-1.9c-0.7-1-1.1-2.1-1.1-3.5c0-0.6,0.1-1.1,0.2-1.6l4.9-21.3
		c0.3-1.4,1-2.6,2-3.4c1-0.9,2.1-1.3,3.4-1.3c2.4,0,4.1,1,5,2.9c1.3-0.6,2.7-0.9,4.3-0.9c1.1,0,2.2,0.2,3.5,0.5
		c3,0.7,5.4,2.1,7.2,4.2c1.8,2.1,2.7,4.6,2.7,7.5c0,1.1-0.1,2.2-0.3,3.3l-3.6,15.3c-0.3,1.4-0.9,2.6-1.9,3.4c-1,0.9-2.1,1.3-3.5,1.3
		C139.7,142.8,139.3,142.8,138.8,142.7z"/>
	<path class="st1" d="M163.8,119l-0.9-0.2l-3.9,17c-0.3,1.4-1,2.6-2,3.4c-1,0.9-2.1,1.3-3.5,1.3c-0.4,0-0.9,0-1.3-0.1
		c-1.3-0.3-2.3-1-3.1-2c-0.8-1-1.1-2.2-1.1-3.5c0-0.5,0.1-1.1,0.2-1.6l4-17.1l-0.4-0.1c-2.6-0.6-3.9-2.2-3.9-4.7
		c0-0.5,0.1-0.9,0.2-1.4c0.3-1.2,0.8-2.1,1.7-2.8c0.9-0.7,1.9-1.1,3-1.1c0.4,0,0.8,0,1.2,0.1l0.4,0.1l0.8-3.4c0.3-1.4,1-2.5,2-3.4
		c1-0.9,2.1-1.3,3.4-1.3c0.4,0,0.9,0.1,1.3,0.2c1.3,0.3,2.4,0.9,3.1,1.9c0.7,1,1.1,2.2,1.1,3.5c0,0.5-0.1,1.1-0.2,1.6l-0.8,3.4
		l0.9,0.2c2.8,0.6,4.2,2.2,4.2,4.7c0,0.4,0,0.9-0.1,1.4c-0.6,2.6-2.2,3.9-4.8,3.9C164.8,119.2,164.3,119.1,163.8,119z"/>
	<path class="st1" d="M180.4,109.4c1.2-1.3,3-1.9,5.3-1.8c1.4,0.1,2.6,0.7,3.6,1.7c1,1.2,1.5,2.7,1.4,4.4c-0.1,1.7-1,2.9-2.8,3.8
		c-1.6,0.6-3.3,1.1-4.9,1.7c-1.7,0.8-2.7,1.9-2.8,3.3l-0.9,12.5c-0.2,1.7-0.8,3.1-1.9,4.2c-1.1,1.1-2.5,1.5-4.1,1.4
		c-1.6-0.1-2.9-0.8-3.8-2c-0.9-1.2-1.4-2.6-1.3-4.4l1.5-22.2c0.2-1.7,0.9-3.1,2.2-4c1.1-0.8,2.4-1.2,3.9-1.1
		C178,107.1,179.6,107.9,180.4,109.4z"/>
	<path class="st1" d="M218,138.2c-0.5,0.1-1,0.2-1.5,0.2c-1.3,0-2.4-0.5-3.4-1.5c-1.6,2.2-3.8,3.7-6.5,4.3c-1.1,0.3-2.2,0.4-3.3,0.4
		c-3.6,0-6.7-1.3-9.5-3.8c-2.8-2.5-4.7-5.8-5.7-10c-0.3-1.5-0.5-3-0.5-4.5c0-3.8,1-7.2,3.1-10.1c2-2.9,4.8-4.7,8.1-5.5
		c0.9-0.2,1.9-0.3,2.8-0.3c1.8,0,3.4,0.4,4.9,1.2c0.7-1.7,1.9-2.7,3.8-3.2c0.6-0.1,1.2-0.2,1.7-0.2c2.5,0,4.2,1.9,5.1,5.6l4.6,19.7
		c0.3,1.2,0.4,2.2,0.4,3C222.1,136,220.7,137.6,218,138.2z M198.7,123c0,0.8,0.1,1.5,0.2,2.3c0.4,1.6,1.1,3,2,4
		c1,1.1,2.1,1.6,3.4,1.6c1.5,0,2.6-0.6,3.4-1.8c0.8-1,1.1-2.3,1.1-3.9c0-0.7-0.1-1.5-0.3-2.3c-0.4-1.7-1.1-3-2-4.1
		c-1-1.1-2.1-1.6-3.4-1.6c-1.5,0-2.6,0.6-3.4,1.7C199.1,120.1,198.7,121.4,198.7,123z"/>
	<path class="st1" d="M237.2,141c-1.2,0.3-2.5,0.4-4,0.4c-2.4,0-4.6-0.4-6.5-1.2c-2.6-1-3.9-2.6-3.9-4.7c0-1.1,0.3-2.1,0.9-3.1
		c0.7-1.1,1.6-1.8,2.9-2.1c0.5-0.1,1-0.2,1.5-0.2c0.8,0,1.8,0.2,3.1,0.6c1.3,0.4,2.3,0.6,3,0.6c0.4,0,0.8-0.1,1.3-0.2
		c1.2-0.3,1.7-0.7,1.6-1.3c-0.1-0.3-1.4-0.6-4-1c-3.2-0.4-5.7-1-7.5-1.8c-2.8-1.3-4.6-3.4-5.2-6.3c-0.2-0.9-0.3-1.7-0.3-2.6
		c0-3.4,1.5-6.2,4.4-8.4c2.7-2,5.7-3,9.3-3c2.4,0,4.4,0.4,6.1,1.3c2.3,1.1,3.4,2.7,3.4,4.8c0,1.3-0.4,2.5-1.3,3.5
		c-0.9,1-1.9,1.5-3.2,1.5c-0.6,0-1.5-0.1-2.8-0.4c-1.3-0.3-2.3-0.4-3-0.4c-0.9,0-1.5,0.2-1.9,0.5c-0.3,0.2-0.4,0.5-0.3,0.8
		c0.1,0.3,1.4,0.7,4,1c3.2,0.4,5.7,1,7.5,1.8c2.8,1.4,4.6,3.4,5.2,6.2c0.2,0.8,0.3,1.6,0.3,2.4c0,2.7-1,5.1-2.9,7.1
		C243,138.8,240.5,140.2,237.2,141z"/>
	<path class="st1" d="M263,119l-0.9-0.2l-3.9,17c-0.3,1.4-1,2.6-2,3.4c-1,0.9-2.1,1.3-3.5,1.3c-0.4,0-0.9,0-1.3-0.1
		c-1.3-0.3-2.3-1-3.1-2c-0.8-1-1.1-2.2-1.1-3.5c0-0.5,0.1-1.1,0.2-1.6l4-17.1l-0.4-0.1c-2.6-0.6-3.9-2.2-3.9-4.7
		c0-0.5,0.1-0.9,0.2-1.4c0.3-1.2,0.8-2.1,1.7-2.8c0.9-0.7,1.9-1.1,3-1.1c0.4,0,0.8,0,1.2,0.1l0.4,0.1l0.8-3.4c0.3-1.4,1-2.5,2-3.4
		c1-0.9,2.1-1.3,3.4-1.3c0.4,0,0.9,0.1,1.3,0.2c1.3,0.3,2.4,0.9,3.1,1.9c0.7,1,1.1,2.2,1.1,3.5c0,0.5-0.1,1.1-0.2,1.6l-0.8,3.4
		l0.9,0.2c2.8,0.6,4.2,2.2,4.2,4.7c0,0.4,0,0.9-0.1,1.4c-0.6,2.6-2.2,3.9-4.8,3.9C264,119.2,263.5,119.1,263,119z"/>
	<path class="st1" d="M295,124.4l-14.7,5.1c1,1,2.3,1.5,3.8,1.5c0.9,0,1.8-0.2,2.7-0.5c1.3-0.5,2.7-1.5,4.2-3.2
		c1.5-1.7,2.7-2.7,3.5-3c0.5-0.2,0.9-0.2,1.4-0.2c1.3,0,2.5,0.5,3.5,1.4c1,0.9,1.5,2.1,1.5,3.4c0,2.1-1.3,4.3-3.9,6.7
		c-2.3,2.2-4.9,3.7-7.6,4.7c-2,0.7-3.9,1-5.9,1c-3.5,0-6.7-1.1-9.5-3.2c-2.8-2.1-4.8-5-6.1-8.6c-0.7-1.9-1-3.9-1-6
		c0-3.5,0.9-6.6,2.7-9.4c1.9-3,4.6-5,7.9-6.1c1.7-0.6,3.4-0.9,5.1-0.9c3.5,0,6.7,1.1,9.7,3.4c2.8,2.1,4.8,4.6,5.8,7.7
		c0.3,0.8,0.4,1.5,0.4,2.2C298.4,122.2,297.3,123.6,295,124.4z M280.6,117c-2.2,0.8-3.3,2.4-3.4,4.8l8.9-3.1c-1-1.3-2.3-2-3.8-2
		C281.8,116.7,281.2,116.8,280.6,117z"/>
	<path class="st1" d="M321.8,141c-1.6-0.1-2.9-0.8-3.8-2c-0.9-1.2-1.3-2.7-1.2-4.4l2.4-34.9c0.1-1.7,0.7-3.1,1.8-4.2
		c1.1-1.1,2.5-1.5,4.1-1.4c1.6,0.1,2.9,0.8,3.8,2c0.9,1.2,1.3,2.7,1.2,4.4l-2.4,34.9c-0.1,1.7-0.7,3.1-1.8,4.2
		C324.8,140.6,323.4,141.1,321.8,141z"/>
	<path class="st1" d="M358.8,138.2c-0.5,0.1-1,0.2-1.5,0.2c-1.3,0-2.4-0.5-3.4-1.5c-1.6,2.2-3.8,3.7-6.5,4.3
		c-1.1,0.3-2.2,0.4-3.3,0.4c-3.6,0-6.7-1.3-9.5-3.8c-2.8-2.5-4.7-5.8-5.7-10c-0.3-1.5-0.5-3-0.5-4.5c0-3.8,1-7.2,3.1-10.1
		c2-2.9,4.8-4.7,8.1-5.5c0.9-0.2,1.9-0.3,2.8-0.3c1.8,0,3.4,0.4,4.9,1.2c0.7-1.7,1.9-2.7,3.8-3.2c0.6-0.1,1.2-0.2,1.7-0.2
		c2.5,0,4.2,1.9,5.1,5.6l4.6,19.7c0.3,1.2,0.4,2.2,0.4,3C362.9,136,361.5,137.6,358.8,138.2z M339.5,123c0,0.8,0.1,1.5,0.2,2.3
		c0.4,1.6,1.1,3,2,4c1,1.1,2.1,1.6,3.4,1.6c1.5,0,2.6-0.6,3.4-1.8c0.8-1,1.1-2.3,1.1-3.9c0-0.7-0.1-1.5-0.3-2.3
		c-0.4-1.7-1.1-3-2-4.1c-1-1.1-2.1-1.6-3.4-1.6c-1.5,0-2.6,0.6-3.4,1.7C339.9,120.1,339.5,121.4,339.5,123z"/>
	<path class="st1" d="M395.3,141.4c-2.1-0.2-4.1-0.9-5.9-2.1l-0.6,7.3c-0.2,1.7-0.8,3.1-1.9,4.1c-1.1,1-2.5,1.5-4.1,1.3
		c-1.6-0.1-2.9-0.8-3.8-2c-0.9-1.2-1.3-2.7-1.2-4.4l3-33.7c0.2-1.7,0.8-3.1,1.9-4.1c1.1-1,2.5-1.5,4.1-1.4c2,0.2,3.4,1.1,4.3,2.6
		c2.1-1.5,4.6-2.1,7.6-1.9c4.3,0.4,7.6,2.3,10,5.8c2.1,3.1,3.1,6.8,3.1,11c0,4.8-1.5,9-4.4,12.5
		C404.1,140.2,400.1,141.8,395.3,141.4z M396.4,117.3c-1.6-0.2-2.8,0.4-3.8,1.5c-1,1.2-1.6,2.7-1.7,4.7c-0.2,2,0.1,3.7,0.9,5.1
		c0.8,1.4,1.9,2.2,3.4,2.4c1.5,0.1,2.7-0.5,3.8-1.7c1-1.3,1.6-2.8,1.8-4.7c0.2-1.9-0.2-3.6-1-5C399,118.2,397.9,117.4,396.4,117.3z"
		/>
	<path class="st1" d="M417.6,107c-1.6,0.1-3.1-0.4-4.3-1.6c-1.3-1.2-1.9-2.6-2-4.2c-0.1-1.6,0.5-3,1.6-4.2s2.5-1.9,4.1-2
		c1.6-0.1,3,0.4,4.3,1.5c1.3,1.1,1.9,2.5,2,4.1c0.1,1.7-0.4,3.1-1.5,4.4C420.6,106.3,419.2,106.9,417.6,107z M419.3,141
		c-1.6,0.1-3-0.4-4.1-1.5s-1.7-2.5-1.7-4.2l-1.1-21.8c-0.1-1.7,0.3-3.1,1.3-4.3c1-1.2,2.3-1.8,3.9-1.9c1.6-0.1,3,0.4,4.1,1.5
		s1.7,2.5,1.7,4.2l1.2,21.8c0.1,1.7-0.4,3.1-1.3,4.3C422.3,140.3,421,140.9,419.3,141z"/>
	<path class="st1" d="M452.3,124.4l-14.7,5.1c1,1,2.3,1.5,3.8,1.5c0.9,0,1.8-0.2,2.7-0.5c1.3-0.5,2.7-1.5,4.2-3.2
		c1.5-1.7,2.7-2.7,3.5-3c0.5-0.2,0.9-0.2,1.4-0.2c1.3,0,2.5,0.5,3.5,1.4c1,0.9,1.5,2.1,1.5,3.4c0,2.1-1.3,4.3-3.9,6.7
		c-2.3,2.2-4.9,3.7-7.6,4.7c-2,0.7-3.9,1-5.9,1c-3.5,0-6.7-1.1-9.5-3.2c-2.8-2.1-4.8-5-6.1-8.6c-0.7-1.9-1-3.9-1-6
		c0-3.5,0.9-6.6,2.7-9.4c1.9-3,4.6-5,7.9-6.1c1.7-0.6,3.4-0.9,5.1-0.9c3.5,0,6.7,1.1,9.7,3.4c2.8,2.1,4.8,4.6,5.8,7.7
		c0.3,0.8,0.4,1.5,0.4,2.2C455.7,122.2,454.6,123.6,452.3,124.4z M437.9,117c-2.2,0.8-3.3,2.4-3.4,4.8l8.9-3.1c-1-1.3-2.3-2-3.8-2
		C439.1,116.7,438.5,116.8,437.9,117z"/>
	<path class="st1" d="M477.3,142.4l-18.5-4.3c-2.5-0.6-3.8-2-3.8-4.2c0-1.4,0.6-2.7,1.8-3.8l14.5-12.9l-6.5-1.5
		c-1.2-0.3-2.1-0.9-2.9-1.7c-0.8-0.9-1.1-1.9-1.1-3c0-0.4,0.1-0.8,0.2-1.3c0.6-2.6,2.2-3.9,4.8-3.9c0.4,0,0.8,0.1,1.3,0.2l18.1,4.2
		c2.2,0.5,3.2,1.7,3.2,3.7c0,0.3,0,0.7-0.1,1.1c-0.3,1.1-0.9,2.1-1.9,3l-14.6,12.9l7.8,1.8c1.2,0.3,2.1,0.8,2.9,1.7
		c0.7,0.9,1.1,1.9,1.1,3.1c0,0.4,0,0.8-0.1,1.3c-0.6,2.6-2.2,3.9-4.8,3.9C478.2,142.5,477.8,142.5,477.3,142.4z"/>
	<path class="st1" d="M515.9,138.2c-0.5,0.1-1,0.2-1.5,0.2c-1.3,0-2.4-0.5-3.4-1.5c-1.6,2.2-3.8,3.7-6.5,4.3
		c-1.1,0.3-2.2,0.4-3.3,0.4c-3.6,0-6.7-1.3-9.5-3.8c-2.8-2.5-4.7-5.8-5.7-10c-0.3-1.5-0.5-3-0.5-4.5c0-3.8,1-7.2,3.1-10.1
		c2-2.9,4.8-4.7,8.1-5.5c0.9-0.2,1.9-0.3,2.8-0.3c1.8,0,3.4,0.4,4.9,1.2c0.7-1.7,1.9-2.7,3.8-3.2c0.6-0.1,1.2-0.2,1.7-0.2
		c2.5,0,4.2,1.9,5.1,5.6l4.6,19.7c0.3,1.2,0.4,2.2,0.4,3C520,136,518.6,137.6,515.9,138.2z M496.6,123c0,0.8,0.1,1.5,0.2,2.3
		c0.4,1.6,1.1,3,2,4c1,1.1,2.1,1.6,3.4,1.6c1.5,0,2.6-0.6,3.4-1.8c0.8-1,1.1-2.3,1.1-3.9c0-0.7-0.1-1.5-0.3-2.3
		c-0.4-1.7-1.1-3-2-4.1c-1-1.1-2.1-1.6-3.4-1.6c-1.5,0-2.6,0.6-3.4,1.7C497,120.1,496.6,121.4,496.6,123z"/>
</g>
</svg>
