<!-- Generator: Adobe Illustrator 24.0.0, SVG Export Plug-In  -->
<svg version="1.1" xmlns="http://www.w3.org/2000/svg" xmlns:xlink="http://www.w3.org/1999/xlink" x="0px" y="0px" width="881.4px"
	 height="763.1px" viewBox="0 0 881.4 763.1" style="enable-background:new 0 0 881.4 763.1;" xml:space="preserve">
<style type="text/css">
	.st0{fill:#CAEDF5;}
	.st1{fill:#1D4677;}
	.st2{fill:#963427;}
	.st3{fill:#143351;}
	.st4{fill:#5B1711;}
</style>
<defs>
</defs>
<g>
	<g>
		<g>
			<g>
				<path class="st0" d="M246.4,277.5c0,0.1-0.1,0.1-0.1,0.2l-0.2-1.3C246.2,276.8,246.3,277.2,246.4,277.5z"/>
				<path class="st0" d="M246.7,279.4c0,0-0.3,0-0.9,0c0.2-0.6,0.4-1.1,0.6-1.7L246.7,279.4z"/>
				<path class="st0" d="M234.7,413.3c-44.4,13.7-84.4,19.5-124.2,27.2c-3.4-15.1-5.6-50.3-7.8-65.7c-10.5-22.6-21-45.2-31.5-67.7
					c-8.9-12.4-18-25.2-19.1-26.9l-20.9-33.6L0.8,217.7c0,0-5.8-17.3,13.4-17.6c19.2-0.3,32,15.9,40.5,28.7c2,3,8.1,9.3,15.6,15.9
					c3-11.7,9.4-36.3,11.5-51.3c0-0.1,0-0.2,0-0.3l-0.5-0.1L99.7,37.2l29,4.2L125,151.5l-0.1,0.7l0.1,0l0-0.7l15.9-126.6l25.9-4.2
					l-2.6,70l10.9-86.5L201,0l-8.8,118.1l10.6-83.7l25.9-4.2l-4,109.4L253.4,76l17.6,3.5l-17.9,161.8l-7,35.1l0.2,1.3
					c-0.2,0.5-0.4,1.1-0.6,1.7c-5.3,16-14,46-20,61.4C223.1,347.7,236,412.9,234.7,413.3z"/>
				<polygon class="st0" points="125,152.1 125,152.1 125,151.5 				"/>
				<polygon class="st0" points="125,152.1 125,152.1 125,151.5 				"/>
			</g>
			<g>
				<polygon class="st1" points="72.6,482.3 80.3,401.4 248,376.7 254.7,478.7 70.7,493.8 				"/>
				<polygon class="st1" points="73,565.9 80.8,485.1 248.5,460.4 255.1,562.4 71.2,577.4 				"/>
				<polygon class="st1" points="71.7,655.1 79.4,574.3 247.1,549.6 253.8,651.6 69.8,666.6 				"/>
				<polygon class="st2" points="65.9,424.3 266.7,395.4 263,358.4 68.1,387.4 				"/>
				<polygon class="st2" points="80.7,661.9 71.8,763.1 259,732.2 245.1,636.8 				"/>
				<polygon class="st3" points="249,479.2 80,493 79.2,501.8 250.2,487.7 				"/>
				<polygon class="st3" points="247.8,563.3 78.8,577.1 78,585.9 249.1,571.8 				"/>
				<polygon class="st2" points="66.4,685.6 267.2,656.7 263.5,619.6 68.6,648.6 				"/>
				<polygon class="st4" points="78.7,683.8 248.4,659.4 251.2,678.6 77,703.6 				"/>
			</g>
		</g>
	</g>
	<g>
		<g>
			<g>
				<path class="st0" d="M653.6,297.9c0,0.1,0.1,0.1,0.1,0.2l0.1-1.3C653.7,297.2,653.7,297.6,653.6,297.9z"/>
				<path class="st0" d="M653.5,299.7c0,0,0.3,0,0.8-0.1c-0.2-0.5-0.4-1-0.6-1.5L653.5,299.7z"/>
				<path class="st0" d="M673.7,429c42.7,7.7,80.8,8.1,118.8,10.5c2.2-15.2,1.9-49.9,3-65.2c8.4-23.4,16.8-46.8,25.2-70.2
					c7.5-13.3,15.3-27,16.2-28.7l17.5-35.5l26.8-32.1c0,0,4.3-17.6-13.8-15.5C849,194.5,838,212,831,225.6
					c-1.7,3.2-7.1,10.1-13.6,17.5c-3.6-11.1-11.3-34.2-14.3-48.6c0-0.1,0-0.2-0.1-0.3l0.4-0.2L775.8,44.2l-27,7.9l10.7,107.1
					l0.1,0.6l-0.1,0l-0.1-0.7L736.1,37.6l-24.7-0.8l7.1,68l-16-83.1L677.9,21L694,135.2l-15.6-80.4l-24.7-0.8l11.1,106.3L633.6,102
					l-16.4,5.7l27.6,155.7l9,33.4l-0.1,1.3c0.2,0.5,0.4,1,0.6,1.5c6.1,14.9,16.3,43.1,23,57.4C680.3,363.5,672.5,428.8,673.7,429z"
					/>
				<polygon class="st0" points="759.6,159.8 759.7,159.8 759.5,159.1 				"/>
				<polygon class="st0" points="759.6,159.8 759.7,159.8 759.5,159.1 				"/>
			</g>
			<g>
				<polygon class="st1" points="831,475.5 818.3,397.5 658.7,395 659.2,495.4 833.5,486.4 				"/>
				<polygon class="st1" points="836.2,557.2 823.5,479.2 663.9,476.7 664.4,577.2 838.7,568.2 				"/>
				<polygon class="st1" points="843.4,644.2 830.7,566.2 671.1,563.7 671.6,664.2 845.9,655.2 				"/>
				<polygon class="st2" points="833.4,418 642.4,415.7 643.3,379 828.9,382.2 				"/>
				<polygon class="st2" points="835.4,651.9 850.5,749.7 672.1,743.6 678.8,648.6 				"/>
				<polygon class="st3" points="664.6,495.2 824.7,486.9 826.1,495.4 664,503.7 				"/>
				<polygon class="st3" points="671.3,577.2 831.5,568.9 832.8,577.4 670.7,585.7 				"/>
				<polygon class="st2" points="850.4,673.2 659.3,670.9 660.3,634.3 845.9,637.4 				"/>
				<polygon class="st4" points="838.7,673.1 677.2,671.1 675.8,690.3 841.6,692.2 				"/>
			</g>
		</g>
	</g>
</g>
</svg>
